<mxfile host="app.diagrams.net" agent="Mozilla/5.0 (X11; Linux x86_64) AppleWebKit/537.36 (KHTML, like Gecko) Chrome/131.0.0.0 Safari/537.36" version="24.8.8">
  <diagram name="Page-1" id="28wKXqSc8elnyDWOqPBR">
    <mxGraphModel dx="1124" dy="729" grid="1" gridSize="10" guides="1" tooltips="1" connect="1" arrows="1" fold="1" page="1" pageScale="1" pageWidth="827" pageHeight="1169" math="0" shadow="0">
      <root>
        <mxCell id="0" />
        <mxCell id="1" parent="0" />
        <mxCell id="0BUKk4QY-ltkbJIT3qkM-26" value="" style="rounded=0;whiteSpace=wrap;html=1;fillColor=#f8cecc;strokeColor=#b85450;" vertex="1" parent="1">
          <mxGeometry x="684" y="453" width="255" height="160" as="geometry" />
        </mxCell>
        <mxCell id="0BUKk4QY-ltkbJIT3qkM-4" value="" style="shape=image;imageAspect=0;aspect=fixed;verticalLabelPosition=bottom;verticalAlign=top;image=data:image/png,iVBORw0KGgoAAAANSUhEUgAAARcAAACuCAYAAAAcYUndAAAABHNCSVQICAgIfAhkiAAAABl0RVh0U29mdHdhcmUAZ25vbWUtc2NyZWVuc2hvdO8Dvz4AAAAqdEVYdENyZWF0aW9uIFRpbWUAVGh1IDEyIERlYyAyMDI0IDIxOjU3OjI5IEdNVOGbLwEAACAASURBVHic5L1XtyTHde/5iyxfx7a3QBtYwpEACXpAoihS0pVG5s4dt2YeZq2ZD3Jf50vMWvdxZta6c6URrwwpkaJIiQRAEB5o2EY32rvjy2bGPPwjKrPyZGZl1jkNcu7staq7TqWLiNyxY+//NmG+/e3/zW5t1UiSMQZrLcY8gLVbQBc4CgSJY2Dt9DWg33SsB4wx5hqwmbh7DWvPAScm1yTJXy8Kpo41GlcYjU4CBugBHwPrwDB1ly7wOFADAqw1pB8Vt5OpY3GfjOvv9LnT45T+LXDXWYzZodHYZjg8AkTAW8BaaqzqwBHg2uSZOvQY1p50Yx0/K27jGGPqWBu3sbhfFljH2tcxZsBu0kMajW1GoxXgBNACTk4dhz4a0xoQArewtosxF4Etd04NOIe1p127/ZhMtzE5fr6d02Np3HiY1O8h8AaNxkXCsE0UnQUeJs0rMfnnj4E3MOa241/xcfysYGq8Yh63KT5tOH5K8lwAPAD0sfahDL4Oabc/pNd7xI3HbkrzYf6xMXDT9dlkXjfNAxb//vL4N83HQTCgVrvHaHQ8u0Fkz4fkMbDU3313i3v3mjm3uAI8CnwKLKGJkDMCapb7WOAScBw4C7yMJpg/ZxMJqwPkM4UhZgw1tt2+Rb+/6n5fAQ4D/4KftDH13TMN8EXX9k7Bs4r6UoWS1yzRal1hMFhGDDFCAjFJTWDg2muQQLzh/q+TP9Y2ccygCZ11zro7vgG8AuwQv4fd57daGwwGgWvnt9AY49o0cv342N2nDjSAbSTcI/esJnAIWHbHq46hp6zxt0gQr9FsbjAeh0RRgPiohhdIMSX/DoFHgKuuH0lqAM8igRqhyXsZvZcsMsQC17f1Q8TvFmijcdCzjQlZWLBsbS1n9KkKhcA9YBGNcdFc9OdfRHxQT/w2Ip8PIAiGNBp3GQy2526pMZZ6FEEUJZk1SQ+hTnSBj9z3esZ5sJsZvkDMlEmKkLC6Arzg7gl6KckXtptZxuMmUeR/889KM4p/xtCd8657xpM5fcyitGArS8n2BoRhgygaI8bbyGnn2F1zEGkKq3iNq/g5ZX67jjSmMRIIOUuNozAMHC9Y9N58f/ykGSMN5RpaqR8H/gm4lXj+IbRwwO7JXpaKBHsNiFxbDVHkNaks4ZKmfMEaC8YaEjQBcKHg/Kz71oB/RcLlReK5EjAetxO8Oy9tAW+isU/P2az7WsT/jyLBGiLB+VMkOLP5wdoxQbBNFN2bu6XG2FxJ4egqkuarSNBkvXDfyawVYxutdOmX6if/O8Qq7W2mzadjwGmkcRggYjg8jiZJsn138rqHBrRDPFHK0rxMkLwmYDg8hgTpB+wWsqDJeh31fxl4HzHm+QrPtGg8axm/WcSQYam2D4dLiT74Fc5rUJG71zrwDSQMm8BjSHB23P8t97kfgsUgLWWV0WjDPb9VcM2YeFx6wNvs5kWTOL7kzm8yX9v7SJu+icbPTy9Dr/dkThuTlJzsJvW7/4yR0DtCrL34xbABtMCMkHZzC+zz6N2ccNcfQu/wFXbDCe5pNmA4XKRIu5lNM4XLGnGH8zSEAWK6BmI4bxb5ieNXZhLHfKOvI+0GdmsuV9Agfhe97AtIkNxMnB+SP3EC155D7tyy6ug85hBkTyZvkhwkxlXyyCKGeQ34CtmmThaN0PgkKUKC6l2qMUhsgkpw30Sr5AGkAV0GFtAkbBO//yNoIm0DZ9ibcC66zqJFaA29o6NoASnSckA8+B7in/R41IAHEZ94HjbEGFJZ6iBNruuuTT7HOHwt3Zc0jdCE91pUw91nDc2VTbS4hsBPiDXcFTBPgzkBxlsCBliAKAKbXFybiL+uA5/ktAPme3/T188QLv4h3q715AXEXaR9DBFzHQCeQUz2LhoMP8kPu889ZCYM2C1QkhS6+/zUteEe8WpchkKkNS2Tj0tk0byDmoUPbKEXOKRcu4+icSzbRxADpmkIvEqR6ltMEfAZGoubSJCsEWucXlOxaHGou/MtmlxDpFFUIW/WFFGIsLxtYvzlHeBLTAvYJF9ZZLa9z+6FqIbG/Iz77s1BqL5qD5AAXkU4XxFeNnbt3ki1c+A+ARJ4X0Fjv4qE/BBhjLcSbT0OtT9B+FhaONfABDARbDb+vczU3wuZ9qwnhGhyeHDO/7aDVH0/4U+gAThEDIp1EUM+hGzYhcT1DWQ7zlLXQyTAoPoksWil+iUyvU4Wnw7sTZXPu66MQIyQpvYAmiQ77NZG8ijruQF6DwNiPKKsgPPkJ+gO03jNDvAzYi31cuJcb94eqfAc395Z424RP31EPPEjBFh687npfnuNWNO2iIfS4Kw3sc4zreHcRYvSDapRw93Laz5Z7d8hFh4nEZblj33o2rgCfN31xXvtkgLoAdfHEQRX0FivkKu9GQPGgh0g02/RHfDXlDGZq5KBxtdnCReLtI8NJEEtmgR+4JfQID2MBsGvPt47s4EGY5G48wHwBBrIi8QaTFEb5qURsi83iLWCJKWZYC9IfhZlqeF5NESYwBAJ5r2QV/U7iKGOoZX70znulR5/r5F5T0KUOua9XVXA8zLn9pFpnMYJtoAfE2vXDaTdJNudpSEb4slL6tx1qmsuh4idH+n7eWq6NtaJFx1/3ONzT7nvSYA6pY2Aa/ejzu87y5S0yAzquuc23HM+QvM7Cw/cI4VXy+hGQ+B1pr0zR5GL+SjqrHc5+nMM6sjDaFVJg70d4KtoEN9Ak7+KyVOFvHdqmVh78tR1bR65PpQ1ndKU9XIjtIqX7ZPXtNo596tCAfAcGufI/d1DWsZeQDpPeeZskZmbRWW9chFa9fOcA97F78H+WW1w4Kfpgk082wTQWQH7APQ3wWYDntl0HWkRZ1F/QmJtpY/mwQLTi2yU6I8TFrQphfsZQ25gzITGYD8BThE7RvyzDwP/DlkgP6Xa/Etic1kkk62EcLFMrxaHkJmzyDRT+DgH/1sdaShZ6r0HrM4jSX4ZrTZVJmMVGjAtID0tu3YO0Cr2MOVs/yRlnR8Rg9VV+3Os4vOzKGmm7KB3dQSZrncLrvu8qaw59CnCV2ap8CXG2tSgdRpGh8EupS4xsHgUGsfh9l0Yfga2rDAOEc64hITdB8ROh1PAOXbzX5aHte/MmKI+UIJF3LyNXgJ+F/F3mLiwhube44hHfk08z1OCy4+BCcDUoX1M3wd3IOy546kG262qqE4NMX83p3feLW0RwLdC7JbMu99hYq/OP5LtldorpQWkp6QdvkWsKiddsvM86xZy9aWD5spQUfBc3vOyyGstTXfOKnpvn4dwKSNQy8YReefBBfaODwTQeQhWvwtbm7CZEv6NNrSWNHFWX4D1n8PwKkRlNBgPyP6SaX4LyH+nXkr4eVODYFUCMOl9Tl9SynoPwf4ama+jxI2S8TEGLbDfRHzh8KxGFzrHJGDCELYv6dwDT8Lyo7DgBGXvM9i4AHdfgyg1b6PbVYSLB8C+QL75kFSX2pSfpN6teBSt+PuhulelAcI8rqGAOw9YFrU/67i32bPC7MtQ2nSbRd7N6AF3PxHPu7Z8jGJRPkVje79pBy0spyj2SJTFtwyxJ2QvZLTqLj0PjQOw2IXNW0wJrEbHrc4BtM9C4wjc/ivoF7lsk+QFTJq2Cq5PgqrehDX5lkepYXDmmHkUzBrYd4kXz9PEplcyRiYhcLon4dyfgmnAYBPe/9+lrRz9NrQOMBGIiw9A75KuN0FKy4vmES5FgiUpEQ+7TpSkehdW/wLMRdh8E9pHoPcpjNbAWrD3A9VOk3+TnyAp/hz5Xpu8JcQgE6TBfAJmqeL5TaTtRYhJ15BAGQNPIzftAAmWz2MMQakXDaQFZsX+7DdwXoaMBEbrlL6HY6ZmrjHQTgoxA6YJ3cdg8Oke+M+bRjeRdyhrPLwb3Gsx7nvyUPL0QorAvg/Rz9yE30AC/3V3/CDSVv4A8ZoXiLeg3oZaCzqH43YFHXjw30LnKNQSuE00hnAdls7q/MEa3H4NWodgcBfCymbRas7vSYaxSBXzEs4fzxuVhA24sAy1Z6D7CLAJq0+B7UO0A1f+FqL7gGpPkQdV7xBH9ibjSNI2chZF7vp5zbs3kKcnCY7PIh+XcsX9v42EzF3ETGsUB0ztF1ni2I07TE+msuBt0T33SMNrEhJhBPc+hWTiYmsFOqvTWIOpQ72M1uQBWO8V9UICpMVeQyb498nHIA0CYC9L40g+s/SQOUFmX0PRuVHid//9lmuL50+Pfx6BQ0fg0BPQWIagJbC71oLFs64NiYbUG9A4hPgLCAfQPQP9W9A5AeF2FeFikev4FLtxlLTwGCZ+q8BQFtmb9UWoLUBgneTuSSL2Pg+13jPFAAGyy6i/IZL0ftJ7EMv30f89QJN8npXOu/7fcM96kN1Bcp6RvQrdR5PvdQSI+3b4JMOPqe7F2QsN0UtLaq3zChZP+yQYOw9J1R9vw7g3fc9mJ8P7EkGYl7zoqYFMjZPEaQP+PiP0XrYQX4zd+UmbJ9mvARJEj1Tr1+RemxD9Cuwl8r0/1rXrBjLBXSSw+Qa0BtA6AkEQn5o00TxNnFmJvpo2NA9KsJgAbFhVuNxFwW9fIt+rEiB1uCIwGVrY6MPBBSf4jT4RYFqw8pSk4udiHoEe/Dpihq8jNP0UMQD9IXpJh9xvl9Akdyrm3GQR9tNAXrTkJK0hdH81ce468HN2h5yT8ffnScl4j70IluSqu0fqXwQ7gnEGQLt1C7qHoLUAGPHZ6CZs/LyA5wziiYfIng91hN/dQfzxvvvbT7tttBBZYBmC4/hSCtXIgonAfOi8Q7M0/D7wQ+B/ZGJh2OMwSLnAs2RTllVr0VytJ8wmE1Q1i3wk6WE0mD4EvIkY3oNTSZ96SbIWtgaw1IZmLfZsR1amUdCUzTeumvMxL3lbOQJ+gYTGDlpFTxPnTW0hITQgjm3Yj2cPiUPwPXn3vteYvMu7kXpu0gvxeWksSbLIUzZgLl6Yuo/PH9trPyxEfQh3oLUIQR2ihNBYPApBLXar9i/C5q9glLVQeFNiFS00eQut98YsuP/fQabTsvu/D8alSgSPUBhpm0tOkKysw/N1+LEpAfVZPZtfAb/HBEft2Vghnqp1k7o063bpc22lBIOAOLz6FWKGHqPbfAExUpnszxwKLfSGDrV3jzIRjHaktZi0Pft5kH8RoBc5QjEMnq58Ds/35APzQKteiIRLcqXykaqnkRm7T3hFJYqAlxCw/ftz3sMHoL3BfPFCGfeLxrDxLoSHIBxOH9u6ATt3BOo2NmDrlzC6nXGfAGllT1JeGNTcNQ2UGxQAh8A8CcH3mT94E3zRLg68DM9/C35Wh+GwxHD5hWmbiYdyDEQ1CZb+PaAFjcXdlya92f7vDCopXLw78Lvu7zWkvfRQduYGMpeeLHe7PEpqL8a4hWsM21eg8xQM+zB+m9wSWOk2t4/oYyPY+qSE/TwPmbit911TCBFzdoiTEpOgHciM+hJaUY8D/8D9iR2aRUMkFC4gbavKguPd2W8jXtsPU7gBPA5bhkyBG4X6bN0E8ybYO7vPmcRBPUJx/Faa2hCcBY5B9JfACMwymMeZ33NmFcdiPwRzFZrHoB7AgSXoDRSfMut61tEcdtplz8KVa7B0C9Y+gIPPQOOR6X7aMUT12fLQlBIuNaTGPYwkXDItfQn4Msrt8IDnHuMRhiHsDGGh5ey7Jix9UXZv82Cc0gLSZNrHBNKFOzDa0HnWQn0BTnxXvngbwtUfwfp7QrX3TEZIef2A2td6ELCw+TKM7nL/BUyRadhHAugI+4pXzEUhKt3wEPlpDd4E9O8lQhndl4nN0r2S1xy8CVP0fizYE2TjZs6rUkmwGDCrYA6g+dNGwuUUcbGwZFKwi6q298AcJDvPzHuFPgHrUiKMhVffg4cfgNtr0CsjkL1p9DBwRvPm3tuw8ymc/F1YOLO7n8kAvxlDUEK4LAPfQwPjxVXSE3QQDZgv1bhHiqxchRNyaPVoDTZfj/nCBEK2T/+FOjwOFYrcuwK3fwLdB6B7DmwAJoTDX4WtS/sjXIIuLH0NFp50HgbnvRnegNE9fjM4hyefa3PZ/f2bbItFwuUNpNX6AMEN4uJGA1Rr5f3ENUV1eqpSE/Hoo5RT1C3y2KQxrA5Kwp1V6jVNPljFwQrmMbC/gujnwCsQ/DmYM+7RN8EchehfwL7lzKZvE9dB8ljWCOyW8wq5xfS9i/D+JX0PywrkEGmHF4E/UVvtBzDcht4dWDyf0x8LkZmpvcwY7RqK9OwyfadkHtGqO+ed2X0pS5GVJPYv0VoIt6C2DKN11/IlOPodqLVh5xq0z0B9GbYvyo19+EUJFnDv5C7UuqhMxB7I1GHhCxIsQTJmIYDmUXZHKu4npfEmL9gsepW+tML9SgKdh3yhpg1kVhsEircRLvSRO34/YphqyCTzpUNnCQWPaa0zPX5tVKNlkWr4iBMsxnmgCMA8AvYNYhzvHhqHGhin+ZsTYN8G+xpER1A4Qc/BAfeIy2ckymiEUQWh4skL8i3gB0zwRbsCd8ZQvwNLq1Cvu0XUanEebUJjCWzTsV92HFu9mAl9dfqsKlp+8lvya1jMSYNx7L2MUMeaR91kds+sd2USUYON92DUg8VHdcGR78hk8VomAXTOQ/MD6PmKcPMIAAMLT8Py1yFIxZ/YCBr7kXSY8cyJAFkirkQWIBzsHHHB8y7COd4jv7j0b4IMigMZIZPiaffbFmrn/RLG3jNTNhl1gFzGY+LIZz/OHXdOCXvAk2mBOQ3Gg6IWzBFiAeWFhXeKuPPMI2AugH0P7D8jLOB+LhgRcRHvw2AfhmELrlyG9m04egKWlgUv3HkD7vxKkbkHnhYUsXRei/yEJB/qxkQEQYi1BmuTUrmBGPcQ+WTRC/mIfe342Gdh4naxCGHzLaUDeEb0cIJpwuHvyDQyDVj9lg7aZPKXhe3PwHRg4Sl5AYZz5DCZBjRPSIOaArmGsPUGbL/N/sfhtNHE3EAV+a+hPKEGKnDuwwH86nEcTeBX+PzC/cuQIa6y5/msTVwu836QDxY7Sly3xZJdGhT32xmEt3g3+ioxXjRhOsrVw206weLKetjb4hVaTBaJ6D2oPc80jlMjnndZhd3vB/mtZM4zwYCiCHa24cqncOI09HZg0IGV56C9oITOWltzb0IWwxBDSL3R2KTRqBFFDUYjP2mWgK8hZDyrjKInX3bQl93bJ7JWplFg9H28ARuvoFqgjqIRDNegs6T4Fx9w5+tzpJvTuwK04OALMLoDd37gXI15jJ2xOi087nCWJGNZGN6EtZ9ANKvwVVUKEGM/Sxz1ugScdcd9DEmyrQYBqBfYveVKEZlEv/z9on0y8UaoOlwDTdbDiedkeWX2i/pIqzvh/vbCwXs70wLCZ+n7WrVn3e/JiW8Tn6LgwGvCVuyq01aGEDkczBwH68uG9sDeSphOIMF2v8qPZJHXLH0wYIpGY/jsUyabHDVPQuMgtDtQd97SyZ3GNKJPCRhQHw5XGA6bWNtA5RRWiCvv52X9RkiifoQAO9hbsFSKIgvb96CxozDtzVcF6GIgaEOwqIk87jnZYIq9wDaA5W+5BT6Q9nHoDxUktfNehrZhoH1KwgQDvY+lIS09rZwKSMkkPwn3kxnaCAQ9Tlziwqtyfg+mrPH2xa9maC2mBp1HJZgNGoPOg8Kr/Eo0uAb3fqb4kMYKjDfdWFXtp48Vegcx8FXicp5ZsST7SQ+iDoaIZ1eQkOuhcfXlCJKh+4eJQ+PzzKCkJy4ZtOiPXUdC7JcQvKjnh/5YMjRgANHfQ/Cn8ioxdnjLJ3vveilqonFwuE9eX6NE3+7cgN42nDijudWo42PQrG0w5GGMjajrhxpKy/8S0xtZJd1knjZQKPw6shcDZEMfY7aqWIaMHnv7Iz3HWLUhWIT6Eeh+DYIQRu9B89RsjdpjVtTicTNGBYNsKPMoaCh6M+prIgUtWPmqEiiNgeUvuuua8eru+RWjtnUfgZ33p7WruamD3kVeWHmyc76amcfF7qGI4rwNrdxEaJ+FA9+LhUsApHdHbB6VUI9GGo/RLbj7EwmZygLGg6VJQP1+u8otStM4h4TFovvNp094YZ3W/pYoF1ZhM/7fQdr8OjJ73gHTheAJqB0BewWi64lrIuCu4l/MeeCGvEY5237sPzWJ8+cK+msM1Oqaj6MB9Dbh0gVYaMDqETA96BwXzuQcKY4jl5CrrpO4m1f7SP3mXVe+qtUBFFTkc4mSe8VUpQmXQ/QgLB5CORNNvYPGUai3gLvQek4u4SJKVhHcRYHqdRx4AbpnwYTQv6TqWsECdB9SiDhGHqKspvrFqnEAVn8Hxusw8Lkie6EnkO1b5MwbIwa8jcxSv//TRYQzZHTcNFVywNRg9UUliPp3PHHxE/NY0IVD39NB24DaQeheg623lalemdKr9v0mi/LhhsR79yT3+kniP0nK0tb970lBkvzuNaCbYFzZVuMW6ug1CRlAhbIH7B7wQ2CPoXfXYWYMvwmgtqj/wx1XMaAK3yXDSWZEGpttaLoiWoMdqNUU3DoMJWi2dqD2EZx8UYmLbvzqsrW8OZR+eHqjrVsoctKrxgvE2s5eKSFYAKIWjEautkTdSU3vKTro5l2KCdLvfeZYR7DwqDQXY2DxKej6izIGO/f+RiBvfRUGV8s8uIAC4mLnRdRHZuktlILwkdrBgGyJGkiwHPqv5HUzTXYlqSX5ffKlER83TVh5QR6C/gf7hMfcb4oQhuJrPye1lRKCzoRgd5Dp4L1HfiM+r4V5bwtK3us+olCJ5mlhgMPrsP7TnIp2Bi3OTyJT+Otojr1MvnveQOs4HPtDCbDNt+Huv1Z0JtSJdz7w+69nkXUafo9JTeEo8d6t1TwN64ojqx9QDRg94VHKBcBZ5DpMVtXy+0fvB2X4yq1BiHtioo0uQ3AY6O4WIFV5vbYUg1HWPy/ZhsRsK9SCkFQ3ZbcDyb0JwlgeYPb78Ezh3ZRZUbuJe5gGdB8X08+6d65sNGKcA9+BW3dycm/uN2W9nzIUMV2Brehao9U5qMHyCmxvuHD6TQjXnFmTAUSbOix9GQ64wLfIYYGtkwqw3H4r57k+oLDuPr7Uak5JUmOgsQpNN/dax5muaDeLAsQ7vm5QET9ETOaap12Lipun1MG0JzBVXatkl3IvqupeLmUpY1I3xwJekyu4BWo+3oW9m+vGFI+r9f+YzzGKfpVy24kOUamFdMCX1wB9veNDwAeylffFTe6F8W8gX8kE0loDtzfW6E6ONjB1ERIqPhPZe9CWs08ParByDBZWoNGEjdvCpY6dAYYKh9hYg36GYDUBLH2JSYj85Pc6LD/vhEuaIhSdfBQtKl4zKrkJ/GhNYRqVGNSXRUlrx8nte6F0NroxsPQALD5Ekm/rsdTZJs7ByLO//LneZvT2Y6vgmpktY7f0NDIxTC1OAZ+AsaXsnXIUjYGRCwDKmMzGaPUp896iIYz3EvpvkBZ4jtkmUUCclvFLFPviwfeH3adNvF3KFxzcsVLs/Eh+95/JuLuPtdKC6iswnuXq9hu749q3V7C7Dof/UEC+3YH1X8L6KxS/IJewOKmMuEihOWSt8ITmIvQ2oL0KK6echtuCxSegeRhu/a0A7rRwm6qa7/6xdgZbeLD7AXdRb3YbBzehd1m821ilGt9Z4uhek/htE+E9vrh7hXsGDaXfmIaq1zHZK9rjLX6vWr8XUZIM8ZYiv3LnrqFaJkvI21R1i8g0rpNBE+0Bxb1EPYgCpYbvIaFU/49kr658KRu0nWUKJe9F4AC8eckgTeMIcaW5rHN8tO5dpOV8C2mUHrQ8zu5CXS4Qe8dCcwjd1EZghW781P/RJmz+3AUhFlHLte2o+/smKlXht32dh6xKJYw3xMxBZ8b5XmAvEzOLXyDzHmFhPJDrteO8SlMV6mpyLBz5c7j1lw5j84GdkRJXg0Um8VbjNehfhn5RoGnSdX0AvUcfaJdz/vAuXP8r9SsaUK5SQPJ5t5iGNAzxZm0VybogV3vUvZcmNBaS0qDmbnwVdew40xPfSW7Oo/ByvyvdR+jFHSHeTa4M+YlS2GowQzF04J5fa2oSey9mehWeZeYkq1NagBoMN5y6nThvloIUpc6x3m6eZc8XkR+TZKJakrwKN0CJiYvEUaXJ63IEU2SUcd6uuo+zIxvCzgXYeWeGOVJDq/CTxBP5GFqQvJY15/Nv/6UWguYph/kUjXXXtaPKomdhNJT3pVaf/DTlOSbQZG6dgnBTwg4r4XLzr+HQH8vjWFuE7XdmVLPzD7iXaOdhJGCKPHLRHgunLbjOJOd4h9lac4qMA8aj67BxhckEDCaaix85HwW6jQBCD/4lZ2wHrQQOHZ8EkvwrWqlmrSZTLcs/NBporMMPYPwxtM5BsAq1U7Jts+Ze0ru2i2wCtPXXtqH1mBilihaYNX9NIIbvv78HL8qIbImZpiYyfZJBXulPmpmDvVuTdgyDj5xgybuZQRP620xjRzUkBC+xe7vVshS5KOgB9HzBrqJ2+Ek6azxT1xlDHPGd9Rgjr8jqdyRE1n/qMKhI4Qi3/qMWwPYZhSaUchNHSMD4Os374YEtetYnSMD4MhTgJhzxIjZjoQwaqj3cfQCVkEicG94mJZp9FTOPqwyQ9PeYSkBc7jFJxp3nt8XIM+ynWlZ8ONqBwUuqSrf8h1BruP4W3LfosTaSCttIbi9rwLhYmbQQL2xb1o8BdL8Iw0vQu0D1yWPRC38MgbBZ6L/voMdcshqVZAxPib/HY3k+zAiMC5ya1dTJcNVlEvQ/KTg5QKZQOpnVa7fHiDev3wvNut6PUVaslptApubipozMrSgSny0cZhJblUuub7t2B7Ay3ekVeIfyyHtiW6g277wV+Mpoz0Nkpn6R6Qhwrz15yCJdjMxrJnU4cE67JmTuV30uOfLJUOYF4oi9d5HP/RcIxb6LgB//sAAJlaNI2papxZHVmBRF62BvqBBTBj79CwAAIABJREFUvSmzaObeuGRrNBZNqnpB1rLnuTILTN45QRPajzIfGORBtiJzo0rjaolPoj3jSGMRhUy2OopmfCY1mxzDlXkPv3HqML29je/IGKUhbEB7E449Dsefgs4BmUEHHoCl40znj2WRheEtFQjLlUJVcRCfTGtc22cEiWaSkWAsFVqyjQRMEc95pSLJSwE0l/VJR3VPmjFVoDvtzmwhDeYJhF73UIWwO4nGBChE/Rl3bjrxLY9mHA9GsNiB7p+pXVV42QuJpPyKQJOiIGjMJH6bWojczUwwW/jYMfQ/ZMaSV0At9pYl7K+bUWLA1vSsqrxvjbSz0Q2ZR5k4QoSSJn0l+yR+tI4iiPeqtcyiAOXK+Cxsn3awiDSqu2rLoAbbq7D0LBw4I+02qO/mkzR5QVs7Cs0HtR/SnskQa6yB+95FVkKyEb5uT1YEbwCts7D8Itz9T9q0rHCsXf1dVpHJWmGiDTZV27qV3jN+qjXphyXJq0YLqLNehfKXBSgQJw0EFXUoDxRxUiHYgeUQFk8ovqBWdXvTxO2S3h5Tj5/rBZA/nmxuhNTjcEuBT1uvwtZr0Ls4HZmY99Bom/kmT9IlPwtNziO/F0/OtQYJ7dqc6RmRgWAZVv4AWtMxDTFZpNn+nBi8vYpW5b/h/mf7enfzSWLT8rpri0GTKUIJgz3Y+JlywgLkLKAWK995n8kQB1Dzu17shQK0qCRNyQbwPDLt2mjx7iCHygsoTiWloRgDjcPyUAV5ZUXT5DWYOcz4GdpdCkYvAscM8abVvybOZk2rbiOU3JiVyFjkIXJvbLEL3eWZDb9vZEPtf7vxTxDedbEwVm7PI/+zq+WSd+14hldgFqVMmN0PoBhY8iHqvl6JPz+hztZ9AqcPIKpIUQBmUeZf/0Pyl/a7wI+Ab6BwhRvEgPX9JL/gpfEeizSq5IpjlZdz928g+HNonKGyt8SmtoWtTF4YfofpZMkakmR/gCyFa8T7b/tavu+iEqKp5zcfgIU+rP+wRNOSLtQKba419MnjxSjTR1fEvH4gvomkXZ+4CM848fcOsc8+B1jc9cwNMLdlL5qnCzq2D+RlXBIf9e0YXZNKGfWYmgg2qd7njM/wmlNF523UCeLxzKMi5Nmg93IHYWDvM6lSZ9yWLwaB5eNb0KyoCgPSzmYB9l77ug38NfNpYvO49L1DIqkB1FBg4pA4JyhJEUR9WPtnWGkoH6jsmFgLvfeITZl5BKdBWtYS09PREG+H22Hac+stitTktlbxR83r2t+69PPzIvSHrk2JRciDt+0VmZCTZydu4f6vKFx8Y+oo8C6Z7OgH1///OlLr0mZNzkpnrkHwOtReLHj2nJSGk6Bg0Y6IN3ZP3sOKCYs0l+YJqB9W7MNclHqRmTRLe1lhUmGeW2jFuwO1RyCqCzcxBmoHyjdrgk1FYtqgAeOkx9Dd0xhotLSiDXswnkNTMTW5dwmkFUQ7Je/hHRGPE8fW+LHaojhmxMLourRUG5IZUJlxCZGBhRfB9mHzR8o7mot6aGFOFowi8d0LE1LHFondxwARDC/D2k3KFy7z90nDGl7DGzIdv1VX9PKCrxdNtuJjqofUzmikB3V9wFSfaeDJS/gF15o+GAutANpHoflnmpyVV9MMSkrSNG9meWt9HxqnoXHCSf7EiNmRwvsbBdXfTVMr3+Ai1Vddi7CJx9HLLhqDWdpLG2lAXwb+EcxhaDTANvS/aZbX/j0+5Z/bfwsGfu8oN7CtDnSW4cgZOPkYrB6HS2/CWz+GUZVavkaA5OqfCDMI12H9H5WBXcpffojpcpZrSKh8iiZwATUegNpxCeCiR0ytzgaaZyWQ2ldg+5dU114i5Jo/hsIQqphlp93nk8Rz3SJYmiwaI89THjO7jAB4nw4QgNmB7pOwdE4LzIwI9hzNZR7yTO2/n0LBUn5XgBFxIeLfQ+j9G1olVv4nVwGthIu6DE1NiAzy3r4g6YlynGP7zJeUFymArvcO8wO6h8nf3ydJfmIXaTkG2eV/BHYR+nXozOFGtokv4bbMxgmu5LSVE4/Bk78rrSVwk+P0E3Dtfbh5kaltU4vI1GHhqxB0tSrWDsLKd2DwCbOLcC0Rl7PcQukGt4gnTuGDwbhcrEJvYN7lATQeBPMK8wdQ3kLCpQoFwFmUUjHvljkR2l0gQPxnmbjqJ4LG8Yw1EF4XRFDile6j5uJVYI9g+8aeQ6r6ANUd2QBeBTNQKcmlb2jLj/0CcBML6szzwh0YXIDOE1opbQgb/6gJlLalaqsK586d+IGOB10EZs6juWyhFTadG5R3/izyGIQ7fTRiUpu4attGl2H4ETSegejnChc49QQ023DuObcFbxBbbI02PPl7cPs/lBcuGAkYv8gYyM7XMsrfaTmPUNiH4TJaYUM02XxdnTLjZJViMvgAWo+UM4umLg9h+Mkewfxjc1zjF6TDqN83mQ/3cVsUm4uuD2lYwI9hVtW+fMrRXGbhLhDrRPXE3ztMJ4WN0WriK56dRJLwMzArsPCc6ouYOV2jeVR2Xtu6Y6aGBjXageHVjNXHKJiv4QG2HGo4YXnvB84lXbXRNxEI+0WmY1XyQPA87SXp1k78VCm5LfGcaAcGr0Hry8IZBi8BYzh8Fk48IkFiTQKbcf/0q1arc8+ykRNUocMxMgz6xhFY/WOUG3YT7n7k3ttVcivxFdIYxtcUt1JZuIwkmObW+i2K/znPrvc2k1ooRqWBYAi3adpU/+sI4L8LhBrbiZXgeKV5FjrPweA9GF4U4J/uj6npvPmFC+Tb9CExwNNjUiAG3PekYDEoOMfbKN4dug6cgWgVdkbQMPtiCU09tixwP/wU7JpL4R/A1iv5yXB5kYhT59TEnJ1HYcdvM1LFzReipFBQANo94v2Isp7t7bv0sYy21rdUOqCq1mJwkcfPglmAwS+AgQNwA8WGhNH0+Fj3z90r1cwEO4bNnynFwHRgfBvWfpCtEZjAaTUWhpuuz35/6qqlHRygW3Nh/1XJ1KDztDAXO4954heWi+i9F72jKQnu/j+DFu3vEu8n7oVDgLxnLwJDt9HZWZ0XLLnbBNIETQ0aJ6H3K9j6yW5TtLYq/q4mXNINLloVfRV1H02YRLj89yRi6me7p2UmwG+/B7V1WFieP7Ari/zjCvnaSpXtv8UkhyLahw26ghYsvaAgs947yjWKRu5Flbm336HwMhrrRxBz+M20ZsXCQObLry+DXSfe1qMkGSPwrn4aRh+rMLodQvewzJ31G8JWzn5deTq+FKmNtHFdpcXcqkbKnf9TjG5HrmZMxk0sTnCFDiO7R5yaMg+V0dZzyDSg8xV5CXuvZbd3JkUIgM661iK+CNGinsTlAuBNBOz6ch0Pozk6dr99mUn0d/2Yaj7nwRDGKN4nWEh5vwyYlvPkzSLJgnoQbFOrtbG2ThQlM0jTnRwjW3YTgUhFEyWp+SQFl/fZ+9Mi2NrQKcur1cHGIpolYKJtaS5Rn1LMUHpLDSN3dWcJ2o+oAcMrcO//qRADMybOOn+NWECfQmVJT5CvPmf8ZoxMFwaaiFXVfuPuUTvEJKR+8za8/jfxOcMRnPkatJYkTNcvwfULcwCcEYyz4lGSZMHuyCtnAoRVvUt2fob3Yk4amnFO4r6T+w/YVWc4l9zEq3tP4rzmUR5FqH8fE5czNUhg/D4SIMnKco+jReQiSs9JbuI3a44ZlX9tnEwJF6u/R9dmxEdFBGYLY0LqQTAgCHpY23LCJXGzidptUXDWm+5YB2kuS2RT8sFprShF1roo2PtAeQLGjmDnZQgrbMg1Xq84MY3Dkpz6bupuNa4aDek1wgh53/yeyx5cTo9rnps80Gd0CZrn8s/L6Yqsjs/kTQO9NzvWweaCyhyaNowt3LgAF/5Omcb3pYi3VcDivf+o59sin2gHhcuDJt+PyE3UG30mrKFxXOkfdqhJVoZMoMjYyTveT/KBgLfQPGyhKOQHEfTgdzTw5DPQfSxT4thoAOv3YHE53oNriqwW3tHV3YeiHei/A/VDMpEztR9LQI+AEfXx+ACjkZe4aYZLDlLLddAQ1/rMI39dMOM8tCK2qtSAqUi+W5P5HEmD6L9djQkaB3I8FyUa0DgCh/4bSf17P2D++rPeo+QDrrJW6dR4By7kv+HKD9qhhGtVbMHgsBCTeqyFzkFYOKnUgGgMDde2+7o7gC3hnTHIpPSpKEMK+dE0oea22agXbWNc9Lz9BBCT1EWu6pPI7KkRexXznpnxexjKuxaOtcl8MxERHm3CzktKTM10SETQe10CpvslWHhBGtsU1RjboxgiX0O3zKDUkf1f9vw8sDFF1mr3tmYrR5Lukfx8CyMXtQhs/xOE3o9f5UbztqEpZo367D3JLUQazJZr00PJB02fWgtgcUHCxWNa9cN7mPQ573PrGlz4a1g5Db17sHUdxp/Xpl5FVGN665sZoLxpJBaQqu/bmUa1Fedp2W/yuz14D23GQgLEWu6MgJ1wrE8y+XF0VcIjFypwzhkbScB0vurq5aZJfFLR+K4KupYEyYZDGA6kZgXeTbaPZEN5gXZ+IbV1eIn7n0CXJqOM4toqhG6/m7mS3iK0MZ1ntjNMF/hJPjKAVjM1nt5cm4dyhEs4grVPYO2i/rZl40vuN62iGCvf5joyFz5j9/s30Jq3Fo+jYFF4xFzCpcyCnbQE0ufaxCfKOSdF/R1od+PTaivi0aApARL1Eh7PVFuDAzMhgn0MosuiktpLFMLaHWkuKweh1S4+vyqNr8Hm38P4ZgVgdp/JAmYRlv9ELlYitckWlUA0sV2bDLef5P5fQQD7KrsFi4GFfdy/GxQg2DihWi7pNv/WCBRQn+vEpUA91YCvonHLuKZekNpRluaKJfLkw+9nURpusAiLGxHXYSoy/4wiqRsp07h2GA7+dxC4kiPjW9B711UedHPZ78/V/aowtgK6z8IFivNgEuR3btvZhtaMfWurkI107+5TsPlPTIWu7z55xs320CYL2rT7pCaoieTaHXyck2QWCOdpubiC8V0YfJbCayyxyu+EuDEOY6lDs7m/EEDQUqDg8BKT3ffmpjyv5F7JeyQfQRhhkDrWIq6YmCQL/XddHEfVQDZ3/eiqwhvmIovCD55g9rRMO0x8VO0W2aU9k5cG0O5AdzGxi6k/VgezJOEStKFxTPDB4JIESdCCzlNQO6lgumr1XO4HFcXMZJ1r9xRysItMAK0HBKpGO9B7WwmItUUBlOO7mrDRkOIAqD1iJYaEjDVga3Dgz5SPdO+vmApYMjUliC1+Edpu90UbwdpPYPOlhIC0KGjsvM4xuAp++6Sx7FI6AwlpBrD9K2bn++SRLwRvmF3aswoZFHT4LXaX+/DUQqEU77MrxH1wAXqnNIFKlYpMkoVoKzZ556KyWktSMHteWGTa5ZxDBugs5OObAU5oaO8hus9C/2NY+b5L2g0gLGdWfw7CpQIZA+32/mMu4ILbvqU8omhHf9cOMAG/xvdcacCMtHljBITupVmZHuOaNBNTT03UADoPQ+s0E6Fm3G9br2Z4SRy416jDQktRuHvdXNHjhSb1Y7AKS98U6Nd/z2mGVTZBD5Dr9PtIyPwKYUh71WAMwlO+Sb5ggelycimyQ9j6sfKolv8owxPy20wlcbQo0mby9cbueZb1vmsLcOi/l7D1uyLMaoaT2b9dwiUIlFl7X8jIE9A4wrRq5PzU9UCRqLmTcp8SK3c1qwWLX4fNf45NnqCVkcxpoHlcNWP6nzKZHKYhc8sYWGjLlt7lfq/SHvd/rmVgpDIvvQALz8qtv/2qfut/VEKbaaNgQA8ULqF4jXsIN9gLHSQTfwL3rC1UnuBjcr0hdqAEze2fw+JXFBCZhLvuKyVBWSg23ZNeoZLQQ/oWScpzPhHo3SbP80Xysu6R4L3fLuESWW1IdT9c0hPKApidByVYZLrGqz/3PniwJo+uqYbJ5s/0d9CFlRdUCzUr7ijweUY+b+Sk/q4F0GwkkH/KeSVhqpvlKHBbaiyDPa72j24pEjmcJVx6CFD9CsJGfGpDHVWtm9dEMghLyepEhILPfoJC7IskhYvPidamBbUf8rxLLXuIX/K0jRIvl5BZ0mFXtbkpj5BfJOfx4qawhyprZ97i5X9zv39OwiWPu3eYbFoV1AQ0BfdJQ5hFpg7L34X1vxNKbq00iNYZoKYdGe9LgJR14e4Ol1p8ChafyXbzDW+6bUETXjjrsIFOSwJmqk/EQiZvYszDm8mLTQ1MRxph/dCMKnzey/Eg03thnUO8sIg0mHlVrryObCLzy3npCm9T1wZ8K9+fNj+TQiZJk3EN3Xvci3kXogqORxCWtoyEcNrM26PNO3QpEEnttCK8lNnNlAf8cxIueS3/FKH6dajXYfXgTAT6/lEAzWNw8N/Jv48Vo9Vc7dIyWdHzkA1Vac06hL77hCZsFhf3Pkitjs6rZgw0CwpBpVdf/ykRQF2KooGyigtNIr/j4ingC+zeKriJTJq85L1ZVEf5NVmzf5vs2JYMCtqw/G2360TGeGZhZwbt3Tx4b/f5lci7lP2+YD2kyeSZevM+JgJj53v3ZUxEpxR9DsKlSN++BZxR0E5rn2My5iIHYM27ncleyYfmp5qk/71wSS4PbjJZK6DOz9c8U8hPBK/47IdgsWNhLps/KxAuBgmWPyJ/m9I68DSKPp4H4GiQXdw8QtnSbcqZXEF1T5FBi1BtQTtG7Jn8y/O1qveb9jDPKoQzfQ5qQpHPvQdLBg4dhaWV/JX3v1QyQM1AN7EHUMD0Zon+Y7Le6hZxlmzynv6anOful8YCEoi9d5gdbew7VkR1JCSq2mkdYi/RVOOQefERyse6T2RDBWqObu7jTb02l6NB7YVarfngh4rA9n0WLjNMieVvwdJDyiv6/6NgCZDQ2HmfiRk2XofRHTBhYrshK4DRpoPtFpnsrhCm1BV///u9fNhhCcFimD1JvCb25whnqCJgjhDXu0nTJaS53Mdcp6gHGz/eh8BCUB+OoG1FnmHfTSJjHPA/xz0rWqv3mfUKOmCMNtYyBRsr/X+VzIyPn/QG4rB+q0C+u/+gMoN+187kJ8/TBTDKqtbGTPm+Nyob7ehxj1nc6csxFsWppMmgrOfkdiKuiFRRTMt+kQ0VxbpL8M9D/v2eRpvJnYe590PKe4T53Bbz35xwqdWLd2z7bac886XMJ7fOk4HF87D6BXl+pswiA0e+mQ94NwpeZZGJtBey1rmfizLMvZ2W3E1wFlVtrD/fx7J8CPwTCqe/VNC2LKooIOxARd3n3qsqSSeR5+wO8eqyz9Rq7W/Vxyxyi+d9BHRnMEizRLBc8hZ5cycdd3S/aF633UzywXB1aB2GlSdcAF3yIQZqbWisMClczfRhMcweGjYLDE63ORooAbOf9mClG9ZA+TLP7K19RW3hDjJ7IuCHKM/mK8T7ZlVgDutLc5TRyhzjBW32p4zFeaS1WKYTLvdJBzBG4R7zai2+GXldTWnKJYRL0sVQhYpMorErBVBwedm5kly09qQ9WtnOuzbwNvvnWcmicENbnDRW4Nh3JUSyXn69y+7YlwE0rSKLZ61G3g2dd8w/0mvhufPRqpDQ1suw9dIMvKUL/BuEH1RZLatujP4J2mz+YeJ9dvqocmLVmBAXpVvmvHAbdl5PxB5VJYO8WMeR29kHzvn2w74yXqulz55MopxKB15BTfxdct/KZMixv1MRFc3GMfAaBM+SWyZzHpygjGnqm7RL0wlheAPW/gZWfteVNjRxO4wB28g3SeYmC1uvK/iq+wA0jwDj6UUzidBP9S8Ccw2ORtBYVhW4Iioaz+RYeCbJU0bsGNZ/rATQwohUAzyF8JAqgsV7eKoIlwgF4SU3Zf8F86m0VgmI0UBBlFlxM3YEg8uw/bLq+M61X1ENAdjPoDGKkPblJ26bacFYFt/KoaCmOtV7MokiCG/D9psquRAU7wxawSyyqGh0yPRG31mUx+gu5sBcheAb2afsRUuYJWCSMtKGYoz+B7KXh5fFUHf/byaTYWIG1eHwv3WbcO2zat8+C70PYecyrL8Fi48Xm4DpHyzMTCYrQyFMNnMomo+jG67kwqwJ5ffTqfIyLQp2uzmjEXnXJmlONTbqw9rfqh5u9yklt9aWlUVvx66+yfvxLpCVBYtBY3MKeYXeQZrXo6iodtL2zsrhKIovSFLScxhAp6tSHKXJxsGkk3kzVDxT/2OoH1f9FyKX1NvYJf8qYi5+S9YiylM7LLAJ5k3onIdGuqjwPpB/dNH7tsg+7r0L63/vXKn+5Vkydwc0dWVS73X1yKKd95WRbSO4+0ton9Y2IFmqq8nInSlb73vWOWkezqRIFf3CWWaLXyHW0EJUtvjXGHiVeCvRsuQnrK8rC+LVXsX7wARPGnwKwQKsnCeuNzxWqYnmaartxwwaj0XkWn7StXeIAknHZGt3Wd7BLCqxIls72xyyY8Xq2IEE59bLKe00crw6VG2kYBHoq5au36kyX7hY4sIznpIRWX7PlDzKC6yw7p7vQLADq98UtpDFzHudu36csxYu6/4Z3xTCHxUxXxKdCmDzNeUZBXNsmpVHXqj5/8Nt2PnECZfAfWpMqpvV2sxdonI/BFA0hJ03ZphDnh5B4GTZJFTPex6YrUIN5LpdQJMXZFr9M/MFz1mVI136Rmwa2TGEPU2s7Zcr3i9w7foOcWF1S+x6h9lRj5A/LkWCxS2IZYLmbCgNfnglkeGeZgqr50WnIDoJ/FTzqfXorlPrYDEmxNoACYAPiN13BsUcHEaFoE+TL02LBmcIXABuanJ4CZdMqvO0H7DGJIYk8dvkOVYl/GbuV9QGngWaMjvq4/3HXOzQbfrl/7Zw7xXYeEsdaB6G5adheAtMB9onEhe791AWnJsJ1JahEG0tUmby30R5Mecph7lYtBncPImLLTRJF93fQ2RydKjsLfIUrsHmv2jLYVPThNt+1RUXq2IKGdeurxBHH19G5t8zKDnxftIQGjdg6cuzTzV16H7RVf5P7xftKUCerKNIJmxBdEanN1Blg0ALRb3VukirdYcoWmQ4PIHUSY9WW7QC+YSwIsmac8xYaNxETLMErRNM1d4sq/lVpaz7Rqjzhcxh0OA9ADwHtJxADGFcnw6A2yv1L6tUQRIMCred2QGM1qSiH/q+/u59Mq01NI+CWSxXqjitOWdhK14gZwlmkOZSdpMwHkS8U1aw9NEGcPOG6XvNZxt4C/gaeocbzJVFbIew8yb0L7i/x8xXf7mB+OgU8Vg8gGJaqqASZQCxJDk716yB+QzMczNOH7kdQj+D3ns5c8QgHO1F5AnsAF+DvpH2vRxgzIhm8AGB6VMfDM4yGBx2mgsoY/VJJptWz0T7C2LMaxGsdGHpa8A33LiY+VX7vZIJwW64WrpZSXYGJYr9EVr5HMZhA9gMoB/CwdruEhvz0qwESeu2kdj5ALbehuFaot0GwkW452qnNuuwPKOKn8n5Pos8AL7xdxUq21epbZJUY+ehCLiGNKVt93mSvQehRXNgK2nqIk/WkHi30UnIdUUqiidIUx9aN6HeV13gQq07gq1/ga1flYAKmghHq8W/WWAQQj/ALjQZRE9ox0UwWJtc9lztzIktWMbtnPWzge4SrByCwMRC15o9quZz0vA6bL6i1T/0Ke1pMmifGy9QE8u9BUa2HDBWmmaCHND7yGksCdA5Sf0xkyLkpYHTiuS7W3cbhs3UBCya4Onf0jdMfr9KrC1XpR7wSyTQFpAZ8j5KWPy8t5BJk0Fayn4sqH6eevT9ClrpfByRP7YN9Tdh9SsKb0g6ApIhDp6sVfH3Ulsb+2dngMgT9tSx+vQTk53YAxkD7RYcWI2BpOS4pNtZ+r6pa6tQ45DA2HCz4KEGrS6TAJfph1qgb6Fp9kFzsdC7wGSjttzT8qIDjUDHybu203E8+01BDVa+qRKbozJFkXzYgtdINtF+xw8Rbz/qtd7InT9vwW8fIwIK/99GmM+eQaZ9oD6CBPajdEJSMtwGXkJ9fNR9ahDUoduHxa+pPlFeHaLJT1YmX31B8FQhWdSXT5EAT1g1Flfk3oJtg7H7AZ+mXl6zCYcPwrEj2kI0Tck5O7GobM4ncU2Z3Jzc9rmP8VpZ0bkD4pU5Y3iGBdeb1CezdIJ7TrilynJzl0ZswuCky4YGWo39xYPSFACNLnTPl9TcBkwXfhoiDSNkmgFw388jE2Kv5KXtb2h/ql3UR1rVDnHd4L2Qx15uovHsQ/AJNNegO4Clu3DgCw7bLHKyOOzRjhW7NLhKOa3lHioX+hrxu3RM11tTeEfvTYhG+5Fb5FcHVwnt8EFpLWVNh2gbxoNscDHoKBw/SGkKSRM9d3Gy0gqiHUnT/iew81beyfE1vIRMwlNkvhgbybQj2K3clOlyEMFoA+78Z+hXTapLUoep1bDpGMm/671W/0/SpI+1eM/swhD55Ap3SNdxCG0IHyQ+SVomBrN+G4TCfpFFGtkv0Ep/wP0/795cobvfKTCfQHtVhcSbx6HmUgdmYZo2kiOh/6G+Dz5zXssy4z5GWmgbLSDJvabrcmEPPoDxzf1KXPSzPGBS1MjHZpgCN4Ydw9rPYOcjMneq6z4CB15gGktIqIYGCZ5kMyxONYtg+y3YcKpjuMPsehsWqdWvIw9ZxvHR+zBcgM4p5fRU0aCiEYzuwp0fQe8Se1vFzPTXdmNayO3XHJ1SMAJoPyiBP8ucwyKX65dIFKahOFjsIDKP/ksSLiCB4N3PLeRJe5a4xk0WE9mC3x2+1v0yHHjSJU56L6/z3Biy7x31JUju/VBCZTJX5/GC+WLxSTKaZ9uvlBUuXvoWuUlGYDZg+zKMDiiSs3lEe+80cjZr6n8GW+/Ertc0bb4qYbX4lK6vdZXgZ0MYb0twBQ1pOK5fWAvjLblxex8qorDywF1DLsx0BX4DnZMwegdYc+0qOYSjNdh+B9ZekqDb8wSKwESOz9L7QZPtfCnLQ3namI3kPo/NMqZMAAAgAElEQVR6JdvoMZQyVasM0hYvlrz3b4JmBbPNIu9y/wAB2E8gczBZSMufs40C7+qJ3/0WIk2dM7gN22/DwhOKvxnelLltnDBffEK4nEk4Ubbf0sZ60SieN1gFCJbul0EaTNqcWARzTv1rLJWZGTUkea+7jp5MHIvc7zeQTbkOo1NyV/Yvybtw7PTuFdWvqq0VJyxcjkZyq9XAJQpuvSNXLAYWHoWD39XAGeNQ8FQXDDC8Brf+cyJkvyptopyPb7IrwrTWhZXn5cUJdxRNm0fJSdpchvqXoHMCrv+VBOBeKBjBgUgRA95s9FqG73JamMzSsqxNrHhZzwxg4UHYWIbh7RKNHCImrBL+/1tApqYAxlpn+vf2Sa3K669rcs5N3pv2JjIdv0McAGjRJnFdpMWdJvbgbiF+3IFgAIe/Bs0u1FrKG2quah+poKOFoLHo5kni0ctPwuLDTBjDWmXm3/hPJdI6QO/yW8BZdi0Ypg6r34bOc1BvzxIuHhDyNrPPhYAY7PgU+AxaR+HYX0igmJpMHhMo4SszTwZorsDp/xYYwM6nMHYroqmprqxpTl8QuPJ8xriq/Oy+twVay9A6olD6ualO5iQb1NWvhQfcGIzUrnTfkv8Dk7Fcf8NpLnulELbvgF2A4Vgq7uLp2ExMCxa/KBUJG7uDggYTTsT04hQchINfg7u/gNH6DED6HvB3wO8wHRuRRQa5VNvsdmN/nmQkWI7/KTRTFfFG6xIujQMQjmG86TTvslHLSbIIkB2jBfpBYsvgaeKx8v8HxNG8Hfd+u1D3sU1tpYfUc+abp5o7b9IMK09gbSHGJ3PJIJzvKeKtYdLHD0LrEAQ2T7gkXbH+It+xz5Ba59MBFpA9GULzoBjTjjX5k4E7afDTP6fu6sA2DzDN+YEDJZ2a4+M8/MDlbqNhVHTpwPOwc9H9WFV7qaOXnaHKh251byw6cHdcMmXBQjiQWTF3YaFUG8cO0B2HGkcPbWS5+D2PZgHnk3OybOj0+TWlJLSOwuZ7sPaqi9zNGuMI8cbfovD3c+QDmYYY8Kygops6dB6EwY1sc60qnlBrweEXNUHS9XMabg60jumW4Rg6Z2H7Pdh6l/lKL4yRN2mA5lSL7F0MIB63UDuENpMbyc+YF7vu4f800nSWvgCjI7D9kROWWWPmtaer6F1mHN4BVhRekCFc8uxjkzh+DkXy1tGgGCcNazJVTGrV9+p6br9Nhgbi3IkW3c+EDqiqF/O/cW1sdjQBopHAx0o2pUVaWh5T+hcZpLSroluGsPWe2hY0IcrL3ShDBqIm2Hbc3EYik9qPd14Ed9F9yzzb1GUi+PFdf61AgwmRtvsPSGD/HjEQ6F3Gfgw7SMBcK9mOGnTPwZHvQO8K9K/AeMOZqq4vUV+LTO6ESd+25dIqsqZG4l0bgJpMddOE3qfSZCqTx1jed/8/S/F7sGC2YGlremviPFzYU1FoV70Jh76hReLOT2Ht1wXvswf8PfBfI0wyJSsSub61Tud/+ff9/gIxkj9rGd5BuREdxBhvQmsMJ/5ANp9xwinN6GX41pMNoX9dJQiGd+Rua3RVdzcd35b1IYLGkrMvH9NEGFx3DFaGfFDWCXattAZYNtAy1ZIsjVO3Fx/SyhduC3ybCxMyrm3nmTRipQXNQG7yJK6Vdal/J+lP1TaYAFoHNbaFGJJFK/Q6WowipAkHCPRNLkY9BOrO0AJMACtfgqPfg8YqdI5D54ySO1e+BIuPuM9DGvftj8tpFo1VWP2ygtFmkcenaosSaoMyQjGLAuDrwOPMjuQNgY8hfEuwQhC4esv12fMi651P5pNjgPoy9C4XmO7euXMDyQE/PxzfdQJYNpjAUut0/td/3+8vUr6upNcAIuAOmJdV93X1GXU0qaXNI1hAAO/1v4ONd7XqjNZh5Qvlr/flCoIGBF2puM2D0L/qNJgytIFsYS9IE7QYQNvE/SslHxxmVF+E9jGor8LW+zMwi4J7YYDHmDDj1gg2hkrMrDmGS5+eXD/ymI+y/QFqRkJ/8azz0N2bYfJFKPjrFjKp64g5fT0TzyjvMTNat9aRYGkeYBLuENRjzGHycb/1LomPZlFjWcKpbP6bQVnA/c+kOc21WAQoydMXYZuFe1gIP1MVw83XJVAbfhwKLstciJPn1GQa17uwfbGAN7159BHCx1xSpkHR60sGowjdqstWH4F0/xfwN8AYWonNqAxzRtKmKHRFnKyLD5kHp5gMoIHuGWEFpRtUR+ZfKmzbmt2QQN4t/fN3yW0D7eP6zDVANvU/MI6gN4abO3BpQ397YZJ8H7OozDsLmFY26otw5FtQzylbuqvtm8DHyHa3THvkOszeKcDIRCny1E21twkrz5Y40ahYl1/FM99dBkUDlcmYC0vzUt0P6KyHGRTk+V2wz+m6oDnnIpV1exOnyhSSRQtwQvu2VrjXWF6nispwRIxwj8FEUHdRtHkeocoUweAWDO/FnRjcgP61GUh2Dk2YIwPXKSSLXqK/JhEEtpW6T5666Sd3UiuYXNOAYC/FknPGwloYW9gYzTdeELc5q2lZa1E0hHuvVsAcAqS5nMi4WYfdOyemycVlrL0EDKU5zML0dh0MYhN+cpqBhXPxb6W170DzYG7yOyuWpQC5ro/re9DY7bGcl6xVmMHMIMlkW/zgWFkaG6+BDasIlwipQEtAUyro0mNw6k9h4QxzSpKMx4xhy7mQvWob9uDuK+Ta4bMEfgAEoYRUafIh2z0yM6TT8zbPlk23c/K9Vl71zm1fFgMEYAMJl3APgXrpfCi/imdxTNBSedDS3pIQAZh3UQJe8ro8nT1F0RDuvQxbF5gkbSY1tEJMKZA38dCLsPIM0+UIUoLFfy8UMJE07bnIA7rXqJYPZWTCLD5azstXmiLhnKV2j+wCX2QKJ7J11YIerVcJ//fS0ql+9SWpwq2j7GuFtqABh74uYG3jXYSOB7D67O7JmH7pee/GIPC0d6VCQzw+8DGqGJZ4tq8EWkU2+LbuW87PmN3CJSEAWyncZV7yQqWIoqFWu9Ka0hhlSD+GgN30xChzH2cuD3z2c4ZQmJxqJYA8eTC4eUCxUBtvEl88h0A2oQvYnJci4FfIXHwKaTJ5787FGRgLB5pw+PfVn3ki+LPuvfWePqXe5UNM13sywEmI2mAaVYSLZ9wF4BFohgLzgmD+TiUZYTI4DvhcfUp5E1kn5y1uNWKsOf2cehsOfwVu/kt5t+QkBuEUUtWd6rkXLGnfyBegLqB9rT2T+xCtVMOyiW+eRsDPkWn0JLEp1HfHSt4rHErbzd0Uzup9e23Y/0YkTWu0GWMl1gr4XTgn7S9JXjuaxF5NGiCNeE+xSz5A5E0Ekn4Phf6nBYwPvHsTWnU4+Dtxv/38yUr5KN2MCAZ3pLmUunCJOKjKt9WriZH3Fs3aJDypW9aBg7AUwoHzsYcoqUKW1GynMKzkhDVA3UCQ/iTOKztnJs1uyF3ZWoWtiyUBMP8yP0ARyquuEJeREld13k4tjFZBaMPbzCedA+SKXk38ltBcxhaWGgq2ut9Ua8PGexU8cRADgtcRsLuFih/9GgVqllTxwi1pTi0PQtrpTzSEO7+Ae68xteoMrsPmu9JcJm5Xh+UsPg61prAcfx87ht5nYNoYE2B8hHrvElz/QYUwhyLybt476F2uMA3ej9FWtW9AdMvtzrlQPP+K5qN1AtZG+gxvKIJ8dI9yZNA79G0FvbfXMcNPymouSQYdowFwgGGRIPFCLWvuZPF8FvBZlXxbbMb9ggYsPaR4nF7Zjbe82+1l4FO5kFefBjMngGfQi4yGcXGduShCuMUpMpMnw0hlOVu1kkLQOszEA50lzo/GmnTbl6QBzEURipm4OX3vsjTahDu/lJu5ngGKRkPYuJBaTKwzkTPMoNE9uPUP8oAFMNGkwwFsvEe9+wDHaut02eEqJxj3bjIcbWL3bpPEbeMWqoXztmvjaaSWX0K8OJZmtfWRnB9VVznf1P4tReR6Hoz6DpQv25dLCCtaRCEbAdAAexJ2XpslXLL0f3eDjUuwcAGWHynZEEdJM2jX4mShfxs2P9L3iYBowiEX2DTahLV3pA4n79U5rNXLe4WsgaAGkdOsojD+tI854VKWIpRDdRn6TdjpQvvwrqaXsntDq4jWwQ0HMO9FuFxE+/wcQeDaUSbvzAI3dqD/CgRlwDmrsQ1aCoEvc37/prx64+09JvK5+819aejwuZwVLleAZ/xuI2mUybD64993+WonOXD9P/DH/B+ssMEOXW7YI/wVf86QfNetwWIm4sdM/i/oEAri9BqEL0OR0LxsBLd+NuM+M8hrLJOJVhW4scg0Os+0WaSxqMc3nHJlsFuweDV2GRioEv7VHwrDKNWI9L1yGCEailmTfQxqsHNVwmXc1+6E6c3LjGtzZwmOnte5h85DZ0XHdrbh7R/BaKD4iNZKnMAVDmC4PsNudtIw6sOVv6YUmuujPE0jwaxWzwn7LgVgHjDTU4Qq3dfQ6nEOBWKd02/jIdy9grSCFjLxmohZ031NPrcMw3pzYV+QxBLk8bYg9Z7cs/clX8tTlOiSgds/p2NGLFttCHadY/RocYaLhECDUa5wMViOc41neJ1rnKRPm3VWWOMAA5rMFjKQmy2+Z4Ge9awq5Nvu4RIvAA0GS11bSXaJA5fy/G6biDmXgHWw1zXRx/uR4espp4PhGNYvJLTYJPJvHLBc12SNRrB1G449CktH9LupKerwwWfhypvSmM78oTKnMVqBP/0BDMuo9s4cKFMeoHMs9nTVWtK26l3JgjsvwdZlBSDWF512NYLtq86tWdZk81pJH7l2DyFTqQO0wH4RvbdD7vgyMvE+YO8lFz8nMjUFHNYXVLpi65M4MndwTyZRNOb+CDkLo3Ue4ALf5YcALLJJnzYGS5MhTQb0aWMTcyYiwGAJiGgx4CjXeYbX2HHxLL/mOV7heYa5SYq/7WSQxryNlI6D7vcehquc4DPqQbBFEFzD2ibWtslBfpCXyNu0Pj/EH/s8yO5+lKnBwkF48HlYOgrrV2GwBavH4d5lmVM1v4dtCKM+bN7S752DUnUx0KjJrColXCrQzlVNgHpXsQhbF+HQcwKnTQMe/h9cnReH34z78NkP4d48Gbbezkxu+Rqg5LK6++4BwpPIxZ4EC39b6f+l7s3jJDnOOu9vRB51933P2XNfmhmdtmRdtizLls1iDDYYGx+wsCyw5oXlNbCwi9/1si+8LOs1i20MuwsGFq+Nb1u2sIUlW5Kt+5wZSaO5j57p6fuqKzMj3j8ioyqrurqnRzOSR8/nU5/uysrKjIyK+MXz/J4jBGTXwKofAz8HOoDwqjiPzYHqLEw9DTPPmf+tZngJNRmBposJOpjCj8E8i1lU05TYwX4WyFPBx8OA3HPsJEWZYY7QwTRDjJCmTJYiGsENPMBx1nOa1Zesna+cCExpjBsxtXSTAXweUoZsEC/iOo7EdT2UmicMsyzNqBbjCyqM23AYw1xfymKtK5WYV+lcA1veBJnYjZnpjbFRGk+WilXoSsnk3GTXwoYuMyhtIR200RRechDUMqJDM2+nn4ubLWHsIVN3ZeB1cXsT/e1lYc2bYOZFiF5qv85hvC4bMZ3RVBMHMNrLeoz2dYaXvhHZKyBCQvce4z3UFeMSdlxTHEkLSBdMQerunVCegPKs4exKo/H2qxc/PjWCw2zidTxQAxcrGUrcxnfQCEJciuTIM4dGsJqTXMkTuIQ1pgUMWDlEyFeL5thSVmE2SBumPsaMYiIdeEzuxQ2CEtVqP0YrWQpYBEbNFhiU8jEkzkngUppFKxA3ZWJWcj2w+hrwC6CUOa5CCErmRQhzZyDdBQe+YbSHdbdBxxYa6vqqCM48BAsvNaN1JRIPrEwvbH53vOfzEiG8TrrF8QuROeAxjMaSLHZUph6ctR4zMELgXsxWu5fhQBcSsqvi3DVtTMn8KsivjU2iSaOZOk6cnNoBctSYUF43jN5jNJpLkHdTJcVRhtnJvkWgYAlbYyIZ8Hk7XwKonWvBxyNAIzjOeibovuh2/WhEUt9BsrnKoEcQ7CQUZ3BN9Kl1qyaDYUgcA+MCi2u2IDCr307MQL4ItVo69YnWvdGsRK3MsmoR5s/BxjeYEgzpQsynJHNDHKM6uxmoluHYV6AwZEAl3W3KAyTPV1WYfB6mX7zEhOASYgO+RNjaI6MjqMxc5GprApiMpyGZo5PMNLTg6mA0nIMXcb+XWdyUKeVYPgPZXmhfZ2JQlAI/He9aGWug1Uk49wD0vtaATt+thqyfP3TRv69PhW4mqJAi3aTpiRbjv0wahwifauwpEgR4eATMk+dxrqXcnG3/qhGF4eyuYDG4aIzSoXEbq141p/pqjNpciF9J4Elz3o2erAen4Rix9pGBVAF6t0LHGrO9SLbTmAatxHolRAxGLRMlhYnvCBXINGy40xzPrwbtxA4OVQcYFcHcSQheqbKKGopnoDoP7RtNQF/Snx7Mw5EvXAS4CIw7+g2Y4Lqkf7xVBKvEaDQXoym9jKI1zB0zJk7nRkO8O3H1NccBmQMVu90RkO6FtXdAaRxGv2v6E3URsUR1maCHz/DzrOEEBeZq/s4MJTZxEJ8KPYzjxaUiRljFHAV2sq9mFnkEhLg8zw5OsA510UFdP0qx/F7S82uDAE0EfIsdFxUmOKaMCd55FrO6DVKv8elQ279ECDPhM4l6EmHZmC6FAcjYCNLEPVIFc7wwWNc+ah9fwEC3gFOdBz9vAGrsBZg6AcNvhMJq07YoBkodGkBx09S8PpVWbtmVSrNnTWL6ZYnrVWfg2NchOwjZ/hhcYlEhTO5rDEd/Se0ZwIC+aGpHHCC3aEB3tTh2uUhMzgbzRsPNN5Gftvi0xQ4hjWnkpOHM940n6RK5axWSKj5H2AgJv5BA8zjXkKHIVp4nQyn24aVi06eHXsboYoJOJnmaq3iavQTNhd9fVWLDUkZBdGPCIOLQDF2Px3EXfynEqMkTGGCpYjJXU+YCIg3sBvEkuBqcNhjaDYM2sVBDcdJoIY4faxrJeyRU8wvJe6lpLqL+vjRp7vH8t4y5hIJTj0FpJiZw+6D3CtBxhGV50nAw1bg+zMiDMH/qJa5sDogekD0gukDPgtwL4ddBL7GdiVZmsGcHIDtU7wutTGzPmQcvcjIIlt+1UNHoDRQYjbQDE/uyUhf4Ky1hnFqQTmit8TNYbK/FggmzeGx6F5y9H8afuSSaixUd91/yihEOAR6PcV3tDAs/o/TjEeJTxSFigRwhboPb+kcp1l1uXhEKSYi3gvaVgS+D7gX54yBiK0aLWgxaE7iEGECxmaZh3aNCCbwMtOVAHIOuq6BrHaRy8RYMiUv5F1KbYgWiNVTmDGeR6TQDrDRteAvpwvBN4KWNnT18Exy5H8b2g3geJg8az9DCWfP9dLeJzYkqZrcB9VLJPgfcW0FuNGAiOo2b1H0jhHcbsFkksaZTmakrFUIbL8fU/hhYLmYi2ILYu5f4vBWJnAd+HBOB/EMaiv9cDqIjGHnA8GKZbujYbNz32f76QmOV6WTgm5OHjo0weeAifuMLaGZM67aSCg6VyzSexSXkCp6mn1H6OcMU3XyTt8YAuJxGG2MCkxigaceMv8MYraah+r/VWJ43J9nJ2jVs7Ny5c7DpZuiJmXqVGKjJTGSrFTUHfF5MJrEQkG6qOpbprA+afL9RmwE61sLwjfDcN4x5Nnuy8XuXjF8JIbof5GajuaBBT4AugXMlhPfTaJZIsx2JmzYlO7WIP9YwdxpGH+LSTeqlrrNUQlcOU/5gBLNf02UELmAWgrkThh8bfwYK62DzT5rFpWYSkRhf2sQszY+8IsByacV6ZjWWu3j5xHi4Xsf9dDCFQNPGHNt4njkKHGf9CjSYZJEfCWIdifD/ivFeiDGQB6Fjg6kGPrDdhM9bNdTub6LPU2KhFRdp47tamfzQCDrn60trHgVFOHyved+/A7o2xkFoj8PxH1zi0OiWDaG+sXjcR84AqFGo/oBFvIv0oWOPARaR+EG0NtzAJRtDdhlPpiesJERfYNyLz12qhrwMoo3KPX8Kzj0JPVdjNsajDi52fKkwLpV6mQHlsiIw3OZtmMX+IYwmeqkAMkm8Nh61rw6meAvf4CBbOc76FVwzDSKpldk5AS69Z2FgLbRvBbER0nljatSI1piNFwm+IylJh0QYxhNHNI5n23Kr0TRrMbXPtXExiia0USp2WQuzigkHzj0PfTtMG9uGqLHWQlCrvfuyigY1AxwHZx31uJUuEBljIiUfMLfO7HRnJ4Minv8CChtg/JFLBDDJoZIUq162+iz53VeBRIHhy4IKDN5oxoOG2h7hQhuvo43YfdVIO2Y3Q+uivhlDUxyJ39vfx5abPU/gpy1U72VNfFD7OkMRzI3A9CFQIQEFno5ex47gEdqZxiPAJTyPSbToRoveSzQu666CcMjUOxE0TuwGEydxPHlfO2aVhsqCsYft8eS97dzTGHexVMa7U10wg0EKAyJjh6lVnBOYATM/CoN7jakWBTAbq7vz54xJVJyA6ZNmYM2OvDIxKwBUIbgbxJ3gxCnnchC8K6GaMIuENBvXk14cSiTEJaoFYiXNYvXQTrAa0cPyIHO5izZa6tijJqCusM70Y3kC5uK0htI5KJ59FWkuArO1SDv13y8NXI2JJ7NxSnbVfhFTva5C7fcVjokBC2IusX0tdG2F/KChEXRsebRthKHXQVgkqM7xYPF6Dpz+KqvCg2zUB5mmkxfYvkLS2QJADBb6NFDBJ8TFSYFyTbyATJy3nCRNHwtASph9n1vN6/gcIRWOruJHs6SnD+COH0DPnDJjQWQo6gw6DBAosiyQpoTQmshJMxuVcGZPkFczVCPTfIVLJFNoGWcAo+ur1ysiCtQkBN8D+ZNGYxExwDSrZn68S5/SIOIO1NIQlo5/CSeBDRdYTlqZSSsxnS4n0XHoweOxi9o1fJpbMJ638WdfwXFwqaSZ0LcmbrODRGM2sZ8BDoEIjGafG4INb4VzTxltpXOzAZtaLer4kjbOy/HRXoEwN8iYk2HqxLc5EF5BpLmAGJxZ0MdBDIAugroHWKCCS+P2hef7LZJmTlKraUXiNonUAZlgku3jX+LakU/RVj6Op4oIrVEIRhng27yZGdppZ4abuY+1HEeiKIdpvjz2TrbwPDvYR4DHMTYwSS/H1DCj9BFcSMXOSyoaopNQ/S64e4AQqg+wCIEXjhivmt8VF5VWiPw65Mx+mN6P0uElnNrJwKYLEbuVaIlXB9BoExdUHjdewPKE2Qxv+uCrSGNJyjFM1Ov5YmAs6FwHrAHxFKy50njHHA8Grzdkt8A4DpYcDqJeFqR7J2GmFw5/1QQhrlgqoL6euIFNdwDRecdJPRUM0VDgeClJ1pVZzjvUIBqpQ7ZOfo3d4/+b9dPfJR0utoUVkgVyjLCKNZwgTQkZnxPgcYCdbOM5AjxKZOlhHIlDiQ7+mp9ljO7zq3ErJY4vhGCuiaS2tauusgiphQeZQchugOpZyK8mQ5krxz6BCGY5xgZOs2qlN1um4f3AHdTLXypMWrwLyxQ0MhJituo8trj9l6sIx+Rsde6AhVPGq6Sql4HWstwgSsYZ2QnlYoBlL+cHl6REkFmA7avAu0h3d1SBF78Is0cvEJwXE8VCaFwiGhfZ5WrU2mNRXNFNaxP92rxNhgB0hKMqZKMZBhee4A3Hf4/u8iGEbo1EEkWBObbwAjTBhEvANp7DI8CnSp75+FE0aWZYxSnG6VoeXAT4HZKOXS7BLMy9GBCWdEvwcPt8nE4fmXMpH5hDlyNEykF4Ah1qdCVqMfcUQlaQaYmq6kY+FwzBWzxpXoAz9wLv4O9Yo48zSj8ZiowwdJHBVRoTo3QXZqBWMO7lImYP4k0sv3o0e5leBaIjKI4ajuUVK1x1PrFeny5MCU+7i14ZAxwDmPiiQUzJgi2YvddXunNdUhwI2kFfiohfAX17oTS2gvIjcRkP4YLoBtEP6qgJx0ic0ShKJ8AlLt5rvTDSMXbuqUdhIq69KRzD2LcPUxu4qkj6zL28eeYv6FOn6agcJxXNIVaQM9MqCUwAqRZ79DjYhDAfj4AAb0lbUUhY+44Mez/aQVCCiceqPP6bk5TPRLVHlGlJ151ddH5wLaI3S3lKUXpyloW7R2l7/zr8bQXKT88w9acHUcXGZ5Fo3HaHTR8fZuS/jzB512SLxTOB7DpkFSfxqFIiw2NcR4oyVVIXmXOiMNHVD1J3l4MZxKtYPoL31Sr6MjCDPMwePjkMSKzGaIpVzG9QBR4B1mPq6VQxdXKHMSRuMrH0AiXttMakpFfWWhjLija8TbbvPODigHsjiPWxUhHvAqDGMGPPSB1ctIaoipg6RCEcY07k0VPHTDayALwcDO0xkbEnHo7rnwgorDHZxmCAKCzDucfgzGP46hgZPUJAREiafJzAFeHgEKERlOJSDhmKCDQVUgR4ZCkiUWigQhqf6qJUd8NPBdzM99jAMZ5kDxN0UWqqCmb7rXhaUZmFwkaX7GqX8R9WOPiJObTSCEfQdm2ezZ/aRNSeZW5fmdxN3aRv7scdzlH4iVXgSNwru8m9ZxgdmesLFDbdPuNVSMmA4U5Julty5v9Mosqtf9FOJimTQqDo5yw/yT8iUHyf13OIzRcJMJrFbspZTDmG84GLzUt6uaX5HpIfTW2gSyEOxpzZQZ1QtzPbxTxXFriJemUB4mPJnL2XKNXQeExzbSYpGC7cIagxhPiZh2D2+DInShBdILeZv0muxb0eghPYRdQFhQwW8MM5ug5/Dmf2OFujZ3iBbYRaMqZ7CIlrwE4cpr4dgTZV0Tu2xV4iAaqCOPYNxOwJokjxDFdQYIY8c3HRP7FIM2kOm24VRr2cz12hKTDFBLvQCK7jCZ5gN/PkGiaoVjD2wwpn7ilT2FRAepBd4yJ9E28n05J1v96P3+MQCE3uygIVIVBaUiJbcVEAACAASURBVPip1bUNxhxHoNP19kkEAoWPxEUikeR251j7b/oY+9YM1SXAZY4C3+dWhjnCOD3s5SnamKGTyZba28VLFeO+7GVp1dtlcQr9yyF+fJ81cZvaMPVnDvKq4XoaxMPUx1mqFo8Fk3zT8UuUJhMq4352O02Ix4VsUph0yFSKMHWQRfWpG8QH93aQcTH82nUkiB4QedAmhcR1p16kpyi5+egfsKX6KFIFSBSv5fuUSfM13s5BttU0m5oIB9o3Q9cuw0hHAWLiSfyZg2yM9nOMYfoZpUSGLEXamalNGideoQSaHI3h+GnKDfUyBJBpUZBKxcliDoo0Ae3MkaPIzTzEdg7yZe7kLP2N3ylrFo4GqIrCzQqGbk9z8BMO80dDhAv59TIu9iNQQhLgGQ+e05hoZpK9onh9UrWqYiL+pYTQnLtrhnAqrHN2TVImw7Ps5gxDTNPBKdZyB99igp6L5F2WEk3d9l9Kh34lxMWs8qsxuUwCwwm1U/dUvZrEwXAmreoQvUKigXNzkBozbul8fz2ArkZVaDNPk7saKG1Kv0oPs6F9Jt448OGl96ASEtweE05hA2bR5lqRJsnZue84/Wm6J/fhVw+iUCb0hYh58nHNiVYEnzCVvwZuBplC6IjM7D7y5+4mHY0Q4LGdA3QySTvT+C33NH5pYp1wFXzm6aKTOTyqXMM+1nIWlwqDjLTkaDSmMoNDhIOgfYOga49H8WSErihO/Lez7P6kg5s34BfgGYCJuZ2k5mXaEdUySs3/ES4R0tEMvKuL2SeKTNw9g6qqlgtyhMs5+lnPUTZzkNOs4hz9dXBJjoXkc1iwuiAFR1Cvv9FKNMZbdKE7J15oG9owW5Y6mGjUk5hkyRO03vv6chcXA4ohjebNckBjc2Gaz4l4SYS6FjDXCUemwX3CtMVNw8B1ceBpBYrjJgWlfZMpYZHqNsCSdFXLjAn2dPylwUVXIbjPaC7u7lhTmQM9DWqf+d+aRf8m+xBzE2f5HhFFRM2UKMfqcXlRNqc0rr+BW8HrRKqQbbNf4YpjH6VdTdDLOURtKtqJWB+sCtnAnah4qlfxa5PKVEwv1zScprvjASlKdDJSM6IylGMvkmaWAlMNVdjifgk1Z+6p0H9rmoFbfNys4NqPtYOGmecCZLGCODdPKgdamLKEtj+qceFrm6LuEuIR1IDFIcQjxCHEkZrc5hS7PrcFPVHmsTe+wPxz5ZZzViM4xjAnWAdAlBh0qS5JftirKRVKC7QQZh+yQ1XCuegCcCDCJKUOYJIUm12lcxgv0yQvn2kiMB4UWzC8O34lo07v59XFvVSBp+NXL8ZL14UB0aVkKQB5qZ46DXocSgGmfnJgunr6CLW8QLQBl7Z4g7j2bWZ3Cqdg6hHbQNjpF+Lzl1C5iSB6Htw3gciZewUPQPAsybwiAPffBh/jWucuMsFnEZTxCHicaxllgCoe52qmhTBBYO27oO9a8M1+QH4wze7Rv2KdOkSExCFaljMIcfGpooH7uI1pOslQ5Hl2GJiQ0Hudz95bxhn+H18kOz2JiJJgFDcc46FpZnAUgjmyi4PqBAhPMHc0ojhqNBEhNLnVLjf9QxfhnCKV14hMRFWU42tb0lbH95aAjk2xcgO41EEmLrwsjbYZ5X3Sw2kWXqigo9b9ohFEzQNLwpqfLnDFf+xCSPNjB9oj0C4zByOKZyPO/P0k5748eYEA8wNMLEyyCl4ReADD9L/cXpckcCRXeYVxm/+ovT4XKgVMFfwT1EPy76BeA+KV4JAiTB3kY9SifHV8PNmdUcWUrgBTLcDLwdCbzC6kSoBIQ/8bIbMWzt4dxwu1Spp0wd9sgEsFoKaAxVu7uI+ra3jQvZJb5Bk2q4cAOMhWjrARhcQWx0H60LkXem8Ex5gK6WiKK6b/gXXlR0jFPMn5yEifKiEuZxiq7duiEWhHInMOua1pVv3tMPMDkmNv3sjGf/kxUsdGawATIZmgHfAQsZlSYJ4SHgcZpptxHuOq+iZVAqRnBnHPbQWu+qtB8h0hERGCCOVIRAZS6QgpjIljSxWGuIS4RDhxKR0DAA5R/ElYA9Mkj4QGVdFE5ZDyhF75vvcCkAIhBT1vaaP/Z7qQXT4OEQqBg4vWLm3Xpskol7abO6lMRMw+MLskcDWKg3GDzlMPsqtiEuPsrn4rE4kmT4U0IRGCWdIE5115Nabw2BmMBpU8X3H5FqtaThYwE3obxiO3E9O/Sa9bMrT95ZJ5FqcPNEvCZa+rEFpehoS24kJuC6xbC2e/DqVj1MuuxgCUvhHwQZdMFQDdugaQq4Sm5HQw4V1PqnKOR7macXqJcAywCMeErHfsMeAizT5AqeoYN4/9IVdN/TW+ml/R49sVeppOvspPUCJjPEES8tszrP6FHrrvaCO9IQ2OYOHazZz5zXeQf/gFuj/7PSaDdibo4V5uY65Wv1czzAkWRI4xvw/tCMJQopRDYUuKVJ9L31vaUEIQzir8HhekJqxqsBHSxOYGCh2HG7uEpKigEtqL7ROJqrnGLZFrtRyFRGhF6WSFk58aY/rhBRZeKKHPF4chBbLNI/W2tfjt0HtnhuxrfQJRiUHecDSRcEAaH5XT5jD0K4PMPTy3QnCRmEkwiJnYCqNG/5ALTevPUeHDfJftjDJHms9wLQ+ynuqyaRgaMxlfxNT6teBio4gvZIvdy0UUxpTbhTGHzmH6F+rm3gznrTd90dKO0fwuQFRgtkYuT4HfayLI8UxgnMxAagDcLph7wjyGNwD+FeDvgHAKyg9ANAKqMSZGCGUidLPp+wmDNva7V/FYNEQYnrWnxCHrq6D/zeB1goz3AYoW0KfvIrfwAFqHDVtZJrmWpGgEZdLcwx2cYA2ztIOUSF8ifEHnrQXW/Eqf0TIswZ1Nce4X38LEW16L+7X9qAXBPbyZKbpqXIgAnmMbTkay94876b0hxaFPz3LiC2V2fLSHwt4cqTVpo3VojXBDlHAQklgfqAND8hksaHiE6FgrqwEu1IDFPpvVahQCgWThjEalPUpHq6iyRqTiiaQ0OmwieB2ByHukf2k7+V/fTr4Q4IyeI3CjOGZTxdeWiXsZEzI14CNcsbSJ3CAhJpBLYDQYhdl76sIq4LkoepnnDp5jkBk0sJtTfIif5CHWEy7reVIY7SWgHmY1jtn5c7GKJ9F4RLVr2rEV1bTqH7XYmKIcZrsdj7rpF2C4rKXamTSbXmo1tQhDwi8Xm7LU7SOYehbYBzIFvTdDfrtpRySg7bWmbtLcU6ZpuZsMz1J5EqovQniGZn5MiJBc7gxSBoiutcf01OyQ0Yqq+6D8T8bO8jqg4xpo22W20USA0FA5BSN3QXUCVwcMcTqxUZSmjdlFWy+AmRgH2cpUIkzfH/RZ85H1pNf6ZNd45HdkcEXYQPhGOISTAaO/ux9RCpgV7QlgMWqeANI9kuH35Wnf6TP1ZIXj/3uOVe/tJL89jcw5qDg9wZoyLmEDOKiEHgJmQquEOWRfdoInPUiqxUDXGqqRx8zBkMnvzhGWDSErKiFzf3OE8HjRaBtC4G1rI/tLW0m/dzOpLkFalMlRJM8caSoN/ZFsa6Qk0z+c5+i/P8Hc/dPocKW2V4p6tbMSF+KlkWj2cpJ38CTv4gncONAxQvIAw/wX3sQBhs5zlQxwFbAWE0h2BsMFTTfcx0HRTpEPcB+PsIkx2riK4xRJ8zjrOUXHRQYbXkpxgPWYGiw5TN8WMYBuPUpJscCS/M1a7dCwnGjM4vA45zNrjXdTxQEUdXPNsF3xe5mqz3UkZLeAyML0vUapcPvMeaEtg7t0u6TUiM61J/TUzCpzMTUF858xNlR+B/TfGVfKx1x84RCc/UZcf2T5izd3Ud2BW5fc1QX6PzhI3/v7cfJOzQtjSVG7OintoOLfQaLxRGySaNtVGkdEOEIhpa4VIDcmhLmncT7rBEyEDaRt1AAki1cRW3ZZJ0AodjyTDPJLAk6AR1X7lEgT4oIGESn0wUnG/v0Big9MIHIubR/aRv7Xt4MEP3aAZyiRpVjb9ybZq+b6DgEulYrLwoEiB299hGj25S/p6BPyu3yLn+VR3BrRbaSIy6e5mU9x6wq0CgtydieJOsB5ROzgNG/maVYzwZUcReMQ4jJHjrXMcIxefoV3c4b2y0SDAQOae+JXhCF5B2gdFR2xGAxsoMVKJQC+xPnCBwSaLAEf4l7+mutZIIVC0MccBcocoheJJkRSwUtcqZkzWrm4TpQsuWDJngT5ZPeEsaeUz4JK7hO93OOc9xQKt3aSuaYd5buxH8ZMykVagRC1vEgZGx7G+EhG9jqE9ocRIB1Va0nSVEvqJ8nJSuL+UeyCthpK0hOkUbFZ4sQcjagphkmzqQZWwh4zmp8U4G3Ps+oTV1B6dIrqaEDuvetAGhLZaFVBTVtZ5EWCGghW8Ql8D9UlcIfSqHIRHaiXlRNVSE7RyXG6GU54l0xonmY3p3BRKyR37Z5JjQ2+glP8AV9lkOnYeFIIFBlCuuIgiQHm2MMIo7TFq/HlIAH1jehcDLAslYne6key2sz5tDF73kEMV9X6B5doeljgLexnDyO8nX18kMdROIxSIE1ABwucpY12SnybrXyEt1CsZWW/9IFkqGELKLoElfvNX4BwzriilAdSQzAD1TEQqlYLe6X7fQu33k4RaxI4Aq/gkN6URbgm3tUCi42AtbBgJ5id6K0eRSXMExlP+pr5oyOE1lQXBDIvEaI1J2RF1e4rayBkW5f0DFl+xYKh/Wu2Z6h7mojbAhpXGK+UO+Dj3dGLqmpEKorzpHTNCyXQcZyN1c3qP5q9fhWfQHiwKsXQl25g4Z9GGfvdfejyyxcnEiH4PNdQwePfcTc+pg6NhDhSSawQXKxobKSzj0IBOSI6CSkQUiG5xif1X0HnK72V8HlFYOJ27FjK0KwBG1nu9zEquh1XqhZYZwFHI1jA5V4yYoQ73Wf5bjjMhM7EY69+vzQB7+MRbuEwJXzApZ8SDrCGhdqY6qeMAjYzSZ5KvAlK48L7UnrCJTwIwQSEIxA8R00rqYzA5H3G5y0UzO2D0inyqwXbP5BCuPDi5wKmDizTUQJyqx02fSDL7IsR2pW07UyZ1bwjQ+d7BlFZaTYSoG5SWHixYsFC1qZ940berfKR6hpHCAsBaI0bClychumqEvey4OAiCRNnWdAy7uD6/ZMRu8bsitdvDeF4Fd0uEb7GUSGECsevpwsgQKcEMiUQCUBJAqjVfpqf0Rp2AZ45x5U4W9vxTpRq5WRfLjFDO8WjrGeEDjYwntB9NQPML7EAtBYBtIsSb/IO8wbnMBNRFjcI2RS7N0sYVsgCjA2/62GBO3ief2I7k2QvE9NIY8w7m0O0FLCc7xfSuATcJB4mxEEJWTPvEZqCGOdG+ffsdk5zvX+SL1W3891gIxM6wz8HG1EIMgTcwFHex6Ok0OQJyBOSwmjPtaqz2hilEbCJSX6be3mWAZ5kiFEKjNL2kseTS/l+KKVI7pRmni+EuWdhfl/83nzesdllxy/6eHnB2OPRsuAiHBi6I8WuD7cxf0bjdLrIzhQhHmWRpiLBRJwsLqvXDCbN5omgEaetpgJJDSAwhGguojIR4ToCT9TzhMzKYIDDmFRuzWxKupjt3TX1PmrUYFQNcmoDJ/GLSK3QkUIGEY4LUphrhIn7JaUOZovVY9t2qxVZU0wrRfXFhRWSuhcnGpgnhU9IHZKNXIjPQ6DJELJGzHKbe5h3eAcoRx5dFHGDkIqug0lA3WBwMeTk6znMds7xQ9ZdJqaRBp7AVO9vZdokaYelRaAZFGf5U/8/MKxPgAfaFWgHhGu030xYMiNTat4vn+Jn0vt4KFzNfTPDKBxWM82H+B55QgoEZIhIAa7dgcMO1QhkZMBlPdN8gMcZI8sPWMtv89amX3flEmlhsqJNFF6rCyy232ePKZ7+bxWu/O308qNIgJcTdG5zkD7kN3sxm+CgY5XPBIeZH8GWV0imDFiQsJ9bcLGrfPPEtGBjrm3C8T2qOELh95hzLE9Sf0JJpB20BqUl0lENoJbkYzTWRLKd0thW005NpEF2eIQKdCkyz1UKKD03Q/7qAtqJz5YaIRRxo2twqWLASHI4tg8a+ShhSgYHCjUfUrxnFB1cHLhIqU3gpQatlv6BNYIAyUk66KRINvYYLuA1qOatxMF4gjIEvM97il9LP8SwO40rYoiw8Y/VWtdQwgBM7MeIaXTFGqZ5mLWXScKAraVzDhMF/dIAT6IYkmfZ7B4hp4o1Z1PFdXAdhSN0PUxJgq8jpNQsVHx8EaG04AjdvI+f4y/5Ans4yzpmceIYuVrpmNhJIrRJpvbjUbWfQT7MjxHgMMgsZ2g772/aLFoLXIlGCl0P3FvmIgLIDwo2vt1l/nhEMLcMQy0g3Sfpe41HaULj9UmUlLX+lk3gkNQmGreYbHw1hNjHg7T5exaUrPNYaI0WIqZBm2rCaMnChKQ44TJ5qELv63O4aTO5QuHUe0OYh0qCi6ARWAQaIkXlhXkm759n6stjhPORqamFRrqC9jt7kBkHp93F39OB62ncHh+3z0cJSdJrlXRxiybT0Cqa4ckis//zCOHJIuUHx03DX6IIodm0Y5qtu6d4+L4Bzo0sVftFUMHhS+zlON28noPcyT4c4HkGlg2kE2j2cIaf5Rm6nSJ3+gfpk4nMeLvge2a3YBtVLqjH7yY3knh5jcALFY2J0j2CyTNq5p2sN2j5gtMpqrzf/Rxpt2wPQBpSblRX5eyW5MYTgiMUN6WO82vqIb5fGuaR0ioW8PkW23kNpwye2E6zU8BWobR8KOCi2cE4v8JDDDLLkwzx11xD6wTmxSLQuFIx3DGF++0df8PclMNAZYG3Hfs5jkftLck4B8UOznLDQwd53e1PcFz4HAtvYJwdtSTHpGgFc4cjvnX7FO07Pbpfm2H9r3SR2+E3AEkzb1IHCFVzTSeTA50ms6VRg9FxfESEVBFRSREpCKsCrTSO0KQzEamcuT4ajn9H8f3fCZk9AVFJ47XX7VsbuSt9wdb/PMTQO9ubtN3GASLQRBMhE39/hlP/9TSqWYsQsPCDqRpQCQk4gsItXQz84Tb8Xe1ErtNg7tTFjCiBMAD25DST/+sklWdnKT8yYWJmVgwsDiaxLsJ4G0wm9+t/7DQf+YuHaSuU+YdPbuVjv3cV1Wpr9b6Exz1sZQ8j/FduQyN4G/t5LUfpY5Zx8g0g46DwYuNlHp8uFni7eJ52VWmYJLVHjf2YnqLGfzo0psathL145UUB++K/u1hcfMvqXkvrWp4I6XEmzZh2MJqchykX41HvCCux9tGlS3w0/V2eXejjJ0fezamgna+ykxs4wQfk0+CoOiprTFmmpnhOF9jIFL/N/YyR4ZNc39I8b5asG7CxMMn27jFeO3iSn9h2ALenVOSKaBpdEnxN/B3fYD1/w7Ucoi82YQQOitXM8N/5Mu3RBGMqogzcru9GE8YbcC8WU1dKg+cwf1oRBjLBYZintFpI0g3dSkupayJJzsUMLfu+kZNRVCY1laLkkY+UmT+l8LLwuj9KMXClNKuf0Azd7LLzFwQP/UEV4YDjanb/ZhrtSELtEQoX5Tr03pJtUf7AgpB9pwhOFZn4+gSq0prU1In/dHy92X+eoLT/MXr/43ayP7EWlXcWaUkN1yhGjP7OfooPTBiORekVzDJBvQpaF3BtfOwI8CyCKqlMRLYjQrgObgbjJVxCBpnkN/gSmgy3sZ8eiigUg0zwx/wjjzLMJ3k9YRxfdCWn+A2+j4OijyK7GSUTRqYKYGLjyto8tIu7qFf2tYyFwphItoDk5ScKk4EO8BoWF9xurcEYDqrM+53Pc6v8gekKaxd6GJDxWVxqN+ZORKhxqxG7/VH+tONufmPyTsajLB/lNvYzwPu8p5gJ0zwZDPIu/SxtuoSXSPsQiVeE5H9wHYfobmkSOUKRdQIiLbmp7zjvXLeP21Yfoa1QJpMNED64sqJxigpRgvVqgh9nil5GeY5BPsntzJMmQ8hH+Q67GGUcjafBwUXjNYT+txQh6LgyzcYP95Ie9Go6Sd33YbmNOt/STKomO7+VO9qG4tjzJQopFW2roKIcrvuzTipVF1WMSA+EVGMAAo1OSTZ9UNB3Y5ryaEjXTgev2yWSxtVbJk0gfCLXibd3rrvL6yxMYnCs8Uiv8Vg4wPnDgawpWlFUT5U5+1v7aXtmgbZf2wKeySeSrkB2+QhPmPsozcJ945QemUIvAWCtxcNsUN+L0Vrsrn47gaNoJqlWHYLQwfEg1xmRyiiq5cVarEYwQjcHWMNP8AR5iEOvjNHSxzRbGalFAkk0XSxwHUcxdL45FmIckW4Q45glG5Pqu65rKwpjDVTj1/lCOX+0EmI2ZR/G5Bo1r/5Wg7FPoMmJIr/j/Tm/Kv+aNpuvk9A0amy21WSofZW4xhkiNHFBt6cO8Ze5r3I07OBPyjfyRbGTkaCN35IPcDUjHNC9dFBkJ2cT49dcapoMH+MG/pa9lGuhknVxheKd/fv4vU3f44VyD/lslVuGjuGlImTK8EHKFTFfWgZKUFWakIidnCRPKfYGmEm7ijlsPRMXTRpFgSrZ81QOU1XN2W8tsPHDfaYyJja03pRnsBGuBjGXHirJBzQTPOkpMmqmXelrZR8kuFKR69V4CNAOrrDpiTE8CInOSgo7Itq2unhpTYgTP6ULSiJUrB20MDstqBnXNKTaBWv+ZQ8zD84Tzl7AuhppovEKUx8/SOn+cfAlwhU4fSn6/vwq3F4PGYboyTKznz15gbEsHiZRcCOLo0VdYCdaP8TzT3Vy+MUu1m6aZ++t0+y9aZIHvt6/qPa1BVVjsWjKuAQIKghO0kkZSY4yA0yzmikkJtHxGQbZyRkKVGvZTMo8Ol68W0LzTr4RZpraGF4LLOZ/TR9TyEXD/3KRCmY71m5alw+1GoxxQNzgP87PZz5Lu5pF6CZttL6CEjs263ilEn9jNS/vVLk9d4i5KIXra1alZzla6WCrHicjQ3SgiRSIOA4kwOE4HYQ4PMhaPslrmI1TFlyhULo+4xyhua7jNMO5KbZ1jSF8kM2xY8rs2gEVQRDAPKKWuB0mbP4yHn/IrbyVA0QEDDLKlIgoOh4nnE0kI2VbiQbKUxq/f3E8igGaxccbA+pUYvpaj42MwUg0aCxJ88ieW4sVESLB8chEkBsIz8HxIioIgsChErgEfprSmGLsu3O0XZ0juzWTCMDTJI08q8EIT9G+zUX6Lz34qPr0FDiC9nevou3da/CyGlcHhM9OMP0/j7Hq7XlK97pURoMVkg7rMLk8mRafmZAqrQ4yerLKn3xoD/m2AI1gbCRtasko0QAwEs01HOQaDjJLmq9wIzPkeB8P8FV28zCbGWaMN/MMb+QFBphnjDZ2MYoTewUVjdpI7fJNzxNr/Itetq92cfqC4mpeWdEYTXES4z1q7aiXaLb7h/jz7t+lj/F4McO8rHen2YqyuGT/143nVqXLnOOTdQM+kHuC004bJ0Ubf7hwK7/U/iinS20MqVleDHpQGkp4/LPeyDfCrczqFGVcXBRtToU72w5yz9xGZiLjIfZExF1jW3j3mqfJECCSHvYEEeaGSCrK4SG9mhcpMIHJEbmH3SzEyFXF4V42ch8bEEKTchTekE9qQ5rCbV1sEDYKpPWEkr5xr4aBxM005uGoxBRNJiSa3CKndh6Y2A4bz5KMmDXBbXVJmk4OUS0/J+l9aUxEtHameT9zVjD5nKLtBp/pgyVUHJIstMIRqkE7SpLQ5t4KT4RxgaeVi5CQWp2icG2BzJ4CpBxybxvC31ZAiBBPhMihkN7/u4dMj8Cd72ffr54mKp/vPgLjbsiytGvUTPegKnnq/i4QkMpE9AxVWLWxyNQ5n4UZrwYwDoohZlmgnU9zM0+xAYDVnOMGnueLXMdh+ngtx+gk4jA9ZAh4lFnaKPELPBrrhkanksIk3Dc0BxNapTFkpaZuCchaizX5JUfdpZe6ppw8pmtze3FLNLAfA+oVTGrA4t0VpFBcl3uCrsIYUkUNJiG29KJ9+CTCWjMySYTHBHCgJUXPw3ciPFfxRGmI7R1jdKTL3F9dzzt7nyUbBWwMpky5FgGvl0e5SR3jrsoWlJR4IuJfdD7Pm7KHeGJhiFmZQvvguxHXd52kLV2pe6CSABO33f0Xs+9hvugwqXIs1Nh9UaNMk92kEWQ3pOl/by+97x/EX5VCOvWQdXOezRJKfhOENJXfNPXyATYqJQkwVqzmkvwR7fWsS9bSwA6NcSiWsYkhLf5rYmqMz8ltOC/J/oS4OKt9OlcbCrlwlWTqvln8PBQ2ezVgcePr1n1bNq9Jk18lyQy6VMZWVoZS+ILctgy7Pr8Fkfdw+lJUy5KF5yuEDxfp3uuRykSk+spxOoNCX+MhU2IF4HI+UZiyAHV3sJSaK2+d4vf/7llSqZDPf3w9X/j4OmbGPZQSBDg8wE76CXkzxymJdjTwAHvICJe0jsjIiN3OOX7ZfYpPR9fxPvUUBV1mWqfpFNS2wRI25sKuDrqpaSGoELwQqrpR9zK/WxrvFdBcPBGxyp1lXqWoaIc5ZRberd4EP5Z9ji8s7OJE2NEimK+EqZfjI9lF3hlmLqonW0oUfe447+r/Gu35IiKp0iV5KCtJVQ7qZZHtCukAWcinquR0FaTRSioVh3ymys35Y3S5JTytECEQ1Qn1LlHkp+WzvMvbh47NK0drRKi5pe0YOuZ6hGeC+WqSIN8T0xT3dNTGtPIWTe6lJJxXdP94N+lVnhkY0gCESExQia5pHck6uDYwrN5HBswWu12JOz7pbKw/jKKRvNXIGjyFNTNK1kDAwRRPUFoQzUr2fSbAG1L0vtGBvFsLYMORtXBrmxntZCWrf6GH6kjZEGY0xuDYaJt6mxU4CidtXM3n3QdOQGFPjh2f2UhmUwoV790rZ8uc+6PDdGwWdFzZS5oQTxhiQkUQnSlfQPW5NEsnw0XACawGvAAAIABJREFUQ5AokyElbNk7QyYb4PmKn/6No1x72zh/9Iu7OHYgHz+T5IPePrbIcf6V8xRaQtH3mfFTDIqQOzoOkferDIkFPlK5FxloZFUzUF7Akbo+EZonTlL1j93QMgRZBCfe0cbuqw6aq/U52sIys3FFwwsRR6h4rEpU7LrzZYQrFJuz42gEz871k3UCVrmzfH7t5/j8xC7WihmOBJ0I4Ob0MW7OH+On2g/w7yZuZ11mirumtzIW5hDCtMgVATvSJxEc51/1n+JodRuRdjhQ3kqfO85P936Fm9t/UI/Bav5Zm+NTrC0pqEcWJrWcGGyENn3sasXrek/iCvNsjtSG00lW4qwYct1RGgJdrxVu3Ue2d1WiHYunZoMG42op0FKueCfMYCLk9CfOsvrfriK9Po10NMK3haVNTyQzeZs1EHObZNGjup6TjH8x33Vqzybi/+taS2POTYjboLskQ+8sIFQmFY/+ScBTn1a0dy3w2v9rlvFihtl5l/Ran8zaFNkdWUSXh05jImgdTXrIJTuQQci6nrL4meqmnU4prvyLAR582ylKI+Gy/SoEpNelyKxPIR2TIKkVVPbP0rldsO2X87SlFvAIcGN9MtSC8Hh58Zaxre/A4v1ykqJZVCxKaHoGSviuKTbuZiK2XTXN237+JJ/6nW1EkaBHFun0yqSdiIwzDxkBhQXCgmBrepy0F5pdfiNtLAL7ShbIt6Rk0h3UDC62eZgo0maPkhsoxDwX5DaSaPr9edqcCu8beoo/PXEDSksCLdmcneCPtnyHiTDD/VPrOFrs5FObv85r0icZUnP8ZtcPcKoqjkPWeDLC9TR702f4f/x/Zl12mpvyx/nM+JW8qe0QWgvyssKPdz3PeJhjR2Ec5DdRQlCMsnhOQM4t4orAzuE6cStonMjJvrHvk9oCtCwJ44mI1d5M7YsiqRVZTcgSXzr+3wKP03TN5pAdK0nwi9+7XTcVcIMUs0+UqJw5/2h1MgJRDtBTFeQaFz0TIHrc2mRrjGOxLTAmkSO18c5QD21PAkuSc7FT1R6XKEKcGiEooOGe9oksBWxjXGs5QFpz+omAp/4yIJjR7JZH+X+/8C0+fPTNPDK2yYBWWtBxVYbC3izt1+ZovzpDfr2L9Awn0vhEyeetF5QC0EKjvHCFO4yKeBWvq8lCKPpvTZO+pYe8VyQjjD/GxiREkaYyEqBWnEe0XJ0XgTE26ltCoE0FRKHqS4bjQMqPjDmDZq2cZkJk6XfmSadDyGtoA69N46VUHTgUhu6x4FKq36a2ctjMOTvQ4zbUBnyNnKFuPlnToLayrkwcNJvSE/zdli/Sl5pnX6Wfj2/5Jik34oViD2vSM0ihuLbjNJtzE/R6Rd7Yc5hetYAsazJ+wGSYpU1XjIckJlF9J+L61Em0I3hPz9Pcnj9Mj1tEKG1KPvqaNcwgpa49Q84tNmpu9jmSz5kUG5WbBJ+kiKZXfMyAlm7sd3sfQb3vLZDb90nCWCb+Nmg0CUkqKBpcFWpk2iG1yiecU6iKMoFZS4xbJyfpuiVPNFZh/sEA4UDJbeRKWn1VCCjsyeJ02CkvYpBp7KUIJ2HyGLgwbRUxkEuc+GgyyCyKmSxFhN0utjG5UFAUVbQoIj1BzglY5c2QCSvoiskHisqasXsXGL+/iHQnaN+TZtt/6qP3tnzDtep92cjbKG3MKVVVnPjsPJXR5bWW+i8CaI1NiXBEhOeH8c7X9REhUDhaoSqayaeD85tcuJjK9D0sPQMdTEDdt7FbwKpI8M//OMhb33ucTN64+Ccm0hx7Lo+KDLB2yjLb/TF8PzKKUTuGr8xRrwFlPRyx2k05/swOYCs+dX9z8ngrPoH4HBvkcgFbLAs0a/1pPrPmi1whz+I5ilQupDtdQniapxcG2JyZYDLMIIBr2kbYmz+DGylEBZAgHOj2i/VJHu8nhgTpGVvEAValZ+sreTwpRXJ1XyqaXiZezZI0I5c6x/ZTEhiaSddmkLGao80OrcSf2Q04k9+xbfCarp28VwxAbvfbOmlf20H+2jbmDpQ59V9GmLp3GrXQmoysjIbs/+UTdN9WYM3PdZDdnCa7I5MAC6uRJFsfcxXZuukEFogaSVV73BKwyfSAZFRu0piy75L5OPZ80x5QQpLe7rHpQ4rqeIR7r0eUctCerKmHIlGUSkeayrkAqSKEVjUXdDIWJ2kORVpSnYfyZERlJODU306uYPLH16lEiCBCpkTNjZ5MnLRV9BRmf5kjdwWMPXU+1BKYnQ3Xs3x1M4Epx1hvrFKCw/va+Y23Xc/u6yfoHarw9EPd/ODufsJAmkIPjsZNR0g/ZlmzmL8Z6hPOil0JkxNLJY7ZierQuHJa7SdpCoWJ68ST3Yu5hFAvX1dXAlkR0KWLBIGkKDwGcvMoBGPVHJ88dh3vWf0MN3SeQCrDS3jWVWXb7cTPl2yzvbiV5GRLtj/JVyRNGtXi+xZQmx8gqT43Tqf65zYOJnlOs+mZ/My2zZY19pquZ+8hWHzfVt0dH3PbriugruhCuS6FGzNs2NnByJ+dZOSPTqCrLQxZbTSsykhAdo1L+xUpyAqUcOKAOFPgyEJBvV/MaDJ9WS8psBSZm9ysPmk+JXOPFmtldf6lVQkHfwi2/n6KMHSovvAG/vPUJmb0Wtr+0zTFAwv03JJl4wcL+FkzOmTBJb8zYzKXa/dOTup6u6oTEcc/NcbJvxpHlTXB5IoIEUDgpCSOZ9/V2SLivmrY0kRq1tzusm1fxKN/EqFaWjwCM9s3sTSRW++Z+pJVl+K8y/7Hutj/WGdtXy2t6yOtJFwiT+L5yqxuKeqg0qxNJNVpO3CTt7PkocU3J/G5vWZyhbQVMQWsyc7wD+v+kWeiAX7/1BsZDRbzS1JoOt0SoZJcmTlDj2P+r0am+E2oJd+fXcdDs2v4KfbjCoUrVeNkrF0sbk/zat2KhE2aD8mfoZX7ODnR7fdpOmZ5kuZJnSTH7fWS97b3t3laUeK8pFmUpg4wyfY1m2B1FqK1aRaL6/Z4lGVc8Fk6iA5B2y1dTH5ujNKLC0sSZfMvVDjw22fpuD5Hxy3tFK7J4wxmUK6zSGuBxnKNdjVuqEfSBB6WtE3+TeYcJVMD7CdWmt8nH1w4GiElwa4untW9hMpj4590Eh6fZ80dPr4f1ll7AVFTQlErbkkh0QrOfWWa6rkAHegVVegDEC547QLXsQZi4/Wj2mg2cT5CKLwOTd81DsKJlqFTJGbGXwAh0SSGMxKLuCOVdXni9deyr7Kf3WeeR7oamdJIVy+9kkmM+ZNcxZMrt/WAQCNxaRP37CQIE9fzIJ0NuNobIROFDIzNcy7INSxWrlBcWRjhzzZ/k5Figdc4p2iXsefPrZi/UnO02EnaCUk7oen7COOita+kiZMsWdBMatrJ3EyEJvsheZ2EWdVA3ia/m9Q+kv2XBBvbT07ivb2Pfdnvu4nrNrdVYKNoG0nk5BiIEtdQNN4jAXDOht/8mY8EhSxKGIetEKYeazAWUH52Ps62ZbEoqJwNmXmixMR3Zpm4bx53dRZ/OIeWxglcj2G1uyib4za90FbXt3/t+bZXzX861odshIq9klnTZQI+6xO+OfXRajKxOSakeV7pgCNI9Tm0bfFIpQJcaYp8Cwm65vOst8dqLmZe1GN1pC8oXFeg7bo88/tKBJPnsYkEZDf4DP/rLlb/fDfpAc8M9Pge9eC8enBirYcElMc1B/9PiKoucXF8YDvnL/isMRGkJ1p+Kn3B5p/PsfrHMhRHFFEZ2t/eT9+f7+GxYDXfPLuBzx7fzrrMJO3ZMtqtm5Y1XG5Wxe1gTkafJjUee56dgMnJZLkZzCOKNMgMtGcqrM7O8uJCD65QbEhPM+DPsSt/jj/e8G2uLoywPTVOwTVErJAG2HFBeLCjc4y3Dh6kL7XAPWMbGXTnyOiwvqrbZ2luu21/coLZiZ7U5uzPkDDpaufYXCF7rtf0WTLUPxnynyRikxpQMj0gqeUk+9VpcR7UtcdmTav5+ZqP25yn+Fm1J3DDqSKh76FTaWjLmRGRdun/rWG63tnPyEcOMfNPE6jyYoTRkeEmgsmIzf/fVtLbcoTCjSdeXROBxpW+2UOU9BTZDOlkUFz9Gc2ZSdNIx1pNM2dj+slZdLy5PRLjbnbiEWRNOnOOrLUjCWCQjPaNQcATtF+VIbU2zfg9c5RPVFHVpXkRIWHzb/Ww+uc6EFm3liFt+8LwRRIRE9zE0CpRIDSpPpdUuyCYb3UPjSFnz2AYVh/DurZSKxTIcYQrkGmJ1+1SHTFlQZEC6YOTFXS9JkP2mnbGDzvIzR3IXp9zv3wN5967h+m/O82vPbqFXKnI6488SqdbpDtV5Oqu02zJjuERNQ7WpBaQVLEtQWtXTsuv2M+SE90O5nhippyQO/sPclVuhGOznaxNTQOC3vQCKWkM5UWrejzBpKPp8kt0yhKT1SwZGZJ1gjoXktQSbLuTE7JVWL4tj2CfrRkILClqNj5f7IGx17HPGybaEiaua0Hb9k+rYMRmrSJp8pD4X9HIJ9kwgWaATd7TAmzszYsUzBQdwkDgRhFEkQBVr1orUXidDn5blrUfHebQiwuUjpRQS0WDCggnA2TOAdlYJMBO7qWicJOmhblUozHbyMfo+JlV7X8b05IkdqF1YF4zsDXnI1kC1X5Wb7tT65co8X/zMyIEbpfD+t9dxeR3ZqmeW5p3cdsc8ls9ZEaiZb2dyb4wz2EJbkGEIsBDCE16laZzh8P86aXsoirwPQyo7MGATDO4KIQzi9t1hoFfXkNm2Cc95DP3xAKVUxUKu9I4REzdM0N+2qPvpzoQ51KURRrH1eAKZMql/1eHkGE/4VTAF+7egQgUnozomZngo898gq25MTLVCmldNcFbNf/2oubU1fYg8aqw2MuR1IAcA9a+iFibnmGNmEEkz7XS5GHRjkBLw8kgQGhod8rc3vMifqjqEzwwC6lIXqc5edCKPcnGLSbNiiS5a8HEgozVOpKmkDUbk2Ld781rfZMbuCEBK/ncyfZa0LGaZaI/G7SbZo+d/dyCSlLDEnGQZyBw6e5E9HfWq/Jjp7RGOpq27T5X3bWJo//hJKc/22LjLQluj8/o/9/YmUfZcdT3/lO93Tt3mX3VbluWsCVLwsYGY2NjjAETsy8GkhAIhBySvPDOg5BASAKBFyAhK4QliRN4PB6JIXkY47AvXjBY3iSvyLIsSxpJM6PZl7t1d9X7o7tu/27PlfPqnDkzc293dXUtv/r+vr+lvnCKypUDeIX1XIclcbsJGPu8LDYnwyySAE7q6ewZedRqftn8/3hrSv5GnpckBYusz1ptpBOffX5bdClwvP/i2QpKW31695UwjtuB4KyTIOlftv51As8ohi4OOPH9swkXi14u5+z28AZu332c87ktDN0wgBskWK3/Rf1Jcq1AoYxm4q0juAE0fQ9nokAgwvAtanN8h6CnwOjbJ9rvEbY28Z4vfoANG1q88IGf8I65b1OpryYCJhmAzt0678MhLUwyutHrcq14bZVfZEIQGdduBIa5qIeVsMA5wUKbV/G0xsshkabrsRoHDKpa8iir0ljkIRGNnbpWWMiFbs9Hs9fmuQppZbNt1uL+vJCy/SCvX78QOgWDVD2lKmRRor1GFqn6SMEjUVraHy4wbGK01nix5Vro3I3bi87TBJs9tv23YaZvWyZc6DRRK1cx+KZxJv54O06vwFwdTHKGXs5W1gsX2Qed+V6sqTq5L2633SXuiHRe38fZWUQKnfI3nUmosus725yPQ8qXdjtbmsW7ltH1Z2B0TeJT05iK6ekD464npGm/sQ3OTK5J0o57uD0+ld0RPOPxGoYkYfRg+lPIffcU3uAi5cu3YgoehjhRMP3UUxgwykWXe4itKuhkq1kKVdkR7Yj2gkPpXeexiOE712xl7tAufvern2Z4aS6555l2VSsU7DUSJUhUYnd9u4i1uF8SrA4YFybDXlAwWlplqFBjmFrG5cS0vYEhqdsoxZH6AOcX5zKC1+7eBTJeRQpE2448mvDpJOCNuF4iMYlwpECVQsKhU+BKQScRjxTA+Wcg6rRGQ4mgpMpjLX0qV69Dp/uByerykvo7F4wVLO1ctUrhDXj07ioy/9O1TuuBIfFgbUXoJcXagWVW71um58IK/dcPkcQeWWHxzJnEJYKRuW6fKerJprWUznQRbpqSaH1QpKR8/fbhY8+McwwqMcOmF0nh1v4eiJYimtM6SXDdzYyfvRBe1UHHoE0Oq4uLuqWiSAzTHo6K0ZUGwbBLa+6ZAiRPkySNPp9O4TIPzBBONag/soo/NohxvbbglTqL7UGDImqAUQZVsG3LBGDSN1LwkPaZIiwXuHfvZXza/V3e9fV/YMPMSRybQU8uQJ2Yhh1jcOxEk2Sh3HHtd1Y4WDVK7tbpgjIeLFNgKqpw78pGfqV6kIIfZ8hA0WmNajuLGfxijFswWaYqizICsl3b7uT5tkivWlunFu1D/DbQil0cleShFQOQDYdFK/ZIaolkRD3tkhcqnvjbqkT23a0AscjMCpdA1JF/hjVK2j4QLgRe8vz1aon9zCWGMGb6liVWjzTXmSVNbJj++0mWb1/AH/bZ+tFzMMshJ/7gMOHpBoNvGMftkyKt+zKWvh0SvVh1JM9F2Hus56yNUs6y7UYdvEunqTtOhVLUhtAGRWRcwhqJGbngonyS7HMxrB0P8Qdd3JKT8A1pUzJVyqU+3eLB154EX539iA8FTkGx40MjVHYWiL1Ojqqjb9vC0aIuUvYFXDeies0wY79U5/QtK+i6TgjkdZXZ2X6cxIXWzqQZYA5/cwHjJta0bDPrRH6WLtehYf6WGUp7q/TsKBFOt1g7skZ1VzFxa8fGmFlvZoNyFV7BoHyIXZf9uy9l0/QkN3773+itLyfjnGnBxEbxi8URNgbLDLj1TvXD7qB2wdiFZR3A7AlqMZ3hAmkkbzkIebI2xKHGMMZmPrACRcJ8gU6UD+cNLODEppMItm2xx0BLJCAtOhqMrxJ1zU1cFJRJ55hOuKL2ktCw1CpSCCIqbnL0gTEKo0mCDaWpXyIkRef+1M03x6I/+yNVOWtalupOrv86CGdJJFsEZ6+xJUySfSMd0pRY4ElDDUSaYMQjWtLrJ68BXYtpHq4xeuNWvAGP8XdvYPjGUVRB4fRY3iDZAXUX9NLpecu6v7upK/Y7K5SsepO5/0fYqGuLmxT20FcrEMBow/JxWDmtmLrXcPzWBq15zfAVRXp3BkRNcALFwp1riR9Q2aVvT4GgV1E912NolyIYdAgchRo2bLrOZ+7+Fmx1ac5potRN3cRJxn635PCsj4wydG0f+N2U5LTb22+2Xh1TGBzl4VZcNr9vE+O/qVm8p8bk52YoPKuCNxqw9J9nCE8305ePgUNkq2Eq+VF13L4+CjvLtM5EBONB1/5vY08FbsXDKSaCrnWqydHffQKvLxF4upEEXTolF9OI0U2N8hXn/tFGhl7WD54i9lxuu/p69h46yCWP34+now71xVGGC0dm1u++eXOv7Q4rZKzzlwVd0uSaLii3aHhp5TDfnzuPNTegN2gmQXwhSQ4Uz8EJwdHpekgXjeOYTIDZhSpNyF3I2Mg4rLWSZE33zWzgwsEZqoUWJ9d6mSit8J3j5/O8kRMM9dQSk3gqzIYKNU7XqhxZHaQchCw2i3zz8LP4lV0H2T40h+cKqWFVuW7ck7ROSfSSNz0r8ZkhA7fSw1ciRsmDSR5Goqt2FfUQvRSiDeiVmMKYg9aGeLGF42hqx9YwSy2O/vUZ4prwVFUABpOmv4uWIo5/+GnqT9Qp76vQe3U/mOTkQdXjYnyD8dzEic3PuA9bX+ffnSqFVG3yhLCzbhlaNKOI2z2fPcNLo4udVGAtPg0H/yzm2PdjGjMaR2vC2GH1kUbi4u5ortxyjGtHp3loZowfP3UuJ4yLcsErKba+tshln6wQDDgE/YrnfKJKbTJGr8ZM/yxkZVoRxy7TP6zRmNH07i6w+Vf6IdIY7XR1Q7FvcvZjRpIcOsZRmHKMroWMvmOCyA/oe8NGVMnD7fOY+UzqZW0AVoF7xQxJ+juabbG2fwlVdPCvH0l2y1z/tsfGg8HrB9qjVdhWZPOHz0FpjTKw8vMl9GrMwIv7WLpjmfkfLtI42mDp7hWGrutLnO3QtAoF/uMlr2HL7HHGZ6eSyOlUECiV7PAdi5aOJneH/9IZze66jqjDAxUYBrwGH33BD6gWWsSOgys21tmlMrRg3F/JSFlp2rXoSZGZwbuFKDgQxQ7Hwj62l+bZOrKEStsXRg6U4GB9HLemednQ4Q7h6XiGgXKdw6tD7BidxVnTRK7DD0+ey7axBTwvpy7JhS7bIJ0Uu/EkAi1J4d6h7nRR2zqEmeRv8vPYAXXuW//W1AZ7cQKXhW/N0ndFHybW1B5Zwykq6ofqmKYmWtHt/CEFFXFF33E8V3NgZYKFsEho0tqd5IhSt5I6qG0pEmwq4JQ8VNmjfFkfA2/ZgPKdNiRUOdEhiyVafUIKNPEICQjbn/mEBLTwCdv3S/XJqhayHotyVKw59Lkm93+sRbOm2DE0y3M3TPJvj17ErqEZrj/nCYpexHC1xlBvjRNrffzRD67l9EqFWitAOVDZ7HD9rVUGdnkYJ3PVtxC/ZQo0Y4/FQ4a5B0OW9q+x8LNEldjzj5ug4HV4KYsU423BYhmwbNysEE2EoTFgHJdQu4kDo3EITzU59huPsHLnQkIudzt2RCWWvp13PhdvvAjG4Pb5HWdpy9MtbSRYB/I0libXSTJcY/BcTbQQ0Xi6ydojNXr3FKjuKbWd6wCCsMX7vvKXXHngLhxr9rWTVC5cuQikB6sUNvYzeySAdSyUu7JEPAbqsc9DZ8a5dONkO6l03FIQgdsyWR22nM3PRqoMkseIQGuVREULktkoBY4h0g5KJR7EHYs7XbDaUWk2Q0VkHFAGz9eZGmVybYL1yESqPp17yvoir5ftgU4UFInvrXCxfIvtJxLuzVu4dZbF1WVQCtMy1B8TB1R1KVXVpOSG/OuWm+mv1nlwZQMfn7yKb84/K9kDtEHXTdtaEk61YH/2AgvfmKZ1qknvi4conNtD0J/E1SSJdTpTUdqSvJflXFT6bpIFBBsikO3u2Y6UWYPsKYwhrolwb5/h/cHP2PSWp1mqB4yV1yj5Lf7HxT+lqCIqfgvHNeCB8UF7imu2H+Xd33gFtzz2LIxW1KY1Sw83GbogmTTYtioHpRInPTfWHL9pniOfW8JoGHp+DxteUcZRRqyXzvw2GQZLRrmb2mhwiEV+SOUmM8hVGrUx4Lx/38fsP01y6sNHiBaEGSSdaMpz6H/bFkxPQNRUhCcbFHcHOL7TgVjAWuMyXsziTLs5AInfS9pif8jDH/LovaS0rq60QuZHBolLLk4rJ1zyFhhFp0NdPpGutDbZRU/ufrk4Iqg1fYZ71lC+SUhZD9zAJPXaCO68A5klLCXx2U2zTdGTg+kUAE7aVw5J9rz8faIPHGFP91W8/jlSLbQDIlTAdWZjW/ICyYjrJELJCxfr1CgFmf2RfIu911hr0X9xBKh1O+9TDT5e/T4/is9B1ZJ7dvqzPLcyyW0LO9Amj41yxUA00+L0R55k6s+O4FQ8tv3N+Yy8ahC3bAnLzjgk2u9pcsstCxzohna68TY2AIFI01qI2XzLYfb4jxN4EeODCTRXBkaKa52+Eha1K8NIcY1zB+bp8SLqkU9lo6KyOe/zIvtO43swcbXP8a8owmVD34U+E6+soH2JQ2U3WQGZoRTdMdpZ0+Qn0v/GVQa3B4bfNMrC106z+vPl9g3eoI9uadz+gOh0k6OvuQ9dj3GrHpv/ZS/FZ1XaC0EqopJAR4yTTrOhmTglHZ9xGqTGAwW/2LaTFx/4AT7hup173eKRE1/uwHKyS/WkWxHm5kFVZ6BS7xRo0hRtkVDqRNehLkh1STqZyaLE95zlmjxP0o07sZ/nkYe8RqpwdrHnVTZ7XT5vjqw//78ULvZ+6+goUVK3QFW93l1mXfHQXOs9xcvcw1zmTbKsC7zTfYCTi72YluKY6uNCZnhj/yPcvHgRoTm7L4ttoIkMJjLoZov5r5xi/JW9eG1wrdP3sceNSKe69YJCIbEy6f+Ztcve45BYUxaOGR77Z8PJnzi8vaRR+7J0ClKQtHdJ60+QDrqjNO+9/G4OzYxw2+EdrJ4wPP5lzcBlLq6nsEel2OKgcZ2YTS/0OHZ1gZmftdjz4T68QBOpxLplEZf8nTfbS09mqTrl31NGkqMgGHAZft0IhY0FKpdVUb5D5ZphmmdiTOAR7OlHNxKB67jg9vvYoCDbt9KS13ZPMIkwmbllkZUHawR9DvXHVhn/tRGCTUWcoqI45qaJt9OsPBri2SbFMReFprFiqCmfik2Maydunpi0qgbiurw5F9YvSlnsjm1NzZ5hmSLFQkSxGmVu7zbbpw0Uz3a8zlAE+WxrYcq3h9z3ci+RalSeE5Hu9WcrUlDlhZJEMBJVSB8gzXph142/kShGtlkK2S6ENvF/IVwcDFc5T/M+7y6e552gxw2zXTVNX9hXaLCzMMd0XOHri7uQ24YjTgXQpovJVUPt0RqtR5bwdhRx+gIc1x5UYn0urKAw7cXjp5yLtaPQ8X2WDyVDOgYTw/LjIbUPP8k7i48wev4KF/TNZOy7ztrUsTtKOK2SRf6VB/Zw17EtYMAaO2wUdJKT1f6dzY6gDJd8vMqpO2JQitaZiBhDhCZWHibQOBUv8ZRef7Rj2jQnTefpiHnQnatq804ejL1jguEbR8GAP+wTeT6+djGOg1YKqn73HRFFlqrdiD5PHewih6c+cAx3do1fu+pBrrngKe754jloz+Ph5U082rOD2CTcQu+zS9SONKgfarDvnzfSM+FyoGcH9zjnc0Nhf4IUpWkV0ff2bwnpz5Ytzf5tr8/XU0h4j7vPbObSHSdpFDyKlShZCdJxz4YcSM4w6t3aAAAY8klEQVQHMvUg78na3VWpE/FYIWW/ywsYN3efTI9g68gjlrwKIxe+RTB5/xQpnCWfIoWmVftsH1tztYxKzwsZ2QYNnqs0jurO97loflk9xDXuUVwn07UbyqOBR6QdnmwN8kBzA0f1gGA5EqJqb98U24tzzDbL3Lm4lVYXtal5ssXUl2YY+aU+hq4fwCCDC21LM/Qh450zt/gEMXhtoRLjxDGrk4bSUJJisHVGE/3LMT6y61ts6lnCjU3ihi6JQjkZ8+7l6YDHxuHhmTFCnfIjBk58p0XtVA+VrW5iVswVZTT1yZin/neTE//Z4onPrWJ5JFAYpSjvLLDxzQMMX1vGKTgdAsYKdKuG2IBGe5JTN1EkndicKnhVnw51y7F4IvV+VlmIgSLtm1jjNpq4xvo9R8l1BTfRqVdbnFOapn9siT94yY8Z61vlFbsfI8ThtoM7eevfDdAKExPQ1Ffn24tk4c41et7QS3BBhcFpF3NUJZuVTRSVEqLtYsdI7rj5BZfnXiw3YjcGu7umJOxYcRV3yFAtt9qcC5rMYSwmIXXlIrenscXimeu11c52SQEgORu5OO2c6RahLIVHHoHkEZxELCKos6PePPqSqRXyIQDyudJ/SPq45JGLQETeO3fex9/sfy7NOM06r5L4mNgoMFBTfseOcMpU+WF0Lp9rPpeWcpk3RWbiCpFxiEyqyiiD4xhO1PtYCQNWo0KH4JHFRIaZby6y8Y19+E6EdX3PiN3MOzQzSWdesolqkMQyJ01MEUsUs/+Ths3P11QnDL/4fJPP7v0em8uLuLHJdhCZJS2/U9hBE+Y75Rj+9CU/oq/a4KZ7LyE2DrWT8OO3rfL8z/TSt12h05D+ti+N0Uz9qMmTX6yxerwL1lWw8lCdoKoYuiSAksKvOollARuEKTe27IgWGaYgrWTrAyvjtlXKohCbkGvdmKBwdMzY40/y8u9/OanLBWMUt5/cyclXPx+13ORFd9/K2377J5ScJv3FRoICFbiuZtPwMru3TtMyLs3I5fjpfhpNH1yVxDAZjfEcDm7bx/NO74cwjQyUqS6lO79d8Ir1MTXS5CyhvB1DK2w8oASqbNhemE/yacm0CDIxtRRwdm6kZ8iaFtTXPEpOlC2ybpyLbIMtVvXLm68t0pBmdFuPFUCS27DEc5OME5KezDJXTD7hlkQtts8hQ2+SU4JOYlgKs26oxbYN8PZsmuaKqePccWwbjjK8ZNOTVCotfnLsHGbWynzbO5+3Vh+kGrdAGQ5EEzi+4SPjPyTuV3xlcS/HdT8PTG7AxOA4hr1bp1AKag2fghcxP1tCRQbX6MTjMKcimRhMM8LagxKNPFsMcoSSPLVee6e13rEqlRLtDC6FmFf8fYSDZumI4fDsGoOja4mnpZ200hogdyMbYCZVhXQSeL5ma3GB919zFzs3zHF6rcLn77iMM/fA7W9bojCocAKH3vNc3MCkxLDh1I9DaifiNKtbTtCaxPt16htLbH1dD70XBngVP82xkwlRbVEZMdZjV+apsda2zKhtx9pN+ypO+i4V1law5E34GkW5ucp7D/4VV207kFhUPNDaYdvK03zjY8fZu3WKV178Czb0LyfPEfDfUYbLLzjO/s9+AdMLs3GJP/zMdXzx356NcRzm71xl4pfKGE/RDIpJVLiduGkdbWEid9a8aVWiFnK/5S5vBUuBJA7GnhHXLTYIEiEiAxJtPek1Gof55TKl4tL6Z9siBV0eXcj2S+EokUZ+8eY9ga2wWyUJLwvpRBFSaOW5HYtEJHqS7ZN9Id9LCifZvrwQtcilNejyiuf+gp+d2sxQpc77X3kXe7dM8cHbruPho6NUwyZfVM/mBv8QW9wlnm71s2oC5sMethSX+MRLv0dr2OXhhXGaysXxDHu2TjFcrbFaDyg7IQ8fHePMbJnFuSI33XsJJ5d6WWoVWG0Vkra2DM0TLdwoxLguyskmet4821hRxE1FoegQlMFVYIzBcXSbb/GI8YlwVcIRlKqaBdXLx//1aj7zxlsJCqlolTlD8p6OdrfLE3CAcmHTwBLvvuoelsIiD56Y4HuPbWfuYJT0s4KTdo45hks3nWSkXuDlF5/kO4fOZ2a1TLcSrWrC6ZCeqwooRwvclpmiszSbyTvoDqHQGfNkZ0xmRZJsjX2tTEGzKSU8o3nRqZ9wac+hJL4nnYiu0bx49xGu3vk0BSeiw50xv7g0KG1o1Hz6Bpq89U0HeODEViZe18fJ6QgVRqhCuuV34xSkKmQtNnk0Yp+b5x1kkeNpF65VGWRMjFw49rs8sZqiAONBuOJ0ZyzzKppsUx6N5FUjkWyp7azXTc2xwqEp6qzn6pX15wWFVI1ke0yXeyHjXWRf57/vUrz75zbiOCHnbVzg9998B9WNTe6b3sAn3vI91HGDOmoIp1wOHJugHIZc4J/hn1cu5qentvKmwYd4Wf9hgtGYLecutaV9oloZBooNaBlecO7TmHGFXlK8ZPxJFmeLvOv2V3Hf7EaMUUTLMYc/NUfPBpfhF1dxCgiVxypCyV68dijkwRtPUOiFi/6kH8/TxMsRlTHoCWI2XxRT6NWJJ3D61sU+zXV/0qD5GS/xlLS7pB1UO4ltHhE7eFLoyEnjJgLGdQy9xSY7x+d49NQYsVaEscNSvUgrdil4MSPlNW668T/4n99/Ia999qPsn9zI7FqpfQhXuxiIa4aHPjRP9YKA3r09aLfbauksZyN0u5mM7ckKFvHZ66QfiktMtbnCtU98l56okSEAC3WVxgv0eq7KLkT7Y5K+PDw5xFzcg+lz+Oinf8on/vJqFsN+XCcl4e1RGxK2iz4BknllHeS0+LETXaIaWfKko1ygMvObVKskTyItPPYZJrGgbhtbSBBDN0c2OHub8tn2rCDxcv9LPsMKO6nC2QVveRP7zDySkEgDOoWK/V8Kw7wAlPfKPj1bEejM++UbDtITNHjZFU9S9lqsxQFn1sqEkUNfsYEqQ7EYc3nvcZw5wxXmGHuLU/xiaJi/O3k5Nz++mzdPPITnaELjcvj0EFtGlqgGzYQljkg4jighT7cES4wXV3nx0BEenJtAGxcTQ+1oyJN/tYDf5xJsLOBvdXFTB7F28KFWTH97leZMROOk4efvmE08Fk262F3D5is01/+1YXBz1nkLJ32+9XseH7jqGG5RZ7uhlOBW0NhdMm+uywuYtJMdx/Del9zF6y95hHrkM71U4Y+/cS0nFnr54Mtv54U7jrJpYpl3X7ufpvb45Ju/xztvejWzK+V1At9oWDsRMXd/SPmiUuoUZ19j/YhqMsfCfOkMkzDrvsvmQkaU25n2ouM/4qK1X+DIRMBy9zvLTtVBXqYqza6NM8zHPRycG+f2r49y8FtlzECT5kxMeSuJk2KJjGuRu2n2otkitpHGLTKuQUJ82U7JUzgkxG0PWUJxGcSX70b7Dva9rHqWCpLYdXB93T4Ktd1uO7fsffn+ys8h+Vm3RWsFb14gyr6xQteiu7zTnBUQObUFRWfCdMlVyd+SRJcCU9aTpxA0eBvGlhntX6a/t8mffPYa3vPqn/Gayx/HW9OwBqYEFE2S40NBQccUTI19Zoq+VoO/vOMKekeaDA7XOTw3xE0/uoTXXv4YL9j5NHsnpijqqD1xTAREBk9r3jz+MP9w5FLmdHIsiY4Ms3fWeOg90+x4/xD9ZRd3WIFjVaLkbd1eF+Uq4pqmtWASCVmA6ibF0AWGygSsnITBzekiMobJ/Q695Qbl3laSRJqsA9qdZCeJI77rlodJ6rIqWRwD5QYnFgxfvnsfs6slzhlZYOvwIuWeFs/beQLXMSyeKFIutVhbCrhg8yyT802enh5Yh2CMhsasprWm8PrXR3V3NsWI9bw+iVUyZzo9ni3/YlGM9F9JTPaGcmOFgmmsJ0rt+8vFZn9sP8qdXyeq1FCpRvykwz/+3T5Wln3UWszCQ01Km0vJQukl8yuRBxHIV5ZoIiTxR7FkZoowEmNk6jYv1SD7Dj6ZYOnmui/HX5LGtl1pHxgH1mo+5XKIZ0MXWlk72s+Ti1xqq3neRb6jLCr3kxeA9hnWAVAiGpdnFloqd01e8Mhix0Ratuy1XdRhu248gOXlAp/8lxdw/+MbcV9l8N0YHKjhsxoHlP0WhXKcZExMJaVPzHtHf8qf117Ar37x9aCSoKxYOzxwdIKBUoM/f/13eMPuR3EaBt1QTC9WaC549KyEVE2TS8sn+e7idlLOEx0ZVp5osbh/FRNrRl83BAWVWjWSCTP84l7mbl0gnGpROxES1Qznvcplz9sUo3sM1aGIwMuUBeUoLnpNi0t3nKTww7hz0GVWMLk7WsuBdSM/W0kHphy0uGzbJPt+dYpYq3bdvq+TdAOu4fpLn0iWslJcsO0MH/va1Rw/04+O14/8iZtXGLmhj94+vz14eae6rAkygXeWfxjWezrbkq9H+gPF8y1mvj6HuUioK2dL52h39zz0zu/MEWwfnmOwUmdhqQdlQMUpJe0ZTEklm08I2nWS7xyxCdh6rICxhGshsdzoloObBvQ9NTvAtrEFXN+ss8BoR7XjiDpUEVu/FAoStaYqXltQNWBmpsLG6nISG2QXvV2EAmnEOuld34k7SOEOIeQkj6iHPkU3QsUmicPKD3c3E7gleq1QsUJMqllSOAnivYMwPptjnUSitlhhdDa1r60+tpKjKP/79Xfz3pf+lMFSre0CHfuK5UIBr6opR2EGP+sQ+DGbepe5YfwQd65u5XS9iiY5thWjWFgr8qH/uI75+RJvv/gBvvbwbvr9Ol8+sI9f3vgQB+bHeTwaWSc1o5qmPhmx/bcCPCdODrpSWS6X3l0BV353M870Cg/9/iwnbmvy9Hc19Rl4yacdKsMOcVpnopIqfEI2R7Ncsf14FpAmB092urQiReJ72871ltukOm3occLOSWMtDl7Cz7gqRhtFTyGkWmrSNZOLAR2BOxgk8Ul0ehufLaeNFSr5s57yKlBGDGdnI9h8OA4aXWtSP9FE7yVTHbohF/uZ3dEldLZ9YBd1rDhweJzTs1UgOUpl4CIP19GsFcrUqz14UUht1eeOB7Zx5e5jVIst2+j1O2xM+4ydZs2jUffo62uilOG8sfnsOstXeAnaCEOXoCdOkE0eCeSfkeclBFeiHNh2ziJurDPzdSp0iMic1wIIQ4d65DNQrLf7ykDixiTIW+Mq5lZKhE2XLaOLSfRzPjgS1qGo9jyz7xuJv/PqnhRK0gplx9SOoXx/KxClenW2IpGYBo9FqBab9BWbmfUk1WWrhRbV0flMKtu4i3TSlfpDrhw5xlf33MxaT8CPj5zD3EqJ88fmePzkCJPzfYwOrFHqDXnH1fdjjOLKXccxLcXla8cpH2zxF3e/gMVGMWughsn/W6NxZoadHxym58IK/gbhwxEajn5+nv6RFhe8zWfgXLj3ow1O3AHffpdm0/MNz/51hRc4VEfBMTHHbm5xY+EA48FyZyfDeht9N7bdFrt4pCCSO4Gs+yysveMYdmye5d0v38/X795NWD87umjHCRGlVXb6tkint6z7kkhqiWhsXZZXsQjHS5NmBml0uUtEa77BfU9uYK5VYlPf8npILnd5i2ryAlfsikbBsdP9fP7Wy6i3EiQ2eEmBwrCLcRRHSudxujRBpbbCzx7fQqk/ZI2AwNEUfIGv5WLStEneYiGi2B91mGENYCKVoJ+0jUpBoRJl49iNB5FzoRvpaZNuOyRIxPI+tj98ks/c7P9iECVnaacOaJF2OLbQz9axRbyibgtAxzFsHlzqRCQ2+XWeZ5HCQvrY5FGYKz4nd48nfst3zv9YQHE2ni3fR7YNBjy1QqK7doNEFuYVSM4Cdkk6uJZUUCv5DIzXGRqvYXrh8j3HMZFCRWAM6EjhOTrx7lWgHMNo7yoohfHhHTvu59YTO7n3yCZinfWADg1n7qwz96pJxl7Zx+5/3IqqJDsvsWb6+zX6X6/YcIXL6tFkwpgYTt1jWDoKpSHY/zcOe38VNl4CF29cYHCt1inV7QBI9CJgfMcuZq/J65hykub9Bs6m86bPOHx6GK3lF6Jao3JcTNoQQ+J8Zq/TUDva4sinZvGqDhve0At+etCc51LaXsDtcdoR54mVKMG4lm8JaLV/fEKmHlzh0UMbuOXgBfzaax6kQqtT55YmSatC5iGz5GoURJ7D48dGkiyGCoI+B6dg3xVakUsz9LjkolP0lpo4xiQeu3kOQ0zc9mLukkYy1g71yEvQj/T9sAtUet8i6pWqQzfIb1UeSeBaYWeHy/IeVvDaz2IwHjw1PUBUdKEPFnWRUjUk6ImzeSL5JhmA2E1Nsu/STdXPv1N+nst+scUiFmkBk6j0bPyNvdfWn9brsUaGSvLSWhJ3PgnnEpAQcD6UKy3MMKhy8lKua7KXtbuLLak0Vh7gGJQPI+Uaf/r2H/Nbn72BU7O91JsZCWIiiGPD7A9WmfzSApt+cyQ90U8R9Dn0DBpc3zC2S1MagdpsImDWpuH2P0pquedvHRxPUbmmBm+NsgFQud/2bzkAtujcNXbydWPe8+bH/EAIFPCCi47xxqsfYblW4Lv3bWetkRE8zdMhRz42xfY/GMUpKlQYo4zh2D8tEC7FHZN55fEm83etgas4/qUFlKMwCpzAYcefbWT8xsE04XaGcBTyOLqoLVgCWgxv19Dr86f/61qOLA7ygXffwUjvGnpVJQ6I3QhAuSAl5HYTi9Zjk6PUm8lkSM6ZS2LAHGNYPaH53Bf28cFXTDIxuoqr9HpCV3Ih3XidmA5h7qGpeK1OZy+5eeSDCMnVKz+XqgKiHb64XnIhPizXClSCNF2H7SMflIGB0QY146MrikbTo1QJkw3bzh+5kPPcULeNTbF+PuYFvHz3vFqkzlKfFJoSNeY3ZNlHuY3VO3YmoEaBstFsCMIksY1cMLLB1tZuddkSKCtwukGnblBKdJpTMFx92VHuuPgm/vOBHcyslMGFk1O9/Ps3dzE7XyKcj3jqL6YYe8MA7oiLU4DnfGGYPncF160zMlFn9LyYY3N+kjRJ03GUauBElL1mBpHzJjdZzrZrSamd9xmQ9+rc/3JgRMcrBZvGl/j799xKrenzhzddxz/c9pz2reFixOSX5lh+YI36ZJSmxDA4rRDfjbls3yQBMfc/soHFpSI6dDDGEItUPMqFlQfWGL2hF68vfSiJVQiSxS2FjOVuxp/rcOPPe3j0bw3f/ek+djy0xoi7wMzTJcZKK1xx0XEGynVcRyebiVx80gGs7fmqqBe8JOFR2g9De1xcV+MamFg6wbmVYxw5McjIUA3X1+sRUrcdGPG3VQ0EUmwPkSKJb3Kg4HUhzCS6tGMlN1VYv8FYwtcKGJnA2kC1p4XSJhN8gqMqehFnlstQhrHh1QyZSLcIOUelxcs+X14Ts37TlMgkb+2TwsUWybfYa4Qq3yFYJQfninvTEmnF5BmfVqzwNhRCJmjhWSeliE7IZwfZ6oABmQu1NOnJBWdhlYSPZyFQgyBmYniFd9x4P5TAeIpG6PGy6w7ze3/0Ug4dHiZe04RzMcWRJMLWLbu4KMrU2LBpmiteFjH7yBhFP6Le8KiUWhSDhKfYc84Uv/PqexK91wqGiM5JimhrvmPzRU5kKVxiuk7yjp1DmD0dx1AKQvyemK0bF9a1xXNiymuLhDWXOEwe9sJrj/P8y4/xwkuO4C5q7rpjG1/70S4OPDFBHDsdzTEaZn+wzOa3DxBUe7IjVpEHwVm3f3smk8Yv+HiBYu+HXIotxVT4PG7/ts/Bn3uc+XnI1fue4tpLn+L8zXO88JKjeOjsPe0csf4kPRD7Dk/PDRDFDo4HhSGHkYtdfE9jQs3A1Cl+/fX3Uelpds4fiwjsfFG5v+VGIJ3YyI+hotnyEuFiK5RjkePE1i3y/LyQcyCvDqXtSNT3bCzb7XShWmly4cRMJnxlmEGeTLX15sMT8u3KC4E8pyLvle9hnynJW3lNNyQuhZbla4TMdo1hw8aQGIXn9xgCZXAaZEfgSFhmBYvtjFL6k4+DyL+01WvlBAlJJp7937Lc4oWUMhSLIS990ZPcfc8WPvXpKyE2RCsxJnQxPhilCEyLITPL+e6TXPHrR9itN/Kcc05y38MbueKiY2wdXURF0GNCBnrqiSOfTH8oi9Tru+2MeX0zP/kh07UFTxAbcOUgyJ1EcjI5N3Kl4NrfWOBV75uiNDfHge/2Ug6aXHn5U2wbOcO//58LGHTrfHv/+Xz0t3/IR75wDfc+urGDt8LA2qEmZ76zTPVZAa6LUIsyC1QiXFxiY9CxB16SRc8rODQLvbSoMv4WTfXKiK+9qMUtd1zIbXfs5OLdp/jqBTcz7q22z9fucPYqQFj2mIkGeXp5DO16jF3msPf9ZTZc6eKpmPqZiJs/NcHQVfv4nbfdk7RbqtVyLKQAUEnfOoosCj2/86b9q5ShN2h2drDc2aFz47Pj3Y17kPNA+pRYAScXqRAQxkAYKwLfdAoLRJ1yE+r2LvY5co51E45SnRKb2ToUmO8zIQyNBq3SuSvnvVD9OuaxcMRTQIBBG/h/rHzF8I8+s80AAAAASUVORK5CYII=;" vertex="1" parent="1">
          <mxGeometry x="102.81" y="278" width="181.18" height="113" as="geometry" />
        </mxCell>
        <mxCell id="0BUKk4QY-ltkbJIT3qkM-2" value="" style="shape=image;imageAspect=0;aspect=fixed;verticalLabelPosition=bottom;verticalAlign=top;image=data:image/png,iVBORw0KGgoAAAANSUhEUgAAAR4AAACjCAYAAABc6nHJAAAABHNCSVQICAgIfAhkiAAAABl0RVh0U29mdHdhcmUAZ25vbWUtc2NyZWVuc2hvdO8Dvz4AAAAqdEVYdENyZWF0aW9uIFRpbWUAVGh1IDEyIERlYyAyMDI0IDIxOjU2OjQ2IEdNVHk4W1MAACAASURBVHic7L3ZjyRbcub3s7O4e0Rm1nq37ttsNsmmRGo40mA0ECDoYSDoXZD+hHnXHzd60DsBDTCSBqJAkCLZ3Vx6413qVlVWLhHh7uccMz3Y8Yi8lxxqBAz0xCgUKiszFl/OMfvs+z6zFDMz/vHxj49/fPzj4//HRwJQVWqrtNowDEHO/54f8u0XytPvPQldT19n2Lde+Pc8/VvfEBHM7B944nce0p8j5y/+nqdIP47vnoZ953/fOd8n3/uHfvb0//9vhwpg/WP/7pFeTle++z17cqznf55e4yen851/z8co4u/Tf/YfJd9sn/P/5SV94fj1+w99+d+70P7+i/gf8E725EJfruPljUW+cyFNvnVv7Ok1fvrqf+CEROTfe67brfn3vu7v/eFlbX7rBLbb/N1jke98sT3p/OT/SI+/9/3s24vbeuBZ15V/9T/9Kx7uHvpzBDEwVSQEcgJNRsyJIAKm7EYh54gkkAC1CrpU1AomEFQoVbAAkoQhByLCusA8GylFQgIxYTk2RCIhREJUTBQkolWo1TBJBIFWC8M40qoCRsgZrcY+D6xtIQ87tFYIgTDtaKcT426PNoO6EIbY70xBtCDWSMOOpVaMRtNGCAGRgJlhJrSmpORXKxDQVn3TiGD9xqkZpSwECYAQY0S1oX3BiECMQgqwnCopR1JqmBnShMN9Ydgl8igE8cUWSKylcVpXWlNUhSiJlBIpZ2JSkgQsRk7HmaLi92tbqGZMQ+bm2QtCHglEDCMGoawzd+/vMIU4DH59gmGmtFIIAZo1MCGInXdFAJqBbuvVPIRs52iqPaAEwGjaV5sq45DJY6JZJeYIBNbWaBgiAbG+4QVUPSj5JjeMiJjQWkWCEIKvY1VQM1LwY0PEj88aKchlE/Y1H4IgCOXY0KakMTCMI8aImiDBCKFx80wIyajNSDEiNXP7thLGPU2VtswM+z31dKJoJYwZO81EGoqxloLkAa0VscYwDIzXexgGzMTXmIH1e2VmhJDAFNPGdkGDBD8HMWj+MxFFzdBWQQ3J/rr1fmapBWW7dgFBEBG/vgA0UkggGVJmqZUhChFBVQkhULRhQAqhxxC/w9rvdMSfZ6bnoKJAs+rPUIiSEfE1ZMH3gagRBLQZEnIPPGXl3/6f/ytf/OorTAVMwAJiigikBDIIBN+AKQnTFJj2iRgDIUJpynosmDWPRM3jccqBlCKKMR+V00FQSYjAfhf9JGpgXRsxBoxKDJFmAbNEXZUYM9oa2hrDOGCtMex2rLUxhJFpGml1Ie92VDVMG+O0I5hirWIxYLogZrRaUS1E2TZaw1JEBaqqB1Z8QQuCGaQczxus1dovut9UVd8wa1l7ZDdiSqjaeSOCMY6+9dfDgoTAMHlwoyoPHwq765FxL+ynkVYr4zDycL/yMM+UWjETxAIpjYzjSM6BIQcsR7Qay9o4HBZUtQceZcwDr15+xLjbE2PyoJiExw+3rK1ytbvm1cuP0Wocy8r9wy1lfkCtnpOTAKFvEFWPNtqDRIwBbUprFTUjiBBDwDByjKxro9SCNmXIAwSjaiGEgGI0DELEEE92YlhrfdP5Zjgn0X5PQoiY+jU1/Lg8Xj0JXOaLPMgFWlqHKQIEE8qpknPg6nrP1fOPmBfFrGAs7K4Ms4Ia5HEiyp6H28Y47cGEdVlJQ0KAaiCmZDwwnI4Hv+MCZS0EYJwmwhRZA6gJZhFVARRUCTFC2JLi5ZqLKYigAoFGa80xjilqFSuV5XT0gLGs1NpoZj1hBEIPXjEGcsxICKRhwGog5glFaK0wjAOtFMwghEhrlRADhq+lOE6UZcVUyUOilIKEgCG04omkaUXr6q9TiDGTIpR1BhRTMNNzEEsbGArWQBVRj5BNW79pRlOIlgj4osLAWsCf4jeZ1pBgWAuICnnMSBAMZS6VZTaWk2+emBOmkVI8Wk/TRGIlWiGliRhGmkVCStSxEgxSSmCNKIKaYbJtZmUt9zQqx7v3rEVpq3E9XDEMQoqV03LyFGnKOhfGKZNSpNbGy+fPmGth6Vm1mqGmpCieIQNgXoL6Dd8yVOzBRzHDg2VrjoBUCYgvAsE3SgGCbxK0ESwwn1aWY0VVSBFiioxDpEUlJiVmiGtAY/BNb0JKgRgNpNEMokX2+z0pN9alUKo6QjKjaWVdD0hohBApa2GeT6zrkZACdT3xmz/+fT7/4W/zlz/9vyms3N3+Gq0FMSMCoX+2qXiwaIpq82CcBW2NWrTfI08yIkIYIvNpoazq1wEhjL6JrP/xWK5gsi01rCMr7ejNAVNHhxLY73ecDie0qWdQ2cqRLQHbGYXSEY5nfQ9kBn4O0jBLlNPMl+9+Sq1GnjIvv/eSZa3U6sHXJHH/9gvu3x7QLSAghBh60o2YVoIoQYxWHHOYBEdnBFo9YMeAJCHtdoS890Deqp8XkUAGSR2ZBV97ZxpBHcmbr0GrlTwE1lap83JGdEMMtI5cJARM/D1yDOx2mTRO5P010zDQSqNUY9q9xEwRtKPAiZASp3VBqKQ00NSwWmmlkrMH/iq+HrJK3xsr67qSph3LYSYNEzFF2mlmGBPz8dHvUYycjqdL4DEzh87SF0G4cApmilbP3mmI5CkxjJBz8AhnvlxSEkJ2iIdAqY15rqyLUas5isIIKHEY+sElUgjkYSCKUtfVkUwyRAqJSgpCLRVTo2il1EoTnJOqilYjxIj0skA0UcqBnCKH+cR8Wthf7Wiq5Dywf/aM48MDr56/4Me/93v8/Be/pD4c+vmqbwBVJMQOQc2/36Gl9AVu22bpsDMEwSxgTSFGYozn+nyXB8YB3p9m1qbIGol5IsRCLcVvbs9k+/3AWlbyaOwsIws0hSSRnAyzE6158ZfHZ1hQQhbyEFGtdNBAbY3D4wNlOaDWWBZlHEdUG1Ql7yJ//ud/xK+//pLD/XuudgmzhmqFvklFezmgvnmt+QLdEjZmUBuEgKlSizGOmePh5CUcECQRkyct22DUBqn6RbSOokLngLZgYh3ab8jydDp2QP5tzmQLUtvr/y7XYf08FDEPgBKMmAC8hBmmCYmwFqMVR/iyVObDjLaKGuj2OSqoBqIGgqiXpjFQavPAFKSvSy8vJUWSRKYY0eDBpZpQ1+KHGwMxBNQgRSFnD2JqRltnjvd33FxfgwaWQ0UrlLUSY3JUEsI5aMWUUfP3FByRHR4e0Ls7LHzjQa80llOB/pn7fWIYgiPKKKylok0RCcQe3JHggQcoChoCOQnBFIIH5TBHQhDakhh0IOWAspB2njhrLTx7sbsEHmle9uSY+s0SSmudb/DsHkNgHBLDPhKCej2pDnlT9A/EGmupzCdFNYKOaF06MQAmSikrzYyqC9Yaor2ub3ZecEts7HaJFAVCgFrP9bBnC/PA0zzDZ4EQEoISQkWtUkrmeFwIwTmHMhdSCtS1cjXu+P0/+BfEKfDyk894/+EnhBhozRD1BRzUuSTUCEGopk/ISb8pdq5+/bkb97NlcBEhpEhMiWGMzkM0PUNV65npdCzkHFhiIyfB1PmFnOSMBEyVsp7OkDXmRK0rIUaCBK6vdgx54O7DHbU52io0rHkgqVVJQRC8xHy4uyOmI8fHRwQ4vF/85NQ8wPTSzNHWUwLUMDUCl59t9UWI4gFUnSOrql6SmSccQc+BQcwDTOslPdY5qv4c6x8qIXnwt28TrRuHuQUtEUFC9Ouj2pNi50xQ51CaEiQRts/WQh5AipB3O0oF9cjg59mgrcWP41xw2/lzzcxRhnnUE5O+D3ryikrOmaaNSKadFkiVlBNBGiIrbZkxHWDaM4TImBpBG6tE1sPC/bt3lHVFlxksYCvMtydPtCEw7XYIoZdK/cp1JCoSiMGrhNaao1kgIJgWyuzr5HEVdvvEbpeos++11pTQE2pTD6KqmdYqiFcDtdi3SHUJwjSOxCDMJyP0Hzf1cquaUDU8LbUC027oUQ/KogRNiAgpOoQep0icIpJBxMuevoZQNVRhWZXTqWKayMNAaZ4trXm2843bsKUSezTdFrU0eg2vHgB2CdXmG0XVN3QQZxX74jI/W1QhhkyUhkpBaKzVU14IzkWoGq0Vjvf3fPbJxxznypAmHh9vWZcTKQ+kEGkI0heVb7JO2fU9pr28NPRbKpOqIkGQnn2sI7DU4fjhUPzQOzeRkqDWPOAV5fjQiCnxgHMDKUZE1ZGUGMfjibLWfk6C0pD5hEhkf/WMYTcQTisPHx5IMaDmNboimDVHQbUQo5cbra6ICTlP/JPf+31++md/7JwFgoTUy+hAadvmtSeCRUckTwKBmjGm1NGhdBQHrVVaS4QkRBHndjr00aeKnfk68uvmkUU25WVb2D0xeWCXjeHGCGcEJCGeY6FIAPMEqj3+NK3nMqlZIYgw7TJxyKwa/b1EyQmsFGrVjnQux2qqIP38Siezddv4Qu1JOybP8nnaowjH23sM5frVFdM+YeJcUjRF6sI4BkZtzEulIbA2ghqocno89uvvZDzqCWB+PCAhEEMEMWIOSDNSHhiGjNbGXCohSOf6DNPKkIJznDjp6whKySmgzYid5Pd74kmFYKQelNXUOVXxdRDE6ZeyVkiRslRMIUUPfmZKa+IJkH4px10iH42UnewyYIoDu2kkjSARQgKkESV2dGG0Vp3HaY3aEvMMrSX2ORMjmHn9q80XrUVwsUPQTtKGvnGbOccUzWH5uhoxQkhGiolqnR3Q5uWCgmggADFGYhocd1QggIgSol+geVFXzSQgYnz19de8+foPuX7xjNNyDyjzcWW/vyZ2Uk6bl5eqzUn3GC6ZU33jPJVefZN0UtbsXFE4R+GfKwaDCEMAo3ndLBliYJkr9t4gKiEo0zgwjgO1FS81zUg5nTO8mrGsCwjkcceQ81mJjP0YrC9QTEhZUHVuyEzP8PyTTz9Grozrl9cc/vaRkAIioLX18sSDgPMuWwlj/dw2AtjJ5VIaahVVaK0zNgIxhf4a11vMjC5+nYljZ4n7B4RN6A5nXg289PMY5QjkXPaKdvVGeoDyNz+jD4+AlFMBg3QzELMvyLLCuB9RCZiGS9kXYFmO/f1wgr9/XgpCMLDSMDVUhNIq1vqaNRjGhIsNmWm/4/HhSGtGrZXl8cg0jIwRQg5UrUgzxhBptbCWRiMyTJnXw3MOjzOP94+stfgyjEIK6Zx8BUArEgJaHWVJFFpdCQSu9hNNjbW6mqut0mjkDLVAA8pqxGguyKihzZc7AeIgHgOiYdU5QwsBXQranMeUlBimjFZlKYr6JoQKTS7KmIl1xCMwjcL+KpGyk7rXLyKYy8DDIKhV2oY8UE805gfqTHukrL3sGhLE4EGpqWf5XntYz/hitlVfECJZBJVGbRUJEZqxPB5Jg5Cvc8fVAawTch3ehpB94w0RNWUtgoSJdV0YBz9+bUqrkHLi+Ysd67xyeFwQjPvbW37wo8/5cPcNH5Z77u4KOY3s9zuIoQfM8G0/xZnI1LNceeEV9MxxbVAuBGEYIl3h9Qw7Dtw/HrDayPuRPAYO90pZmwscyQi7iAWhLZUUA9JLXlWlmRLEs/y6rpTaGCy46iYebF1j9uDiigi+MJtL5aYOvz+8f8Pt3dfsMhD0zM2YNoTYYXc7Iw62Eou+GcUTh+/thllHO/26BImeoblkxw1BXuT/Hrx66al0grhVTzAx9Gu+PWe7Dx11i5+p9IBllwjJJu9LUC+b+32opdJqpa7GTjLWr5XTCpGUhMO8EvtrWj9uU9AuKtDL8hSk7zGjqqMORcEiu2FPlkSZC0vnKk0hhsCQIzI3MsIwCU0XDqeVapGUB2IvoyXsUG2Uu0rVdi6XYkpYR6ZgniyqciqFGDvRjyuQjv56gqhdPMjQKT1AWBelBkfbOVwQZYidiglCnAZaUQ6PM0XBVBhy6j7A7OsPt1UYHnTOfil1JS9ti+n1x1e04eQw0RQ17QHFWLuHQlulVSXnRE6RkCI5BkpRVANmlRhBYqLURiA4qRwSFrWTsNq5k9AzmG/QGoHsXy9VCeaSWy1GLULKnoU3PknUJfwQQHJkbSutCk0jKWZK8WU0egwkZEGkYShlWUjBF3dpjQ/3j6zFEcAyV+qs5LRjdzNgOru6YL1OPa//C+qQ/oQzIsD5jSDm/p0oRFFiysQYefn6FTEZ8jiDJ3daLVw/z5gJ93dHr8+ZeTZenYFATMERhoI1505izn4e68y67si7iZQTy7KevRnmNQwqkKNzTGYw7kaW08Ljh3s++fQFZT2Rc8baSm1Kq4aefSM96ATf/K2XsXZGryDNOsFuIAGJHvhCdHlcRDx59cVPX56bCW4LQluJe07lnUjeEOTG22yE8nY/EOeR6MFxc7Q0vCSSkMGioyMEbdCaUHrGFzVi8CQXE2hZHSGdXVCblcD5KfrXXsJ4+bqdZ4qR2ipXnXfT0jB1kjwFwUyIIXF1NTIMjuDXsnA4ztSeqFupSAu8e3vLuq6spfby0bexYp2zE5o2xjxgCOtaGIaBYRwZU0bEiDHSamVdV1pza0TsHGWIEJQLuk2uWLZOWscgDNNAjE5811J4fFjR1e0BEiMiEaRyPJ7IORIRT/oYpVMoQufAjC3wwHQVmeZ+40tlnZdudhsZ9nuMhlbDmpCmkRiNPHg2XFryDIdno6aKmUBIlE5SSoggEbEG1mDjUQTPztUVsjzQyzav20OD+WTsghCykVMGa1QFyYmQE7UWDseVnCbfON2HpE3RGIjSL67Ah9sDL1684Hg40OaFkBJ3dx/wZND9KgYfffJDnr/e8cXf/AzEWJvfdC8NDAlCU1/A1tHE9gShL0ogmpHEGIZEjJE8ZJ69vOZ4ODiUJdBa4+XLPa1VSm1MVxmtwhAjetQu3ZtL2wYStKs8RiKQs2C6sC4PhLSjdsOhmZevmJN8m/HRBYpAym5SNG188vE1P/vpLdP0jDJ/cDQr0hHMVlZxLou3uLCBwNbM+diOfIhCFIfaUYJbMTYEInJeK5sPp4eeb3l3XKo2JHYLhW7HH/uNCGeOEXN+Tbvs3pmq/r6eFAOOMghCyhMiQllOZ7VqU28kQhDl9OHBN0kU32BnJmkr3+SM+ravQ3BOsZQVQzgdTwwpMs8ryzIz5Mg4jlzf3GAtUsqKBGU5rrx980A1yFNiHIQpJxDhxcsb5lNhWQvzuvTg7ApWTqkT951jmyZiTgzj1CX/SAy9JMS5wbW4NF+qJ4ppDBy17znDKYbm8vw0TVzd7FCUEBrzaaEWYcgDpSzk6JxYKQ1o3STouCINBhZpS6VJYRwGqtYLxwMwJGVMyrzA6aFw92ElxshuN5GDsFbQFhjHiRgDSKOpsqzKOotnRxX3dIRIjBmRQAgNseW8eIMX/B7tmm4YD6OBBjQK025gORSH/OLq2s4yogFEfRFYZBqjy8Tz2nkddaK5VjD3Iq3V2A2JkDyDlGbcPRy42e+IKhzKQtVGyr2ci0Kryvt3XwM37PdXnI7HswfkjMY7Uts284Xb6RyDQQqJMRmhWwJiijy72bObIve3M8tceuZ2s2aMwuFQPDt0qTek5H7MVokSIcDSFInBXboKU9q5irccaPORi6uUM1rrGpTfAwmIREwDP/zBb/PV3/6SD3cPXF3v+PD+3hUrAQuOCjam1je0/7fped97sJXQZe+GCUQR537FA/TptJCmhEU6f3JBS08J6rAR8wZi7pDV5r6oGLJ7g8VfJ3JBnp5Re8kljhjcAR3O17i1iko3OsYeeFcn2GutSKvEFFyyfjwQmrKfdmhrlFapLdCaUko7b/ztWm+oFFxl3ZJQa5V3725BIjcvX3H1/JpxPxJjYLm/pz00rq4jIY+onTCtRBG3qkhjmRdOp040B2MYUyfXBcwJbhcfNmokkNIAwtlTZfi9lODJvq6V2vwz9rtE08bQhDr3bNIEVLh+cc2YAss8M11FltPC/Dgz7aYOLtwyk2JvgTH3DwURpiyO7EpDqy+iRV0QWns1guAekZRGYsyMeSSFzDDuiINLgWVtBEvugDSXnFtRjvd+MFoq69Koq7cB5Bh7Zt1yTyBqN0WZZw4LOIzuiNn0QkIPgxO5LjuDWSClDAZDSux2mWGMrGuhLEaUiGlzBaVe5MBSKzklrvZ7Vw8SaKvsd1fsb14QY8aa0dbSyz7fCHfvv+HNF19QrXI4nhwiKkQiYYs+3wk2YaM7m0FtJDHwJeNlURR2O/c2nE4ztTRS8ux9eFxozQk4VUACS3NOLcZ0fm+JsUcUPwY1RSQyDlcMaQRt5KhEUbDqGUhbL6+cmwliDHngN37wI/7lf/ffcvPsmrv3R2IesFrR2jmErcSRzTi3nfbmibmgno0HcjJ7uzaGodRWOC0LrQcCb56JYO5ydZh+8aFsnhHryFK6mmlh29yc5fMQupEvyJmL2/JDEEPwTGzm/M5GC+UpMj0bu8nVaKWBNqytUBfktJLU13FK3qoieKnUzvyWo+OnyE+C8y7jfk9KuXt5Rl68fs2LT1+Rn12hQ0SjMS8L948rpQopJa6fXxFjcmVoKZRSmOeV4+HEelrdnNigLJW6Flpt3ejoqJDoZWUc8oVj7HfMk/BKbe6wH3JkN0Wwcjachh48BUOLsqyVx8cDu0lo68LhsPLJ56/45Ht7bp5P1ApahRgzQ0pEnOuKQRjHSLRGmf04dbNoNKcKzognhhEhkUSZRuX16xs0Riw01mVmOa48v35FsODZLrosdryvaM0UU9amxJCIEsjRzpIf2vX8wNlur6rn9CRG9557ijbtfFCwbs8enbjsf0MMYMrhsHA8edl2LvFqdcULuvJkbmT88IiQCHhf1v3jgT/45/8165/8EeX2LSLd5k8hBi9R1rXy9ZdvMTXGcWC/n7h59oy1rtw/PnS/SyOlQCmVNGSMxlILtVZ2u8jmzM1pZJhGhkEZUqAsroylMXkPVDHu3h2Y1+bSZZeEl6Xx+vUN025HXWcHZTGiFmjmxKs2CGNmTJGyOqwdBkGKlyfYRY0qDRLCbtjx3/8P/yN3H37ND3/4EX/yp3/J2jwzmjgMhwtq8DKGMzrZkIZnj6422oZaPHgHQlcV/H45ER168HAfiKiT3JsvxEst9xopdIOcbJ/gbmDZlKsN9ej56+1hvdTVzbvTFbZoblIc9gMpC1bbGSUJhYAySKYEcTc+3mNnTSiylVQdRXSuKvSgOY4jccgM+xEVaHOmnBr5eo8l4VQWAm6jsLYyH2dMlWVWZG/srjPrOkLz676uBaUx7iIxJna7PWU1Hu4OmHjwj2euLJBz9msnwc/NLorjcpqZ5wMh+PeGKSFJWU5KWTuCjSDFA7MprKeVTz/ZgzXu3q08++gVn/zGK/72F7/m8XHtZb/XukMKtFVpxQl23UVaVU6LUgVStzOIuNG4Bx4hp8iUB3LshG0qFIRTc/dxqyOEgVYVbQkNyrwW5pNHVJVAJDnnEJyErGtz/0iSjdaB3nZxge190W0O6E7iIl29lm7XxljL0hs2hdOxK1PmjRxlKRAzIVmPddaRiHA4LsimPHSIfjjc82d//EdoqUQCFpSm7ZxJBaHU6n00ptxcv+Th4QO7QZn2O27XW06nhVorQ4zOEbVKnhIxCaXouRZXLspWDMLd/T3zsZHzHogYletR2H10za9/+ZZWjTyFvsGM04cD6eUVFiJBm/s1UkdXCrV6Ue3lRGSZF1IWcvYm21g5S9Le+hCoBoe1Eq8/4j/9p/8VP/2LL1nXxdXI1bzOf8JjeDuMnbN72JztG3Er3WrQA0J8Io0HemuD+kZRnJ/qy8E9W3Zpb3DVy1Hitj7PJRM8KW/kyWdvz9vgx4XfaaUg3j2KWreDRCAIMXhDZI6QgzecSqnoumDm+ZC+YUQ8SPp1t43DJgQhDyPjzY6GMa/l3OahUdH1QAoToSaiKClGtDr5r2pUhVKMPLgz+PE4M1hCxBhSREbpTdsn8pi4fjZyOKzU1jw4WyCFSIrR905rxF7+mDbqsrAej4RgaO3WhgDLUl1KVw8gu5wo0qjVk0SrjoTevjkyDDtefnLNr/76Cx7uThwemu/54IkkB0MilLVRDd6+PXYU3O9a9Hunqk97tYy6Lmd936RRo1FMKcvK/Fi52t1gIVLXBlVoFjgejGa+QXTzrTi5QYw4wabOjG9rQ81lSemy2vk10tWhDl9DCEgK5Lg1Qc6MBIIkylw5PM6+GMXt72pGUMXUJfzQeYkLbekIzdSYpgEwHu7fst/tiVFYi5NrChCdYNMqhObcS6nG608+56tf/g3Xr254PBw9sIqbtkI366XsSgG99Aih+5aiIaFw93DgJz/5gtoi//Sf/QuevXjGT/74fyfnhdPDo2dmA+mEdRSQ0mgPJ9LziYohpgxpYMxXzKfZG/xwQrmUijVYVRlGIQSXdq04Ogo4ATKfTvwv//O/5nu/+RmtrN5VPReaFdbiNVQ8E7f0DedXcyOFL0FnY4f9PnsTKN1HxJlob615adX9O56Ato3dk0wvMzcCfEMuXYDvGV3OJPWW0c/NonIZa+HuaUd9y/FI6A7WGN2katpIUyIV55BSdFk4jq4IxQBlXZmPxTfU3O0k6oEtJhcL9td78n6iWve1WaTUrY0mEWNCQkSya2O1VaQ1mjWaCWtTsrlZ9+pqQItQ1obEwOm4cPV84uZmADWOxxWkMe4TsrpyF1M835MYpPNYfq2Ww8mnToiSeg9YSolWKuvsNhMJbjvx6QhCO3TrQDG++urgqtZ15Fe//DXrvHoWaS6WO+Bxz1OOwipKU7o49GQPOoV7Xi8XcnlICJUY/H01ifdNzQtjHBnHiVmb26dbZTl5zWcklIDW0h26zZ2nsXcHs/kHNmJzg2d9rIQaSO2pzLMhwaXpFCIiAaVxmmfa4jDSTaPdxRwTpsJuF1jX6pmpky9piDTTnlkaqI/jmMaxc9vK4/HR2y50a364GKdE3IEKwv2Hd3zy+WdUbdx+846mvtFD8GyDVVSts/u+U4QsIQAAIABJREFU2EufbxRDoNSVZYVf/M03nI4Aic9+8weoNj77/HMGOfDmizfkUKg9cMbY23LVWNdGaJ6Fx+y29WHYEXXHfDxgTb2I3EpYwDSAFvcQBShL6x3ewtpWfvXzn/H27df86Hd+G0Roa0UxenM61mVw3SD7xlmLnXunzGCjncK5sVZ6uRvOiHZDubW5uhS6ddW2hXnmlx21bGsk50xZWydS+wLiEnTOPiB1dK3aehBzgrRrUEgTrq4nhnEgTakTnsrNqyvGqxEtxQNKUNKVEOJAisrYYDgF5vvG8bicW0REYNpNvPj0NRVHh+JcL9oCMUVSiuSY3PUcA85sKkJjfjiCudP58e5IZkeKkZubHWURHh8fmHYTIQfmkxJS49mLHfuUKO+PEJXpOoK5sCN0J3+MaKkcP8wIcDrNaFNydj9P6AhlXT0JhEAvgYwUfFRIKUZb/Ia0YoQBPrx/QKKw3+34T378G/z8L37N2/uZgPD6o+f853/wA778y1/wq199gy7uht5UMkepofd+ORY9B56yVpaqLLWxYtAqbSnM94UhTt7YFo3WZh5ODxzvVswiIUfOtnVTApEo4uqAeeiz2FFHkPMCc64iOLrovpQNIm8JtGFetuGBqJgXnyklpHM6iUaOvgin0dWrnAeW09y7qRumShQhhci0c+t67FzR5jmxLt94o6LzTNuGUHX09jc/+fPO5ls32YUzJzWkSNNCLY08JNRgWSulOpH31Zs7alUeD73bX4w//Xf/G9NuJIjyzf0t81zRzV3dM/mGwEpt5BogGilN3gyqK4RMXRtaK/O8OLmuzk3U4tnZzNWalBOtw2if8dK4f/eeP7t78KZQp4N8tIVtn98X4FZiwNk8KN0FLuJ2ejepOfpUul8jDf4+tbDMK2qJ6WrwQCZ2jjc+1iKeAwuds9m8UciTYVxPYJJ1JnvrsN5Qc5BIiF6iaTSuXz3jxYtr8hiQDHFIbmZUQ3eueNaysq4zjYVxTDBEtDnX8v6bA6fT2kdtCPvrK65fP6eI0MyVJsMgJR8j09WmDo683UCMGJR6PHCaFxoe2EOMzGtl11x8ePEy8OHDoY+niKgJD3cFMJ6/3HN9c8Xb9w8YjRhgGANBA4eHhWVRGqBr6/e0e4166dW00ap3pm9B2Y/PO+li8J6tshZaZ+JFAtOY2e0Hpt3Ib/3Wj/j1z77yYw+B3/7d7/O7v/OCeLzl4f0dpc6+BrZS1Z5wgv5fDzwGLOb8/2wNC9Ba4XC/MJ9guIlINIyF4+GB42GlVDdL9VZHsKeuVF9UntrUGeGOfjZVoU9C8kwZIibhXCJpl5ZdhfHOeBTitoi73T/nTJDgxqrNzRkCQxbIQqlK7B9o6tL0MAyknMkpk/KO6+fCh/ff0Op9Jzn9+DovzTZzR0U5HA7ngKhPVJ5S3a0bxIdxVa0YgabSzYHGw13j089+C+wD6/KOz773A148f8Z8+sAXb77idFrOKlnELffRIAdhjIG5Nh4fCs9fTxjKtBtZZlfCiil1LZTTiVaKoxETJMVOUhrZfEAZyTv9BUcf2pWGrf5GuqvcLveUXjJt5c5WvF7ISzYM3SV4J4hTHvmt3/xtUOXnP/85p2XBGm6LsC14cU40stV1/aG9nEPO7M3lcZaRfHrAprzlGAkIQx6Zhokhudl1HDMpm/McdmkL0n7DS6kcH4VRJsIAp9M7TIX5VHn3xewiSjfCTVdX3HzyGsUNdITsHBp9lIeAm++rc3/qQSCJEbVxPCxnAlh6S0ipUFuk1Mr+2ciLl1c83M/EGDxZIByPjTTMfPzJC05L4eHugMaGZedod/tACm7J8D69rkZ2T0Vr5nRC29qW6FxaX/NNSePAMCS4L+B2H1QjH330Cl0LL198yjxHjofevT7AkBvj2Pjxjz9nORj1r7+i3p08OdJFTlF0oz+EC7lsIXGYVwqKhOYL+VjY5T276x2SlNP9gcP96jZPtu7hTYVwSRtAUZ+n0xeDbmtGu9LVScNzl0lftKSEWPDmkR59hcCQegmB169Cn3diG1MulE0NUWM5nUghMCShSejoxCcmfvbpx3z+W7/Dca3sn79kLYW/+tM/5eH+gYATtY564tmWL7Z9fkcgG7z3E/RSqLbemGl9gJqR44hqJYXM55//mP/yv/mX/Js//EPWk/Gf/Rf/jPfvvmKpPkso5kCKkU8/+pgvf/klWqv3NDUj7iNZhYfVOJ6U57tAHgeWdaUsM2CUtnqp0Zr36qSMbOkWJ3BjNB9PoYFaN1dzu6Ar27y+HlTsSXDYPDdb+JFNVYmxmykNqjoCViWniT/4J/+cF69f0Wrj629umde351lFdjGvf0uNunzj8s1zhfeE1/EpBIYEGPPANI2MGaYpkrNzHqGj3C3PGg3R1udHVaceutRbSmU9HZmuX7C/uuHh7g3VlLdfLhzvG1od4aVh8KATfJhXczXkTMRvx9fU51MhffiZVZLQJXHrvJl7kmLyIPjwsHB1k3hxnXj+es/hce2D8py6KKXx4X1jmh746OM963HmdCy0k7FGR7W7q5FhHzk8Fsrs59q6LaNWqBfr3HnbhQ35GZTQWB6WXiL366/K7e09V7s9c2v8H3/0JzzW6nsL8wmYi3L9/CN+9Acf8dj+gsPP/oa1HS+8bbdeSPDbfiaX11ogRpK5l2ZImY8/ekVOO1oQ7h8eeHh/utikg3e0ehTb+pW6cxPrs2g8cGyjKjfH67k5NGwrry+MLovG5J2k7lRtxClRaul9SD4RUOlBrbVzUHLon3yuiZbu8fMOYQ+uyrsPb7j/syNrcYWllsrD/UO/CkLqk/o2+RY2JOc//1biNd8W3g/mN9jYpFlYjqc+1CkzXu351S9/ztuvv2aXRx4eH/jrv/4rltNdN1+6O/r2wwdIApIwEarBTKAEX3h3dysIfPTJSJ5G1nJi2HVuzRrSlDEmYm8IFaWP2PS6fhgEiUIkuRoWXPaULg2rXoadbQuTJ4GGJ0jvaSDY+BqtjRAyP/zNH3N98wzMObqrm2fc3t5iqozTFVCY6+pEaAi9F8yDuZve5HwfRHwki/ctCVhzH8ouMU6JcUjkGEh9hpM1n29UinI4rSxz43QqlLkSMF68umJ3PVLWlcPjiXnxvqZnL1/y7PlL5vmArXB8qNRjny4gwjCO7F88IwyJWjZk21U+6fOXPFNBH6zlczUqORvBxHkiui0AcSIdnwJaK9zewvXzzPUzb/pVtc7yd8NeU96+OfLZ9wLf/+ErfvmzN5wOC3Pxzzwcjd11YP88IzcDdVaOh5l5gVIdM5z9mgZ5G3zYjFWBtfSRJ71qwU2Sj4eFNGTS/MDh8eAN2yKoBDRMvDsMfP3NifeHRh13xCGd0Wx4+pm+VS+l1olKDZVQXOwacmYaPIMfjzMPt4+sfTYy1tUR1/gIAlXArHlpsykR5lZ075X2TSxBCE/PvAcd2VQJ/IR614MTdj0st962YD1ky5D7kheGYURCYpz2/j62Mp9OF65GAqrC27ePGI+9fLh0OMcn/pBa3XC2EaieHTqP1YPn1ggq29U07zzf/HNEP3ZTYzmt/Nkf/1+oQi2NU8z8u3/7b1C6X8l8iJZg3D2czudUe6k3rz0YILQqPNw18jATJycuZXDH8DBmhsHL0bVsA8FkAypec1fr7lb/TA3m4zUI5zLq6azoCwG8eWa2qCtsfqywqVQaEAKvP/6Ijz77iHEamKYJs5HPPv2YL37xC2+fIbIbB1otFJGuXtGvhUfureETg5wSQ0pcX+8Zx0wIlWkK5MFQm4GCtEBdKo/3B+7vjhwPlWWplNWdsj6eIfH8xTWHGcgQ0sTh+Mh8WtlfX3F18xwR5f2bb1jmShoSLz8d8YZayHlCpom5GR230bcym2GVbqvQzjlFUXJw9efx7kRdKiEFN4QGpx/WXh6nnDg8Fo6PC59+7xn7q5H7x2P3v/n1qUvl9sOMrSu/+eNPuX5xxf396snLjLVWjge4etZ4/mpgfJaRYURvC03reTxN6O6H4DGNWh2VOPfq4MHEzZAIPH99zfWrTIwV0YXQORttyi9/dcfNy8948+VXfPjmPfPdPbWsDGPEUJ8JpZyvlhqXsRhR3TJuEtGwo2kldOfhmy/vWA6FYOHs/pTeNWtdspQY3W/Ts75TOr5ZtZO00rupQ6D3RvkqdmJZLkRXuHh5zDbiz9sgUh/ZQL9p2+AolYhZo53uoSk5eQaqvYRozXtVtm7rvlPOGymfh9a7MrLB0b/Tlb7xmv1vtxqd4eT2PNWNJPcxAk2hqnXVw3veEDu/WUDYRg1dUoOdP8v63JMQI2mcOKwRit/QIcbOk/kQ81qV1sIZhXrLxbZBQi8JfK5Kw5OD9aJ/m5p4Ka2++7hwMJ0G+tbzFEfHf/mTv2A3jgw5YmIc7k+IT3zj8e4DV5+9ZpuVcyaQ6XOCEYacyTkyDonnN1fkMfgo29y7w5uTwfPpxOlhQVvidDTefHnLsrYnalk4j2GZrnZIiHy4PbB7viOkxNoakhKneeavfvqX7K9veHh4gKiYNcahl1gxkYfAaRVK3TxLer6F1hurPaFVYnBkFgWsNr7+4g5djevryblAX1yU7udJyVt2qimPDwuvPvaN2+59GgTWsGaUY6Wsxts3hTje8oMffsr97cr7t4/nrGAVDreNMs9c3azsrhLPX43ctInjfaEsFa1KFT/+VrrPdyvB1AFCypnvf/4Jj48P7K4Uk4WqGwr1EizHgSkbX/7i56hkPv/R92F5zdtv3rF7dsObX3/F26/fU2uj9lYS5Yx4/NNNQcPoi3ddOR5Wbt8cqEeDllwmFTuTwL7fvCSKObl6pV5Por0xlIpVl6TNIKSwVShegpl3fLta6pHGO6FdcWproZxK9xsEH1AVN7t8JJjSaFhdL1vC7Ex+Qz8OVbYpbWe5uZcNObpTtvVphnaZueAbtpcU2wR/ZOt36hn/Eh78/Zu5Izf6ZzUzrBbP9iJsrEXYFJx+LI1LoPNRCOGy0YOXlsM4Ijl2BNildm3sBveO1BIQGQh5Ox4PsG4u9Nkx1fw3Z4ToigoVEJ/hknNkWXA/0CXG9Mv6nW+cH089NTDPC+vqg6dkK1vVaOYI73Q68f7te/KYOsLpBsucGFPi+mrP9fXEuIsMOZDSxq81Slk5nmbmU+F4KBwfKx++eejBFkrd7P8X0+GGXN3pvnB1M9Kacfrw6K020f03Whq3796xzQLamk5TdHSyrJVSVrQsZ9XM4mVYVhLnk1L0+dPLsXD/zT11ru7rMWFZlWrqPVetoc3H9oYU0aaMw0hpgbsPj+xudsTbQLPovpuHlVZ8jdVifPPFkRev7vnk82fc33kLzrnf37y5uqyNw4Oyv2pc34y8+mTHOhuH2xOH0+p0yVYUnCkFz+u7q4G0U15OI4/He+ZVScOIlkYOQhoi188yOSy8/eI9TRP373csp5VhN2LauHr9gvff3HZP1baQNo7HoDZDSCynhfv7E6fHhdOhoCu+YTf3u2ww0TuWfMC5+tiALZI3509Cj57aOg8bN/Qg5wWxbVnZenTsYnXHDEkBGSJO00TfjD3TBjPMWpdlN/zRSyK7jF+o1Ust2TKCbkfQy6UoDqcr2227BFXbvCCOULaRBJcRDk83HxdVD2+a2w72PHNmM9mez//velKcF/IOzKYeoKZhcMgd3P+kXf5GXDVbSzv/dgt9Mth46+YOFgnBZfdmvkkl+eD90XzT76+G3iG/InVzBT8pNcNF5n/K83xr9Oh2z9GeQS/naMLZWLjWRrWGRpimgf048eJqx/V+YLePpFF602+lrCunpXA8rjw+HjktFa0RasBsZF0P7rfqXeIGEEJH5F2U6C0IKflQ/q0XahgT2nzQW0hCXZsPUou9872jwdOy0GqkWUNi6r9FwQOGmwIFrdX5oFJ5+HDk8f5AK90m0vxazKdCWL2cEfApnNtMnSiknCjVOB0Lz1/sGKfE8biwHgvr6vdtW3PrrPz6F/f86Hc/4vs/fMFXv75jWZyO0B58VIWyGA+rjyO+edG4ejbyYrcjvhWOjyvL2omXroBtBswQjSYLpo2yViz4GN/r6x3Dq8S4T1w9H5xIqQPLDLTGejhyvLvnzVdvennvrlEJ3eQrT3q1Wou8ffvI3fsT89yHQekWdOzcjHhmwbcQuc1f6WMJzAJNfQ5N7E19IYWe8ew8r2SD1yIXHmKbb7NxQR56IYxuBHT1QAnBf7+XifWh53KO0kECrZX+a1JCl/I8QLlaY32eu9d70rXr1nkd+jzjrQPan8cZGgeHaZcykV6zxo0gPfNnbDK0nC0GfGvDfvfv08cWqJxUFeLgi35zeEtfJNuUkaU1JpHeN2b4+M5LeeuksAf2sIkC+G8gGJ8NTJOwloVlXp8M/bokCTnfLA/CW1I5/+zJcW9odRsa9q3niHNIa1PaWpmGyO46cZ0z+yhcj0bMldKqI5rTwsPR/21FKbUBkaAwhEwtXV0Lqd8NJ0ZdmfTfGgL+W0G0l92mjuhTChCF0MtiEXXeTVyeHnJiORWWVjneF9ZiENwYGPtf0UYphVq0N+AGrKqPJrFLkDivc5xaeLybSSmwv5l87+COYtNGacrhYHz/Nyam/czpF+9YFi/Xn1S6mMH97cr9hyOf/+g1p8eFN18/OGqRM7Bns8i1R2WdF9ZVuXoRefG9ifF94vb9ibUPlsd6opsy487bTWqphJjY7yeev7whfyZINIaEzxMPgZtnGdgRZODd1zvevbnj/uGRuVY/9xyh0x22IR4z+PKLmS9+dehkq/eGbEY27yfS/pPg5da2EUV6X0r2cQMBTOs5aIX+u5dcjehcBtJ9FHb239ARRYi+WM+jObtp0ASqGSG6+cyhtHMl1sCC9raMPjWQQIhDV91q3yiu3sSUvJ1B+kQ17Lwohd5nBFgURJXWEYTQe8p8/2PSehOmk3Mb3+E1/FPyul/HIGdk9xQpbBvzPMheL36QHALDbuhgzocrbWawy6/b8VBXqjJNPjmvVsPChSi2PkJBYvQgWSs0JebINAlmlbp4+aJ66fK+SOpyRjt0e/6mSn73fKRH5LMIEC5zdvxHRllXBKP1tpSEApXH48zxfuHhuDKvSmnuVG/mXfu2wSYDyYmHt9/0zcKZPzRzP5WPDdG+nmzb/YgEgkSG5IqrNqFFAWnEcWAt/uuNxjjw9TePnE4b+eHB2KJSbD1PVZB+391w2dU54zxN0a/Lk0FxBtaEVZX24YQEmMZM2MF8qCxLodyM1HVmtxsJpMvMpw3Ub+ulGbdv/x+23rtHlmTJ8vuZixCZJa5o+d7bWewMFrsAF/z+34EECAoQJGZn5sl+La4qkZkR4Yp/mHlk3uFW43bfLpGVEeFubnbsnGNn3nwz84d/fM+nj6+kZBk6V71gP0JqhucPG5eT8O77xv27iXF65MMvJy5rIledJDM/jjRJUCPBed59d8/hEJkn7aAOh4k1L3inPttaZo44F3n8L3/g9z9+x//5v/0/5KdXivTERRCvB8AeeM4L1BxswTe1VbCMpoPD/aMbOdGadiSq3lRtd2qd68RGZTSVQ6gJuo6LKVXLgl1dXI181cRMobuZluCptKy2HcWZYtnpe2w4cMFKHw1ktWTbEDYJ0QnSzCemG5RlU9F7nZbRjKTYdUK3DnhOzEHPqTk4oFhF1a81aXsJByaG5OuAYmtWVcyNm6CkdhCaIRScF0pWTOmK82j7uzk1lMCyiGYtCOccJahVbC2qd5miY2lV26OYF/HuHaMYT06aFToGlkUxibQJrXm+mubQ/XHArrOryTE8wXbfHuBu/mtZY/cy+veZUQNSznx6PgGNz09Z5zkFr8KCJsQhGuiegWp6nsbz0zPPnChm4VHLtQTsi1z5Rn4HmkWEEDzH+yMxDupCUBQbdF7XaxDlNmlWEznc37Gtr4pR2HMruQfjHkZVRa8uhGXHEVvrX21clfmqn1MjfKFmpdWe0sbl9YpTvlaFOu7uj9w/zCyXRDXD/p1fZkHs9Xnj9enCj787cnwcefq02H51thb7qxrEgbBeGr/+baV+L7x7O/Pd7+747ZdXTksijB7nleHsp4m3b+6Yj55hcIhUvB8QL0wSaSkTmjFzWkGqJ4bC8Hbk228e+fJ8RjC80CK1vy21fNWhdBVnmg+zszRPXScaZOiotl1G685vVcVxzWlUa2aUHhxkp3ofj9s5GyVnU8nKDkIW63A4W8iKswjqHuVwTol5gmJSilArxwKMvSxi3xst4mf9fVU3uvce54PhDZXBaXZQ7bgUZ/aiNqbEmfVjn7SxbNsu7+8iRG+YTDE7j9vy6Wofcd2I14Bkp5ZNK2ilXpeH/bzOCwuIu8oX9ptfNbB61BCtoRNFx3FgGIS2aSdNN6QGieqAAmEY2C4Ly5qIITJ6j3eBRqIjOK0fLLRrIGn90JW9bOrm7SLsgajJdZ3cnFl7md0/cmmcLmoUl1OitcZ8nCxzUmc754xwWDV3LEkxmVrKDsj3jPK2xGv77+mBonE8jtzdjxwOI+Ial/NKKRUfwIeAwzPezfjgWVPi8dsDh4fI86cz5xcVi15Bdv09XaCZUjVsqAPO1e5dzz5uSy473HD0ZoblZvqzqfL585k/3N/x7t2RTx9e9Pvkq0vSQJIav/104nCM3D2MfPmyfFXii/1cxy0NpaQk+PD3CyVX3n97xw//8Q2fPp7NCqUxjiPH+5G7xxkxoukwjoCj5AUnEIeRUjZCdNA83leCKxrQ26qLTayR0rrZyc4dxQSPOhvL1UbLpncR91UJ0VvkDiGIRmsRzE2w0B3PatOgoubahgo0o7UH86DJBYoSq5qZlwt9UoD+t1ahNK84iqDDw5rgXGDX9tiC15ijPzcOkTFo0BCn/rZxmPDjhAR1XesO/cXq8VKrgpRm6+G8jXGmMURHNeyo8zdqqToTrF2d/o2suuNAPQAFG/DnutuSBcxuSt7V+7cGVyEExuOg5tnVFrIteh3cZiWRKm9pKEa2pUoYBp0MYK/bgWLN4DRQ+hgopXE6L6wpmU0qO86FbWjX+tO4eidb0rmXhBjojXPKTJdeDtR9r2hscNwi7L3sOF0Sa6qk3NiWjJeAx7G8XNheV9pWyJdMWRrrJVunyhGs2XEtKcxnUTCzbX2/3itm8/Aw6xA6m+Shh4w+/5oyrmYO0SM5UbczLb8SxsTv/uMjP/z+nY7ZbrehtF+H0h36WBu311Q947m9B/3rWJBSUMbRibiaVX74+ZlaMw/vDoRBx2z3jts18EGrcHnOPH9ceHyMOg+9dTiC/cAQ+9z+061Ri/D5t43PXzLFV45vAseDKBE1CIOvONlwklUJsG60kog+EvxILoVcMyVfcCQGb8nGsvL86Uk5cWh1rEejo7QbdXqwTMXVCoNXQpKllCH2M+5qWSlGsRbMhN1mV3mxOVH2y6oJR6HpphW92YozmGhE2G/4nhYaZd+5aqNinKnMdRoFFjtbK7bJq1kBqDVAy6udLgoClqoWnC2pn4009QhuRcWJIXrzH9GAgmhLWZqyivucKlvR0BRA14ozU0u5bsJeVLsr89YFdeGniRmFo8ZNIpSc9QzyUUtW0VNzmINOV+ii1QrVHAJ6AdepbDivcolW2XLFl8oQhZYbmb7+exDQqBFC0ImSqfD5y6VXcXQ/oh4ZvsJ3sMO2XROv6566qvv3Ikzkq59zwSHG2+okmKseTHG7dc04p6rqtGVaCNAC67IBfYS12zOIjh12REAPPv2imCWLF+HNuzse3s4Mo6eWlSaNyyWpd/hWLOvxnM8v1JaYpoF1EXIqlJC5nBZitHK73HTy5DpTrYnSHLxly61Y2SfX+9Tv7jX46N2poN5Q9rxOT4nL65nDmwemMXI5b3uJKt4Zf9f4bgivXza+/+GBadJBj11O1FcKtn876qxrShsUn399ZZzumY7CthWmaWKedKDmerkwTZHlsukk0VLARWtkJMSSgdYKtW1sOfHLzx84LWqb0+q1Q9oA6o06vXulVqctSeeD1vK10apgdr80cRq5OgfF0sk+QVInAARc1QxFAbf6FRbUU80Q494W7h2nvln7idtDdW2NIg7xXrkXqCaqVadHchecClpD9/nhmE6k9jTcUZtNU3T2SJpyfK7C1XatSe0yNyM/NdGSpDRTs3ulIRRrU/d9ze3isvLP2oE7a1XbqNAd+EAzGaUMVJsQKspOdtDd8QKNKo2kD06NnORqlVVLZVsL46RmYG0rNr+8B3X9j/dKEqM1bRPXa/dHD+ubkHKDVfUw0tN49VfuB0c3Zq+Kf/Xg1Pb9ZcLJ68Z1Vt52UL4Ap8u2U+1zrmRTPLcu8hKsjOnvb49jminvBaO+gXEedHRudCyXM84rf2Y9bQzxgW3NqvM7n4lTZDxoxv7l40KcAzFW/vCfvuP00vjLv/4MZG4NyZxzu+WIOGe4qOz0j35tOEfZGxk3wcjub2lXvVxOlU8fX/jxMHK4izw/2etaV7OhWZY4xzCO6lKZC/ePE6/nxFUkac87BoVBDM7oHV+aJhkl60jlUgplWxkm9WAfqsM5lVHlpF7stXtWpYWGYsIS9XA+XRJLEcLxHk5fFEIwzK3jb3vOm3fjIhvW5x0SQAZR6QIK0vrO47F0cTfe7nVjg2wlTLTJCntUFxXP1aoty+YALzpCRepN4Xc9tUo1nsqWyanoLKRa9LTORV+/NhVV1gxWQuWi2E7LVS0sWzXVd93Fqt40MMqCTaat0eukqX9KbRowUkqKK7XelVI3u1avQdKb4tnAjmsAbcqc9j4QhoEwjdgcIHwYGaYjzkdqExPz9TEmXgmNFvTGEPnhOPMf7mbeBAXe90BnZVszen9rsG0VF7TL5fYAoGVd6/+I4HwECeTaT8XOqbJgY2Wjc30Wdwf/7TmZqVatKlDtWBV7J+rmuXZF+835339PtczWCnhK08Xa+VSYS2FYYb2GAAAgAElEQVR/P7cfrX1NY5B2fd/BO95/d8+bd0e2y8an317YUmPLlWUpvDwlLif49KHw4eNKyjqtIU4HlqXy8pSYppnmLvjDwjc/PuoIYufZaQbOWXYq+/PQk+2KASm7XPfAzTHw1Ue/7XpfhZcvK1B58/6o2YZ19jT7vxJR79/cMR0PnF8Tb9/OROf2wNv3qjhva0opAK3d6uMin35duZw8yICI4/S6cj5vpKx7Y9s2hMC2JnJK5G2BVuhOmVteOK0bf/nriT/+7ZUvrxeadyoRsYkwIQSc3IwwBp037iTslpN6GptmyU4qZ2uln2Re3D7cLFiHqZamQ+OcEg9dVH5C8KJpvy4nM23SF6uWdYgtQJ1O6Lv4XX2WsezAOba89RKe6nW5llps0Zv2pwdJpVP1ZdkBD90YCjNRW+cCmdiVvjnFFOt9NAomjjNcpWlLXyQqQcp24zWD0ldrpZHLpqr6HpgaWnag+Foc/N59E4FtUX9oHxsueoI0Jh8Yoydmwa1WspiKtWdKXVleigZtJc1pEAezvHCya3UwuxExSwndS4Zj3ejVrtkqeweJpsFLWmdT2XO8IV7KzRZrtRtR+P4Zqs3J0nt+BZ77Bu6UAKRnjOzg9X6m9fJTxDIfgwaC4/HxwJu3M7Ulfvn7R8QFZQ+j+r3TayKVrIeXQK2eOI0EH3E+sG2NT7++8u6bEZHMwzcDJR8Vg0H2oNhHerSb6xVvpZMFTCmV0K6ODR0H7Fnffh8s+JxPhfNl4fH9HT6Iug62umfIWgYbRujgslS+//6OITpyLYpkiOxrzQXTBtm9d4CPcS/zT8/C2++OjGNheXmlJGFdKtErxuOCRzA/aIEheDWsC541Ff70p2d++nthydp8yUkN/ZzooSxBaP4m8FSpJvhrIBUXoDUPTidP1qKZQ7FFK66zbK1pVyulRyeEmhvDIVhDT3GI0qoBmoVKsTejXSFNNpoZL1WWU9KujenBRMxLURzeLAdEtDtWquE89YoTCF4Xf9P3JFzTWT0BrDVa1RiiG6w7r1mGSiwM2+hhqKn1x85e3lN9Kz6qLRvp4k/NWvYyA7Q8bLqxSynWkesb1DaroKrf4nG+MkyaGK+58MupIE1Lv6QjGveFpatWjEMle6eFqF25XqZUO3H7x7Zd6EBoA2JQMHzZlKzXwfd9oYvs4030ENqvTjNBC9j9ysx1mQ6i7uArOqH2GmcsGnPFJW4Bev1lbY9Ju22A/b12oJ5mgViJcN/+cMfhEPjzv/3E5ZI53EedKhEDIqo012dk3tk44jDsc8ZLbnz45czry4W338zMDyvf/uEIrfH0aWHLXRvWg5Bib7fWIujS3TlN12d9dWnQTFP3Wyfopq3y+rzw/tuJw93A5Zx3eWrvfNbWeD2dme8GXl82fvixMM3Ckp2NkdZgmEsmZhVUZ8NXnSnQ+61PW6akRnwXGIcj5+cLgspxguh0FLFyrwQHYURcZFuFP/3LMz9/hFyUP9e8gNNJL0G06dCMrHmT8TSEQrNaT4KneU2LbC3TZxxJNa8cw0ikn0wCotGCWgqhDUTn2GzqpDNJrHPhKgy1zMPbRsnmmdzM0qH78O7zljDtjKWLiGVhluFUrhvbeyFtV7b0V9R+O3D3tF0aPkZ1zEub+eE0I5hZHm8ZlnfsuqMudq21BzWHOE93xus8mh6gviLmtV6r205qNrFAeivfJkpgrG3vONUrV6TtaVPdA4BuIM04Y9SpF3mrTFNEpKhpmnPq1SOQKZSseIBWB5XBB4L0kgyWorPMeoa3g80WC3qwt4dwPfmbuhBWDOOyXMBZcO0/2yNz69dgt0OzprZvStUFWnC1k74VnU3es9xSkk0haYxD4O37mRDg8rrw5eOF1jxSBdOravmfre2Nrm2kEYeB4OMeDHOB02tj2058W0eOvz/w7vuJnBrp08XWpv5bmxDq/tjvU/e67mukZxoppb20rWZa05ryZTC50XaqpIeVt+8OfPlw1kF8nW/Wipqv5UrLjeW0cTlvvH3/yMvzZ+0mdRIlOrXFNYcfBnsf2vTJWWfLiThennXtfvf9wJgyy+lCjBMlF5xzpJyRIOAC50shvy6sNbDkUXl0OCKVZVG5RauVsm5ICDSnwf0KLt9uCEGFoBQkBmgO1VnqidaqGjr3BZRLYYiq2ah2aqZNh8J3oWOD3ZDLe6dsxqKdAJy6rKlToTcsIdlD6PR8A/K8J22bYjW2etu/kzloGWcz2+mOhWZSVqtS3e1Bl6pjWMQPhDDiQiSKskrVGuOa+kvz4LxiD8Zvun5xRxjoiEoHP3XY3c03f5Ul9HS782WKDrLLjeY9bvBU47KITbRsBCs/7PoNvNspBaJ8p2/eveP5+QtL2thSYZ4Hbf2ntrtFaqpZceJtJpLTgXJer1dZvB7xxpiwE1xEeq8SbkFkPStuMjjLF630qnLNmhRktBJjD5zSKyrbxhqgdX6UfZTbr6l7gS7anklWQnDcv5345odHas786//7V7aksEs1XMb1NSkY2VUlNE1re5xXbyeh7mTOWhqfPyfe/KCt/9PLmT4pfMdteobb71Wz8dN79qPPXocBaHTXLpx5hIsSZhEVV5cMee1jbpyugV4uG+56PB4A9Wx6/rLw/ptH5I9f9gxyx+hEKGkjJ9Ve9fcpQE0FCZ5tgyCR+n7QTp9zbOdEC41Nik1ajUhxtOJY1kp2jvnhjvh8ZivK68NwpL4uasogRZXv+8N0AeVAdMq/Reysmx3vrk5ltplrU75BK5DQ+VL9pLtshbmpyNOthcyV+SndKFzq7tORS2V5Xaw0uab9+/nXMP8SFVd2HATproDxCpbtqELfiFfqei9llHNRKU07bmrFkdU4u3ehDOxUEWozqYj52KApufSVZdhEa3Xn53xVYhmqr0/4CjqDYTP2eDrZsG8qqQJeqQ7irQtG/Uo7J96Z4LQRtdLD0fjw8de+FWhVZQpDVDA+GTBes2IuIeqo4SgQo2MeHNTA62XbJ1QobCU7brCLXHuQEKMK9JawXrhmhnuJ1NvFV0yG/Zo7j+W6aa+fZ7+W/iH9ftqbazQlGXq4O458+/0D3jd+/vMHTi+J2rSrUo05r0MFkvrQWGejM6DBOlL92oxU2gS2TUhb5nCcKa0YDtluAsu1nQ+Kj+Za980/xIBzomNwWn///ZC0YGr3GFuL6uXtGQ+B/HJD8rTn74Ln+eWkhMzTxne/c7ggtHSD0TWx1rcVa7XPgreg2Qoh6/o6nxKnSyWy4YZGxSNRZRTOg4tesx5xkHSCiwRHLonlsilmtjcS9gem/9duMh7tbHh2AyxnNV/JBBE1RqcZUUzdBV3VSO+CgnQlGzemahdKX/caxBqwpUxwgRj7eFXlnuRVzZC6R47rm3+v93t5oryenrqX1rQDJ9jIDQW7xYfrAuqpiYhhQzonO/efNwGqtIQfHbkU1ZI5odWsLftW6S3xWpp5Ml8DnG6eohnh3l+Rm6zsCps2boKvbTYLQdDaTQu+c6b0lKMaTF77760312cm9E101A6OXDOdk9PoDoTqP1xb3ccT6+A99SOex8g4iBE9wR0isjTOZu1QcfQ6VUQ3ZDN2s4A2FNq1hO3BRQO+lmKtquZM7HnoDC8rpdu/A7D7QrzZyF8Fn72EtlAnjXEa+P0/vOd4P/Lpl098+O2V7oapN9pKIcySxZ6H95rD1VxpUrWbY0/sij8BBfJSGR8Cw+g0e2hul5Ls660pFiq7m6a+1xAdwelUlJ5Fimt0li+9ZLYKv7nAumUOofL9jw/8eXliW4zO4SAM6ib5/OVEqnC+FC7nhTA4WIxQ6Xqp5/TAb0Z/4AaCoFFqRqQxxsjjMajJXy4sl8YvP5+UuS3C4Thw//7IOI2czxd++ssHtuZtqN9VhCzWfNjXvR0QV8mEd/ggtK3tnZ1+apWUEXRKoaac0KqQa2cuG8+kod2bnHTjZnCtKQlMtLbL60YqiRSClR/mxp+KCU47v8FMw26DZc/BbwEGOnmp7e95Z43um9cWbgMnDSeKu3jnEXvYDSXntW3FBRsBW67lDOKtlDF2dbuSA/s7tF7d3m6+/qOLMThtETsnetpa27nzP5xZOVQTzgpK5hJpTOOgGU5TkmNrvcSyBypaImGYiutdrv3m6UfaMn5QFm9JfaErlpBbZfOZlhtTdAzHge2y4ZrldiKGW+i9Ve1T0JJ1/z092Ctw2Reg279U7P807fdOTERom2CPLW1/Od2wzv7eO5Tswan/V1BM7Lvv7rh/CORl4ZefvlBSXyv9WRjmViu+Z827/k52aon3nuAD4hRv2fdEbWxrJcTAdBi5nLQk8sbfuRX/2gF/fQwNLpfV4AAMXIZuOUJtyq0RtIxyThsDRcvQYdJJEx9/O6kY2sEwRl6eNShIg7Q1UmmMU+D1Jat9zH7D+nKwFBZloWNrdt/zpTCMI9EPZPP//uXymdcXbTS8Pic+P71yeIwMbqRskbyZyTxXixuwwNsDstO9Zw6EQiAQ/ER2FyNz9dayZhklbbigPqrBpkJ4rONlOIgeWg6qnozbquCvd3A5b5RaDWVnn5UkHe/YAwpYoW33qe0366qD0tKmP2DFBbT4aU32Bdpbzf20EutcgVqD5tz2iF+bOhzW2tTZzxZ0nxzRCZbeefCN3DtJFih7NrMr0bGHaYGhithsdq5lXz8Fi01cNIwFcYQ4qI1pLeqPs29WXTSqtO+ZhW2eTiMRNRVzltrfdlYasKbCNEWmIXJh3cubXCqnpTJ6x5oKEiJPl4wTj4+erhu+/dg5KoZ79d/Uxw7LvuVuMxXL7yzjCd6RrdXfld630bKXbPqh7dy239sbDM4Jb98d+eb7O2iZP/7zT5xf036699fqIG7wQT11WuuwkZXjOpk2usgQHW8fZrz3fPr8Qm763EuuOC/Mx5GnD4tp/fTpa3f4apPSLV726rFYQ+amTKXuV7p/to8M8hTWS2IYI+Mhcv/Wk0tlvSSaa6zLyrbkfa2X0liWzDgFdUC0kSmtFYMy/kfBpu7ZFsCyNn79JfH99/ecLwu//P2Z19dCKdpxbQXqUiAULniKG3a/nb3k3C1kOtqHleI3nsul6CgO570WupXd6a9K1aiVC24IBB+0TnZCVqXiDio7EXxQvciyXKhk/Ny4i57zkyqoW1O6dz9BlYXc01S3r9Hb5aogpp5K1/Qa82ru8smeJ/WHfBuYxGjsjVQLpaglpkbnHuc7anOVFuw8i96GwUzU+6a2RaxAe29Zs19Ab3U3eyDdz8fZ6b7nVCK7sl9ER/d479mKZjd9oddalbLe6lfpu5iuzjmxjE52AF2+ihaarSxrYh4HjseJl+fL7hCXi87QcgKXTyd6VesqiI/6HkwuUFuhdG0SbRcVI10v5W82s26nru3rm0ttNhXA7bnunixYtiPCTXi5fp5eilllejgM/P4PbzkeA3/90y+8PF+Dzu1BopnrlRYBPSPrz0ehg3VNPNyPvH6+GCNedoqHKViYDzPiXmjG25KmQUf5br1hYEG4Nxja1d9b9xfQnB2AJoQWHWYoXj2lzq+J4Ju6Ag6Ou7czl8vCelq1oyrXA6Zmx3bKPLyZ+eDPdthrkG+17jQWld4Y3uP9VQtouO3f//pCyZ4PP3/kshiny9Z8rYLUQskbfrhDXABWuo6vQyP7OYLqx3rZtU+Z0CNHa+9cVWNCyQRvXBzRBa+GRxtOKo5KjAHJlZS1tSw0vGu44CipWDsPQhCm+0j6vCigu1P7NAB1nRVWrvRS6oqLqGGTZkDG1fmqjNKf7QGwA8Na//Vr01J3SdWIX3bCNqG5ZpQ242SYe+DXeINoadM6R2Qi5UzadIqqD4G0bdRS9hZ+n0+1c1FaLx/1IYYQ9gU4Hw4axKvS+XPOpJShVdK6EsWzLRutVsIU9qAVnAXLxs4ut1C9L0bvexC4Zorn08I8DyzLxrbm64ZGAfwdUzFdXkWD4H4kSNtpgOyf1UPEIRbYbzIdZwC76dVug2OTgvphfx2Mm32iq1du86a+iUEN4d+/feA4OV6/nPjlb8/U6vav35bEHQDXCWZXSofSLDzgCGEgiPD8vPD0spqzI3TMTptsnoc3j8T4BWmeSiOnFbFn0S1eai8V+4HQj7WmGbLbcZCeL1tQ8IE4jLgYETynU+ZtrQzTwJIcLXtaDUC94QbpHjm9bPz4h7e8eTPz9LQZPtd9njTgOBGGyfPDj+/wQ+TP//Z3tnUzzyjIa+Wnv3zCxoLRV25/j600yqYTNCRE5fzljEiXv1RrY2o6oFVIBXdDIJSaUHDUcIYOVlraqEqhajOCHIPXOVU+GuiM16xJxF5DqHZytKatR9XH9G6InoF94XZHt3XdzO5Bn7GOmoXuXdNFpf1Y7JqVvpBxOjOqM2f1dNYTfNvyrkPqJCj6z1bZ8RJb0XwFjuwAtUopugrbu4GKTunsM+QRYRwm7YBcziDGEJYr3gMqHA0x2m8SXBgQnBp5ae1F8FEHsW2bmWdBF8/GMdjECM+Wkp2uWg9FcdpJlJ5mX7MgDUBCrY5tq7x7/8jH357YtmJfuwbKK+jb9tvQ+jHW2P2HuhK6SQcs1Xelf68AVdr+915qgFfA37JJcdfwcks5uMX6dm7wTSCfhohrjvVc+dOfPpC2nmnw/7smcar5q+KvjQk7iMouRagMs5rDq4Ofs2DR8QundhpRLVZKyntHir3MlP29N6eBTqULVqbfEFtVLqIHYXP9PpuRV600J6yrsKyZ+e7A6bUiIeKK032HZsFOdM00GSmp8Q//+D1PT5lf/v6F55ez6ee0hHt4mPjDf/qe48PMr3//bA0WFGPqJ35lTxRaz2p7ptgaUpKOLw+e7LS71v2vsN/Drv+znqbcEghLhZzww0ApHvGVmstu4oSIRW5lCUuIHO510F96zdRU1UbCFl3OOnQe5/SNlKJEuCD4IozjSAyR9XLGB8/D2wN44befk5qYt2vrW8OAsXx7ydP25WfeOo2AGYntPyN7dtRbldWeqoCR6PTPnuX0U16u4JtmRk2DTV+8HTsSIQxKvKpWl0yHI3EYjeDowZmPr9NpEJoFFhNTqlF+NZqCUgI6B6jTFjSwd0Ka0MhLJuD45sf3jIeZXz/8xrIue8ycR88lJwQh12qq9quzYNoKrTgkRGr1HO9m6vN5x+CugeeaY/TF1mzxXAOz3gfv1Yw/hEFN3/ayt12xqL6eiwHbYvYeXejby5GOg3Xdl4mSuxyighm7qRJ8HEcE4S9/+sTptYEbFXfC2vn97Yqok0LTjpb4m6wHLcuLMfWV4d3smatRmOAhqEeSgr2BEB1pUyeDnqmLsZAdggRlxAt+n2Das5RipbC363XSbKKKWvFu28K2HYBIKY713DgeK1P0avwfPOtyoeaNjimGYWR+eM9SCuPB8eb7e4bjHf/9//4jW1YT/rv7iR//4T3zw0AumV//9mF/LzTtFNfSBZ1qhles40wvnc1SuJaVEGYlILYArZFKMT2kYl0+RBU9Nw2oe+BpzlMLhKZgcC72MNSohuqcWhHUglCJg6PUhbpmzYVE8OIZ4oA47edfgVfDf5xjCJ7HN2958+07kMbnX35jPkbC2HTAvA1Jo5k1qrCDYFo373ZY+0efu16d6YkaN0rnxvW87CXA9f3oxtIH5pxpz2q3K2q0lnfwtSNBGpjMWrVqRlVy1tR1GHFhwMeRddvoBDqsy+SGiHdCbNf3um2bCfc2e6A9VdDTrpa6W2F40Q5iLtotHMKB43zP3eFCNiZ3o3HZ0t4dcUYBsCvSDVa1w5W3xro6jrPn4eHIy/OJbOqU7ld0G2I0BsjOMgb19hkHVbkP85G6e8ooNaOYV7bFE30fxo3qMgFx1/q/B15BcIPD+8AwzsQ46QFotri19MOn4h2cS6GOA4f4aNcq1qqv+0U4AR8LuSSGWgjRKz7RbigBTQc9KqYR8G7AhQEXtZwQUUItTTG1cYwsp7wHauc9cZwJw6g0FWcdWsvQtnWlGLmu6Fzk/Zl3nyhbMkhzatTvwYXAuha8NI53gYc395zO6vKQtgWsKTROB+bjERcTa1qRAG6cOD7MTLXy+Pae+RjwE+S08uXXF/UicmprTM+y7Jz33mv5XgrqqtMxWj0CWsk0BD9OtJLIqTDMM7UmWk4aZmvFDyM+jrR2004vXklOrjS8OJpT5FxZwU21S87vK2fLmbpCa4XoAz+8fcu7h3eM8YAfAmtL/PbxV55fn8DsKR2O48Md4eA4r58YRs/w6NjKppL80k+0Xof2RcpXauMdG+g4Rgd/G4CeZtUetA4m67W1pyE2mseyB9dLP339LnTo6ZZmNWhLlY4XoUHYKAKtFuIw2MZyyv7Mm5Y8Yzfz1tfLadsB6Wqrq+MYpV5Ns3ZMyVJwrA0vXm5Y2I2UCl4Cj/dvOL2+UmrGCwxGV7hky7r8tSXValPvIdO4lSI8Z3i4i9zfzbyeN3I2nsttmkIvbUGaEIeREEfCMKi+KG1s6xlx0YIN2A0yR8rra2jNVHdvop2UuWM/nRBoXKvDHRJHzZCa3mcf237/RARCI4wNyZmOAVYaKWdqzSb/EbxP4F5xITIeZ8azlssdE/Oh4iTi/cAwHZneHHeSpw7e8xwfIsfjG5wXpruZ589qN+qcI0wTYZzxYUTEaXBBy7htW8nrBWofHV338rFv+GsrXu9YjI6XvLAmOF/semRlnByvrxly5n4eGKfAPAVwARkBCSzpTKSxbJm79wfEOWIUhjnQKJTSGIeB99+9Y1k3lmUlber77EXtccZhptSqWE4u5itVNSurlVqzHrwx4syDvPtrVduf6hO1UQW8izciUQMoa01qAWmLvDvbB3G4EHAhIq7rrhqOzLf3j/zX//xfOd7dk7eGo1Cl8OM39/zLH/+FXz9+JFfFNGqtnM4nhMKUdZGlBGtzSJsRP7BPlDRxIZb5XE215QbordfUDzs95XqCXIl1HaHsPKS6p/O3ZUVnct7mN3vtRv9dWJqZoaqjYhMtH9K2Us6v0KoB89jolU6o643bHiivuI8zG9gYROc3Na5kwda6y8JOXxDRrKVVGIcD4zizLie8VLxoh8+7K3dFpx6IdR7tulq3rmicT4m7Q2SeBtatsmUdv9tb1r31CqhfU4MmnlQavglhnPXkbZUhBsXaRCjo5uv0FCfXpoKWoEAxPM9KsmZAaG3gUH/uy+VMq01pHXRLCs16StHg39CfCQ6CK3hx5BbYlpXgdeppHIQQBpxEYhTEXZREaR2yMFjAdBBGT3tNNDPAFwPIxQfmeaa2wsP9kS/DWWdneU8cDzgfLWhrYMkls60LNSdaySrObNr7oCpM4b0a9gswj5HTeelbl1ILJVXWpbGsiWly3B0dzx83poNjvms0WbiUhJfA0EYuFyHnxDQLaQUfIiE6hiDk7cKWEuMYGB4i3747EoYBafD82yt/+uefWHNhmI7mAqr7JUwzoSmdoOQFm2lOywU/RB1HlaHWrOZ5Wa9ApFFzItVKcdutA6GOQ8lZBS3VimK12AyM40jxmjV48RymkTEIkxfuRs/56SMhmKseDUrh+7ePvL3/n/jf/4//iw8vT6xl3QNAbZBSY5rg/jCAHHDuwBRHvnz8zHparsPZ2m0Y0Jq7tJ4NXMFa4XasiuI0SuO3bIm6QwjOfY1h3JK+vjrlNfe2tLfpSdUUrK21EMKA946UMuv5hLTKOESG8YiPAzknzi/PRkCzsqyYTbpA9/dxTpRBXR05aVfPi4CXa7nZ8SUBczEj5ZVSMnGMONSsXATWfu/MwdAZUJyTMa+zM7lKz7gaKTeeT4l5Duoz7dRzJucEUnddEfQumZqZretGiJE4jrjgWF5erBpV7CrnrPap5k199RvS59Y7fyZZtINeS5Zay94Cp6iAuLai2io0S3RGY1jz1mFsQqxUFnAzNQVcTXrYDJFm00XPy6YZUboYQU+DuXrZvAUadVsol40aAuK8kk5l4HzaeHk68e6bA4/vjsThI1nAxwFEX9OqFvK2UosawlArYofeLckweqUalKZ44BgDp1bVGgbNMKVZJ2nNyAjjMPLNd/ekis1xV5OztlyQ80llNqKl2jBMSBBq3VQQWiuuJE6fX8A54jjjw6A+RHeeb//hGz7+fAIXWQ0/qt0Xap5xQfDFUZM3IWiCOuBDIIaCK0rB2enx6BBQWqGlWz8epy3iVhpSNL33AmEa8UNUrER0KF70wrvjxPu3M3m78PLlmVcay3Lisi7MdwfSy4WH//Y/c3y85x//6Z+QP/0bnz9/IrtKrmpCPsWIb5UhRvCj3vD5jrs3I2yJ5y8nfvv7p11+QV+sO+9GLCNQ8FdpYD2YNMuI2h5AbrskPcDs3ZiOl1qZ10HF2/KOVnTeq3X7PMpZaq2xXk64WpkPB+I0Keflq9r++p59ZxQ3rlNRbzorCnb6HelwN4pvLCtrTSn+Jfdu5MA8HTm/PjGMt7KFawTVTmbQzTMojpFT0kmspdhGVuvReYrUlqml4U1+ov5JSrwD8GEwewzNiXI28bAPUCvj8UBtkE8vtJIYjzMhzry+vDCEQN1njCs2NoYR8ZFcMjknyraBAxcGQEmVLdpytTKKrM/Vhz5Xy9L8+kJpCzHODHiiP0CrOJfxknRu+7oSvOf+YaBulXWxEdymBfTe4aTSaqJtFZynDRFaYDllfvrrbxzvv+VwDIQouKxNFCmZVtSuJaeyA+L7ObYT63Rdea9YkU4Y0fef7V4rUuV287ZS1ND/UD25XHh+WpnuH4jTQKnCUITL6TMtJXwtOp11GGwlFeYI91NkcMKXJyiL8Pw5ketCZUV4ZZwHUtIZWEoPKFZ2K+i+Xq7M/2mayOvGVotOY0Vx4GmaWC/ddL4XDc3aoDcYD83dtF61A+KCJ45hXxyiQAQAZX3l+fOr2UcIuEojk/PKl19fGePAl08f+O7+wOObB759fqRtZzKV2rxOkhF2Se8AACAASURBVEwV3wK+RiTqye6cygPCXSREeP7yRNrSHhD6hnXS8R39l97Y/xEUesVuOrgozUzssYfbM6eb7+91dw9GOxGwa8VKIW8bcToq1lSyBjbvSEU3zeF4f5VB0MkD1co0i3S3mRYoIGyYDl2p3W7LnF5maZDatisgHeNACBEnZS8ZS1HWdS2VLWGArN2zDiJ2ew/jqqTSkDXTbB5Ztc0S+uBZ+9khBraUUKsTryREBDcM5MtZM504EuJAbg0/zDQJerIeD5xenqm5EIJuui2tzI8zl9OJvF2M7OaYj6M2Hq6ng4HS7BgcWZeHdoi009JqofiEk0FFzq4xDgUnWcFjY4D72Ig4pnFgWzO5FQqNbVsNnOcaPFIyzKjyOVdOP84cjkfmw8yyXsh502eTNzV+b6LY6C1GydcfIWj5a3mgPreqwHvwnpSSdZc1sKdVf67kxOPjQSd5mZGZ98I0TkiBcXRELxxGMffLiePdzBRUKnJ3fGDbhD/+6yd+/XAiZeXdrcsCAsVU5k6UXiBUM7KDGIVxCAw+cE6KM9Wa8V7XYAieS7EuRU8MWq80btvpYmpvhJwzwzQSBkcj2cjbqtlQdZQa2dbA48M904O6Dg4+0MrK9OaR43zQ6Zchc3n6jenhkcc3D5yeP5Jz4s37H4jjkbwJw3wgjpHPz898eXqmtIxQefr0hT//8WelvOO/AnqvD1DMplQXoIhN8uwAcLtmPIKm8gp4VSsF0M7bDrdY+eau/IqdJyTKIO08Btegrpvah4SA84GaVi7PTyr7DyMcH/b6uLYrw7lRd5uMzomopey/twehaqk1KK5T+wnYtGQDnZCRtkwc8j48MczCtumLLOe0BwoF0f0eYvfWqDRiDCxrsnLVqZxExIyiVFJSm8po9jLLe9qyMEyjKb2tJHUBiQPpciKKEEI0UzbN9kJQkDjlpLIOcdCKFlq1UvNGzRvdmLxJ5fT0jNSM857j/QPSGsv5VU/XeaZV4bIstJYZo2c4aFaalhMlL4xjYLwXxknT/7omWtZ7Pk0D1RU8jmmaOJ1XnUNeIcbAEBzqm1VRFrlKarKDtBbcgzCMDqk6CFDLxkZ0amNyxeS0Bb0f5OKIwTNPIyltFnQU8qi14a20a8UGUVrrNSfF5VyD55cXvjzp4VNrwXvH28eJt9888vBwYJwGhExNiePjUefJiYHgbqDlxv1/u+N//V/+hY9PF/pgy95a1wrD64hyIHjPNA/EGBmGSFpXGkmzopxxYWSaB5xYa985Um2qHaTv215qCbhuaYGSmGqpLOdi6uy2b/YgkYd3R373ux948/YO7xvUFV8bMRwJLqo156Cn87I8U5fK6DLv396Tt42WFAt5PL7DTxEfRg7f/sC33/2On377hZ//9id+++WZy1nnJ+29O+k2nsVOVw0oqu1qtOb2DlZvoFcLKr0T1FqXVRirsgeovuMNjK2G6ezD+kS7et1QHHR44HY5Mdw/Mt+/YTu9KJnKe8b5qClz2pCmD0Doi9A0cP099mAnxiGpusD76YcFu143NYQ+XYCceXl5ZZoPKrMIgfu7A0/Pr6xrZtu6O15f+OXm75rWS4O8JYKVgF1C0gz02O9nN3NuWn45URwqGMcFE4WKE6R4CJW2nvBhZDwcuKwr/jDsXB1Hw7WCCpBteOGeBep7DiHYRtZMcT4ewUfSuhDjyHQ8quNBCDwcDrx+/sB8vKPURaUjVFwU4thw3i5hyZQ1gROW04JfG9M06u+Lnof72aQdiv7u7Olq9AwjpArC6XTi3Q9vePPuwOdfn2g4clbbDWfPutTu2GMBww4y0HuVbbRvb9i0pmC0M68qJ2FvmIgI26bOAtrQgPWiHcNpjHz79sDj48Cbt3cc7mY9FESJfiE4Wi4cDkfmwx3ORbbTyhATf/jDO07nn7mkTC5qBr9n5dVsc8UzDhP385FUlFWftkTJ185cqVoO1rRqGY66miqu1nYqxi4SHVwk+EAq9iLVMgD609JNPo8T79+94XCI+KDt6uhHxjGo66ATjnf3OI/OVz7Mmoa7qK9jZDYRYVlf+Pi3z0iYGfzA29//nt99+x0//fc/cnpazSbRWucWJHJnMtuD6EGx4zEYNb31iHJrwAU3m7BvYctyGlwJibKn8bc/vet5vHY7Si6U7UxLI3GcGd+8M60NiHhyyazLZefi9Lq+/37Z6zvNOnYeiIGwPVDWYllX7SRIO0EVreP5+YnHN2+Q6PFDIOWFIQaevpy+uvZbU7Nr8Lm2b/vV7iVr98bhCsb3VrePI5hJW02bTtIMUd9fVYvcu/sHltML0aHZWNZpoDUnJAbmwx3b5dVIppqC9tBqpwohjFpq26J1AtM4c14Th+OB8/nEtlyI48TdwwMuRHycKWtjO18QMj6Cn+8Y/ICkxuVF3Rxj9LAozvWyZbwPLMuG98IxzYDTIYeNnUnumqP5fs+E0+tKq1k1VCGwbTpYkqaTdRHBN7WK1WGRXeh+fdZKbtXuVe+LVAty1YK9ymjEHADNQobKMGojwAVV5b95M3J3GJgPM4fjAZFmNimCozLdH5mnI2I6ujh4xAk//PCWP/3bB87raotSi/t9B/TsbDRb06ZjsHPutii9vV7IWQNcs+fY0U3EpmRwO1fLN6J3VGeD+ASzoAnqJtaUfDeKI4ZGKWdcU8BvdGrmPtpUCWV86sgNIfLy5SPHu0fGQZXrfSJBeV7553/9F56eN0Y/8PuffuYf/un3/Od/+g/8+vMH0pattDKso6r+Q1XzRnXvyUNjv1nYrbvOrb52EFSA1+nvfIWxiEWE67iZ3jrvGExDRPUcThypKUHq/PkT8XBknGfEBQMBN9LlAnnbs6Z6815EmtX+VsroUWikxr7ZdQhgqzZ00CvTtZZq9gM6Ouh0PrNuiUBjmgLCwpdPLyzLRilWGlowuxWMXtX91+yrY1n0AHDz+ev/QIgKAlcLiHnTOWalNbZlQRpc1lWdJanU8xlqJa8XcrpwLitxnBADqjtGV7LOVA9Ox/xM48T5/EJw5s29XNjcyHy8x0UP9YUAjDEqgbJkzs9PHN+8JW8LrV44HAP3d55SEssyctng7nFQXWLGupKF80nxmTgI3zqvLe4QVM7TQUIAm9zqxJOWSm6FMJo7YMWQQd3YncjquwWMv24+kN0a5prR9Gd/pYT0jMvZs6pFKEUpEcMQiMFzOM4cDpFh8NzfzRzvj5xev/DmzSPeD5StcTjO1CrkrVDzxptvvuGSV+bRcZwTQ9SBk7VWohuUZW0wSwXiOOCj12AomgFSG1KNjyVATWADOGtTumEX2nUOGLcYT6oVvOCCZhfiBgTzyBExhXIlBJC2UbdMvjQ891TfGIJnHAZqywSv2E3azgzTxN3hUTUbTR++i4FG5HgUhily/uWVRSov//0v/Plvf+d4PynmYZtVT4eepVw9Zmq1tL6bb9W6f5+eB23fOvtp39rNdrouJec9fphw4tjMcxmbftBZQs1wChBKydad0mBX1ovO/XZWp+8tYhCvoHMpppMJHifdCxez3Yxa1wfFT2IcdEJBreSclI3dlDzYvBo2laoukKVWzuczs0w289txXjaTnhg+tP8u91UQ2kWLhu/dxpfbANX/gJagzjvS5UyrBTeNpjnT8zGafKE1ldYUK6GGSW0+xqhCzJY3Xdi5WilaaNvCOI603CcTNJrZng7zgXE+gIss51dimzi+ea8z4L0jp5X7x/eKxVl2eLgbuX87MB4Hnj4VLqvQbJS1TrdQGUyMUb2XbWdUe81OzdBBlr3LWa/wQ3HkrTCMkdp6mdyuB2EPFt2tUdre4VEZhqnSudrLeO/xMahm8cYcTA9FPaC2rTK5xjgHpmng7m7kMEeOh4naCuly4jjPlO1MQUmiQ3AM48A4jtTmWC4nxilCgxAq4xRwz44QHOMY7X1rR62amdll2XZYRl0GrRxHNV3O1pqIKI+tqcbTSgi9n+4m8DSMzGUq5j6grDXVbZSUoNe8OeNroKWCBJ03NfuJVhPTPCC+Ii4Rg0eKjsXQh1UZQuByORPjRBTh4Tgqt6PoA0nnjddl4zY8WPdRs5hdf2O4jQBo6VZbvfE1uepv+mbaM5/9SNev+RCZHt5qAJCGrIHldELsPmh3RToVB9UQu/0+gZhdhwUWI5nV2naMwvugwcoHQtCskHUlxMgwH2kIuSie5kNUX2lxbG1lXVblfuyb/+s/rRbWZVFymEEo16mnNxlba3sQ8t7fZF8dXdf71jeDbhrZMZ896xENjt3StKSFWja6SVq/uw2uRE3y9bb3jelEg3trIHHX4nkfKRXm4z3n0ytSr2B8SpXWNDPJ60XpBC5AUtJaz1rrtoI07h5G5oOjFCGXkcvrE2NshBjIqVFSYz6OSnBcMrXa2OxsmSiVnAu3ls/XDyGnRl4Lh4PDeRtW0FTf1CeM9D8inXSr+82JBrgezG/XbfARoqMVbQ70sce56YFbEpTQEBLiKuPgiUYpGIbIdl6IblLXBR8IQ8T7kdenZ8JbT6mOYRqZRpX9zPOksgkxYWdT/lUpncwL6haqk1aqMZZrK32qua5FqnpJW/AuYtDF9SZooOu3cPBCcOgICsNGtOw0fo/07EO9totZC6TlwjCMrFsFIiI6SM8/oE55aSOnwt3De/wQoW3UOFoLtxJHCF5ITftOxfAB5wWcOoz3BXvrZ2NPa0/jVOZhi74Dr/00t03jUA5K34B9H4Qw413k9PLFVLX6/TFMDNOoQwTThqtGxW+ifJghMJqVxXY5U1PicLjHDyPVNRXKoqr7WjK+FMIwcLksjONMcwNDHCmtsq0bYRzY0kpomdeXVx1+Fhw5JXM1hNaKlXw35Y9UUtIJkOJshHNtlp31vX4TOODGdaB/vV5xs9vytNmI6i4msWsvtem0BryZSqltSi9v9UXdjrV1H5edsGjlrBPRZ90yUoW0LjTxzMcHvaakJZx3jjjNOD/sGxiqufCZT7eMGixKQXyEGJhGh1RY18j59YJyniCMgZI2gjcnBVGvm8urkuVatfFDregI7FL2oND5X97rQb1tBaTx8ObI67P642hWKabWV1LivjQ7YG+fU8aydp5wTtveb95zWVfyekacDitwPgJpV34LkFPBu8YweLwHasEB9w/3rMuFYQqM86TvYQjM83e0skFJjOFIcNooz6lQm1OOljd3hKryKeccPnqGUcXQOCEt6276VWxfhtafS0YkGkaoDpp99LkTh2s3GE/Jxpb16u/RU4xqp50Tm45kc5DVKFwFbt3yNKWE955pOuqiLYUYBsZR2cw1a5Qc5klB16YzqGsvebtRetOg95VuCvaHrn9HGZNc62g1hbJFbqiWlmFXjKfYdTWtdfRnzE+6lKzMUlFi4HT/qGn4AD5vLC/P9kb0sU/zPbUJaUtMx0clvA2R83LWBzHOpmuB83nRciIK+MBWiqrGDSzftsSyrhoA5hmk0WrGyagl3Q4MO5Auu7gGFdez1baxrN1E/Dbzu95D9mVrQWiXqFxJbbellQYft99j8cpoHo4HvV89G7JWrHpnt12T1nrg76JcQbVb/T3K9XCY5wHigZQrbV1NFGvzzpaVLGn/fqTTHSxjk37MNIKrvPvmiKPy+gxfPj6zLoof+SFauQDffPMAkng+Fd68ucNX2LJuuNCE6HWa+W2PwplLQQiBWhrL60rNhfkw0TNG79XMrdZCKj0lsAzb+71kC8G0hSZJ8CEy3j1wWROXlxcGX6F51ZXFI60sZHSGeqmNGMJO9BQseaiVtK0cDiOlZdLlzDQfdpLoamWYa4myAS7yy0+fWLdsY461S1l9JYbINE36u8aJbbkoPyqp46EzzysFya0qqIJEwQ/hqzZ6RZsUXm4CT+cMdM9YUAYztRonQfkyuQgpFUqElgWJg84ytxTMtYq0jfPTM8M44KcAUhAc3uvwr1qSEq2cZ7lonShNcRZtLV6znJ3n8u+c9G4B0NbYfWD2kqDpHtXs7rr5OocCoJk2p9WszbB+Ku9tZM/5/Ip3jvFwQLwCpFoi6EIpaSMvK22akWHUz9VKSYk4zpoZtEYrhWXdCNOkdggpqbFaXYnTTIiB1pTp2opyWFotpPWiB8BNpqBlsVIfnCgehAguRgoLec264a2kqTcZktpgdv3XbUdLg3b3Yeplqm7w2+GGjZJUc+O6+59tNjHrCtUSy1cPSnacAi1B9nVWSZeT2XZAGCaqi0QnMERtWxvFwRo/+pz2BXKzFgwPFCfc3Xnujo6///mZ1xfDycR8n7zDecd4iMxRdUynS0Nk43D0pJdi7Wy9vu6N3U/A1q5QRCnKeAZhvp/svaqi/orv2Gw1KsFrd2hLiWblDCZUbuLx40zDs56edR0EhwsTd++/BRlwx8Lp6QuERG0qd/DxwGkdiItnGh3rkpimwOm0EmIgToPF6oJ3gWk6kFIihISMgZIaf/vrJ1qYmI/3hGFkWzaG4LV5NB/YUuH08kIhkdeNWrTiEeP/eacDIZZls2IjKl5c+tSYvNvCwI0thnid69yKppnVUlnfx3bYwi2tUFJD54oDpRjHQqv7klZ0SqiqULXF5ojRAZllWRjGyDDMfHp94eV8ppeRnVUrXMugfVvclgVcT4/9E7VdxYf7p/XmdOXvFevQjdYXb86ZWBthnEj1YhFa5QPi1AlwQEu/PlZHDGCO46QL0XvWVSml4+FB74Op3nVWtgpwl9MrIZq+K2/kvFFeV8UlquJgadGW9D5nvNvDGkCnjGb1sHGi3J+UE8uycH9o5HYNtM2ib20qkDTJnv1xcPu9lslqjOhcmgIE63RahlFUYtFJcCYwQcTZULhrKaEWD3r/i826b2yG/ygmoEm1NR+yElaXLRuu0bs73dqiP3TZu4TaSdVDUsmQwsPDPa9fvnA5X5TQSDFr2KZTcmth2zaiTHz6baNJJGcLXKj/dLf3qLXt5ZPYwdJqRUw3ljYdFTxOanlSLPvP+Wb4ojHtK8KW1Aalz1oX+v0SfJy0sVEyrRQrsRzn84XKxjgfGQ73NH8Gf9GSb5g5p8DzX16Y3MTjnY6spoEfA/0EbrVyfnlhnNRVAB8pBX799cyXSyQ8vKXiSHj8NOKDlmCu6sG+bRda3VS7JW2/Jm2YRPMcymBU3Wa4aDc0G6Na+36lTteW7R6GLJMVne9jG8tJb+16anFUJ7So3ruHMEPODDEiOIJXgK9KVGapBa95nkklseXMh48vPD2ZChsxI7FGyX1r2Eb7/9h6s1/bsuzM6zeb1ez2tLeJ20SbEdk77QTZCIvCslVFSYiSgHpGSEjwBH8GvCCBUPECLzzwgMQLKihTKiOrynJRZRmclXY6Hc6MjMiMiHvjdqfd3ermnDyMOedaJ8wOhSLOOXuvvdZsxhzjG9/4Rt4rEX+YWqB8sI6pbx9DNggoLad1UodLurchuPxZ73ra/Y56uZRCx/g9fdsKYY0g7OMoZSA4h6FvDzgCpipomj3N4RAzLFKc52cCwB6ut3jXidez6/P9h9jrPRCy9GWYuKbE51FavEkiThXSBlQ+ew1S39ShdZKzGPWGglejoZ3UuUkK1Nz1cJJqXwgEnZimjrELvXh8IYm1qHQoRTNnpRuGd0Ach8IKjnLY7yWjGRBlRT+Iel7Q9F1L7x2FMswq6Vsu6ouCsTSHvaR3lbRX7ptO1lgIFEXBMHR0rbTXXZ0sULrn8uUGPxiC8jEEF4NqS0Oz79het9x0Dd5rigqGXuO6WIVtLH0vgPjYPFEykal9n4/CWF0rz1EUFqUE29M6NY2UpEmI4Wc/IWGqaEytscnqE5ynHzqcGyKdQtZEs9+DEmzNmALrxWuzpQENm+sNrmt4dWE4WlcE77FFiRt6glV0TYPVhsV8Lr9HM/SBqi74+SdfsHMKeplbqwKH9oCe1+w3m0gAHNC+ZX/YQ3CM3VJjGUVINBTiYSBZvtiThR4whRVxNjdMDE9QkR+T0HMXAWQVK2N17LCg6IYB5yuGweNLAT+xBaUphCzVDhAMtpT2IG7oJVPhevpBUsa7Q8fHH3/JoRF2pyxcn2weko7NoXs2Lirea3xHtpOj1nIOp7OiffYWJgYrpUnTO4bmwN47aWAfvYjQO/zQorXIC2TQmpDBXDohXElxoXhq1axGaxi6hrY5MLQtRDW7yV1kHtF4U6M9zbZFj7pCopQ4AWy5y8HxbhBdnAlRUCmVVe+SpOd0IHJhrZ9ynaIRSm9VLneBld0nNxfSwaB01szeR9VDYeLK5utUmq0QK9MDHTrWpRG7daqovhdF0QYpaCWA6qSkxHmpJRoiv0TFe+7alt51DK7HGliuNNevrtntY1M5NQHINZSl4bDdsb3tRZESjy5KtPPs9k3E7Qa8S56ti4oC4zpEK4bohTdNwPWOqq4Yhl7A5qxmGWOHRPqUUyN7lQCd6vKYO25AW7QxlEVNUSJ1jV487H53SVXXkkAoZFzaRsotMBWvbgbq57c8ebjGWCUdSb2Ep0rrCANIxrSul3z685d88ukrGlMSek/f9aJapWHoa/Y3GzBw2Nwy7G8JysXxkGykJ6C1Jag+RhwxI+Z8xKEcQyfKAK3ai0SsT6FWgKH3uGHI/BmJVWVrt33PopihtaLve9pW41nigmPoAkVRM/Q9VVxAVkssHSEAdGE5NHsKYzGmoOs7fv7zz3n15sAwkIG2kIlGWrCM5JEkgDJNGEJnTxjG1/EEn6xXiKhETi1POkpM/x4BBN80DE0T1SvFu3BdyEqB2hqKcixv67pu3MITA3DY9iTWb8aMiC7nxCAkcDV7d5P4MhnR4AJOyb9Zj4gkpRFDJa2ihpJkEYZIYU9ZQMEJKmHDDn3UvfEpf0DCcQKjdO3oASXoJG4m7o51RPlJjCfxOOXCMRijn84RyeOKY6w1Xinp7a7FOHaHlrYd8jyIzVXRM4wbV6XVKWExQdphn5yuCKHnqy8v6XoZqzSoSmkWtiTg2e9b9oeOEIQMOptbQtA0XR+9+kHm2kjtYj9Jp6essAyPomlg6AN6IVQK79Kai8YuPUaQQ3PkhRHZ55PDwA2gC4wt6PY7TlZHvH51y6FT+MERwkDfbpgVM/RccNn99TW7Vjza7aanvXXsrjd89NEDiqWl3XXo9YK+86jgmS2XKGXp+8CP/+wLrjd7QtlLJhBF1/doBbu9FIFzFRgOO1zfoJQUFfvo3SSFgCSZK+sQKZrWmq7rGDppEjjs+lzqE9vbBLp2z2F3ILgBY4QMqI2SrhJOjJJCxHzaIdA3PfOliaexuPIuDFhd0vYdddBYCprDAeM9thLZi912y5evLvnrT96wOwT6pDOSNJUnm/jrHsusKikLm5XSZCLHup6JcoQAx3FRpiZwKhZIpi5KubNkitmUygsmb7DJTzaIfrSAqWoki00uMS5O9zfA8K+zhPM9T74uhXnoaVo6WqJYIqFVCplk62kjovGFLWIFdpHdRO8DvnPQN+jYD5xCRZpCBNdCWvypomhkT4+SICPGduf1tee5Mx4RgJeDJXlT4/uM0ZyfHVFpaHrp2tm2XZw3N4qgpetNDNZ0uJNXbLXm7P6C/c2GwUmBZvJQ5eUj7hTomiEmCkWaTRJwIZ9JSQ0ySZvIO6PMiWY89LJnKN+lC4PSIhCXxpL8Z5XeRjweydT7PDAKfMB3MdVvIfQD2kWsS1mUjpUGVnqyK0DFrrFaaVwoebMrOL7omc1K/ODQhwPL+YL5XHqsW2P56vmGy5sDwYAbOhj66KmJgdfI9Y0KqKqSko104KNEMD+NWRD6TBHnZnCOwkjRrbMx46xHSk6s1QJDwKoAVmQwmv2B3g+4KIVqCLimI7QuNncT3EEpKWibLxZ4BhxQL5YMoceogClKyqIUQ2EMn391yZ/+v59wddNJR50Ql/zEGyCkYlXxUoJSGB2YVZa6smgdaA9trt/ywaMZPYgwAY7lcjoaHx+9nHETqYRrqLSHRmMxclruhj9EV/ROej9jRyF/Nv17xziq6fVlocWoTzaUSqHkpLxivNnJwo3LVsvkzqs5ZWlBSTZGpY4GE26OHOVEISoBziUJIDwVW4hIVxIsv3OjYdx+AjLHeUqLUMVMT8w+hjtjoP9/r2Wt4d7pGqPg6mZDG3V/y0qq16XodzpXEwM+GZdUbjGfGWZVwWWrKeo1xiefSL7XaMX6dMF8NcPaA9ViJsZBxSJpHZgvV3hnKGwNBGbzmvnqhN5FwqWWHvN+Ym/LWkmjO+c5PT0naBeb0EZmu0pjlhZSUiGYUBbimI5rBgrr0dZxcv8hvS8jmC4p6bI+YIuOoiw4ufeA1VDE71Sgpf5q00MzlFh3oCpriUKUxhY13hm+enFgcf8xBYnlPxpqFcaoZ3yJhTFaMr4h/kOcF4LCdQe2F69z9nhxcg9bLHJNWtpiYzq9MhSV9O/puo7GSfZKtHVj0Vc7YIOhQFNZqRGxOlBYhQkOW5Xx4TxVVVOUlsNhhzEFTR949sVr/uwvvuC2MZh6LkBTZBoHFU8ZFcE3xLsISSpCKQ69YvByUs3mK7GyaUPHBZRDFO6GYaJ270e6OuOGyBsz4hayN1JvpNhdVMcwzQk71hrDcr0it1pWQrvvuz5WaE+MUL6/iXHK1obcFie9RyWhqDjZd7Nx6WmTWp8X/aKyoKwqtGmpZwtOTmc4l4o7I73fiyg/UR6EGMqksUNJaJiUBlXGRtJ3Ju8zeZMBJgY+XTNlaJSWquoUkqRnT2UaxmgGJUWOQXv2+wuZq8JyfO8cpQpC3ERpDSQ5FLmWz+OnNVRVS1UVzJcPKZcCYnvGzYzyzGYtRV1zfH/OYkgejEapjnb3iqPzFcYeMVuI9EU5W/DwnQ8YBqk/0lphbDI8iuACtgiYokcbzdmDtzALjY/hcCBlrsiGQ4VkqCXHqGNWTp7DZIwuhAMm3DBbr3GhkKwgoLRn6N5gGCiKmgdv36d3hRygIa4fLZFEEzrOppa5sQAAIABJREFUVyJUVhRCADS65Pmrlr485t4TyxAPwBT0Sz1Y6qYb12gqDwohe/veJykdUYtU2tIf9jS3t3R9AyjKqub4/B5FrMkbYuInGx6tkJoiFSiUZWglHtRB2tEMzlE4RRkCtTbMS8O80NRGvBGtnEhlGiVi5/0BUyzwWC43ez795SXPXm4Z1JxqoamUbGgFgobrRGRLbXej9VbR8MTfj74Ho5cwSZWnAFzK7yP1P2/h0S0XDGnkoUy9l+TGaxTWpFhcqs2b22vwA1oXLOYzimIWCXXyvnFC4gJI3xc3t3MxHZ+qz+NGFwavRedNEjf6xINK/2+MiWla6W5htKIqC+a1RWPxXnH+4AhizC6yqg7X99iyAGVynZtzsXmc0sI0D0JKIyrMpXBSviuGjyoa4vHhIolzDEGmioqZeKhjq5OIBYL03iqN4qiouLq6giDvPT46pqilQnz0ErO7R+LHpLFDOYy6RKuK49MVLqTDJJO5cL4DPWCUZXU0w4exHaHGcdvfUNcitVFUAwrhwayXFcOgJcZSYjBDkDLz4D3KSBNLVKCeGVahknrH6CGhdeTkRu8wYlnajEY9xEMuETW9G3A9WFNibYn3BqUK5qXG9S3XV6LTXBUlKigGlfq9qXxAaWPwVHhboKoBW5Uc+p7bznN5qyiqMobwo7xqXKmIVEmaWx0nNOJpKvHCdBT4CjmMHGrNZV3SDyImZlTg+GiGVRZPINLIJszlEJmFSuK4WVUwdA7rQUcClQkwR7FUMC8V87qkKKS5nLcBSkXQIkpeFXMGD5e3LZ+/2HOzCfhixbxQzNRoWdMiIjkAcZEoYp8pJTGvVSY+cFp5kQwYOwck/yBpfhS2QCNhYMiXDrHaO3ocKqaUoxUP8fPOuxyiaBUHHgEcX203IgeqDfN6RlnNqMoqfj4C0ah8H0AO41KokPZQZkHoMZYz8YRPTpECERtTSk6xFEP3g/Q9spJyroqC0mr63mOMoiwVKBMzS6AoUGU1Au1Wnj+YEMfFQtyIaYy1MQQbfxcglEFo9HEDpjFXk82tpjhZCHlak84RlJPQL0TNI8/cGuaV5dDGSmfvWMxqcGlRJyH+WOmkRoMUgse7FmMCpa3RFBkvzNlOoGs9zjvmpmS2qESkKwt1GdTRMW23Y1kLK1nRU1jNcmEhxMLXOHciZ+sjvymgrKMoHMt1RV3OGfoYjmtJKI9NBMY1ARPKQ5BNndaMiMN3FGZGWS8IPtIpNPjSwnXkmVnLoloABSrWPBLtbVq3TfBcHxyN0/RDSTso7KySPUXabyqqC6YqADOZpxHDSY+Q1qH0rYt1Z97jest6dcR+t8UFERSryoLC2NiZRcqhJgqEEFLty+Dxh5YiSHcJEzRagw6BEtCuw3QdVb2ijCUZZVWIhSsNh32DUwXXB82LC8XAgmquKFBSqkCmnJGo1GlxR88NUSMJWQc6pWbTKTuNPNMrkQx9lI1M6EBmQuedrCYbbIzPEhcoe1DjzSD8ooGbouAQUxyrxYyqnqGVGAutQYXY7jcCt0YbUgbDR0LSNMOTNkYKDVFSrS5WMHpOZoJzxIVRKJufNQQjtUzWRI6V6ORagwh26TELlsrbtDZ3NH/S2E+xmbH5nCw8NwwYZSisyZ7M9JVKN9LfQha4n4SPyZ0MEiZKxtDh2j3LWU3TtjjnGdqWqiikGwapP9o4N6nCXp7f0bcDs7rCmIV00pxgK5kl7bYoXVMXNaiKIYza1ABWn3F5sWUY9pT1XIolCRSFEbnc6AGO4W/aqB5tDVp5jCmgKEavKIb0QRbRREiOGL4ndvPoRfiQWoAL38laMZIhHdYq4IOLSoLS+UXEqBXWxAGOnrzWCoendQV9G9e01phKxXUd1z4RN9Ppuci4qezRgIns9tw8QWmCj8mleEBrrZmvFujXJiqXRtC7sDmy0HdCLTxWJZhO4kGtPCUaG6ULS2UwsRjw5uU154/P0DOLVx5VWKGP7w7cXjdcXHQcFvcZ7AJjQTk3YUDbiGmMi1qMhcpxYwgTm1gmPGbctNmbiMxXH1ITepU3ZAKR5XrjjKeUr1KjMmFS/rsLBo8GQhEwJp6Ek6guMXWJ36x0wCqVQ6rkuCoQEuDkHtJGSv/6OMFxv6CMiZM/vXe5hjFf+2wspZCCVOlrb2KXiETfz5X0RLJmCmMT8St9R/TAEiCYbGI/DFS1Hb0OEvAe7hiE7MmqMUyclg/IISvKAsaIgNRsueTYBy6uN4TgRQo0qNgSN/Z3C+lajM8TPNKxpIkZm0JO67jLJcRTeDfQ9y2LoxqvS1QoBE+ZCHBpvWA+W9K1W5arOQqZ72BMFOvUTIHyKXYUlNRnOaVRWKkEmBheOWR8PkTuJhmi1x7S4eUlHCagjLSpNlhR0wzQ9S0qiJC7KcqcTBDjkdatiuUmGhNPlJQAmTaolPmeULYi58c5J2NPxOhSmK/TgedEWTF6wCnsNQSWZ8eYXxV43wsrOaR9I6C00ZMuE0XQ4CWToAqNKSt0dId9N1A1nnkw4BylsahO8eIvvmR9b46p4Wa3pyoX3Nxs6RqHq9a4IuAsEkNmIDcJryeqfbTOOpVmpI2m8gZPxkRlQXrG/3rGYyRjOrEQj+TRhGx8ppkisdryHmuljF/6Odkc/omVTptb9INDkAyG62NbYGPypgggCnRRfS51sZjOdPIMUtfe4D0uFeFmQE9Fw6NzyKJIWa9JNiQaYx9ErE15ckigGauktTYxDzxm23K4opHPxqp2Hb29NE7JSZwv5/L+MIY6EWYeN/DfMJR3fVOdQtycbfOAtD12XsofBtfRdY14bPHAKbSw6IlufZL1CMozuIC1mrKaoykBmQ+vxvn2WkZlUS1ReiZhpU4p93hqh4Kwus+bq89ouy12biVENDrjH3n8GMcxINid63qsUgzGyPtswr3koyatz4mMaVoYObmgNVZJyt/GQ0OkaowcaN5xvblGpbbYyqKVIWXKUluq5D2lOTBJWyioHOblDq5BDksFuMQ7ymtFQv0itvdJYZcUkvp88HgnLG2lNfP5nKos6A8drh/ohz568jqWwNwRe5dYVEr5AwMOZZR0/jMWjMdvOyqg1AWhH3AbzyGADh4bFHu7o9CawlbsVS09qiHKWspD+Oi+TU/GNDPiMZhIuhsnJWEHYggi+BEHNBUM6hTT6sliTyFTIiYyyXxFA+AnC0BrlbGKECVMUzcGpURTrq4rWcg+MAwtSZsnZ14Ar+OGjKzZFMQoLZiSShsyxKrnyPzNTe/iZCahKEW6j1HMa/R2opcYUr8u0a5xTsWQSonB0YkHMnqPKdSSW1F5wSVs6w5VIP1/HHO5f9HmzZKe0WOc3l/KcKX5DZPv9JN1oICqrkRmYpCwzvc9dl4CSfo28kviWtJiyWjbhsJqjKpIHCSlVfSKVaTGDJhSUxYzvDMw6WFOXFshKMrZknq3Ynd7RTlfU1TCQldRvHu6fnKg4sXDdp1HGY9zPVNtolEYTj6TxyZjZTLfWkmNXpK3bRtHWQhuY4x8x6HZc3vzGmM9IehRtEDKe2W/RVwp1bdprwhTIDvqMWkrMEYO85FQOLixUNqaUeNc6WHEoZTKbOwET3g30kasjX3Pgmez2wtgrwMwQMZ4FPSBqPs7ttsNStQHtYah0PjSoPtAXSYBbhj2HZaALkoUCjMr6bUmLBa4KISkJtkoFRdyCKmnOBl/GcHKKYYzWbQTtzWdxJM3TgYwfXJsoaoga9p4iAxKocvHsDkPmjSrHzEoncIJBaaUSnDvvQC8waODTqZFQD2SsRqzNykcG/2ZMN573Jg+YQGEeIqNsf90OMQGyL0nT07HdL930UsNPgu5haTMqE0Oj8R4kg3tnVGL4HYKVlOIlAxm9hjjQseNLPIkl5myYUqB94IREr8up4vTN6qU/VJUVUUbJVNvrm+wRSVwV8ijFq8rP1sFh90Ns7miaR2KWD4Q8RfxwzxNuyEMPYemFc84YoipzEXlhgGeqjrmcHWTDadQ/kdRL0hhS/TuvMcUFlNWtPuBruv+ZjijEogde6hNxnxKGM24lIeyXOC94dC0KD3ghp6LF5+L7LABHxRd04Pa0zslzsNEAyj4EL3edOAkUuP4DN57lOhVgCJnNpUPkIX2ZF0YJU7JaEDjnkRN5IKhbzuwY3X+YbtlP19QRlG8oCcej9cqklMTyTxkkoxXitZaWFYUbcB7sCHkinCjFejYtRJFKGrasoiLH0Los1eRFo4MtvBFnHfZ3c1Ewkl4AUzKJ0L2LlTcJMlNTSd0Su1m1UDUKKSlyCJgI56TzUY2fhPHSjRF4jVTaxdwuEEkAmwZ8OGulyATq5PFzMWd09R/MkJwdzMmD0DeNi6VPOfELMQdHR3BSvpeyiHc0NOrg7BWjUFHTo3OC5Cx8jtiPenWXfYoyd8mX5RKT5LHNuIt2dsb+ji2d86AOy8JRydPHz3M4D3Hx8dsNxtUgKvLN6yO1vKd0b0PMXZJoPzAADQYXUvNUpBuINmjU4JHdM2GejHDDQOBNpbVxBRHGA0qAYwuOTl7gjENQYl+Nr0iqLFn/TTLCCH2VRMKilQ5m6ioGJ/ZyZxqrSMBcVyDpANTpXo6+X1ZFWlUwXva7Q06dFTziqqaM5/XaDRDwlmCCIaFeJqndL5WiiDi2/J7nZoJJGMiZVKytgVmUMHjkOwWqaOLkuhHhMhkRWecLMRQy2iC00INiHPVdy1VoaiqWDemYkO/EDe/89LjKKTNklwSJb0EG6vZKsOiDRgXMEGMTVCRAB4L5w7zJV3qNql9rAzX4+ZJRiD21k7UJdJpHOUy5d583hQm1UR48bNlAad50yQQVxGfg8ThkbAgWWidfhWdjuzhTSQviAYg+2nREBXWYo2RrpnOS1+oIA3SkssMaREPpLa84qrG8ESlVjtxfIOKqUqRXNAT11dHzkuI/kcyblpN0/ARq4hC+AFFVRdSkKlTMOjQKkSZhWRKfATXR08TIslfJUMXcsiiMHJIkE78yGLViSsUT/bg8/gHwuiqo6MLrqKnK/M9eIdCupScnZ7w/NkXeO/p+xajhQKhkLAgZ/jEXoo8Z+coigpjKxFBNzZ7Zz56fLddy8m9c7Sv0LoU6Rfvsrcoz6+jp1aI3C893nnKskQbAa21Ujgv7x2coygKAk4w1MFTVWXEmQSIHgX+9Wh4jCEgkhpJqyeVZrjoPUoIKjVR2kDX7umbG2bzwOAdy6V0kdBqQWAuK90HkihXXjcRkwoTg5Z0vdMxoJN3HkNyPSGIJg+MuALGTiUJjpB+Xs6NeFphLcvFitvraxG7cwNlVbJcLgBJ5OSSCe0DwUXkXY8DoXQyLOItHEpFZ0tmQVFElTyCqPcFVdHOl2yLQjZQ8kYEoUIxcgMSsCux+ngKp1OIeCJO8QI38YG8j/eZ4nOfJiymieO1s4BYLAvIC0ClGhzZ1j54aTgfuMNT8SGZNNmE9aygqEr6vsubvSptxn2cA23FRU1emEI8NaMVuYYrGVYXuSlRnmJa/zWGNmPbl7SgkqeRjKf3iq73GGtI7FXt5eQpC8FOtNbSXC8aEgEcZRmlTqAjJiPPRhwrJt6cdzK3JoGkCZQ2ifeRZFQZw71cAwdJxD2NaeGjIfaWsrLMZnN2u108SaVsgYghhJAMJNHgDThXUtg5Ss1BmZgGHz3rEDwFloIKW85JCMMQhZQTMVXrlHUMoHuacCsnd1Wj3ByDhKomhn0mCZ5pDcZirEej0QjxMcRxGdP/Jl1d1rlzWJPCZAkPrR0PgdTyJgTH6+efU1UhrzNrPcNwwJYnGFuCV7E3uqMozORZVPZkpS9dNEao7AGlBETOzsZ1ZUzCJ0cGuBSR6zyfATGEwu8yBOcog2K9XvLqK4MqFK4XVre2FlBoayfpdKMlZIpx/9CLBq6OYK2kZcWz6UoDsxrjBoZOhH9UvWBYrOmWa1Tszy0nqpZoOuEo6JiaDNllFb6ObKjBCUCXnIF88ia3OG6MhAuNln3iXqoR0ExW24eAsXYCeCa+SRLdHvkZIiwlVbQmjOYJAs5pqlnFPm4M6ZdUoIitaA3ZoKYFFIIsVtmMRVp6ceAZjZD3eC11VMH7mOWOrOYJU3gqihbXMNqI19T1gn9oo8AZ0JLaLcoqL3CVaPzZ5ZaBFuVAPaEqiPFPyozGpKyMhF1qwgVSekLuTDelFMoHqcCehBYqjAeNRNwhx/7KOZaLJZvNVugZ3cBaFWijcGpsTpi9Y+WZRwY5SEsWSLSMtInh4eP3KMsCpWz2r3VsRZRT79kUijdIkNDAGIMKwkPRKqan05pD5jsMWtQNdYHDEnwMs23ExNL8MYbYJkEGk8N4ytlKNN/tzTX9fse9d98iKMvm6itc37PbbsG85PR8jtU1iTqgIgM+GQ1JosTvyWtT/maMRCriOJs8hxIV6EnoL/eaNMtTd2KPQutU7YVksE2gXiyYL5e09AAMCOHRxqqEMauVzv94E+m+nQ8EL9lhUJQq4LqBofN0QayfNiWhmnNYrdnbArRhBFbFY0hSDim8EC7JCEqJB0ROXabuBDkOjyJhCrKRin8GDToXf0YPKO/8xBsR3zw5jTKnYQyv44SPxaYpwElgauTJGMN8vuAqXAjRrXfRO4qf0SlVLGGicyNYr0a7ng3k6BWkBRk9OqYeZ7x3pfNYjd+R7Vb8u9SkGeOQQj6FR7CuzCNK2TKVMoxf4xelxZeyMSDAdNw8KcYPmUof52kSpop2kKzgRI8gRYZax3ArRK6Pyp6pMrA+OubFixe4IbC93XB+fj/PSTIMQlaDoW8wVkHstinP83XjHCjLWry66CKGOCdGpQrrHMyiFLhgohEWPo5RI64WkM06hiAyLkaFqF4g1AWlJw0Kid7/aOfzWPnJepiy+UMI9G3D1YsvOH9wn2p+jneKk9OKze0z+rZjNgfX7FAl4vloK+FNvHo6tIhhWBYkQJwNFyLkoSU9rlOBtVJZqIy4s7ybyuLCuOplOPrBZSC7rmu6tmPX7pmtFP2hwdVzqbxPoVbczaBis7EIeOUsqkm8BSkn2BFYzCxFp6gHC2VFt1rTlBUucihwLnseWqfp0RGsixq0yZX0ae3G704QR7qXOEk6uq5p4lK4qXwKCmJ4FmN1oqeVUtbB+bwBMBKGmfRzIF8hG5L0u/iVOoZNs6rKpKmh6yiMZhiSiFnCimIYFNPnJEA9WvSM+2RDMj2hxPQk0hxESVedTLmSPt2xnUlaqBIex3thLxs8VPhgcRgM0agHyUdZk8iQyTP4m+S4vMgmhjK5+1MPRzbt5Ocw/a/K44fWEyOi8vcbm8Ijzfr4KLYDctzeXJG4Pkyuj1JZ1Gq+XMT58hNSoJrgN5G8GI3LZJnlECJ5Y+PGT8tJwj2f15JsrEwjcC6qU3r6QUpXcgYrPacaQWOCKAemRZ+TGXksY3ioFcEN3F68YrksWZ/dQxvRxAqmQO0uCeGaerakrBYis+p7ilKjrMlEQhefWygQSP91NSZk0tzqTGKcoKXpANJa6jaVgkTfmNSECYY0lh2hNLYuRQu8bUSExksveVDYsppUpwcQOWqFm+jbppAl8R16H9gpz2sfKOua0mvCYs1htcQlV02prNOhlBC1lE+DG10U5HTIgK5KfpD8N21e+YgStFyF2PMnLZa0cSOOk07nuFjEtUzrNWSylFIy7yYOcALeUjFcistzCBRSJwW597Kq0bYQNuzQ0XdDdPEj4j3ZrJjJYiZtXH0HpLsToqTlF2SS898nm0JHo+aiVu1IjIz8DV1iK4VSW7xvGPoGN5RQHVGXC1Am1/FMjc2d0+xrp+/UEI2hbDw0GBnfIe7arz9TwjDyWTJOV/4OkA06n8+p64r94UDbdez3O5bL9Z37CkE8r6ZrWPhVxKHu3nMKFSDZkHFdJ6N3J8sYxvUkoRdjNtSnzKkiKZIrk75LQu5+cGg1SC8sZYTaoAQryfxDnzSKEL0hpbLnPabS5dBptnv22ysev/MOqEq8mBguOQ9FXdO0DfOFpiylN1jXthhvY+GylnVu5Xu1FSJvmI6KSkFUGL19Lfv3zkESDz8d68+k+WEcr6xdFCGK4FHaUlQFeuNhGOh6kcwpImg+hlrCwIvBSmzmJzELKeWX+oJjDE4XHOYLqtkSZ2e0JLc7Vt5mImCIokiMabmJ24yOyH88XXItTPydicWXKkhje3F20iyOizxCPHcW8dQaT19p4EP8f8Ed4sLzE4c+pI0ZqfnxFDFFAVbjBmialq7vKbVG6Vibk0+ySZiRPRMQgHkEzdMf/GTTZEwrJLs5eiW5Xzzk2N3F7F9Z1LTDBuc6jAKrFIXxVKVC6xaj55nE6SeU/imtAMStRt01QOkknxqgzK2KLsTEebyzoccJA5Ka4NeeN/2/D3Bydsrt558zOMft5obZfMm0p1oIQeRoQ0AFSwKRBc+LHhriXad7yRslHkbiTCfAOs1N/BnZtCpJAmtNatAHIy1BriNKgCqoKL+io6SqymtVJc964mXE0qe82dPYKQ3BBa5fv2C5WmOrhXBqGMfbDYG6WtO2XSSK6qiTE1nsrgFKoVFECCAEQWJMoiUooveVDvKE6YILMSFihHno45rzkQSrtY6i9yF7gVP8VBsVNajjGvBOQjUlxMJoeARvUVpBQuGNHjMs2RuUixamZLE4xaxO2MUsig9yOkAqExixmdG/lf+6mG5V0fUYN9Y0sU5M75lMNIxrNl4miqTHSc0nkpqk/JK3NkY4d14p9EmdFVS6TZWXSna10zeJNYflfM5V09IN0sXTWDsx0jqeikG4TpGvlAE4JJSa3pBO3xOEg5rIZgMiHZH7ZjO517hbXGQQg0LpKpP4rLbSHthaSluAsiIXgZzqZsoeZ9x0wpYP4MkZwkwiTMS4O8ZCBlnnxTduMMZpT7OaHd+RizaC/c5JJ4qj4xP051/Qdx3bzZb7D6PhC5NMpx+Yzaq4uWI6WExGxNrSfUzwwDyvstqIXk8g1Qua/HxSlhHXgA+E2LGWAF7HUCU+lzKa2byOkKLP/DEp+ZA0fF6xaT8kX8P7TGNJIWAInuAOnNx7D63KCFbHQSMgHVgTgTQeEkhhr8ZAVNn0XloWGT16f8kYp88kJ11pUWNMZTeKEHvPqYxriNRyyNObjG9iMafDVqEoi0pWerIhQbBeyB5PkMpaDZgofBWkgDJ5Iylr5IZB1N2qmlbMYgxdBpKNT3EzgB9c3l7JYPhAxLoz71HG0yfmx+j2muhIpRYZxE1I/DlvmxSz6gjC6ijAHgTzScYnxNPkzskTQqxDSSl5lT2pLN6UNpWsVJbLJdcXlwzDQNs0VLOZXFzHEfjaKZ6Y0T55USmMJP0+OvBaxfA/4RI+oTN54Y4eX1yEzscCQqkncx6UUQRVYQtFHzpUPwddieZSTHcTyKGutBGXViohSq2K1ME4DmJyRvxk6kWk90yfNbXeESMJiX+UPIu0JvREXyj9bTZfxOyi47A/gPf5yTO9wnXM5nOSGp7MWdIXSqsuAfeRqU3qajlyxdLi0Ixytt67qNcuGU/vBpGNTXed9H7EZKHwkr1zA4E6j4sPkjYfwzqyZzvKqobIwYlWx3t8e+D8wTHaRkAcl9ewG3rc0FJWMJ9XWOPxrkcSPdKJwmNwXuADo0WKNDkOI6aVnmaksqQ9oXwyZjAEiTWcD4TctTWWpKiQZWNTnzHnxGmo6gJrTCzilYykJD6mzGXC6ILGbNNIIGIsVlSKtj9gdtccrR+koC8dLIDQ2L1PzGF5AJtMeTwlciiX7UYgaDF4uRI5AdOBXGA2fam0gNI1YvycuDrZkk+yM95LhXD6XXYToxxoLneIi9eEODFqvBZBMZvPRZBrGOj6hoDwdEDHCvOxgDLu4rEINm6SdALn54+EsRDHIBXx9X0vVc8TPZ4QkgcwGrm0wbSLbY+XHlvWuL6l629QusSEAunx7gnBMDmn0HFeErY2pA2i5OROBYSBMdyahmE5JRz/pu/8Lj3v9BX/1qe2zKO3aoxhVtdst1u6puWwj90wQ4gnpyfQoYymGwYI0jMrgfRajx5l+trkdUndl5SYJEwne3AR35CfHUFpyRJFRrKKRkdNsUAcyor5GZyn7XrA5OtDCuWSNyi3lkBp8cgSlyfgXM/Vm5ec3T/C+eg9p3UYjaI2Hq28NFpIJSt4gutzpjE4j8PjBgU6YZTjoWpieCXnoLgNPkxIvXFvKFLtYcCHPoP0YykGuV7Qu3jgBE+qDzQoQnCi6xwcfe/HUItQQjCy+Ej8Fvlb8iuU1pJB8o6+a8H1aG2FSJeeiQBKnD0CouERUkM5iS19SGmoEB8suosTjyNMVovODN2RXCdI+xh2CKiVfPdhXHRKPpeCnKRMaIwwZUNcTAof3ZFoHOImnpyJKadIiN6gLQu6pqVrB/outSiJbZhl6WWvxOdRdHnyc1iZ4ruQ0uTCk1AxRom+o/SqSh4iY+CWT8z4TbNqFfGnA85pynKGdzvwt9KmyJSSHncufzbEcSER/+KVZbwUQ5pgxmycUuRMY8bNQiCpK379NeIcIR8OYkilJY8LI0vZas2DB/fY77YMQ8f29prZbIaNTOvBhagTbiL1IMp1oijKEqOFbzMentFIRj6RNvmkxHs5FJwXETLtPU4NUuwbpDjYJFZ43phaiqijkSIErFYoq/G9zLm1crgZZbDmblF0Tr4UJoa3MfvmHfu2YVVr7i3X+KDxwUjr7SChU9M7FrXF6J576zVKVTgvyQ3Z9LHlTAgZp9FGOsR0Qyz0JGAUVHWJ9x6rtXhI2jK4AVNUKXbJRtZFdc1BWLLMl0tMcGhClG/12Kjj3ez3dLOK18YwqEBtNGdHM2prUd5NslpGY43J9VcunroShsmAa5Q0fi9nLGcrVusVIWjQUauEGFN6H2PbEIv0EPwnJNxnHHzDBKTM4Q9xAyYBr3j1dLKTZCJTjBytfYBMCYgTPILRQqBUAAAgAElEQVSgZHcyZ5e0hqJEx3bAiS1NfA4X3W7nBBhTHtmgIaBwFGVBe2johoahO6BVBOuiOz2ky6k7cFMk5KUQNRqlSZZLwg6PUULc1Gr6LBMvKj9jklRVsVpfUc2Oub56SdN0VIWhLC3WbhgGhwuFzJdKrGQjfeOjSUsYjI6aMpOAFoL0TNKpqJEJq9WPZR8koxIkUxqS4Ynrq7SW8+MVp8drrjZb1vOSruspZzV1YXj61mOu7lkunv2KTokf+d6j+zxeL9juD9xsd9zc3vLk/XdZzc5YaMX2+gZvZiwfPGJZFZhuhzWKbeuZrY/Eq+uv8b3DVDP2TUu1WPLl55+jrGE2X3J2ssa3A7989iv++str6nLOB++8h2pr5qsFF1cXLKoFs9qwWNYEp9ls91xufsllf8U3PvyQe0dPGBqHU4rZYsmjJ+8w7G7RVYkpyjjG4l0sSktz2OJQzGZrlHf849//P/nOD77Ft7/9TRSKvh3Y7VvqmVTf/+zjT/ijf/qP6PoN/8l/9J8xWx6jELmWsrLSybQbYh2jYrleoa1me7Ph2bOvePL4AX2z47Dd8vjd96XLhgsMXnCq25tbZvOZ7ItoFF134M2bK65vN+y2e7o+8NH3fg3cnpN1Rb08EU1obVDa8MXPf84/+d/+IV9++kv29ByfHPNf/Of/KSeziqEPE8ODEKC8TkQqBG+Im0MpjTWW9WzFRx99l+PjM6l5iWlVqRuSUyThARmECnGzJEkIhBMU4uIcl+UEdyHkGDNVJk8UfOTnce+NG1GNTXoTiW3MrpBuJhoxKUx0PtAPHc3hwGG3Y7fZsd3ectjt2bUdh/2BoWtj+JlwIY+yBpSj73uuLi64udnEMCmOG+N9hfx8I5eEOEYpIEinc2Fi/Owlrk7ubMJPkv+k1Pg4KKirkvPTI2xZcXJ2j3q2Zr/d45zi00+e8dbDmra54vJVy3y5YLc/UBRSiHhoWgJQFIVwU1yauzDBQtJ955LXeN8yO8lA+eTVkMIinec6GUoNVIVmXtWA597RkqPVDG0Nx+sjFlZBcByvZrzadjSHhr/97/wt3n/ygLK0uLbhf/6f/kf+/r//77Ge1Qy7lqqeY4/vs933NG9e0uyumZ+dcfb2u7iDo1rN+fKnP6KsShbLJbqqeP7LL/n+975JZQJmcYJVsLm44mhR8ebNZ5j5kr/7e7/Dg9N3aFWB8w0aTzU0DN6zfPQOziv+6Pf/F/7kJ/+C737reyzmD3nw6CG+dwRjqYqCMDTce/IUpSzD0NM3t5RV9FR8T9/2FPWc28sLfvO3fpPf+p2/RVkKb6fZHyiqir5rsNby7MsL3n76AX235f1vfo/l0TmEVPAri2EYhigAR54/99DxwUff4bDbcPH6FR9+99cpylrA5qCwhcF5z72Hb2WmfPCem8sLyqMTnr77Id5LXedht+dwaNjeDuy2B3woWR4fcbi+pet7zs/PmVc163lNu+9R2nJ69oCTxZLg/bS9jY4ZobunW3aH4zobnMP3jtXJGUaVkXAYsqH4+gbX47aKf1RMBYpitCX/5oJQFcvvE6/n7kvle0shSzIko7svm1sMyzA4un6gbQ/0TUvXdew2W3abW25vb9hs9+z2W4a2l+cL4rX56P5P7Ed8CTBbFJaiLhgGh5op+qGj7Qe5/0mYNgKdarqH81jJ80tou1qUnCxrSmsJwbM7tGybhDUIeJe0b7JljmO9bxqurqGuFxyf3GO9PqPZN/RDT+8Cr9/shF4/N6wfrlC3lrqq8Hg2n7fYwnB0tuLyzQ39EMNrQg5hwyTIyzeeDB/+zjNNYmVShuXug0M3DGyaBgW8udmIy66kbshoCddNWdCHwGZ7yz/4b/57vvH4MavVnMXS0g0dL19d8vnmQMDy6N33Wc8c+9srypni3skDqpOHlPMjfBUIruPdX/vX2Vy+prm5YbGoePdb36JcrnAOyqKgOWw4OjljtZ7xox/9U4Z6xmJ9j2I+5/j+I5yXMgPX7jGlYXO74/rqmsvrDXjDYbdnGDac3n+LbtvStdc8uH/M4mSNUhKOFEWJNSccDnvqWcH+Zo81Ctc3zBZzfuvf/rcobMHm5prlaknbNtJIc7/l6PyM519+wZvXr/j2979JUdd07Z6uc8yXc1wr/dXT6kvKniGEsb2NPaGaLTBG6se0sdk5GAaXK9p9cBAGbAGzxTxew6KDoTypWB8HTs9P0Vq84LKo6Hd7Ap66nvP9H/6Qf/HH/zc3bYMfHLvtNVVwfPbzT1JDv1jwHSRMSdITEguOhYCFKamrOXU9F7DZRLJ4ENwmgW0jLjJ6CAqpgg2IlZESJZ31PVTa0Cm7QApFBBsalfnIYZkAbeD8IMBsCPhhoDk0XF9fcvHqgtcvL9htr2maVoTfBxeNixCdnJf2fjkLAeAlDFEReMsAIIIvpD3nA1mOwIfAbDGnu93Ie4POqX9FEqX6my+lFLNZLTQFFXj/0RHBS8fF9WKNVoqXVzte3+zxxhKQDIEbPF3XT0caVGDX9Di3xw0D69UJq/WKV6/fcHS8YLawdN2Oo5OKXg2URxWDF3J9WRfcu3csRYQkBUcQkDSG3WE6t+kVsZp0D6i8iEdDFD3a6CmOZQvZtxYQNPmEPhC8tEKeRXb27rDnsy+f8aO/+CkKxeOHc85OK/7h//EneArqqmI5XzGfL7n34Jynj044O7/P2YPHPHz6mFevX/ODX/8Gp6cn9LdXFMZw+fIZl9cHfvDbv8vFF59j/AGtLDBQLFcEoK5nVOsj5g8eo22JQQDwYn5C8I7D/pqT0zNm9RwdHL/xvfco9Zz5wxXaPOTq5XO63RZbnGBibVzft9J5t5LNHJSiXKwAxdWbl7z44nOsMTz98ANuLl5R1QvwG+a1Irhe1vbNBd/8zkc0mxvWZ2/RtBsO+z3WQj/saBrPcinrZ7O55nDYc3bvvkiXxtO87wdsUUCA5tBS1gXt/sDQ76kXJVU1o29bXHMDs0DXaurlkbALhh5TVvRNR1Xr2HYH7r31VtybnrMHb6H1TDBC5zl0huJ8yUffencMtQalRYhKe7lCBKBAcICqKHnv8fs8efcj1usT4U5kN1/dqeuZrsyMBaTMV/JKiJqwaXfG0UgqpimsEsAtZI/G+YH2cGC33XFzccHN1S2bzTX73Y5D09C0jfTS9lEe3IcRR5l4ReN9RpBRjRhLLpqLA0iq1M9m5O7nFdA7R13XbHf77B2G5MpNtug0E5SkLYrCMJ/XnM1Ktre3PHt1zeAC63nFD775Nu8+Pud29wyKEmML2ranObToUk0M/eh5WqVRg6MylvPTM9p+y3a7Z/AOj6So/aFhiIS4QpcU1jCrDP2uodKGQSlS/5UpxSF7lXetT570hO+PdLg0t+knIwdQvM5o1EwcqxiOBXmewSvKwtC2DmOE/er8gLNwtW14s9syeI3eGfT1lWQ/PxP5jcJaSmOxhRWYYLlkuZjz6N4RR8dHvPXkbe4/eMjZo8+pjKcoDa3rKIs5z3/1S0xlmdUVVTWj3TfYwnHx7CvsYsHx6THGWNZHR/SHa0zo0QRePv+Kk7O32b+6Yrv5nPv3TrCqJhA47K/ZbrZU5Yyh3zMYqFenLI9OCQH65sCLX/yCv/zJT3n63hNuXn1O6AYevv2Q2WrObntgeX7CxfPPqCrL+viIenlE1+zR/Z56vsA7Rd82sLukVXtMuSC4LetFye3VSxazJcWspjtco0zJ4Ip88Az9gDFShmL0jK7b0h9uMcbhXM/2zQW+OXD95iXzWqGKBfPTE5rtDtQKbSpePPuc4+MCpTy7iy9x7QFCoLIKui2Fvs/N4TCpTtcBlI9M2Zhiizlkow2r2YLHTz9gdXyKinrCIS+qcYFlbCevxQmGkehvIaL4YbqFfQYlvXO0hwP7/Y79fsfu9pbNZsftzS3bm2sOe+k6GfwIZgd8rkshaHyCtSPWohKwnRd3ksuIpKagQEUp0hwoJS8HEoU+JF2hiG354CkKTXADVb2krkq6fpCv1iPD12g9EvYiKFNXBcv5ghACs6rk/GjBp1eXDGgG5dn0nourDR99cMLjh48x5Vx4OH6gKkuOlivm8xl4R7Pd4n3L2fGa3WZLUc9YnZ1wtH7Kohj4809+wWbToLTU9PRdiyrnmKIg0LE+qinxvHN0zgM7cOu8KEj6ga5vGZyT2qjoJaYs3TSdL5Kdo6c7Dn6MzEioUCo9SGfRiMFNSyJSKG6spXMtvRuoZzVN21FWlq5pGZSJDekAJ161xqOch67PxaRawYvrCzTw45/JmpZW3RWL6n/gqKqYzUpWi5J333vKrCp5dnnFSTHn//mX/5LT5Zrzh2+xWh1hjKfvGw77jpvL1xxXYBnQhebk4ROurwY++fGfMl/NGPqW9z98Hzd0KO1YrktJjja3NLsdQ7Ol6TTVfM3nP/sZp+fH/Pbv/g7HZ0tsIUkHPygIhjLc0u4ONE3Dr//wBzx++jbBtXT7A+Wsotm3FIXFGsXN9TVHdYW2FWFw3F49QxWKNxdfcvb0EdVcimY1Hh/EE+vaHfvb1/Sd5+j0ISHU0rLK39AddsxPz5jNj+m2VxzaaywdM19zOHRUs56LV7+i9FtuXncsl3NC3xAQfpY1iqro+eSnP+L0/HjaZYK8SdIZaqyhLEtW8xXvPf0m89N7BGMY0rYMIQtgSdnBeBqmn3WEjiVlO4b+fdcRvMMNA4dDw3634+ryDZcvX3N7dcnhcGBwA857EXvyIWMvaZGLg6/j6RiNVl6w0XCoIMCnil5UMjjZU8hQtTB2szeShMRGjywxGjRKitsQxvesrvGxy+P5yTH7fYMtSul1VRbMy4rVbIbFs7+9RTtPbQpqazlbH/H2hx/y4bff5aa94h//X/+c7U9/QQDmVcmj8/v8u3/n72DX9ylmK756/pzD5oqiKjG64OnTJ5ydrnG7De3umnUUZNerI168uqa5fIVRLc/fvOHqZk/XiygXQ2BWSfq2KguC36O15f0nT/id3/09zh49ojp/i8PNcz7+i5+wbxz7tuXNV1/x8uULmmAYfGA4HDAhsGs7Nm3DoevpfAxnnVAHJJyQkDWRDF0QbowYmZGVnWRasyVCiQ4PArTXdUk3dBSlZnszkKUbiNhhFLRK/rILQk3IOCRk0iQo1H6P4joXmxut+ec/+ZjFouD7/9p7uOtL/uv/6r+kazTLxYJH9+/z9tvvMVvMefjWA56++5jnM8tV29B7x/X1JcNG8d3vfJfOS7eMT376KR//+M84PVvw23/39+j7lpurW45WBW9efMGTb36Hq9eXfPSD73Nz8YbV0TFBG371V3/Ow8cPUNWaxeoMT83m9gYXDN/53nf54levefT4IcYg68HLfDa3Nxw/PKeYSbddFwZOHr3HV18+Y3W0Ymg9RW0ZBk9lQavAfnOD1Zr97YF7T56ijci37G43tNevWT1YUZUt159/wuX1JccPFszqJX4wzBZrjNXMVysUR3gve9Lpj/FK+HeFCrx59ZLvfvs3sGU9rdUCZeSEVwHKsuDs5IyHj97h+OQey+URxqZUq49ekcqn2wgoy4mewNlUo9EPPYfNls31Fdc3W7Y3NzT7Pc1hT9N19F2P8wPeOQbnhXkTQJQLA0LPIp+0JCMZgmhFRwOndcIbIvCsUreJiLdESQ0i7hSIIU80MIrIEVLC1Uk1OUnVzRqLNobSWuqqpp7PmM8qnn/xDD84njx+xEff+S7vvPsB88qwqAxnR2uOZ5bri5f88f/6j9h/8Qq1b6iN4cFizX/w9/8e5YMlly9+xY9+/Ncsy2d8473HvP/onN/6te/yw3/jNzH1jE//8hN++4ff5uLimm3nWc4rmqbjs0+f8ebVC0K3497pnIdvPeTtt97il798zv/+T/6Q9z98n/PjIz57/pLDIGnzqiowyuFCoHc9BZ5KwQ9+47uU1nO4fokpCh698y73l3O8qRhU4MXPPmHftTz+xocQPPpwy8WrS8rFgl/87Je8bnraYaDtDnz+6ec8ffSApu15fbmhQ3N7c83+sMc7R+c62r6jd14OGSfgvosAf2o5JA0ySoYIeFutKKxh37R3EhmFttw7XjOrCpSGy+stu66XjZCPRGIIeTe76JKxcx6tAqoSb3i/vUVXjsuLK15vrmjo+Oz5Z3Rtjy1K5ouKtm04flBxcm/OP/hv/zuOZvfpQsk3PvqAcjbn137t+7SDYnn2kLaBw/UFu82G9fFjjmYLhs2GEofvGxQDw7AFXbE8PQd7xJeffsFb57cEo/n0419yfPqQ7//w38QHw35zw3yxYL93tIc9q9WS/W6gvTxw+nAOvkWFhldffsrx8THBDbT7AVOt6HtPWSmu3rzm8quvuP/4Pk++8UHU7BH87ejeQzZKc3PxkvuPF+hSMT9aMlvcx5Y1uI7P/tWfQVXx8Okjjk/fom93DLtbQrdFOZHCtbMZ5/fPmc1LPJP2Nvge5T2l1RS2YLVY8/bbH3Dv0ROUkZ7LHp9PBskYRaJdDHf6rqM9tBx2O7abDYf9lv3ths3NNbvtTlT7Bk83OHHJvTB1fQZhowRBILfDGa0i6VwbsZ/Mqgxjgid6LypW06MS7zJ6aZFQE/WPUEakKI3WWCOGpSpLqrqirmvqumZWz5jNa8qqYjabU82ke2gRBa0HN9AcWq4uLmgOB06OTnj65Cl1EbB+4Gg5Zz23qP7AB99+j4+/+graHbW1rM96uutPGcpH/PlPPuZHP/4r3n3rPv/xf/j3ePLolKN7D7H1Ctc2vPet99GHlvWHH7K4/xYv/uovUGvP05M5r9cVry8u2dxc8eXzaz791Z8QtGbnBv7gj/4Z5dwyKy2dkw3thoFhgMpC4QKFgx+8+yHNfs8QDG+/8xFn77/HoAqev9xwvF7y0z/9Vzy4d87Zoubs9IzLixuW6zPW9x8Qes8773yEeesRf/3nf8XVq5e889ZTvvXRu6yWM9YPnlCenPPil5/y+quXHJ0/ZPv6FZ988inb3nPz6gWYwO2bCy5vLtk0DdtDw2G75TB0DCgurq8BxdHRmsVsgcFSFRrjPIVRPL53zGo+o64rSmt5cn7Ex599xfW+l/Auh9CBkPSMGMO79BICqGa7vcG7DWrWcPa0Zn8TsLMeW3TMjQUNXb/DzKBn4Ob2wGd/+RWb24/RxvLP/viPmdc1RmmKsuT99x+zXiwxCh49PuNb3/o2S60pZpr1vWM+/sM/5MPvfJ9H77/H9cVrTs/v0TeOp994B2sCP/mTP+UPfv8P+OC730FUBAPzxQpP4NBsqKoZaE29XHL26B1MUUIYaHZXGHULBK5eveHpN7/N/tBji1nMMFvuP36M863UHKqCN29uWa0WFEXNdtdys2mYXV+jnWF9tKaYrWgPHf3mhne++R54GAbN7vINLgwcnZwRdI1VCqsVs8URRyePePP6NcfHp6PhCU7EmZTWrBcrPvzo26zPH4KxkWScCkaFbu9j7n97veH5s2fcvrnk/yPrTWMsS+/zvt+7nPWeu9ettbt6b84MZyWHQ4rriFookqJELZYtJYrlyJaNxEAQBEaMAIazOFbsD04sREgQww4iU6IkUzJpiqIoixR3SiSHHM5MT8/0Wt1dXeutuuvZlzcfzq2aEfyh0Qsajepb977n//6f5/k9k+MhsyjFlCV5lmBM7fIVpo5QlCcT0enzR7ypgAxYqEZ11OqkTG5ha6d2Fy9EwsXvFz09nMjR4nSCMcIsrOD1tKIW8Cu52LdIUadn260WnU6b5eUBfhDg+Q0c265RjYuA5Emgtd5H/NVwpzG1rH756hVe+PaY+Szkwd27XLp8lSKrCBSUpSZLcwJfMzjX4+FVhyrLaTUF9nKK9ibMJgWf/g+fIy8LfvpD7+e9P/wupkdHOK5NmqR0Vpd44UtfY6Xfw05rzGTgapqby+x892W8Kmaj12LpsfOoRoPtvRFhGPLko49x4+4d0klC0HAxlORFSZHXCokuNX5lcOY5r/zHb7H11R/w6Nvfwfo/eBZnsMb4KKVz4UnG925y4al3srzcxZUV4XjK+rkBSRTT2eyTZzlCuCjP45nnexRJzlc/9wUOJhmp9ul7TZSlufzUU1x6IqeKEyae5u0//H6012B+dIxlScb3tzh4cBfh+PQvXGJ65yYvX3uZa3e3+KMvfpmcimazTcNrsdReodkQpHmG7wj6TYdoHrN9MMTzXC6dW+fCao8b28fk8IZN4q8syU98SIufFzGdE9piURakeYxB0F4OMETkJl0s6RV5VeI6DrbfIM8MpVDkIqcV6Lpiz4ad/SGVga3dh4uJWuBqiWdplnpNVs506HRcKBxe+OYLdLsduuurfOQXfoGqFIwebDM6Pubu1n22d+/z7Pufoyzrh/jxcExvdRXXC2g2m+w93MY2Kbq/soDeK9xGn3t7I/r9AOX1EapBo3ny0TfkSUwuKlr9DllZP5QPDmd0+30MJSibdqdHb/UMQthk4YjhzkPC8ZSNyxdwfJ+qisimM8o8ZTqdY/td8sKQLwDw586dw3F8pqMxRTp+4+A5SfY6lsOFy4/h9pYpkVRZRhbFzKYzJscjJsdz4jSu7elFQRxFhLN5fa0qzWkH+8nq2VYaz/XIy4IsyxehQXG6aob6UBAAC46yEf/pU+gETSkAKU7qjBfc3wX1T8n6kNBa41i6nlYaDdqdNq1WC9/30Vqd2vKFkvV1ybGxbLs+0t6MfTj91pwsQWt17s1fVp0OkKysrLC8usbR/j77e7vs3L9Po+Uxq1IUPebZjHD8kPF0SGFFGBGSWYLEKF679V2+c23Gvd0Drl68xKXzPaLjIVUh8QfrmLzEFIZHnn4KpRV5BvnREMeXhNuHtJeWcAeruH4DOZ+RI/EqQdD0ef5dz3H99df41g9+gNcUuLZCFgU2NbC/mRZ4hUFnFbKqiMs5N158kT/4F7/BL/+T/5mys45wLYIrj6OUIq1KsiRh+/4Wb33uDI7ns3t3j96ZddLJFGsyRbZaWK5Hq79KlcYUqeH6qzdxPI80nGNbivMby/idLvF0jiMtlGOjXU2wtoKRJUb7rG6sY01ndDoP+PhP/SR379zn5a17WJbFE0+8jf/mv/1p4nHEZDThpRe+wde/9mc82DsmKSq8HLyDKec2VojiirisyMuKvCrJ8rz2aJ38MHVHVf1crQWWIi843J3iNyRFLmpF0EQgwLZlXbZ3ijYpweR4boNW18dtVniNEi0EeZJh2YKsEpRl7ZOhoj5AVxo4ax6RThnvRdy/MSSL63S+63l8/kvfwHFtBCWD1R5ZEpJUM+7cus7RJ/Z513s+QKu1ghQQRzG5bdHpL9WBWlNTB8Mowvd9VjcvEs8ihK4bMOrWXsPx8Yh2z+No/4j5ZI7lFjTbPTbPLlNkMaJKkNmc+w/u0uv7KN3Cdtt0l31avRhJwc6tu3itNpblYPk2ahpxdG+LhzdvkOQFQlpQxsTzQxQxwvwV9GmtNKRJxva9eyS3HxCFCel0RpYkpFlOuVAbysWyTyzGPRaTTe2erDEWUgpavkXLd2rWsRBkRUmcFIRhXEOTWFx3FtcpcQofF3/lwy9OCIZCoFTNPFFK4jkeDd/H8wP8wMfzfYKGj+c1cFy3Jv6rRa+5OTlgF3ItZiHfykUkoT5iThjOb1brTp6Gbzh2T5bQZqFiV9hac/HSRcZHYw6GQ26+9jKXH30LpDNcQqLZPnk6I4mnTOczlIkpKsEsLvmLay/wgxsxg+VVPvIjb6ff8+lcOEOeCMr5jCSp6C1dIppEzI5GWLaH1A4HwyP6/Rb37jzg/Nvext72Lq1eG98SaNuj0XFpFCmrrS5OpcjGIX7TRWURbmZw5iWOETX64GQZbwR5FHH3+9/h3/6P/5SP/+P/lWBtgON4i/BvRSQVzpWn2U0sRg8PiIdTtNdC5iFet8t0NGbpjM/m2oDu6hplkbJzf5vdvQOm4YxWw+V4FrO5uo7jB7UvKY4w2uXWy9/naDikOVglDlM2L10hfellXnrpNd797vdw58FDJIaNjTNcOLtB0Zijrl4lGw25/tJL3DucUlUQNNt0u0u849nn+KW/cYW9/SGTKOZg74DcGA4OD4mjlMlsyvHkmDCpjZa2a2F7CqUNthKUWYE0DSTx6XvEGCgWEZOqKjFlRZIYhCsQKkKrpNZUlcJuVpy97GEqi6ODkqNRilaapVWflXMtbG0Ipyn3Xj9kNi/IDZAbRDpjZ3IdKQ39QZP96BBpcso05/Nf/BOCZsAX/vRPkKXD8sYAx7GwLRfLbtLtdGi322xeuMzG2XXCBDqdFn6jQXd5QFEteM9S0u31qaoCv13RbDeJo4zRcEi70yQcD9FUeO0Wbx28vWaK205NOZAGN2gRzo7ora1TGUUShaAaLJ3t15GMrKISBqNsLl59K15jQIEA3tQyoYVAGEizgtev3yTPzOli1xizwC68YfAzonY6qxOZeoFzMKJuH+y1fbqBgyMNlpZYlkLbHuMo53A8Z3Q0qQ8TKRDSLK4/8tRkJYVCaY1taVzXwXFdfM+n0WrSbAa0Wi0cx0Vrq/YKLfgrarEbegPU9CYprR6cTrdEp/PMQgI+eS1OnStvMqvUNSEni3RzeuU6FWCEpN/vc+7CJls3b3Pv/n0cR9L0JTLJ0bKe9pI0QSiPeVRCLjiaGG4+nBI0+/zwe5/hqUcu0Qw6HO4McSpNXCqCXo/waIJJSyztMjs6YtBskuWG0ChUq81sOoOqRGvF0d5DijgjzELub91h68YNfCVhHNauXzfAKzKqPK+PUmFhWIQZhUQUBhNH7L38fV78o8/y7C/9MlLUVEPHVti2IAgsZvMCe+UsdNaZmZL15S7SlnSaXaLxnJbrYPsOlXQ562i8RoPxdMro+Ii0KNjb2WPj8hVcz0UkPtpyaS9v8B8++xn2xkOMkfzMR3+aZsvla1+/xkc/9tMstdpEWXV5wTAAACAASURBVMyL3/ku73z8XThaUk5zLj36GD9b/Sztr32DV27epNHu8PM/99d527NP0Ol3eLooGQ6PaA/WsX2X6995gdXz50BU3L+zxdad17i/fYfXt28zCg+pRLWgDVho5ZGnNmk6oyhz8rSkLOTpSoCyIhUpWXxIVWbUVVQVWVVnzLRtWDD86fWaBC2HpWWXhmsTTlK2bo4IYyiErpcIUmJZGqqCmqYjiJM5piqZjWuXthMVmErg2JqpmTAdzoijsg56UnecO7ZFI/BQymK512Owukqr1eX85fOsrJ1heXlAkpR0B126S0scHByzc+8eK+trtLsdLK+NUoqG63ISgK5MzuTokDKd011ZxVSSNJkR9NZw/AApNNPJhDJJ2N8/rlPqwsbym1TSxe+eQ5r4DedyVAjmUY7Ja5C7KeTiw7zw9AhqwNBi36JEDR0qiwJRLQ4oVStBDcem3XA4OBxRlbV56Nxaj15T0Ws3KIuCMk3RysKyLHzXInA9tLbwfB+v4dPqdPEaTbTr0HDsOuSoalNYVtQdYI5t42q96GYWp1clI8Si3UDVStjCTHgCy8iLgiRJa8cz9Q5JL9oJirK+AL4ZevXmA+j0uHrTn5VlSZ5mOI7DhUsXmU+mjIeHDA8OKJoK1UxxrewUadlo+2hb8/LrRxxMBO3uMu948hJXz7VZ6S+xdzQnnI45e/480YN95vOEzYsXSZKUzqBDMBgwfvCQ3uoS/tKAoL/M/GCfhlLkRzNanQG5HFM6Db77h39MeDjGDROsQuFGFTQ9dAilsGqVznJPA6aiKOtCurLCJCH7L32P6md/gcSyyN+UunYsaAYWnlcRRoosqgiLDF9XBL6P0pqqGYAUaARhVLBy7gwDU7GztcVr33sFp9ViNotZP7dJo9EgTwpWNi7x3Dvfw2//4e8wiiP+r3/zm7ztLY+ze7jH9178SzorLrPhmLv37vLNb3+TtZUBoqq4ePUp3v3jH+KHPv5x/s9f/2e8dvMWS+0myWTCTNW96mtXH0MIQzI5YnV1GVGlbN++QduTHO+/wvbOdcIkpqxyiqokX0zepdawMNZWJWRRQavXQaqcvCqwHAtTlCRphkRR5iWiqvdEUmi0dpCixfqloPbZyALX0ySznNuv7hPFJeXiIS+kQCvJoBcgVEFelNQYoIo4TKkqgdAQxgnG1KiSfJTiOTYt1yJJSvYPZgsFUCCHY6QU3Lj3EK1eRUmFY0lc26pT/Gj63SbdbocoymkEHs88+zTLgzUG6+t0+8usndlAKcV8NqXX7+AFbWJgOokATWEkCIvKQJalaMuiTG2ytCZE2pbLoBdQ5iFYAWlykk43EM9SkrBY4HXqPpwTxOEbQ4M43QWZxRVLK1EbChdXIce2WOoEVFVClhfkOSSFZOcw5MzKgPWVJTzXJ7ukWFs9S6PR4PzZs1y+fKF2bwrB/Qf3iaMUr9nF8Tw8x6LXauHaNoO1ZW6+fpM8N1x55AqeA8l8WqtaynCwe4jWPnma0hssgSmYz+a4jRZZFOG6Nrfu3OJf/d//Bs9TjOZzLNXkQ+97J4PlDi/f3iGtpY5TaNKbl8n8J7+rD6kiL3AsG8e2eezJJ7hx7VWOJlOU9snSHJXPsVWJEYK4kGw/jIiLgDNn+mysePhmB9I+k/mUTARceeoZKEtWLzkIoVGeSxpHCNVFWNA5u0EZzpnc30G3O9jCwl7tMz4YY8IUf2WdySzieO8IFeU0khJbW6hEkjUEWZHjui7C1JOmrZ0aFaKqGptaFejKMLl/h/HODp2LV6gWdookyZlGEq0ElhYorbGcnOFwxHLHJp+HOJ6HdG20rB2xreUeQtZX5OWlZfo/8jxH4wmHh8fcev02vU7A2tkNnKbPM29/J9//3l/yhe98iyiK2f3aV7Acl7t/tgeqIolmBIHPZ//kD1GWhdtosN77Bh9834/wjuc/yMaZs9y4cYtROOftb30fWRjh9wcIKTl+cI/k+Jj1xx8nz3Ka7Tbf+rNPcXDwgHkc1pPfwtxaLa7UeVZQFiVlZrDtBlZgsK06gFkTWwRCaTxPo4WkKIvaqFlUWMqi47bRjk8YJkil8VwbaQSzwxBjaiqEVHWqv8LUe0NRoS2J0BVKVyRxSpIW9YM1LyhL0NomL2oVt1Il2lRYSUnHa3AcJZQV5CcNnxWYokBQomKQIjkN6z4cDusbTwXaUrz0yitIJJ7r0Qwa9Ptd2t0OzXaLXn+AbTksrw4Aydr6Eq3eACMVvueQlyWjgyGWspiMI0oDQbNWdaPxIY6SWG+GvYuKBevkxHG7sMwtlrj1QCHrPc5ixJRS1Es2pbAtja0US/02fsNjMpti9qa4vo3WCq0VrhXw3h/6IG999hlmkymu32Q0niEQtAKPPE6xggZpnNFtNmh22hyOQ5Is43g0o98bMJmkbJ6/jOe52K7A9SzchsvhnXssry+z/LZNZsMJfssniyOkErQCF2MEkZYcbe8wcFxW+11evPYytiexKPj217/Nf/HXP8p6y+L6g2Ok46Atq94RiRMxntME8KmzljrX5AeN0xPJb/hcfewRHty5w/HomFbgIoVNMovJswypFJ21c6w6msCO8cUeFDlpPGV7eIRxAubTiKVz52sOSpwwnyU4fociyZFlRlYqSiyUVFiYGkuQzBisLlPIBtK1KA6mWNrCFgotNRoFmSJLoXI1FoIqK9HGoEyFFoISga0tjKlVP1crVFVRFBXCKCxL4liS0tTVPmFUT8CmMBzsHJAc5mThHK/hsrJ5FrfZRCOZTGf0NpbJkwJTGmzP5dxyj2a7xe72LvsHR9y5vcXVqxfYe/06xTQjHc9Jy4o8zxFZhnJckDUvZxweM4+mWI5PRwlWJPgNm+0br7M66CGE4fBwTF5K3O4SlucSTqYE7R6u45InCUZZBMvrvPdjf5Pzjz/Lt7/6xzzY32b36Ji8KKiAOM2RAhzLYjKfIi2N5zkYcrIsRmmF4/kopcmzWtEtipwiLyiyjE63T7/TIZ0npGmM4wR4WhB4TZafWsPW20RxTJJmRGlCvnCIx3FSH3SBQlAwnUUUea0kS1XfOBxVoUSFKA1FIiCpsGJDywi0rTkqDGl16kQ5fWoaFlRBY/Aci067hWVpoighDBNm06QWUiYh+mAId+8hF7cZLdTCR1WLOb5vYzsu3XYHz3fx/A6D5WUabpO7BwckCFZ6Affv3uHC2XWi2QP6q2tvHDxa1m+0sqwJffWOBBASLSXWor7V0hrXtnEcC9e26bba9Dttut0uK6vLaG3RXVvjtz7xSQLX5+rF8whRstbv8p53v5u3PPkMohSc2TzPaDwjDCP29w/otFpsrq/SarZ49l1r2NpCKIvVsmJ6eMR8NiVKc6JwwtbW8WKRJnHtmm3jOR52a5UkiUjTHDGdkkQhvt/A832yWUiz2WQqFY3OEn/r7/yX/MP/4X9CqpQLG6v8jZ//RT7xr3+Ld7z7OZTWpElStyK6zl/Jbp0svU8cuafJc/Gm760QNJpNNs5vcvhQkoYTyqrEaTRodNqUZUVepKTxFKcYU9kphYHjyYRm7mA5tXdiyQiK0mB3e7hijmMr9u7dpdn0iOOUpTPnavNlXhCsLmGpFcZbWwQrDYwQbG/vUKHQWlMqhckLZJ4hEwu76VClCVqAVZWoJEJkcT0AS3CUptnqYfs2WVlgV/USvi7fFNi2InBqTtMsLomygkbQxFUZo+ExUVEyuXEboRRn1zdYHQwwRcHhg22yOGfjkYsc7Q/pDQY4tmb77h0O793mN//xJ3h45zbHk2PII2RZ4PdaiJZDFMZYQlLkBbOpQWuFLyWtwKOhLW7de8BHf/6HyKREfeozHAwPcBsus1mI43vY2iFJSppr65RVyfRozIMbd7jyzFu5/NR7Wdt8HMvTTEZDTJlRxDnb+/tsbKwx3d/hE5/8Vxznc5Ql0dpDyjbacTGLhtxaLTVUpqDKM6o0Y6mzxONXnyaeZYTzCZ2VJZbXz3Fm8zLLK2c5PpwQRzOGB0NefOF7PNzZZX9nm/HoiJ3dB7htyXBUJ9+V1IiigKTE1hJZRjWpMWghbBvbsqiiGSLNWHJtnHbAg0lIsXCA1BhWQ7HgbDVdm7PLbVrtDkJI5FKPME64e3+PdNFgskDFUZWLqanK6+ryhXYtp1H98BU7C6GoZi3ZjkORgdtoMDk+5Nf/0T/FdSxcx6a/3F8slwW0Ox5JGmIKsYhKKLS2amnPdWl5Lr1eh821dS5fvsLy2gp5knD56iP0l9doNZuE0Yyd/SG//bu/y3jvkPc/+yx/97/+r2gvd1CypOF42K5DWYLT7NCWDpcdj7Mbm0xnMwbnzuM0XLTlUOQ5pqzIwghLwpnNM9iNFsPDfUSZsLs/RNBi/zgkjlPW19fZuvOAwXIXx9IkaY6QFsHyKvF8Rm5SPG1z9i1XcJoB9sEBy4MBuzsPsG2b1X6HX/21X+FPv/g19u7v0ux3Tq9SrufVkw9vRCpO2TMn5L+TKMZij1RVhiwXTOcpLcfUTtu84va9PQ4OR5RlRavpcXajQ6UNTSQzs4n0zuA3Aoq0YLy7x51Xb/DYs8/w4NXXWDuzTBTGrJ4/jzud4jo2lePidruUQhDv7OL1OkTTCZatuPqWR/la0MZpBGRZWps1kxhLFoSWXednTAlVUbOiK0PDthfXVoHWNkG3j8GiKM2JLZOT7jUhaj/KoC3JHMGo7HFmxWN5dQllaYyEg50DJpOQhzs77D/YxtWSVq/HPM9Z3lgjWyxQzeiQr37qD7i7dZc4nFPmGQ1T4jg2wnWZ5wUNS0GRYQlBmZd1qDmvuHvnNpPDKbkwvPTdv6DVHFBVhr29Q6IwptlqMToY0u63CJxWjeQ0FbPJhItPPLJwvEs6y8sgwPWaHN6+xc7dazRbDfbuvc4P/uJrzOcTkipD5Ao/CCjzhMBucHx0gNaKoN0mmk9ZGqwhbR/VlJw7d5kf+uDHWBqcYz6ZE0dzhsdjvMYSQmhklbGxvsTyyiqPPP4kVVmhLMX/8b/9BvPyc6TpDBKBzitEXqCKErsySEpkZZAUmMkI7ftUQkFWIqsKXRb0bcnEtZll5emasqwqirzCUpLVfkA7cDjcH3J0PEdqxWCpxZnVHrcfHlIuhN06grSA1i+KAMqFqFsu8DW5qc16whgKtSA1SoHUiuOjIcODSf2ZkSC3HtQHj5SSM4MenYaLkjb9XofNs2cIun2EtLh0/iyu62JbFuvLK/QHK2BKoum0TmDnEeE0Jikqvvudv+Rbf/4VHj93iV/923+HR595grzI6vrjPMOyHdI0Zzaf4VgWnX6H/XiXi2+5ghMExFGIZdXLwGg+xfY8jO2g/QZmEZE6d+EcaxvLFFnF9s4hx0dTwiTCHBwyPDykSFOk0qytDpgczymKgtHxjBXXY3KwS3a/IMsz3veB9/J7v/Mp4qRAaIuzGwN+9e/9Mp/85L/nxZdu4DR9vMBdHL7eyczDm3WxN8LnJ9kwcbp4roQkqzQJDYzSpFnGcByRFPVeYDhNEJaP2zpPrjwCs0qru0TTsej0lnCDJlcee4RyPqXf8dASrj7zNNKyCcdjsjACr0lawOjBPof3HtDp+SwtD9jbGdFfPYs3OIOR12rvk8nrUGCaYhkb4SqYR4iy7gWzHBvt1MwWx/NBQWag0euBqjm6VbkI1UqDWEw/RWkQC4XFlAVZHNMO+iRlxvrGCvE0IilbBI3GaePB7sM9joZjls+sEE1GfPZ3fp8HW3fJ4wjKAlWVKFNhVQYzTxAmJ08SqrKol+C2rtXQPMWzLPIs5M79W0Sfi/jYj/0krmORZSnz+ZTOUg/bHgCG44f7WK6F126ydn6TLCuokhQqg+169WRQ1MqV6zZ46YW/4NrNVzicjakEWEriNBqE0axu3hT1vkdpQVnEVEVCXsSUeYFWNgdHe3zjq5/jIx/7W0xnM+7deJ1n3vlOkLVtwbcVQjh0Bn2EkBzuHzGfpTzcH1MWJfODCBFl2JVBmApXSLTQqIUirJRGKYUuLaqy5klrKXG1ZnmwhGwZDucRWZ6TF7V/KU4Vji3ptjyiMGH/aEaYpDWFdKbZPNPCk4rEnFC239j1nkSTzJvXDQulF1mjVKRl1SUFUiNti/HRjIQFc7w0mGJBIFRK8dGPfJTzV88znUY8evUtLPVXODw+5M7dLXzfwRKaZqtD0PSJkwjXcUBZeLaF7XrMoylf+vMv8qnf/j2WgxZ/++/9Go8++xTarpsNpBRIN0AKheXU9sGyyMEUrF04j1IOBlMDvTHkWYrrNzhhFEupKbIYqhyURbffJ88quitrGODBvS0arktVVRwfTZiHKbfuPiB97SYbK8t4fl0QJ6VFd7mPG3hYvS6f/syfcDQJuX7tBj/64Q9Slhm/8mu/wte/8X3+9f/zbzGy5Oz5DZSy0Hqh6pmTQGp9+Jzwck+PIPFGF1OhFHFhsFzN4dEBSZbXie7FG8agKYVNjkOc147kfrOF0JKj7V1spWmfPYPl+9ieRZTlNNpNEmwCp02Sh8STGavnztBfXYU4Bluz1lnh1v0R59/zQbZe/D6EE6oiW/CPKqw8p9SSvCpQAoqqxFmQCIyoYVfKUvTPnq8PfSlQRlAthL6yMKSLxaWtBeSGLM8oCkV3eQnl2phphRO4VJWg322ycf4MRZ5TFAVuI2B6NOZo94C711/hxrVXyZMYVeRoITBCc9KsII1AziucSqKkS7vTJxwNKYuUIkoxfQvlOFiUbG4s015q0+s0GcUx00nNR5pNZ1BWtPp9iqLm0Bwfjmg0AuyGx2x0jJaQ5AXzyYz2mTPEZcI73/ujSC35o69+HrfZoN3qglCYMsdyLJSS9JaWOGkO8dwGlmVRGAFVRl7k7B0+5NWXv84Tz/wwK+urUJWk8xllFuM02xSixtUe7O3jBwFf/PyXOTx4yGx/gkiqOtJiakywNgJHK2zLRds+xgiUspBSIaiX96ZKUBLWz1zgr/3Mz5KUFUf7D3npxVdAFBzu7zObzRj0A27dfghCoC1dq3BaM5lGaMvGpeKkyuykrodFdc9JisFQW1lOGl2ElNi2hjRDKontKsqytuO80SJr3ph4lgZrXLnwViolsSQYSnzP4u1PP1aP2oXB0hZZVlCYgjwrabZ8bLuBtFyu377J5z77eZpOwEd+/CO85bEruL5DWZb1N1prtFaL4Gido9CWhcGipvbXDKCqLKmqEtt2AMizhGg0prU0YD6Z4Le6FFmEKSqk0jiehzFw8dIVyiKlKmJagUM8y7m3O6TZbHA4GpPt5zQaPkudFsYqkU6GqwyXLp7l9VdvcO3GDd73I+/HCjwafot3P/9D3L5zh2/+xbd55dpr9Ht9Ns9t4jW8uuhevHHtKurFxxumR1FPRLUZUZJmBUkqGQ5HZFkNIXO0wXMc1lZXcCy7dgXnGSbL8btNhFQ0en2UXV9z8kRQzDOsZps0KemsrGIsDfGcdqdNNo+ZzWvVruF6zOYx4zjH7i6x8tRz7E4OMGVOlcSY3CDTgsJzKLXCpBVKCYqiROV53Z5RGUptsfLokzi+QyVY9He9KRRnKvICTFV7u8q8wrV9MKZWato+RV7QXurUMDUBRZrh2A5nNzcoz65R5QXXvvQFRJaiMZTUTCblWEg8iiJFzBNcQLuNWp41CtXoUqQRVVagpiVLm0u854Mf4/0/+hM0gzZRkpEVhjhKyaKEIAhq3oytFzsOSW+pj5CSNI4BRZIkBJ0mJs9IwjmNdofjuzu8+r3v4CiNFoI0nGBZHlrYjI+GICo63dUa6WIqLNdmMhniei62E5BmKXuzKa9ff5FB/xxeo13jZauK7e1tbt16jafe8S60bfPHn/4c9x7e5tr16xxP7pGHKSqvl/8WEsuyUdLG9RsILIR0MFmKpR2ksFCWBpNTYKEdiyRJeeyJx2gtLQOCH/+p+jYxm865f3sLU6R8/tOfwXWuM0tT+oMu09GIo1mItDVLzRaddlALH1lGURRUVUmW5WRlVWf+TH2NK8u6zlkohe/apHmFH/i1XbAqUScH1mJaOvXxzLKchzsP2Lx4gThOiJM5lrJw3QCEBuEwPh7SaXcI5zNs7eP4DWazkFe+/w1+81/+BnmU8vEP/xQf/bmP02g1EUJh25KT0oE8z0/3IGVeUBUFju8tUu616aqqKsosW5SOlShpkEpyvH9AezCgqirmw5BOv4PQEIUzpIFwNK0XuL6L22jjOBWNXpfhwQHdtsvuzj5QcTSZcTSeYlsKKSo2Nzd59eWXuX3vDls3t3j0HU+gbItACN7zvmc5Gh2xtNzj/r2HvPDdF2m3W/QHPYJmA3vxxGOx+znJiZ20aZgiR0lBEDQIwxm+18AIiySJ8SybZ598mksXz1NUBbZtY0ubNIo42B8itYVrzTCOQ2YUeVKjNubH+yRZQdt3ScoS8pwk2ifo9XGbDcIoYzjZochLkrwiF9B77HGGt16FIqlRFGVCFRVknsbtthCH8/rpVVHXk9gKoyycpTN0HnkGg0Lr2o9T/z/fAOaXCxh8URq07ZDnObZjE4cRXsNHKUk4m2KMwQ+atf4swfE8ojAEU3C88wBRloiqxKJ++hppoZVTQ0iqsiYXhDFSCvJ8hG1ZtJstsrKgrEq8BFY7XdqdHnlWkhUVUmps20Fa9YcyyxLStML1vbohU9SHJ1IQdLukcYgBgm6HZq9DGsXcf+W7TJI5RVUwnxxRlCVNr4Vj+wuFySEtMqLZGMuycL0m8XyOZbkIx2I0GqKV5PD4AO0IwvmMz/7eJ0mKjJWNM3ztm9/iK9/4Er/8N3+Fo/mY7/zgOxyP9kjiqOZemwpLCqTSKGWhpKaoDFIUNX9ICqoqo0gjVCZQosRyHborPfxWA20rbKeG+7eVJk1SWu0ejz3dwfcdNi9f4f7tmwxHxzz61FNsXX+d3/3E73Dt9m3e8uij/Gf/+S/ialkfSEeHJNGM8XDE8WhEOJuyezjEaEWZ54STGWFekJUFytK0uk3m4wmurVFKkC/iKQjxho8nylLu7+7RXh5wd/shWijafgPLDmqyfBiyNFiiqAo830NbPmmW8unP/Hs+9fu/i8ngg+//UX784z+LtG0KIRBljiWsxaFTYtk2k9ExRVEyHR3T8j2aLIGsF9lZljE6OiSZR9h+/SYOo5giy+m02+RiTDKf0Wk12N8bMj7aJ4tTgqBFf20Z7bjs7B2hgOXVFYosRQtodjtUeUxVQZhVjKYZpZA1Tb/ZQ2iLh7u7fOWb36G/uc741g6T0YgoiWi1WhgDrVaTPC84GI64c3uL2WSGVoqg1aLVbuE1XKSq4xZVVZLEMdPxnOlkyjGGtUGbn//Q82wPp9y4/YB3PP0kz//I8xwfDVldXSZLUtKsYud4xHAaEWYFUtls7Q45HM8oyoKVlTWUttGWhbatRW2JRFkSa2+CbdWsoPl4TLfTxjS7lELS2tjgwo/9JDf/4BhVFXXAN0uRWUUmchylUGVtuDRSgGVjdQesv//DxE4Xk4IrwdUK264X63UTBmhV43KLqmR4dISZ5UyOhgTNFp7nkKcxUZzi+R5K1aDz2XjChbe8BSEE4WRCWdZB21JpEHXVjaPqybFCYDt1aV9RpEhBvS9MM7JZiG76WI6DiTJe+vZ3UFaD5TPnmE/n+L1OnaS2LOazOUrWMvPJg4JFZtm2bdI0w/WbQMV8PEHrOmrzza9/ibjIiNMEo2qH+iyNcf2AbtBnNj4mL1P0myqE290BiLJG7Zq6nDDLInYebrF+5klu3Bly/dYL2K4gKeurym/8y3/B0dwwCsdkVUmlLUrbRpk6J1ZWFWWRgiyQbl2RrIsCW2uqoqhxdaWhEhVa25RpTLPdRiqLsqxOsS6e751aQ8DQGyzT6vXxAw8hBOcvXOTC5Uf433/9n3Hv5jX++Pc/yd//B/89Tz/7NpSu65CrsqQyJeFkzu1bDzh/5RxFGrN14zV+6//9/7h+6zZ+u8nKyhodP2DQT8mThFkUUhpIi3wx8ZiK2c4OYnOTu9t7OF6XqiwYpyWHr90kzyss22F/GqKEwHcbzOczvvnlP+VbX/kqUlo8+5738cwHnuf2/mFtrqoqbNfH932iOKknnDJDLhSfME7YH4Z0JhlZnjCfh3R6fZI0Y6nXYR6GVELw+v1DyqKieRwy6M6o8ozJeEJWZATNLm5LU1YVN29u1+tdbeE1fK69cp1WMyAMQ/Iso99rMxmPqdD4rgfG0A48gkeu0ltZo0pnJGXBazfvU5R1J1Wj6XH58hVeeeVlRF47tVdWl+j2O4RRSpwkxFFCEqdE4zkn3WBSSmzbYmllmZXVZT7wtqtcPLeK4zhUukGYK6J5RJHlrCyvQllw/94+117fYjqbM4kTmksDLNelMAbbtvE8l1kWI/KUYpqTpxl5npHHEVWeQ1UiFte7bn+A9/a3QVGeTiet8+e5/DO/yM3P/A46v09ZVjhCIRwJKkdSO2btxc5u9enn8B99kkmcEBcCL3UJfEnQANsBSy96RU1VDw0lNDyPXjfAtxXdlWWiJCGbW7huidS6bhcoC6xej9loTLPbwdaSLMsoi5oZKaqaHljmEUqmKAOmLEBaSLG4wiHqawcVIs4QLsgiJ5yM+PKXvkhZVjS7HkG3yf2tB8xnNc2y1Qo4Ho3p9bskcUqz0yaOU/K8wPVsyrJEK0USJygl2d26zZ2dB4ziFNt2cHyHUijmswlZGmEoCecTlGPT6A2gKgjnY4Jmj/lsSFFOaHU6ONpGuy5bW1t8+ve/wmvXrpNWKXGWExYVRkjG4zFFlVNUtemw0WgiPZe253C8tU0xTdAKLCMxUYRAUwlBXqZ1igCB1hrLcQkaHo5jU5mKG6+/zuqZs/T6K+Q5zMN5rVgqdfpaVqaOO9UgTsmZS+f5R//8n/DZ3/tD/vzP/oT/5R/+dzz3/vfw/Ic+TL+/RlkJfN9B2D6P324aeQAAIABJREFUPf04UknyxGF7a0w4E9h2k7c++ywf/vAHWe118BsBs9GYa9dfQ/s+k3Sx46mqint3dvjou3+Mi489gq30ycqaNM8xi5G6rAxpUXD75l0+++8+za0ffJtOs8OHf+6X+ImPfqgu9RKCsihoNrwFu0fixQl5UZAlKb1OC9vSRHFCmqQ4dv0CZWnCytISRV6gLc1kFvK9F19lnhjyIiGaz9k4s8lgfYCSAsd2UJYmLyvKssLuTNGWheP5WJYiyyLiacyGb+E5UM5GlOvLZCVIU5EXGZaQZFJw8fwGD7duEsdztBK4ro3t6DqxXhYsdVocHI8QVS0j5lmJ0hZ+YOP6AScw85PW1BNEh+c4qCLHc10C38VxbTy/ge93GM9i0A6jecSXv/kiD/ZGRGlGXpVY7SZG19OHbTkIIRhPJmzfvUsWJzWQzLYRi2aCMkuQpl7CN9tdGgDaqruyzBus69a581z4yM+x/aefRmzfRVslRWBRjRJMUWEWTart9XWsc+eI8wQnD6lM/RrnuU1WaIKGpNkQOLZALf7tTAhSLWg0fFzPwW8FgMGzNU7gI6Qiz3PIc6ooRbUCyiilMDbdQY9tISlMjWaRixKAyhS1e14sdMS8VtKkkFhOzUxaZH4JgoBmq0eqHaQWBL02g40LoDTzcE6/02R0PCKaRVRFnZvrLw9I45SV5SWicI4SkKYprmNzcDjk1u1bjGY1A0grmyqtucxNL2A+n9MwhobbRFaGMokxVU6Rp2DauG4DQY4xMB4fM9zfZf/+MS9/6TXi4zGVYygbiiwrMLI2wloSAsdHVgJfCbyGRxbFlHFOXUxQSy1KaLSqUItyQ6kUWipsS+G6GtuxCLoBy2fPEFaS3WHI0WwXbdnkSUqaJhRlgZSCLM0I2i14YGgFAQdHIzxXkUQR5594iucdj+9+62t84XN/yp9/+Rs8+9x7ufzo41y8eIkwTOh2mxwfHPLNr3yDl154gTAPufjIo/zoj3+IcxcuUGUxk3lGc2mDd71/g0IrUu0vJp7K8HDvkM988t/xro/9FNbSAG3ZaFUvfNOiIEkKxsN9tl59mVe+/hWi6Zi11TXe8YGfYOPRJ7i1V99l5WJJLIaThQGxRklIqUEoJsOwnkxOnNFJtkiLKya7Y0wFcZpy48ZrHB4MicIQp0wIXJeDUUrehDoylmNMTlXVpraycCCWiFmOtnLyNCGfTFhtCM6ttZhPY/IsJk5Szl25jPJsqrJiNh5zZm2J+GiPMsu5euUyjm1RCsOD+w/p+D3iZJ3jyYSqLJHGMD06RjZadVD2BKUAJEmCXHTPCwGVV9D1G8RJSlEUWIVCmLrp0rVLbN9jlBr2RiHzsiQqMwCOD4/p9SVd1zvFcEwnU2azKWVesLJ+lvXz5yjKksneDns7dyBLsSyrnoLCGePtLSoh6yJCU+fVoAJRsvbcO3mYTGF2VNdVW6DLhfvc1TTWB0zCY6qbr9DoLNMarOJ6bUzpUxQ+ceKQZppOE3xXYFsCW1cURc7Rzg67u3usrq5R5Bn9tQG3rl1nfeMswlJE0xnJeExgBtTltgrba9Rf5+JDZKqi/rUQC3BbXR+sAS1UHdOQFdIY3IaP02rRWd/gx37mr+EEAXv37qL9AOE1SPKKsiqYzEKMqA9s2/HQtsXoeEwYhqQLx7Fla0ajCSurK/S6LcpkgpLgaoeqrCjzHCVqcByVRGAjhSKcz0CUtDs9tOMShaPF9S1lHkXMJiM8x0EamyKaoPKMKiswqUTLCtVwUWmKIxUOBbbl0Gu32LuzTRmnyIrFAreuwDRqsUvEnO6qTvLQSkmcho1yLLIFWK/kxBRsFg0rJXEUkuclQatBmmXkRcE8jKmoCI9ioiij2W7w6DNvY/PCJb78xS/wYOsW3/zSf+TbX/sy5y9eZvPseUxRcHfrPkfDY9I8YmXzAr/29/8uFzY3sLTFeDplfbOJvajWSSrD1lH4ppBoFHL79Zcoq5zNt7+D1XOXWF5ZxvEt9ra2ufbt73Pjxe8yPtjBEoZLFy7z0Z/+OCvnzyK1rn0ismaT1E9Ig6gMShpA47Q7SK05hU2Ik5S3OZWmjYA8Srl36yGlETiOZrR3TBRH0O6y/3AX3e6DpesXNkxJoxRteUipa6KlMOSzkJ071zi6t8W73vYo04N7dZ2wkvT6fW5vPaTh2aRZSV7W3N5zFy6wvTPlzt372J7Lw+1tlKl3oWle4nsBk9l+Xfg3niIKibFqTGxZFnXnOZysXeuMzzzG7VWMx5rJNGEepswTyfZhgqlKjG3xxb+8xqysGE5mCCqCVpNWP8BemBZZPJWiOGY2m7Fx5jxXH3uCRrtFFIaYJOZwVxMmI4pckKYRvoZkHCxgVifX+YX0DwhXs/rcsxy++hKz6Air4aKyFEtpnKBJ2WpiyKjmu8yiIeHhXWy3hdtaor20RtAakGcBUWjTbmo6zVpqj9OU8dE2usx4sHUL7TU4no6RwN3Xb1JJwXwe0mo32HnlGg0/IEkiOks9lKvJMk5rpI2oa1+UrNtOhAQLgcJgL7Aolu/itAOM59I9exZsl+ksQTot+oNldvYPyMuSM5sbBEHA1tY2lq1xXIs0TSjLgvHoiKBhAwIRa1rtFp1mg9FwRpHOKMua31NfRRVxHOO6Pg2vQ5EVWLagKuq/k2QRpqyIwymO32A+D2m02nR6XZq+x+z+HJHXXiptDCIratNdOucEfZ9LgbA0h7tHta8Tga/t2hxYlbWHSckF4E5guRoKg6UklqdRvoPXbvPk+z/A4Mpj2I5Pq9FkZ38f17FYWV5l+P9z9aY9kmzpfd/vnNgjM3KvzNqrunrvvsvMnZVDjjgzokSKoCzaMiHDMOAvoY9jGH4lwzJJWRYBijIpiqDIIWcuZ+7MXXut7q59yT0z9ojjFyeyukcFdCO7UZVVmRXxnOf5P/9lmOLYJu12Hdu2GU8WGi+0TRqNNtPJFMNM6HY72JbD1s42ru8xHl3x4ovPeHX4jMnkksVsqLtRadLs1bi9fp+Pfv17FKXi9dEpKEGWJ9TmcxzXQRkOobCZXFdGYEJKzG6f8cURzw+/4OXJc0y3gSlNVJkzW84p0xQDQa/TpdvfpNtd57Mnr/jq+esbkE5KUa3Pygpk1bYACAMMG246BP25q6KnVIkqSizToN4OSOKYLE+4OD1iOhpy8vKIwKvT/PwV/t9/jO262JZBlsSUCixXpyVoP++CPItJ4xlJFPL/nR9r3EAJLFuj+2VZUBY5qlRkWcp0PiTPU7JU8Uf/93/Q0oAsXdm6E8cxF+MhJxfn1D0P3/MoZzMwzF8RjK54y+/mgg+vpywmS56+uEAv1wVFqXeKZc0jq9cpkDRbTZSgEsVq0qISGkPJ8pTZYgHCZHd/n85aD2laoApmhtSxxLk2WEuy6nGZgzArga/6lZ8PKXBaLXrvfUD6/JeQZDipgV2r03j8mCJo6ZFHaaBXJSlJuiBdXDK7fInjt6g1B9RbfZbNNotGQN0zSbMM21CQLCnSHK/hg6GQSpKnGVmes1zMWMxmHOyuc3V2TpwXdAY9pGNRGJpRLA2p07ZKVZnECQxDZ9HLSry5yrcStoO/1mPtYJ/FYs50ruOFiqsRluXge3D84hDb93AcF5QiSSKSMAIkjmFSpLm+plybNI54/eY115fnnF2eUFQu3zpL3CDPtC2FKBQqyxC2iWN7pHHEQpTU600sx8F2fGqlou57mIaBIQ3SOENkOWae33h6m5V/VVkUCHS2HQqkbWMJoMixbAslBNKwtNmd0qb0tmnimCaWo2UKlutQ67TYvP+A29/8iEZni3qtThQm+LZFI/Ap8wWNmkXgBbqoxglFnGB6DtvbG1xdT+m22ji+xXK64OTwNTt7G9RqDo69zlqny+beLbJ0QZLG5EmEbTt0ugN6mxvapC6KUJapKSWUmFKRZxmTsCAqYsLF9G3hefSD3+TLT/6B0ZtXuConjSbEVZFwTJugu0l/6zb1tXUMy0ZIQV4UZOXbS3qVl1SKqpMRJaqyzCDXthBC6f3/yltZa550VjhlwfnFK85fv2FtvcciSZgvQ+zAR1GSGgllMcaMTYz0bdBgFC9QUXVzqZKyzCnzDIySy2WIZThI00IluV7nl6uompJCKspGC4HCQRArzTfAsXQmV1FQWJLR2QnTRUR7sEGt28HxXB2GdqPfqhIOxFsx6aoDWqUoFKUiv0lqlRo/K0uuLi5RRY7n1+k0W5R5QRLHICSNRp1mo87W1hae52qymiwpywxDlZRZjirAsRyELKk1G7oIszLCf0fcStVlCgmmhdVs09jYI1YCs2PQuHWbfH1db5fUKktsBU9rNwKylGS6JJ6dMz51EIaLV++wvr1H4BQsLs6xDcViOqXdatHrD7geTTg9OgYpsR1X83pUju06HGxv8vr5M70ufufauUm+lBJTCr1ur5IvhWFg1X1wHKTrsra/h3B8Xh8e49Y9ms06vmeymM9wDJc4Dtk/2OP49TGj2RwMg8FahyLLmKcxhhCUaaYTQGwLhSQrSwzLREjwHB9TBhRlgS0hSZc4lrZqyZIQ6Wgdo2n5uF4Ly7R04bRsksWSMM9otto4pomJAKk9vq1aEyUMkjikLFMs20ZJ/Roty9Ggb5FBqbtRz7cxbauaJHSSg+u6mJWVhuu4NHpddh7fZ3dvm/kiZzYe4pgG8XJBNJ+yvdGm3+8wvBqxvb9NHBe0WhlxEjEeDvF9j42NHq7jcFEqarc3aHZ6XJ2dYklFHGbcvr2HaYApJVdX15UI3GTQ71OUAkxtto8SbG+vMxmOWC4jytIiTWLSOFpptQSqyOnv7+G3mogixyh0e2mYFhg2tuNjOT5pnuotg1rRIFT1WN6cqjdeNaX+JFWWVVe0SpFcKd4rQy2hqkytAkVOu9fQcnmUxkZsSxcqQ6KkRBkGSuqL8obPVplzlZW6V6H9dYVhImy78iiVNxqHt9HEmiuxspYXQr+S1egkSl0Q+zvbnF9d4wUBtudj2BbC0HOrkCt/6LepG6uccP09dcSONITOpleqKsIp2TIksAsMw8YNPMosJUr0psUUErPVwvE8Dm41EFISJzHF1VCnq+Y5TlDn/tc+JI4WpPGSerOFmeeUBghRVqZtb7Vlb1s0DeLmSkKjRXP/ATg+5Y0I9u3n3qSgVr9XJQqEKlF5jipiosmC82RMbWcdiWL/9l0W0wmDjTW8oMnpxYhGu4ltO7SCGpZlsowzOu0G0fiK2fUVzVaTeDjUgHip8R0pqAziwLJtbZBl20jTxKz5WJ0Od777Lfy1AWmW0qzXUXnKYnzN+OqStbUujqlYX2twcXJEr+VTxFPSItdeQ6eXeM0Ay7KouS6FKanVAuI0ox4EFXZYIoSFsizARJGT5jMUGaY0yWWOZ9RxzBp5lpHEc/JkWZElM23b4btIJJPzic6ykgqrVkM4LllU4Nl1lKVtf6VlI9A4IUWO5zUwjBKpYuo1B7/mEi9DRKnwPAeU9qWyHRer7nL/29+kQPLzv/8Z9XaLvYMDhBL4notfs6kHJuF0SLvdwLQ8aqakVpMkWcqbw0M6zRquY1FkGXG0pN+rUyxH7AyazOZL6q0m+we3CGdzTEOws7fDyZtzdm8f4Pkei0WIYVpMJxP8eg2JpNtdw/RiFpMFMpxTpPFqna5YjK5YzmesdI7KNCnRNgmyLFDxkjTWwPCqU1mNIpqJvLIFFRVY/M5JW51gQoibPKyVE+C70cSiLJCUWK4DZYFE4VTuhUalFZFFSimKKmZ4lXW6Aqs1xiRUDqrElFLjJEp3BfpnfBskt7oHjZvHlcWp4CYvDKGFbe1mA9/1qLk6iF5K/VqEUCAKVvG8K/xqVYDFOz/gavsFen2Z5CWuJSgNgaCgTGY4jolbd0C4WJaNJCOPi8oBUb+r6Y1PkG5JbQMK06QwXRaTJfF8ykZrF8NYZdDzKx83+jIhsF2P0dUpwvUo3nkn3hGA6Nos9GNxU4CqB0rrl0URY5BjNZs0Wm1UFOlXahk8+PZHhPM5s8tzKHKG5xfUmi0KZfP6xRtavZZe7666RFF5aSt9QFm2g2lKbMfG9HyMZoOtB/eo93s8+vY3mC9itg92WS6WXJ9eYzoenX6PznqfcHhBPLnk6PAMub2JiuYsxyNU2uPDDx/y+s0x7cAnaAQsoxjHEFyNxziuzfpgwNnFS+I4wSnd6uBMMaRFXmRggGmZ+nGRkOUJrmNS83xM29aHh6E3nNdvLpidjymVLqpkCQgD26mhCkGRZ5R5qu+LitdmuTWkKbAsQdCs0+oE/PN/9fs8++wJ1+fnpHEEKBqtFjt3b2M2G7z/7W9ydjFjb3+PrITFdIbr2uzf2gJpMpuMaTZaWI6PYdja+E4JHMfjwePHeoGRp1iWw/6tfYosJC0y5vM5dx+/R4mOBmq226iyJEsL9vZvgSo5fnOC5zrYjkNQr+H7NQxTM8KXWQmWrWONsnhli6EoshiVp3rOXF3TK1c/9E0rV11OdZKX1YVSzRRvT0q1klIKCqVW2XdVRrnGQFhZpt5cw7rzUOJtbI0lBY5l4DqW9ghadSxCIUSJIUBUCZ/6ySpgVxqo4u1au0pkvkH+bzZq1belKopSrPIreGt5odsFStvi1u46Mk8JHKlv6lXXVD2nUgJRMTPV6hve3L6wyglfYWJhaZIojYEVRUGaJsh4jMxMhDAqQp8+/bI812xuIbAM3dpKKal6LWSeI7KS5SJhfHlFstdDOKYmlqm3gLe0LBBC09gNieO4JHFMWWQauBRvPadXJeimdv4KovX2Qyk9irW7XXb2t7CKksQyScKUxm6dV0+ec/TiDbfu7GJZJrPpnM7ODp3NDRbTKQ/v7/GX3h9yjaAsta2uFBLLMLRw0bbw6gGtzXU23n/M3W98Db9WIykF27f2+erzp+RZjmsKTKHBZNOyqDXq/PLHP0EQ88N/+mvML8fcvn/Ay6+eoWyHRivgoX+PnBzb9Gh1mkyuh9zfXydOE1SaIIWJbWuNXpaEKBVjWIK8LDV2laeoQuG6nmZJC4CCZDnHdnyiMMYwLPJZBlGKFIpSQp5liGKBaecIZWBUIlCVx/pWMC2sWouy0BQO2+6w//A+j7/zdXq7t6jXXI7PrljM57RaAbVGgPR8gnaHenudRRhTZgXJcgquTZSN6fbWyJMMYTpEcUYYXtFqNUjiGNf3KXKDl09fUw8ku3v7WLarXQlsn7uP38OwHAzT4uryElPCfBGxvr5OtIwxDZvu2hqWqVnurGx1VMnx0RFGb1M3HnlBmSWrwiMwLAfbLZCVt4hO3tStLqtioKqLr8grkPidFvxma/L2/xRoD99qzDLEautTdUm87Yaoxo8bXASBMM2qKOa6qGh7RB1XY1RJn1XHJG6KgNbPCpEjqsx1Vi27oZMBpDB+5aZRKFSpuxZLvhNRvHrO6vGdnQEvn71G9FsI29AjJErH38hV8mg1VlJlvldFx5CrBDD9xkgpyERBJtRqD6pN7AGpCgQlQul0ieUyZDIPyarUOds06bUCPNdeWeBhqhKHApuEPFzwyd/9Pa00x05SRFFWBdigttmn9949njz5lO29PSwvYBmGzOcj8qyg1e6TRTGmYWDX6yB0Isfb4lMV1NWJs8KOUKBySJbESYZZc8nzgvn5OUapePD+AywXlsMR+/tbGHlCen3Fvcf3SBcTgpqPKSSFFAilE2xNIXAcm1q7w+DOXX7tv/99Dr7zTSxbYphaCW2YNndNl5MXLxkOr+k2AorpjGmaYNg1dva3KbIlhhSUwsByfe4+fohRr+EGTeLxGMO1WM40u9rf6DJfJsTzBbdv3eb5q6fMkhQlCgzHAlVSKO3TZBtS26RSIi2TMotIojl5ZlGWUBMWtunSCjqE8RgDg1JVKSuiKjRJiDRMKErtX74aObKMIsyxXBe75pNmRRVcYGH4HkajgROVBIMNimTGzp0NijgnjkKOjk/xgxqXp2fc2h3g+w7TyymzyYhFGDMwtzg7OqXddJhczsjTnEmeM5lGbG23EUIRxhF+xSwXKsF1bdx6D8O0sU2LT3/2Cx48OuD05XPq7TZ+Q+sLhVIYhoY9lCooS7h99zaTQjE9XVDmKVmSvsV41m/fRQiLVruDMG3yQkGhaLcbOI6BLcBB6y1mUaZdykpDpzICoqzGKcAQN8ALnguGRLd0pcIxwUBzMLK80CvtTP+AaZISRRGHz76kSBYIKfE8lzRcajOroiQvc1ynhuMHGEKj5mWeEyex5iMkGUIYmFKhiow4XKCSlEa9xka/R7fXxbFtLNvEdjyG19ckacqLF4ds9PusD9ZoterMFxHLMMSQBrbtkqURtGu8f/+Ai7Mrjo6Ouboe4dTrbGxvaDzMMLTHCrorW+W6N4OAIAg0MCq0783WxoA3x8f8/LOnLJYxZWW55Jj2TaEWSpGmGdP5gqxQlUWBIs4KLocZ650Wjqvn/DiKyPIcRyhcq2BydY25DHEXEa7n4m6sU9o20+GI6LMvuRofkWQTbj/8BvMw5KvPP2Z7Z5ei4UKZEc+X2N4OmP5NB6vXkdXjqsND6SKtFGRJzMXxqTZ7agbMrye4WwFyHmPJknwe4tQCcrWg3mmRSwuv06FoBnS3t7CNn4GpJTau42DbNn6zyc4Hj/nW7/42hlPT8oMyI5+OefHLT1nb20NIm1a7Rb3ZIp3Nsdpt9gdthqdnnB2+YjoeUW80cGyPycU1vmPhOg7LsxPm8znSdigLg+HpKYYoGWxukvgeH3z9m/zk479hEp8hpIE0TchL8irTShUKYZQaqywLyjynNIT2bzItbNfBkQ7b63eI1lImr4aURUmeZchKGF2UJSaqog28CwAIDMcEQ1Fr12mudzh4/JC4AL/Vod3vYzgtVJFiGE3yrOTVs1PaG126gy6dbhfbkAhDUe+uMTDrjIZX9Dt1hNJWqla/xWQ8YjpbsHtrj/X9FovZiNloiJXB2auX9PoDpGFRa7eRhoUqc7I44va9OzS7azTba+QKwuWS2WTG9t4WpVKkSarv+1InsCR5QbxYkixD0ih8W3hcx0daNoP+OlYtIM81RyVo1Gj4JvVK2JWUiutlxvB6hsTEND2E1BoOVoWn8oyVUlF3QRiQpjlCgW9LHAFSKtISkkyRF5AmJXEUs4zmDMfXDI8W2iLTsXEs/YuI4xxRGnT72wStJoIUlaekacrickhclDiNANt1MZVicn5Kp9vj4e277O3v4KmcXqfFeDyi0ahzcnpJ79Yun376KUmU8ODOHfprbRzb5CQ/Y3t9nc1Bn9lySbvTIprPaPg1yAv++N/8IZ9/fIQ72GD3zoFeb1aiUSk0qausWNXNZpvNzXWkMJDSoN1s0G41aHV7HJ5cI80FUZqwnM8ZTybYtlGllEIYJTrGt7rbVdXB5RQsohjLNinSVJteRTo0sO6bTGaaLChUjiLHqjvQ6UCREs2XdGp9Lq+vcF6/pN0K2Frv0mkHqDLEdEzKtKQsEygtDGnr4nPT6VCN5FU+WtV1JknG3YO7nB4dsxhPqXUDBArDgMVigetYmGWK4TqIsqS1vkZRlpy/PmLz/iOC3t8RTyagFH7Np9Ff4+H3f4PdD98Dy0I4FtF8gnAc4mXB2s4ujWaDFIvciAhsk6jIWbu1x+TqgqBex7Y8tra2IYfO7i7hcER9sEY8GbMcj8mUlhqYtqUtQlyHq9EI33c4fHKqpQvnrxCmRV7k+rBTUGYlmVEiJNiWzmUzhLYTKfKCMIrJ0pK9+99i/+ARd3be59+eXjA8OSZF+ysL09CGd4i3FIKqG5ZS6jW6bWNIQa3VoNFb4xefvsatOTiuj2FaKEyKNKG53qOzkTKbTDCckjC2aPc7xLMZeZ5Sq9uotEa0WBBHUw7u72KZNhdXU1prfbI04er6kiRMQEnyLKHbaeLYHs1uF6V0NzWbLKk3mni+r4/BsiCNYrIkIolnFHkbaZjEcUi9Xsd1PDIUUZSQLBfMF1PC+N2UiXlIKSPm9QluUaIwKUut/h4ZtvaXURqcLUtFkRdAQVkqfaOt1M1lQVlk6KytjKuiqI7HslrJamIhgDQNypKb9alSirzMqDVaHMcpebQg8DWwGCcpSZzh1xvkWQyZgxIZF6fnCNPk8vIKVSrNF3Eizo5e4ygDkzWGk4zeUnFrf50si+i02gyHQ1SZgTT5yce/IGj1aAY1hCgxXY/H73+A7dgMdrY4e3lIUKuReXVc3+X0xXPMJCHwPHIhMU0boRRCyXfW0JXVx0pZnRcIUyCESZFltLotrsdTaq5LFMVIIai5ln7/VEFRlDoAEY2JS6Vb87IaVyWCVQiGMCRbG11UqZhN5xRliR/UkEkMhsTrt0idkiJbkooSERgUiwU9r0F4Pebe/X1sWzC8PsOtB0TzHPKcs8srNm89oh703rF8rb7nyqgFUU1egizLOf7qK54dHuFaFu9/cA8WEZZfw+u0WY7HXL0+587XP+T69WvsVpvldMz8/JRbDx7yP/3rf82f/1//hiJJ2Xn4kL3Hj3j/R7+OqnRc88mIMgtZjq949dULdm/fYjlfMLh9l/HZCacvXrBxsE+ShrT6PU4//wLLkChp0r//GGEYyOWMcDolK3LsZo0v/+Fzepv7RHHKw8d3cZstpGmQLad8vdPl2Ve/4OnLXxJHIQiNa4pS/36VLXF9RxcKdDRUaRoYlk297nNr7w5rnU2W0yW3bx3wjd/+x/z1v/t/YTzWmKJpEC1jVJEjEBUbWY/lGBoPqXcC1nZ3+OF/93tYfkBNxNR9myzLmE2vMFVJo1nn6PAEQ5qkac7WeofuYPOmay7zFMOyaQ826GwaCJkTTaacvT5hOVtw685HzKdzZJ5g+yZKugSdHuPrKYZl8erZc8bTCbu3dukN+iAkWZrw8tkLmq0ahilotlu02nuUZU4YTvH9GnmRa2lPCeF8QRYvSaMlRZ7xDjVsAAAgAElEQVS/Y/YOlHnBfD6nQFFgoJRmFDu2h2lYSCURSlIiVptyVJFjVgBoURSUZX6D2ZQqrzAcYJW7rjT1WwoBZcYqEFiVmgGcZZrPcHF1TbacE9brdDoN4ijDtEwQ4LoWwiiIo5gCiMNYx4YYBp7rkMchnoRmENCoBxwevuDs6BV/Op1iCoXnejSbTR5/cI9ffPFLnKDBzsaAwcY6nX4XxzYZnV+RLzNeffkECURC4XgeF8fHhEnC2u424tOn+oKRBqrQplWrTQzVBkqVkGU5RVlqcF4IWo06y9GQXrtOq1FnOp3rUZVSP5eSWAbYloXn2Iync7I84yZEsLpIXceuPH8shFIU5NQCnyTNybIaYjYHsSCejLBqkJES5hnLOCZNEmq+h1/zGA5PSLOEXJV0pTZUT4oUYVg4Xl3zftTbbeBqjL4ZDKplAKUgTTIGaz28Wo1wmeAHNeLxlJZl0WoE9L77bRbDId07B8SjMVmc0NwYYGISrLf50f/8P7Lz+CFZIZCl4uzFG1qbO8wvr0iLnO7ebQxvyfokJOjqCOUojCkUbNy9RXt9g/lkRunoDd3aWof2eodicklpuQzPxzR6LdLFkpdPX/D4o48Ai1wIZuMZV+fXdPpNsuUCpx7w6P2v87NP/ppoMcOQegzMZYplaTpHluUoobAdC7/mYNg2lArXcum197h98JjryykvXx3R3dnmox/+gF/81V+RLhYUSYpnauzJqIIl9cJEIGwT6fsE7RabB/uM5yF+W3Dnzi7RMsS1LUTNYzKe8Oz5MUIY3H14j3Z/nWg55+jFC2Se4NddhONQArbvkoQzrs6OcG3J2vYaG9Y2i/GQ6XzJxnqH5VRr2aL5lDTLmE7HrG+tkSYhsgyZXL7AsQPiOKXdrmFaNmUWE08mXFxPaPda+PUAIU1cy0MpSVKW5NGSZDEjjZdIU7wT6Gfp9d88ioiKHJA3hlaJFWNb2huFVWwruoiYQqItrlcAsbpJHNWbKP145dEnlNYxZeW7gXiKsihIkpQkihldXetNVmphWDZRobD9AM91abdauK5FEsfMlyGX10PSJMNybYQhMQQ0fI8Pvv/rNJptBusbjIZXbA66JPMRTd8lmi959vI1f/iH/55ZGIJh8mD/LkUcc3n0miQKuXP3LtJ1efblMxpBHdKcoO0jBz06vRbPPv4E13XJHBcpdepCWRHtRPXeqOr9yLJCFxPLxrJsrq4uCa/O+fr3vsNvfPfrWFJwfH5BGK14TvprpQTTdmg29KiS5QWl0K14zXXxPQ9TGiipKKVAKpMySSiTRG+vTBOlIJ2EpIsQ1hoUnRq2Y9DqtJGWpijkKsPyLIKajypCZqMlvY1t+lv3MEyd0HGzuVsdVOKdQlSBy8I0aPe6pKqg0WpgVQfSYnnJydPnrO/vEs8nFPMQI3BZLha0+n3C2RRVMZLb29v47R7LJMd3TOx6nVJI/F6bfqOOygpsx6W3uwUozo6Oaa2vUy5jjKbH+PSU5uY2UZQwePAQUeQkoysuTy7IlaQWNFhOZ3TaDTZ2t2h2u4xPLjAcbc7V8m2Wl0OUbdHrbzLYnbI+2OZ6+bkuvqpEmhWuKdBjmqXB7jha4EhJUGty784H7O6/T5RAUcCzZ4f88AffoSgUnX6HH/8//57lcIJQmgiI0nigVfkHKSmo97rsPb7HrQ8/oLe+Qc338HyX8/MJb46/ZLPrkyYxnU6A49VAwmQ64/DZa+7d20FgMFkscXJBVhR4QYfnT1+xudXFdgz8RhtBSZYXHAzWWExGFHnJcj7Gti06rQbTeUiUJLQ6LeJwgesYFMJAWgbL6wnNXhfH9VEqo91w8X0LU+Rcnbyh0dnAbzRJ85wkiYjiiDTTvkw3HU+Z5eRpQpRGOtGzWp6WFWgjlU75fHclvIq9EUrP+wbyZrWOlBXZXJc2ydsYYVUWv1K8QLuUqaIkWS4Ynh5TC+rU6zXthWu7eH6NVqNJUHdIwgXhMmI2m2tj8DRHqRyjKBieXlBkBrK9Tumk2Ial/YNMm8H2FmsNmzzPECrnqy+ese33MQyTOIv53/6PP2LQbfPPfvdHHJ1ec3ZyhmFoOwcCj0YSo3LF7HrI5ckpCui3AnzbJMpBVfaPNxo0panihWmT5+WNMXxSlmzs7nB5co7ruDw42CEMl1qfpBR5kZOlKStlebNep1GraaP1atN2w3upLlgKKNKcPMt1FyTR2xIh9S8xV5CU+DUXs+7i1jwMS3u5SMPAcTWWUGQFNGskUUIWJ5g1/x0aQgUm62NJc4TE2yV7oUD6HnVVcHV2SrOrvblNz8UyJWen5zQCh6DmcvHsCcHmLpdPXjC4u81yvqTVH2DWbJ799Ke0B+sM04LBZh+KhPl4pPVpiznlbEx9sEZuODz81jcZn19Sc20tGu32KwOwkmQZUeQJTqfL7OiCOx88Ynl5TaxMvPaAvq3V34O7dxgdveJqMkIKg43tPqmlsct6s8s/+91/wdH//pJ5nKOkwhB69DVNA89zKPMEleeY0qLb6vK9b/0mttHh4tUptmXj2wb3b20yHg2ptduUpeLbv/cv+OTP/oxwpPVOlmWS59rNT5g2Uhrsv/eI7v42g36P0WhClsS8PDxjEeXE0YK6v0Eax1wOxzz+2oecnpxU2FvJbDZj//Ye0l7y85/8A/1em8Ggx+0Hd4mjMcdvjrl1O8ALWgQtnzRNENIEITAsi/FwhGnHSNun0eohWlDkMVfHR3Q2WsRxxnbQIi+1Xa8kQcUhQtkgPVprLrbjUygYThYsFiFRnFAi6PT6KwIh5EVCmoXa3lIYlFTEMVb8HL0Olr/y//IGUNYUfariUp37FR6BkDedzmr1rm7yftRNEaLISeIQKQ18tw5CM1Ydx8V1XIKaR1lkLKOYy6srwjDU2U+uQ1DTFo3Bdh9PCT79248xhYX4ETS3usxmIb1ai8vTS378Nz/h2csz1je26A86/OC3fgPX0kbbhy/f8B//018yvBpz+84Bv/a9jxAk1Bt1Li+ukIZBtFhw9uYUBDw82GVzrcHr6ylxuYo41iVXG2DLyv41qwoSOE6NRn8NUeSMLq6o+TUajTrTcIHrejRrHlGW8/LwGMcwuXdnl35/gB8EnJyeYxmSJI3xHJvZbIEf1Pnkk88pU4UhLHKRI4Sh9TJV1VCWpGw7oDJsHAzDYD4e02q3SbMElUtMv4ZQCb1unVprH2nWEdVpoSUhusURCMpV71Mx0VXVtco0ocgS2u0OvlcjXExp95qEwxFb/U1e/vILWO+TGhazywtSAcqwKPOCyeUZ8zim21/DbzUIHJvjz75kfb1Hp9nA8hzKMuP5F8fsNQO8hsv4aojlmFiuyXQ4wjV84jDCqEahIssoHZvuzg7zecjLr16wfec21xdD8ixFSEVuDLkeTtm/d1fLeSyTiyfPuHh9RLu/RpGUtPwas8WFLrbS0AsMU2JIKFVBo9bEcwN+53f+Jft7j7m+WvD86d9jypK97T4vD1/jN1vcfXAPudah21+jHjT4/K/+ktHJEWQpvu9QIpCmQ9Dr8rUffJ9Gf43eYA3bnTMZXuNakn5/nfF0huUFpKXJ8HTMf/6Lv8VzJbu7m7iuYGO7w/npCY3WOvff+5CGU3B+dERnvY9p+TSabV4+fcKt+48pipJ4OWd4dUWzXae9vke41EZ3tUabPIsIFwscxyHJlc6Yd2xN4E1DijwjCheESUKRhPimhefXKZQkzHIm4ynL+YI4jjEtyeZa8JZAWFJUmExl7oQ2oF6BXis5QFHxU24KklqNUBVOpDT0WdH6qmKj3lI+brRKK+KZLkY63lchDZNGp1td2vqLpBDUXRdDlMRhwnQ+YzyZgSoxTB0oeHl6xvb6gGavSy1okPsBn//F37L44z/BaTVY29/heKfL8cuvmEYR0rZxHYN//Fu/QT3wGJ+c4oqC73zzEYO1Gl8+fclnn77g6ZPnPLi/z93b2zTbdeL5HGZLPZMbBu3AoWYqGo5JmuSUVQey6npWbO000zqxoihwHA9l2PzyZ5/T9D16/Q6VjXO1FZS4tk2pIE4yHj58QM3zWcxmPLx9CykNhlcjwmXMy2cvOD7/HNd36Xe6TOdDstzQko+KAYwhUYFDJDOaRo0iz8jSlHrQZD6e4boOQkmKLCeLE2q2jWPkFFp6/JavVR0wb5Gm1V/6esjynCiKydKQPClw3DqGhGgZ43gu2TKkETR0GkJeMstSnHqAtEykIfGbDZxWQCNwKSW4zQDPc4nSGCONqedt5sMh67duY/s1pueX9Pf2iGdTLl6/QamS3r7P5OqacB4StJrU2wEXr48Iag0c36fZbeH6kiyM8AyB32wwWoQoywHXxzYEF69e4dc8pFfH82scPPo6Pxr+Nv/uP/whizRBmgLD0O+Cazt4psm924/Y3rpHOjPIM4sf//XPyIqcvYNd9vc2WaYZzXYb37FZLkLqgc0Hv/4tulubfPwXf046viKPIkzLoL2+wf3vfoPNO7c1h2syoxEEzBYJBglSlIyvRpwen7Kxs8nG7h5f+/pj3hy+5s2rN3z44R0m1yOyVDEdXdPf2gFVYEWKJAwxDEm6nHJ9eYLnu/TWtzBsm3q7SVmkTEczLEciVUkax7S6PVShsGybdqdLmaWcvzli69a+5v/ZJqZpEnQ6CGkQRQlSCApgNI9YzKfEyyVZXtJot2k33bej1uqyAvWWcLuid4Mmqq0IcRVqqpm6evhS5dspS9uZvSWdrdiEKx6K/hSlv+6dsURWzFmtq1qNLCV118ExIY0TRuMRs+lMM3uFAUKPgFeX15y8OmP/9l22b28zHI8I7m1Rq/ksj8548dOfks9u0d3pMD89Z2fQ5wc//B5FUfDJj3/C+qDP5dWQ89NT0jxmrenxe7/7j/CCJn/yZ/+FP/vLH7O/tcEPf+0Dzj//ktvvv8ern/+C/YNdJAkbJQwnS/JipT9bvdbKurLIsW0TIYU2AD85odNpEARNZouQtW6XN6dnCLQiXEqtaJ7PQs4urnG8Gkcvj8iwePrmnPOrIVJavH/vgD/4wW9y5/Y2Zyen/NEf/xF5qSiKUtuGSgGmxOkF5G4OeYntm1iGgWVZGI0mlmmRJSF5vKBW90ijJfFyitXsaCLnf7PRWl0bqpLDrIz646zkyckV8eiK73z/+0wuLultDsjziJdfPWdje4PryZg7H36AiDK2t7cxDLg+PKS1u818eK2D8HIYnw9pCMHrw1d4tklve416suTs2SswDPpZguV5hOGEJJ4z2N8mzVKW8xmdzU3c2YKzZ8/xgnusbW5iSUGa5OzeucXo/Iz+/i5SlNrqdTKmu9bBrdeIZzOKAkbDGXfv9zj86gsefusjfvA//K88efqcL599BmZOaWqpwlq3x+N77/Ot73yf1mCHzz7+ivnVENsQmK5Bs25TCzyiRcKgByoLKfOYTnuNT3/xKd/4zncIBmt02nVePPkKVMHO3g7d9XVevjxjMhrheC7t3hq5EkznMWmW8e1f/wbD6wmGCQd7O+RxzOX5NdfDKUfHl1AUdHtdnWqaLrkeLrC9OmvrfbJ0ialCjl6/IUoiJteneLUm46tr+t0Ax0hR0ubzXzzFawQ8+sDh/NUhQVDj4nJMu9MiTUMd7md5JGHE8cuX7NzZxvWa1OsuIEmKkvF0QRouieOQUhXUWy329x+t1umKyXTCfBGyCqbT942+2FYCSlW+Q6OvIl6ozB6kWrFXxU33o+vVStMk3nZE6i3BUKC7IG2TIW9OUYEGURu+h2sKsijk8vycy6tL0jTDrwdYlontOiSzMe+9/4BlGPPFFy95+fqQ/qBLuxMQGwLVCzBFxvHhSy7eWPzmj77Hg48e0Gx3OPzqc6Q06O1s47WalHHIeDQiKxVOrcnp6TkPbm3y4b1bGEry8//6Uy5fH2Ftb1AIE8uts7WxQ79MeHZ6xSSMdLssKwC2AuCjOCYOY0zb1qNh3WdZKjzPZTKd4Hg6t6ssFUVZIITOalymKc9PJpRGSJxZ2J7Lxt07DO7d03lKQvL0asbzqy9YTkfEJeSl9jYShkQZmnkepgkZJZaQlLlFOMvxXLeK9p3Q7nYoS4OarTPUdZdq8K6w9p1jpOp4b1oe/ZuUgv7GGvd/8JjLV6cUZU4UL2msdcgpuTy/YPNgl2dfPsG0PHob66Rpius7UOZcH77i7M0R0nF5/NHXcbwGt957H0ul+uKdhuzd3+Xi9WvavUC/X2FEOhphdQrsWgO32eX8+ITJ6Rlbt/YwTAOEyXw8JOitsRxP6e7sEkUxokxJpzMMNFazuLpmdn2GbxX4G10Mx+bu195DGSYqU3z9u7/Nzu37HL95wpvzI/a27/Ktrz3i8fvf5Px4SaOniYyL4ZwHj+5zfvKG4fk1Dx7f5x/95ndodtq47Q6L2ZzlbMr9R3dIwinT0USbepkurVaAMHyWs4h7jw64OgtIk4wnXzzn1esz0jhmd7fH+PKY48NTkjDCK0KuhguOXp5ycHebVsNjNk2pNVtcnl9z/JPPMCxotxuk8RzbqWHg0VpbQ6icN6/PGGxJWs0GaRwzG47JFKgy59XhKxqtGq1WkwLF3fcf6thsx0UYmkZTFDGdXh3Dgvl0iJAuXi0gywuKNCaOlyRJjJAlnbrJcjZcbbUEjYZueaueR1sqrAhrK3KgemetUW1tbtasq3GpXI0MAkWVtaOoLDPKakVPBYpWJ6csqhr3VjKBUpilgSm1ujtXOWkcoVJtWeoaOnI5Wix49fRQr6GBoO6T5Bmz+YKiKLSyvcjZ2tzlwd0Dzp4+52c//pQ0Vszuz6j5Jmubm6zt7+OMrkmGY7xWl9H1CLKEB/du8/TZIe/dv8tnP/4Yp8j43m//Bn/6dz/Dq9f5P//tn7A72GB9d43Dw2Mu5jqTyLb1H5TCNC1cZ0mS5ShpYOYFURxh2ZIsTyjLgqOjU7K8xLBKsqJAKEjzjDjPuZgssb2S4fWQtfUBUuqYoCzLSJOULEnIk5g0XpAXGaXU2JIwTIShC4JhGVi2qXVfUYLrupRJjJCKmmtDFmEaBkoVRMsUx2zrbmklG7kpML/yz7cfQstFGrbecSIk0zDFRyeECDRRjzyntz7Admwmx69YhCEnh284eO8DStPh/kdfYxmGWKbB6OSY45eH7O3v0dveoTA9knBOmMZMRzPq3TVOnn6F47u0ag2yeIHl11mOxmxuDrB9l3A0xXFNyEpOvnrBq6cvaPdaeHWXdr+H8AKa7TZerU40mbG2sQ6WqTVjeUoRLkAoLk+v+fC7vw58j9fPvuTwxRP6gy537t7CMHts39nj7M0xVycX3LqzTW/vHnn6bS7fvMTxWnQ219CaPEXQCbCcgHanz/BqyPaOT823icI5tm0zX4TEmUNvXeFYBmWa4TkmB7c2MAWYjoVtuzRbHdq3A6RjkKQxtq0wTcF0OsPx6pwfH/Pm9SUb613yPCELF1xOZ+zeOmC5CHEshyRcMhlNGKyv4bcb5LmLh0vHM9m/p/3M8yhhMh7RXd/AcR2OXryh1evi1ep6eWDayHoPw/CI00vqQRMlJWkWk8VLsiiiLFIaNRejjDk+evludrrENOXbVXCJnu/f2WLp63DFsNRtjTaM08tycVOkuBmjbnAg9fakVEo/a1nNZ6t6tipyq0vcUtCo+whyStshaDWYjoc6KMw2sS1JnsD6eo9GUNfcCiGYTacoCcPhnPFoCkCSKE4uxtiUGCLn4mef0PzyGd//7tdQwmRjdMHo+IJmq0uRlSwXMZQZR0dPMEyH//of/4pXv/ySf/r7/4RxGtH9RZ1/9b/8AbZn8Ob4lD//L3/H4fEZl5MZeVlimCaO7SCEpF7zWWwu6bQ6WlxaFFyfnjGZTImihLOzIdPFjK998xHSNIjTjCSLWIYpaV6wjEJM26bdaTO6vubo8BXLxaIKEoSizCiyFMcSrPe1t5AwJMK09NiaV35ARYkUkjIryUWqxY8J2K5NNF3QWeuSJymqtDDtG49ZLdx9W2GqUfu/rTyAKimSiMmbC2YXYxqNFmevXrGzt8nmxpp2kGx3KFA0Gx7z0YSff/wJg411Xj15QuC7yLUWg60+vl/TzpJKcfH6lDfPD/nwt35AHC5oBQ2i0Yj1gwP27u4zuhyRRileLYAyZaPXwm1qgmaj1eLpT37Co1/7NuPFktu3dmltdXnyxROSOOPuhx+wmE6xbZsiTZiMhnhBQGtzg8X1BaZlkecpmwe7CGGSLROajR537rnkeUpr8BDL8ymVYsvxaLe6uGZEspgwOh9xfnTBMkx41NuotkZ6u2lYDlEcUW/UsS2H64tzBls72IYgHw45P72AZIHfCFBCUijFYL3D0etTHt074B9+8gWj4RWG0Ue2G3QHfTJl8uDxQz7/+Rf01jxmkxmPHu4x2FwnS3Msz2MyGhEnM2bjERvrHc4Txfq2i2lqxf1kOObjjz/nu9/7JpbtY6iI6+sRe/fu4Lp1kihm52CPoihJkhBVZMgiQxoWUEMpmzCKCWxb2w+Hi8q2VpEuZpwcKR48vL/qeBRieYkMl5ocKColOJXBVdXVlEIT5LQZpf6Q1efohbnudVT5ViyquS3VGHXje1OB1qvND295IasPKQzajTp13yQNC5Rh4Hkunu9iGiaea2NIg9IycHttgsrnxXcdGg8PqDcC5mHE3/ztz/jysxfsb+/y/gf3GXS7XJy+4dmzZ8Rhwp//9BOCz2v8p7/+hPV+j8cfPsSRJot5xMsvnnD66phoEVHzXX7nD36X6+WCP/2zv+P3/uU/x+8EeL7PQ99FGIIXxxf857/7OePxhCSKGY+H5HnBlZCcnJzxyS8/wxTGW68eqTsD0zCpBzWSosTKM9Sy4OJ6yjKKdVTOconreiilePnVE6bjEaUo6W9s4Xo+UbTg+vJcR86UQcVmMJCWCYaByrWhmaisWqVSmEohc23zUAqBZzmkswi/Xid36kinSak03vauidivFJ/Vv1bWJyhMx6G1NaAwXYZn52zd2seq1zk/OcdyPayaw+FXz7F8AUpHFZdFwc7Bbfpb6xiGSZaGRNMFVg1UluF4NrLmcv36DUmS8PSrQ4Kaxea9A5KspBAmk6sxycJClhmGArfRZLC9zej0hDLLmRy9otkOiIcxR59/gW879PcGjC7PCRcxTr2G6Xv4oks4mWJeneE2GsSzCRLB6OIc3/Opt/vsth9rqwzH0votBMOrS4KaB7aFdH1KYHBwQGtjC8u19SiqdLDC6PyMs/Nr8jzl1k5fa4yEIpnPkDUXxzYxyeltDTg6GWFIkyQrmC8TOv0Bk+EE01TcubuttYpZSRSFbGy2CBcLvHqdUgkc18Z2HEbjBZPRhHqrwWIyJY2X+L7Nq9NLgu4WvSDgy0+/wnElvu/RbDU4OnxO+1sf4ThdgkZGHi5YpjnCsCnjObPphPEiZmvj/+fqzX4kW7Msr9/3nfnYsXn02WMe7r15M2/mzazKqmpSQBcNJSQKIRDqUkuABC+88QJCQvUILzzyF7RaAolGAiH1S1d1laqbzBpyuEPcmH0ezM1ttjMPHw/HzCOyFAp5uLmH+XDs7G/ttddeq4Nh2yRJikxCWu0mZycnhPGKOMsxdElvu8NPfucxi/GUv/vFb/jV3/zNJlcrx0rfkGSrdVGRKDSkMBGyQSHKMR9KfLTItiYdFevH1/44SnFXdtR6DHtXfDaLpBvfF3WnStsIDTfb5ZrQMVSGKnQUBdWKi2kIRFY6xtmOxeXFkOV8TqvdJEkTEJDlBppuopAYhs3jZ08ppMnrb94RrlI+/+wJ1YrNs/v3+Ic/+5Lh8JLhZMnR0SW/evGK37w9I1wFSFGQpRFFEvP8wUMOHuzx7ekFP/+bb6hWm4yXEXKRcvvmJav5jCCKOT0bkkQJjm1iGIBUFBslMwLd1HAdl6rn4VVsahWHPEvodbtEcUGYxqz8hCRJmSx9kiQkzVJm4xGGYRAnCbPpmCRJ2H/4iKff+wF5knF19p7lYkown6IKhZBiXXhMlCwjTNbdKxoK8rScLGGQKUkUJjhAIQVhkGAP2kjTWYMa9aHdXhcZsdYP/TbpLEiTlOuLCxbDcyazOfefPceo2EhLIimodbrops7nP/2CaLVCaZKdnT57j56g1WocvXqHaxvYloHUbcKbS8wi4er4hM7ePkLTsR3J7/3B7+IvxpAmOBWXwI8QUjC7vKTabmK7Jlm64ubtJSotEIZGmmT0Ol1IcyZXV+zsl/yP69nUOx3mC59Wt818MuH47TtqDY/Dx4ekcUaeptSaHaJgBcQICbou0AyT2A+RuoZtWeiWRTqboxybcLmi0atj2hrXl1e0ejkVrwpKMZnMSzvRqoc/vSHLYlr9Aden7/GqHkWR4VQcDMOg0WwTBj5Clha3rmczGk15+HAXoUmyJCcLI6pVDctz6e/u0d46JM8Srs7P6W71yJXGuzdnbB8cMB7NsW2N6WTIKlU8ePqM4eWMAkl/0Gc+m+LWPBp1l9APqHg1pDSYTZdIM6bZ3SWLUqp1hyhLQRogLaqtsthJTaNeqzFfDGm1KnSePyCNfLIs4sGj55iGy9tXLzetVoGe/hIznpSTIiXW0wwXYX5KpO9DOUD+MOVi7RJXmth8UHXKzarAJupFrVuvkvP5eGImRBnPsSGl5UeEs1SlfWkalUkJmSxTRrMkp9ZsEMcRs+kM3bII4ojb4ZiK61H1qiyWabnNLgRhnuNWazz47DGjs0v+j//r/6FScfnRD7/Hb15dUnE0mp1dbKvJ1l5Mtdvjqxcvubq5JVytCPD5y9fvyb99hVQFQgq0mc+riyGqECjyO2SXFimF0EjSjGCZoOsmu4MBXtXDNG32dnepejUMw6RZ81gtZ0hNkKYpx8dXTOdjijwjjmOSNCNKYpI4IbET/NWCyWRCGKxw3Cqf/+h3aHT7TK6HaJpBmqRkeU6W52iqLC/kDRYAACAASURBVBC6Xjo2SqWQiUK6GiqLEblCz9fcGYq8EOi6QjchUSa1ep/Sr/njdmp9oGweWzsQFGKDgCTzZcD//c//jMvzC7I8Yae/xX/33/+3vPn6awa9BrNVgDpK+OxH3ydYrIijmHtPHqIZgkrTo7P1Y4bvXjO6vOb6/IoH9w9wOlVMo+DgkydkKdiWwfLqArNS5f2L11QrLo12h+H1sNwSD33GyxXbjSrJak6SCFq9XVp7fVZLn9l0ztZOl8npCdXegPloQffBI2pNnTwNWc4nbB/uY8qc1fCGwbPPmU1muI0GbqtJEoeMT47IcsHOw8fodplbXrObAPR2dkEo7GqNPC+4fPsK26viuB5hEJL5SwxdUqnVSqWy20KIgjzLCMIM3bYp5jo72zv4ixX3H33C6zfvaGuSJAq5PLmk1a5jOi71VoPJ7RKpmSThgq9++YJ2p0e13mQy83n9+gRJzmg058GjbcbXF+iyYNCuMby6RrdMTt6+582bC54+u8/V2QWWY3Fw2KdiG3z3zTviKCFLMnTbYrA9wHQ8QpURTSfEy4isKWhWGwihr3nbDHQdy6kxPD+n3gZdMzGtNkrp7B10Wc1uPuh4NBWh4a+l/qV+AxUiilMkfcC9Kwqbac3dSFWUkrI7ApoPXM2m5RLrF2exEQ8KWcYVZ4L5wse1dGynzIpClAZiaZ4h9TIBIIjLiBir4hHlCj9O7qY305sxgR9S5BDHCXI+Q2il7FxopUdvpeLgPXtEb3eLi5Mzfv53v+Hb747Y6g/Y3dvFrXsYrst4HOIN9nm0tc9qOuP9mzdcX3+L49h8/0dfYNg2wN1+WnG3l5Yzub1lNpmg8pztwS6PHt7nj/7hz7h3b5s0zzg/v+GX37zldrJgugjI8owkSfADnzAMSPOi1MGkaWnbKiRetYrtWOR5ynKxIIoiDh48pdnrkqYZURgShSFZlqJJSJIUoQkMXSungUIhCoEIc1S1nETKVAE5qBwMSa5LCt0ijDOWoym9x+WV/jgnfbMVX6xR6t3KxPrfUkKa57w6OmYym6KEYuxH/A//4/9MHAS0G3UMw+LTJ/tsb28hUVydnjJ3bLbvHZCES8ZnQ05ev6HTb7F9f4d2v8VyOmHnyTOixZSX37ym12uz9+QZq/kcVVzhtBsIy6TWaOL7SwzXob1/gBQFFgVWrU5rf5s8CgmmM1q9DmQRRhSTpTlStyjyjDyPUUmEoem4jkOqcir1DoXKMR2bt7/5hnufPiHyY5q9bdBMJsMRrX6/tDzNMvIownIsdMchimIMw6TaruN6JsnqhmC64sU3L3n//og/+uM/YnQ74/D+PXRTZzGZs3e4y2wyZbC3w2oyxqpUy3sTCMOQNA754ZdPSUIfaVi8/e49hZJUPJtKo8nzzz/DcqoML24QecqPf/eHzCcTIMcUGV7Tw9ju8fO/+iWF0GhVm0zGMz7/ZI/J7QhJ6WzgWBXiOME0bSazGd1GjXq3i5AWl6dnbO/skEQJ24d9bM8jTTJ0Q8NfTplPRji1Kq26h4rrLGdTdvd3yFKfs6MbHKdcZL6LMI7DjCzJ0PQSxYg7ReASnYhMuigl7lwJPxDL65F4yRavm6rN+PzDVKRYT8BAQwi1zkiH733/J/zTf/a/E03nPP/iOfW6SRkVJEpzLqnYLJpKqWO5HllWFh3NMMvJT5xi2Ta6qVN6fJXb3XmqSgJb00pLCk1HSsH2/hZhFLCcLjm9fM/74zegBLpVkmyFKkiTGFWkmIZGv9+lu9UnThLiNC9NtdYOa0KWOUsC0DSdWq2OoWlYlk2YFfy///Jfs9XpsNVvY1kGrm2gi4JF6JOkKUmSkCYxRV4ipzTNMC2rLBBSlumQhkRIQbPTwqlU6PX7BIsFUZiwWkzxg1XpB2RaBEmCosC1TDyzNEMSQiKSDJkolF62rpkq12KkEGX8rjBYXI5IpinxzRR3zyvNqu7aalmO6P/+lrooLRykkBRCrVc11s21prgc34BSzEIfIQRvzk749YvX9NtNvvziOT/+8ntkaQGFZHh6Qs1zScKYaqMKecrZ9Yxu36bar/D0R5/y9ldfsSOf097fQ6oA07YokpSK5+HUPFRR+g9FixVOr4fb3iqTSFyLplGHQmBV+xiGiVVroNk1lMrxFzEqTrBMC6vi0Go18JdTxsMrbLNCxTFJghWOW2F8ec7Wwyc0ur21UFNiWQ5RlqMZNnmaEiwXNNptKvU6SbhkuYqJphMePDogjpZ8+6tfYpgOnZZDo7eL41RwqxZhmBBHMYYhMWwHf+VzfXLKdDrm+19+SrXR4nTi02nU0C0ffz6hMAVvz64wdEmeZDSaHZJMUdEUBw/uM9ga8Oa7V9S9FDWb0u7UStI8TXh4f4tqxeD28hqv3UYTcPTuGM+rMFv6/PDhIxbTObrMGF6cQa5I44BKo8lyPiO4uaHV7ZKkCWFYCkWLNMFPfbLEx7E0hsMrbNMi8BcMz0bc3i4/2GIs/YLVMsd1JbatlYFpukQIH71Yksk6xabVWq9FyHWvL9fcjpBrtzq1sdpk7WS4MXcXdypYAaRZwl/82b+g6ShUpUNvq0+0nJRGYnKtoFZrE2wpUEoDBbkorTZM0yLLc6TUqHgupmWtHRM39W5t0KRUSXKLNVmuC1yrRqtWpchzVJGTZ8Va/FdmOumaLCNepba2GC1QabR2GlwXYFn+XAUCTddwbBPHMu9uRk2DMA15f3XO6fUVtl6mFmRZSqFSoEDTAB00oQEWmt6gyIu1CFEQhQlSGtiGRq1eo96Q5HnM0atv0KROlmXUajUsc48sS5hMx2RJDAqaFYdC6GUcTAHSTylqVqlo1gw0oaMJC9tyWV1PyEYrNKUxefMWd2uAsOx1kfnIyJ9N4flAMIv178LUNLqdFut0Y2r1Ko7j4lkmFdfl6OSc8XTK28sLToY3jKc+Dx/eJ4vKMMLQX6LXKpiaRxxkzJIFP/z9n/LuxStWq5AsyxgcPKRIIqTewKq3Gb17S+fePW6vRriui5ln+OMR4+spvQcHIAVFUq5GGJbF8N0RO8+bVLa2KAqN8c0I13NRSPxM0ju8Txz4GFaFplVjcnNFmkb07t9DiZQiS2l2WmRxSJoUBGFEs9tnPp3iLxf0TElwe0Wt3SeJEma3U4LFBLtawWk0IAvY3uqQoXH4+BFCFSTzKYZTReoumm5zczWi222AkuR5hldx+fSL7+HVHW5Pj+j2Wni1Ko+fV1lNpwTLGX6w9suZL/AMwcIPqNiCPI25Hfvs3rvP+GZInse0Og1002I8vGF4NSJuOKyCgN37A6xKg+ZgG8sw8apNNE3QaXmoLEMTBZNxuWrS3tmh1qwzmSiSNOf46IRHTx5Q5ArLtkmiBYk/43o44sEnX3D09i2rMMVpbrNfDT6yxZAWaDZpuhEKZng1iZAxFLdIBhQY66LzUYwLpU2GZG31KTcQfEMcf5hWKSWQci0yFOWNmeVlrEa90WR48h7TkBjNOpqQqKIcPZZaFNYktEQqbY0GZBlkJkuy2XKcMlpkjUDKFIv11G5TiFhHtfx9UZwqJ3ab7fCN4FGIzc+1JmfXhbec8m1+lvVk70OX+ZGsbs2XqQJEsl5tKrBNWbY5uSDTcvIULN0hc2zyPC/dFJMUo1opvW41ff3EJVeWpSm5yBCaxKpYGI5OFAaoyZRgGaIVOapdXydhlMi08BOEoyNMDdIcXTPQNIsszgmuJ4hMIciZvH9L/7NnOIMtSgj5EcLZnFQbL6D171ETEtu2+G/+6/+S0+Mj8jjmk0+fsHWwz9/82Z/TbbSo7+3xz//Z/8l3L19zvZjx3ekR/+v/9k/5z//jP2Tr4X28aoVCGGQC6o0qyXxGcPIWLQ24OnrPwb37uN0m8eSK1J9jt/o4jTbSLAnm/sEB89sxum4QRz6X794yODxgdjUk9pf0dvs02iZ5ukToNZRSaFLgL8sWzHJtNMNkOr5Ed1xst/RfiuYhUodCWei2jlA50WrB+PKKwb0D4tWEy5NTEIJGs8LLb17wg59WefviGNOx8Bch3a0t3HqD6fWQwW6FKA5YzhcEvk+7YZOFAUnWpMjyMlutWmNxc4PVbPD8yx+ujeEkjf4hmpGThUs03eHm8poij/jsi++T5Yoii7g5OybL4Pj0Gt2yQej0bQ3N1ElihTBK07r+VhfLyKGAerOFoetYbo3RcE5kKLb29onCOXrmI40KtWaFOCiQtolh6CTJkovTIxAwvBrRaDo4doMiT/j6V79iGQQ4nkucRlTrddxWj62tbWQeof3pn/7pn+Z5xouX/wrNcrAqbUynieE0kVoVRJVCVcFooUQ5LRJyo+URH70cxR3huHltbmD6xhRD3j1WPiylhmZIClFgmSaWbeBWXbT1iLJ8YUsM3Vqrn+XaagOSOCKKQqTMCVflvpHrWNimjmno6JpEEwJNlq2Ergl0TaCt/Zp1KcuPCTA0iamXfy1DYhs6jq5jGRqWrpVvNYmt65h66ZVjaAJL17ANiaULTK38a0gwpMIQYAhKwZcoQ810sX68rDl3j4kih6LMGtNkWUwtQ8e2zTJ1wtSxDB1DA00qNKHQpbp7HlOCKRUaBWkUEQYBqsjodprkswWG76+NykDoGlqlXBLVLRshDeZH1yg/4YOPkKIQktr+3lp7Ij+0VeKDIEIK1msuZfF1LItnD3dpV2y+9/whg1adyfUNlib49IvnNLt1vvzycwb1GrPRmJvZlNv5jPksoFur0WnWqTTrdPd20YSk6bnYnoNZqbBzuI/t1RCWzfDiing+w2vWsG2TPM7QhYbpmISLBavpDK/dxLE0jl8dk6elQlxKnWAVkYUZGDaz4SVnb99i6RJdV6AypqMpOilxuCLNUizbwfFqJGlcGr5pOovplDRO0YWgyALi1RxdSpqdOu9fvsUyNAyRcfbuLWm4wnYdhGFj2Q7+bEln77Ak/w2d7YNdplfneBUL23XwGm1sp4ImFV6ri1PxkFJjtVxgWs7a9wqKJCYIQ1aLJVsHh2slv8mb795zcXFJHIcYpkWmFGEcUa1WSdNysmbZOt+9eI0hdRzLYDJesfRjhJC8f3eC1AS1ZoPpeEwY+pi2zirIabY75IVCMwxAMboZUWQxSRzy5JMnLH2fVqvOxek5cRJhuTpS10iyFD8pv4ciTfCX0zXiERqp/QMKNb87peGD8XRRSArKvB9NsNZsbIrMB2Sw4XPU2k+WzerEesS+maBvXsSapuN5VSoPXO4sNoSgtIMokVKeZ0ipMIVOmuWYUifXwLIsDKlhmgbtdpMsTrA1iWWaoOsslwuWs9Wadyp9boRcI5YCTE1grc3VNSlwHBu36uFUyqTQPMvLyViWomt6KXAs1imUcVxumTsOhmmV2/1pgpSC5apUKG84LSEEucrvkJCh66Wp2tqd0NIgTQzOh5M1NioJc02UyeIGZYGGkngO/YAoTdGERs3zsGwLXSspfNuW2LtdVJYwnU7LK6NpFELc2WqqVYyydLROg1RJ4tNLimWwJo/XqK3IWJycQhhD1fqAbj8anUv5QSax+aMKhW7o3H+8y83ROS9eHfHpj3+IoTL0OOHi4ordQZd/5x/9AXkWY/yFzs+/eclXb17xl//fgP/iT/4Yz7aYXg6xay5uo4KUkmrVQXo1iizFX4WMbxc8e7a3TsdQTIcTOtvbvP/mJRVTp7kzwKpVef/V12z1e1xdjdh/9ojgZshy6tP74jm+H+AvVjz7wXMWwxuSOELGEpGB6VhEgc/s+hzZ38WqeMyub/FXK3YePOTk9Xt0XePeo4eEwYoiT2h16/iLgJ3DA/JghqFpPHr+GKFBo9fD8pos5xG9/QOiKCLLMnRdQwmLWmcHpVKuL67ZPqyi6RJ/6ePW1nHFSCrVKlmacHp0zO7hIZXWFo5SVOrd9fJxRhCGPH7+GNeTaFpBr3fA6OaaVsdD4eLV2kRxgu3Y7OwX5MmSIE0xbRt/tipRvCoI4ogd14BCx6t3ODs+I11HMb3++jVX4wmPn+5xejzEsiS5gs9+NMB2VlxenDOdT9ENRVZotLtt/GUARilxWNwuy6K9eSEVmkUmKxTriZO4qxICTVvzJmsx4QbSbKJlPmiN188m19wP2qbKlOKpNfezaWNKdbNcx6pswvBKPkZuEFTpjYpuGhSFwrUspDBJs5iZrqELG6drli2XZaFbVQopGd6M+Dd/9QuyLFvnsm9uPkWRZXR1g0PXwTFNHNei8+iQR4e7fP67X1D1KqSpwu33mV9eUKQJbt3j6mJEUeRcnp6x1e3RaDTQKh5hGGO7JuObIadnl1wtAuKsWE/+WNtkFICk3xvgui6GYVBEPnq4IEsihjcThpMFumGUIkldrknssk2K4oTZzCfOM5IiRxUpSz+gXa/SbtSQQpImCXEQstVvYxpa6SW05qTKVrNA5FCMFgSzVVnmkvxut05QRrYoJcj9JRe/+orDP/j99bkhPlyjNdhVxdpfW274HsXN8Iaq3qV3sMfW/YfYnoOlKyr9LvU4wzIshsdn/Owf/JSt/V2+/Z/+FxZxzMnlBdVOl5vTMxrdJqv5ksG9Q9797d+ydbCHW6tzc3ZOMLql7pos5yusao3m9jbN7S1ujk85P7vg8dPHhPMFwXKJXa2RJDGtThvd1FkFMV6zDlLhByGDg/tE8xG641Lv9BEoklWAQGHbOtOpRRSuiFdzFpMJu48fkyURz37wKXGSotsuNddhdpVgVtsYXoebk1NGl1O2dwdMxre0e10moxl9t46+zjkrC8uUTq/B0Xdf02h0ODs65+HTR0gpWA1LS1LHu0eehuv45NLPe//BA3RDY7maIaXAMl1O351xPbzisx9+gqYrCiS7Ox2SYEG4nGH0q6DpxGHM1fkQy4TlKuJ2fMPedh1/HjAezxhOF/S3+kRBwOXZBe1GhXi1oFpxGY8nyHjGvZ6NdDrU6jU++X6DxXxKkeukScLXv/kOP4zIVcpqOuLhk8e4huTl+ZjPfvSI1XjMbJkw2B9sWq2cv/7qF6Rr4+k7krgc29whn02A3scnoNh0U5umSn2YfGzc+O72uYS8U0LLj8OuEB91bZvzs/yQJiSGZmAYpa9xGVNTjm+jyCfLUmzTRDdMbLuCWyn1EXEcc3ZyQhQGZEVGUWTkqvQzLlSOJRSHvTY/+8Pf5/f+vX+Lf/Af/ruESUoUpfj+gunlOWYeY+g6QVjC1rpjI/Oc7b1d2ns7hCsf27ZIQp/b0Rh/OscwTWZBUuajbwj1NTKUmoZXqWPbNqZhYApFs1nnZjTmdhGg1isOUZIQ+kHpa52XE8BVEJCsbTblGhFJWWqAXKfMBA9WAePpHH8V4NompmVQ+AHaYlFG5mxQqVJlyFn+kX3p3XUVpVoZCFc+nUcPEJa1Rl3rFmtzhdbtr7a+Zrqu4eoSo8jxXBvNtIhXS9LQRzc0RBKiCQ3LdtANA2G6GIbNyfEJURjy8PAeu48OESLDq9iEy4DID5FoTK+vGR4dMZnN2XvykGq9yuJ2hqEJhseniEKwc28fr1GnUvWoDXo0ez2UblLtdsiKjErNKyOp44jGoE+Rp+iWQa5KKxIhJSevT6h1uuRRyOXRMXbNw7ZsciVwanXixZJKo8H04orFZFwqq6uNuy1DXdcRuo40BM1eF69Tx3Zd0ixFSEGehdxeD6nW6xhWhdcv3/Dos0+o1FooTSs9inWHMAxo9gdcn51h2ybL6RxBThyFFFmKyjMMTSNLM4Sus7O3h+N4nB8f0ai7KDTSJKdaq+BUbHRDMry4pFAJ2zst8ijGj2KCYEmWpiBM5quERq3CbLxgsVzRatYo8ojlfEmRpYjYJ1jMGM99hCwtfAuliKKA0F8gLZNa08VxDHr9DkWWMr6dUe20MTVwTItWo46m0r9XeLLsbmIl5CY8j1Lo99EY/a64rCc6d9YJm7cfTz3uSOj1RElsTtc1nyDuKAQ+cEXrm2DdbkkhMU27LFwKtDWp7LplWoFlWtiOS6VaR2qlc3+ShNzejpnPF2V9kyUnoUtJ3bXpNOv83u/9mH//j/8DvEaNm9EIqXJq7SbVVodqu+y1T0/P0DSd68shrm3R3upgujaXJxc4tTqnxyeMr2+wLY0sjdFMm0WUlboOVeKcDUpACAzDxTBMdKlouzaWZaO5LreTKVGSoq3tMDQpcFybJMtZ+kG5YIrYPBObAEIpBa5tl9yVBNvSSjmCLDB0gyII0WZTZF6sgaf6iAD/qPddt08fX3eV51jVBpV+h00u/CavHlkeHkJ8uF6GpvPk4X22tnuoJCUJAgxdUNseEE5XKN3CarfJwoggK61uDw/2EUXOt9++ol6v8ejhQ6aXl1QsjelsCQVcnF/z+Ec/pFp1GOzv0NzeYTq6pdFu4q8WdHb3SbOC2e0Ix/NY+eEdoj57+556r4fKFXkUljEtpkkSRcSrFW7FRQoNw3UJ/JhGb4BSitnoFqei0x70sGsdWoMtNE3HMAyGR8e4nke13cKqmEgJySpE1zUuTi7xV0u27+1iuR5JnDIdDimUhtdoEoYx7W4PIQWXpxe4XpPeYBvD1LF1tRbgCqqtNsvphGCxQpcapqVjOSX3meWwWiwJFzNUkZEkGbpuYtk2tm1SpCGr2RJp6oTBkjSOuR2OqHgVdg7vE4UZbrXB/ccPqdXrHL86ZrJIefb5c4SAOM2xXRvd0NClAM3k6uKaCMnWgx0m85hVmJbT70Ix8yMGOz10reRWV4sF58dneI0q9VqFilfHdkxGN2NmsxFJGH5UeL7+OWmaokuxzhWXd1xxOR5fE7vyA9EIrP14RAm51cbs9I5CXp+KJbW8id1dT8t/q9gUalNsNjti3NmiljoJq6zwWYbQyoVUQzfwqpVSw+G667E+5EVRerMEK26ubigjhkuLDkNKBu0mj+8d8I//qz9h616X+WTG67cnbHdaHDx/TmPnHoXQef2bX2NIQY4kSQu2DndQecJ8NKW1u8PZ+yN0DdrdFpWKjeVVuffZ93l/dEYQpnc+QyU6KKdmtuVSqVjYKqHwFzz85CmaUhiaxnw2v0OAFArLMDDMsvUyDZ0oju5kAptrYJkGVc8rrVA1Qb1qoImNRaqkiCKYTtDvMu4/mgFszhKxKcxrdHb3CYrFZMrg+TOkYZbFR24QcFn0EOLuOumaxr17+1y8KzmQNy9eMdjpsQxDXn7zHZ39A0y7gtls4U8nnLw/Zj5d8qMvv+Bf/cVfslgs+Ud//EecHZ1yezvni5/9PkrpVGs1GltdijQjXS6IVz5vv33FzqPH+Csff7IkV4IsDpmPrth6cJ+r4zMMKQmWMxzXoVJvszw95/r6GmnaWLaF47rML25J0hS72uDl1y9ptlu8/fY79u5t41YsUAa67pIlGULTefnr3xAHKwb37iF1yWo4wnI9hte3FFmCXamg6xrNbg+pW5y9P+PNV69odjs0Oz0Mw4FCEYURjXabqudiOjpZNCO+HRKNRkxvbtDcGrdXN9x7+hTTrSE0ndHZBWkmqDfb5WsBQaVi0u73sF2XyWTMzekZqRLsHOyWaxeWg1trEUU5cZLSbLdx3BqWUwY4mKZJHMTce3KffqdOHCaMbsbc3CwwbZtCalAIzq/mdAdNooVPrdWm3a2zWvqoLMNxTPq9Nt3eAKfaYGt7h539HpYhuLycsPIjdClYzBeYdilOvCs8v/jqb0myrEwMFWsB4boVkh8VjA/4hXU7pkCU6xMbkln+Vru0sXnf3Czybm9og4zuttg/Kmh3d4UsTcVsw8YyTdIkKQlaKdcrGyVC2LQCqlCQlymGcRRxfnZeetrqGqahU3VdHu7t8Sf/5D/j/oN9FqMxSrewdQPHsomCANtzePnrX7GYzqhVPYSms729RX1QI4wiDMvBrlUYX19jWhbnR6cMtnbIkpzU9xne3uJHyW8X6PXv1TRMGlWXzz97jGWbzC4viQKfPMn56U9/xGDQxjUNok17IsplE32dNFrGCpXPZ5oGjWoVSy/9khFlcGJRwGzmI3SJVuTkowmGKtbFRt2pkOUdimHNJ60PG8Ed0U2eYVQbuN0umq5/+D9rJCo++tl0TTLodcmSkCiOmC6XDA73yNKyHZ5Opoi84Pr4nN1nT0rxZA73nz3hb3/+15xdXaPliu3BgMHuNjLLCeZLhFDoRAgtZzocYTougwcHrG4n6EXBcj5n9+kTgjAkC31avR7BckW1VqfWqpcLoLaF4ThoJnS3BwSjEcFiRpyl1Hs9wjAhmC9Zjq7peAazyZgwTBhdDqnU3FJOURRMbkb0Bg0M2yJLImrNJtIyabTbFNLAqbgUWcrN2QW1VpNWt8fW/j5evYZhmpy8O8NfrUBlVOs1Qt8nS0qtVqQMhF2h0uxiuhWC1Yx6u0OWFwT+kjhK6W7volTpfFip1tENG6XKEAbLtFiGMXsHWxR5zGq+5HY4od7uInWTLM6oNhpkeUEUhiWVoWuoIsXSJcOLc5JgiWMJNENwsL/N+fkNXr2OZWhUbMkqSAijiFqtzEHfP9xBANV6k8Vsju3WEQjO3x0xHM7pb+/R7nep1j1sx0AVBd1O/bcdCNWm4RdAUYIPCXfePHfSnI1ZmPrIJIwPJ/umRRLrtkmpDT+wQUDi4y/72+9vGNlNC6dK3UqapUhRKT1jiuJOhSxluXqhKMfR6CAsRVE47GwN2N3dQpeSdqOGU3Fp15v84R/8lCefPGF6O6GIEwzXQtMEcaEIxmOmkzFtr0Ln0X2a/S1uzi8J4gh7FhGtMm7Ozzh8dEgWx4yGt8RhSJ6mLKcTWo1SLj5eBGTrYVbBpuMUoHJ2ew3S5Zz5eEQcRqzChE++/BJN03hgaDR0yV7HYxVnjKYrTi+u8cOIiuNiGmYZdQPoml4WI5WXKFUp0lRxM5qzWAZ03VK+nwiBJQQaZZqrWPNDm8tVdl/r+OWPuBuBgiJn9u4dg6dPkIa1VrV/fUaJCAAAIABJREFU1EYX5f5anhdIVWAZGsKtcXp6Qq3e4N/8+S/oD3o061WC8QjP0HH0giJY0em08FyH4+++497BAS/fHFNp1tm9t4/j2OgVG+EHVJseugnLmxGRH3Fz857v/9s/4/L9BRUNWoMOq+ktumkSZZBEKbVaqdNJggin1UZqJrqnUTV0UIIsTXArNppV4N9ecX45ZXi74PnzR9SaDsV4iGV7IEtNkCtzkhQ6gzaGIbFdj9HlJeF8xnzmE8UF954+J4oyzi5G7G43WcznVBtNLs4uaLQb5FlOGs7pHu6i0BDCIEoSZAyVahWv0SYOQ4osRIqMWsMDUWCaBrlpMs/SUkCbF4xHU7Z3d5jcjimSkMV0ymS+oNNvMB1FFHHK5HaGblpMh5ekUcrKD8nzHW6Gt4yvh3hVo7SkzURJxrs2maZA2Owcdgn8BK/aoNGqc3N5znzqUyjFg6f30Q0N2yoo0ojJ7Zxqa5ukKNN+dQmdnR6d3S7VageJ5Pz8lMAvW12K9KPC85FR10abcVeMFHeKZcXGY2fDXMh14eEOFd0RyWzcUsuKtVE0b8jkD+zCx3Wn/Fzt7vkkFIo0ze58bvK8DOLbcAumaaJUjq5r5EaOXRiYtkatVuHBg0P6rQbtRh3L0slSRej7nL07Zv9gh9jU+Ks//yt29vZBSmyhqJuCumNg1Ru8PToi8VOyLGQxmlDvtenv7REuYmqNNoXSqO1sYViSdreNbRgYtzNc2yAryl9elhebuxtXU6jVjNEs5je/fsHe7h7dbgcZJ1idLkmc0Op2SnSXCwbdiP29Lf7Fv/wFUZyRFZAXGkWe4ecRKi+XZ4siJ8sy/CAiU4pcSrK8wDR0/DzHKfI1N7eJJ9pMqD5Y3Soh7nLBpNRLvZauoxY+aj6n3Wuztb1FmmU4lk6WF+RRhC4E704v2N/q4VZN/vpff8f+/g6OazCfL8gF7D19QpIWxHGEoTJGb18yvLnFth3capVOzUIVKedHx/w8Tvmj//Q/YjmfYplloZidjRidn9La22f36RaXRyfc3MyQKqUVJPQPtrE9m6c/+JTZaMrWw4cIqTF8947R8Smdg/tcnJ7TanqE0zmYFaRd4ebVayxd497DA773023yLGd2O2GxzIkvjrCrVdI0YJpkKF3Ha7VZLgLy4oLh+TXzxZxHTx6TjmcoMv7qz/8NkT+hZj/l0d49xjdzhhfX9FsuZAWDvkcexlQ7AxASWUgUOZbroWmC9+/e41qK+WTOdDHnBz/+Pug212c3IEDTBWkuuZ2OabUqFGmKZZu8ffua/XuHdPstLs5GHN7bR+ouJ8cn7OxuMZxNS5I8i7h4/56b6xFLf4XXbvKTn3yPRrXP6xdvafXq7B/uoxkOX//d1/R6XXr9baoVh8uzY968PcOrVhFK42q5ZHuvhlOL0A2dQWPAYjLl19+8IJUGzU6LQs2ZXJ4zmi3odhqQRhSa9lG8jaQcaytVJiVuCN61TWkuQFufhgWbE1Gs0yPWMStw12ZtrBSk2JiDF3ejYbUhsPnAO2xK0CZtdN2Y3bVhWZ6RZXlp/pWVN47UyziOXBV3iKLcnRIlVVQoKq5LtVYnzRWm0sizkPlkRK/T4f3rdyhV0O71cEwbzRBs7w+4PT3FjyGYlKeyvlWmJeoaTK+vyFLBydtTWv02n/zkJ4xPTsjThEa3S+QveXSwRX+rW6IzzWa69OkMtliNJ0xGQ7oPHlBvN8ikSbdWxTBNbMtgNZkQrwK2DvewvQVplHB89B40QVIUpApyJUnzgiTNSOKkNNXOC4IgolAgpbHWLeVEUYqGojB1VJCuNSGwyYhQ8oNeCqAQsjx08nKgIIWBsD0e/P5PaPbq7HabFGlCxbKpOBa+v8Jr1IiikN1BjyyOyaME25Z88uWnhIsFZ+cX7D64z+nZOX/9i7/jd778AYZTQUnoHVSQAlbTKW6tiVKC2/GYf/xP/hMu375mPFuwfbCH49Qw6gJzFWLYDhQZQivY3u2xWiy4//mnXJ0dk08hq3t0Dw+Iw4giK5hMptiGRhKGxEmGZlbIojlpFDINltRsg8J0yZVCiIKzozcYUnJzesSnP/4+GBbxcoHXq7CYz7k8vWLv/n0My2Y2e81qseTi+Ihuv0U4vWF7p85Bf5fZfEUcrkBkfPL5U0jnjC59zs7GPHhyyPHJFf2dPXSrgluxkFISBiv2Htzj7bcv2Dq8x45OGROVBMRRSOQvGZ45BHFB1bE4e3/CwaOHvPzqJaKQFEInyytU6oIgyjk9G2K5HvPlCqficDNZ4N1e0fIkg+/dYzoLaO8c4NVaRIHPzuE+RR7w+utvkLK09uj0uiBE2Q4C29s9Qt8nTEHaFpPpEkOT6LogjlecXZwiDMnF6QVPnj+AOOTtu0u8VhV/5ROHEVbF+lB47nCLKD7ax9LWdhZ8WAZdT0M2vf2690JKudbhUPIIm7GroNTifCgrG8b6bjS/IaQ/tGHio/fLzy3ynCRN0HXrbiKM4g45ifVTbDKopSjJzqpXoeq6xHFEliviJMbUdUbXl9SqFZAG+/cfkq+WVGs2xDG67eL120xGU0QmuD4/5smnj/DDBbVui+V4xpPnD6kOegwvh9Q8G5UVzMdD0G0EGpqucGtNCqmjdL1Mz+z2SeMIsozL1+/pDwZMrq9BaGheHS1JUEnM+PySXChG5+d0ui1eHp9hVyokMiYNw3XEikQaJbRNlUKzSrlBuXumELrOdBUxHK6whEEm4o8Y/Y1uqiSVNxdWCH39fkGSKzLdRK936Nw/RMkC2zbQTJd2f4fTkyOKJKa+t4cY35ILye7jp8RJjlNrsFz4nL05QSBR/gItyRjs7ZLpBplpIYocheL64hIpCg4e3EMKWCzmSEuS64pazaPbaRIEAdPJAs2t0b7/kHi1omO7LOWceLlkfHHJ+fsTwiDkwaefUUtSJtdXDM+u6O4MqFarvP/6Bc3tXSzHRZc6+TQnjXKqW7t4rR5ZkfPuxXdICpy6y+e/92OSsEzsnKx8qu02UTRja3efVq/Py6+/I0hS6p1mKemwDCqOwe7+AcvxLfV2v0zsqDgYhkZwuyKKcnYfPqbaalBptKg122jS4GZ4hdQktuNx/PqI+WzB4aND4qTAsRqswime5xFGMctFQLPbRVCQGAbj0Q2793aJ4xXj2wmPnj3HMC2cis2nX9bwV0scU+Plr35Nc9BnHmSEmAwGW4TJiFqtBiqnWrGp1SrkeU4UaXT7HQ4dp9TeKUjCGA1Ju+mRpjGNRovFyQW3KmV/u87p+9c0ul08z2IVhGxvd0nCBUev3hNmiobj0NlqYZgWrYb1cau1EfSV6Easi40SarMm9VFLteFu1Ec6lbuP3MH38uRdF6l1kSjR0Sa4+EPR+fCH8hS+i8HZ4KGCLMsAqxQo5uXOyUb/88HpUJFlOZomcG0HUzfIkgSKcik1SzI820X3KsymEywbGq5NIAq8fpfp5RVxmKMZFnkWY9o2+w/uoUkwpUWUxJBmTMYjsjTDqtTQHIt4kePULUy3ht1qsFoEnL54w/buDolfOvvNV1PyQpGsQtrdNk63S3t3h8gPuDy9RKUprmPhteukccyj7z3DaTf45csjpGZgWAJH04mTBJIEkaYYqkDGCWmaghCkWYbIJXlRkOc5uZLEQpBokmKt3BZauamvSQmati42Eil1NE0jR5BbFcxOH8f1kKbNs6eH1Jot/CAmiGKWcUHdrXJ5do6O4vJ8iF1tEkcpRaZYrRIWy4Cd7QG1ZoPLi0u++N0fc3l0xMXpiCCIGexuc//T7zG5OCZYLdGEIi9AFwY7ezvcXo+ZjiacXwypVCv0tntEkyF5IcmzgiIMMbQSvzleg3tPn7Lz4D6aYZPFCWev3mDoGobrMRj0qQ+arGYz6p0uVlZHMyx026VAcH1xy8nZLZpK2NvfZmuvw8qPuHn1lr1HD/EabfIoLcPubodE4ZKf/v73ePHL79jd3yNOMqQMqTcbtNttprcjLK9KFgdEowWZMOlsbVNpNBHA1fUMx2uBkWEaOifv3rO1M+DFi5c8vNdH6oJoqXBziVtvYdfqaLaHIKe7tUWeKwI/Yn57Qx4FdNpN6u0Wt8NrVouAh588BSG5ub7l0eP7NFtNNKHR3dvj9P0JSS558umnCKlRqITZ7VW5CGoIOt0m9WabyeiGq+trDu7vc3pyRqVi0em0KRYL2o0mt9cTxrcTNM3AcqpMFz7L2wmvX53z7IsnePUK/e0eyjBpNypMJ0v2Dmss5/5HiGcTN7xBPxuOB0W+ThoQ62JzZwAuSpn9xvRdCCg+4Jr124IPhqfrVYvN1pbijrDezGRLge1mAsbd11RCkuUJhXLRNI04y9AL427iJqW2/pYL0MEyzQ8oTJawKM0KMlWgV1yuT485fHCAygu8tkd45fPm62/KNi4vuD45odWqoaTO+GaEs9slDBOqzSb+ZInQBPX9A2QmyAWE6Yz5dMzj7+9wc3KBrQkcTXFzfk5nb488T9GEoNJtIBRcnI+oLUOSMGI2GSOlZLVc0vv0KUUSoxsGy0XAdHRDFBfYbpV8XXCQOpplU2Q5ShUYSVIWdlkSj1mWlSGCSUxg2aSWQRLMmccJjm2z8/ABlUYNzTbRDBPDMBCahpJliqQwDdBKQ3EhJfVum/kyQFourU6Lq7MrhmcnTAyNfrdBs94giiJWiyVZmuMvl/S3B7Q6dcaXl4ymIXaliopDFkufOEl49OlzWoM+tuNwenRKWhgIKQn9kOn1LddBaZpv9ZvUOx26/S65ytArHuHoljxTdO4fwHDM5ckxjVoVz5CQZ9wOL5Cazs7uAZVaDQScXl5yv+ZRabUIgzmryYhmt4fSNF5+9S3ffPWCII55eL/MJv/1z/+GMIi4f6+H6eikacrl2RXVRhWlG+zt7QEO7f4O4+mSVrcLpo7lOSwXAa3BdllMC///L+u8flzJr/z++VVOLBYz2ex4U987WRppJWu1ELyy117bb36x/wIDBvx/GfCz/WDAgBcL7EqaGc1obg6dI3MmK5cfiuy+A7+wU5FEF1inzjnfRNC9YJEqLGKQJZmFH9JsNkjjmKPjM6oVF0vPkzf/1b//O2bTMWenVzx69mluN5KmBIsYs1hCXns2R1HAcNjDMA0q1QqVLGM66mMoEbKtEi6XaJbJ7v4ecQK1nQdM+z1UVVmLAfK0WbKEOEpAMjg7P8KfjZAUna9/+zuuzi65uLpke7dMte4ShBF+nKJZFqPRjE8/+xI/DJEVmI8HPH/+CiTQNInFdMpwoOOHEaqSNxmuozLt93E8577wZFlMxn2OVpZtupb7aJoctVoDrRtEK8vWzoH3I9hdl7I2BvtIE86mnIm1Sj2757PdP9wtfdY8GGmzpI3JkgRZUQnD4O6QHGG7Lz6SJND1PGFhGfgkGWiajKzIOUNUEniNFlGU4LkO/mDM7VWH5WJOrV5DEhLFkotumcwGI8qWTOrPIU3od28YT8fsPnqEJCSSMCDTVLr9AQePHhGFGabt0js5ob7VJswU5DhiNhjSH48olzy8SoksCdE1FV1TKG/ViAOfi7fvEP6KeZpRqNXp94aUqx6/+NVXtLoTjk+vOb+6oReERFFMmqzlIJl0f76RkEUesGYqGq7lIFpNFDJ0RUKKQna/+ARVz8losizdxdn4UZwzb4EkSdBUDQGEqcCzXdJMcHZ0iqyqlMtFppMZ49GC5TJmFUSkacT2/g4F12Zyc8V4Pkdbh+adHR1RsEz2Hu7Rue1h6hrL8YQPb46ZLlMePHwMIo/xTYXEyo+oFDwWswUlr4hVKhGsVnx4fU66mmCoMpPZnGqrScFxyDK4uumTqSqyonP89jXPvvoSzXG4Or1g7/AQpOzuc225BQzHIk4y+p0OZCHES26urnj9fY9avUKlWaWxt43pVUlTmcb+PvPxiL1Hj4ijjOlojCwbNNoe1VYjT/3wVziFQp56kqRkmcbCLFNrtdDGI1JCWjtbzGcrZBlqzQa6KqGZDrppkaYZcSjYOXjMZDhgeH2LbNls7e6gajqLyZTzo1PKtQqVSoXnf3mB5eQcNrtYIfQXTMdXxJ0Latv7qLqGJGQUJeeECTIePt5DCEHgzwkWPgs/pN6q8+yLz7k4OSeV4PbmhsZ2C9Ux6HaGxLGEquXR1tvtFp3rG4IgwDR0+t0Ot70hqm6g2xa1ZpPxqMfFRYf9vSZnx8dUGyUMXaNz02e1+sgWI1uPQJLIM8839hYAEmm+r8nkHHQVsBFAbirHxgg8A0R6v3DesI039STL0rulNBsfsuy+uLHO6xI/KYDr90lTkjhB13XEusVWJPluz5SruxU0NTeLlyUZSVPQdR0k8FcBSRDQubxhZ38HxSpguEUmgwGOVyKJI4quhVGsUmy2yZKYxdTPK/hyRbndIvADdEkinIyJCwUM1+D5Nz8Sr1YEiyVZnDHo9AjiDKXg8u7HV2y5Jv2bc6xSmQeHDzg9OkZXZFKRsRjPiEdDCl6JwXhC1XXxWg26FxfU6mUSZH789jW3ozH98QQ/iLAMjUrZA9JcZa8oKLJAEln+81qZv0n6iOOYzm0Xr1hgPp0i6xqSLOf9rZDJkEjTZK1gz9NOkyQlzCJykWtu6fntP32DpIBtSDx4+Ih/+qdvcNwira0WCMFyOif1fQ7aW3SHQx492WcxmXLy/pjuTRf7wQGqIjO47VCt11gFEZ9+cchyOufd0RFRlpNXZ3MftWBT2W4xuOljWTrz0ZDubR9/scQ2DEKhkAQRg5sO0+mMx599iuMVGQ572LZDlCRcnJ6w9+Qx0/GY1k6bm8szhKyi6AY3V7dYtsViPkUzVGqNFoqasX9wwKA/4PToiKfPHjK46RPFMm6lzmoVMZkumPZ7xOTi3NfPf2T/yQGqoZJlcPbqDZ/++hf4YYipySxnU277E3aefsZoEXF8csqhYXF71eXh4SNUzSNLodsb0hucUyp6BKsF1boHWUpzfxfXKyErKlEYoskJELPyfYadLkqWcnt5hrGWoVRKHqosU9AE/uAaYTg4pSphGDPsjwlnEwadDqVKgUrF4ej9NbbrUql6aJqKpmtICP74j9/wi9/8nMeHjxkP+ziOzfXFDaenN7R3DyiWymRZQOAvub25YufxU27Ozth+8BDbMlkuZ4znQya9LoPhCtVwCJdjLi76PPz8s4/8eHIQdR1BvBZpbvg06xHqbsRaz0Fpmt6p0Fl3R3zc2awRp7w32hjqiDtiiyBdj3Ab8el9wbp7GwkQeTFKEYRxhE1OnouTFFWTNoyf3O5CFsiSjKKqqKqCKgtsQyeOY5ZZxnK5wCl6nJ9d8/qlT6tV4WC3ieMWGQynCMNlNJkznR3RubrENlV6nR5kgl/WGkRBzHQ2p1j0mHWuuZrOuDj+QKlSRVYEvZucOLZaLIliIAaj3MD1fVqPHjKbLpiPZ1SqNcrb2yhGj1Wvg66qHHz6ObXdXU5fv8Yulii3GpweXeJHEXEcUa8UERIIkbJpMzf0h487xHvSJ2RJCgkkUYAsXFRNgRTiNM59nYMAkgzLMsikjE6nz2g0IYwiZEmhUqlSKlU5ubimPxljmypuoc77t0fs7LVJk4Qg9Pn6N79g3Bnw3bc/sLe/y6A/IU1i5vMp/dtr2u0G9e1tXv3wI27B4f3LN5huiUdPD/n2j/+HFEESxxQ9j639PcqVElbRI4gF798dYVgW9e0tTt++wypW6A2GTCYTfvXb32CUhpydnKEogmqjyny+Ioglut0eXrlAe6dFnCQMe1N0SaZUyfPYXn3/gsl0xpPPnvH6xRtKbolKrYqiaWiayuX1CE3KiONbhBAcv33LbDxif7/J2UUPXYFi0abaqOOHEcNOn/nKZzGa5ApsReXti3f4Ucywe82rH99wcXFNuFqSpgm7+83cASFTOD0+o2zJaNUScRJweXzEwdNPGHRuiMOIIILlakUwW5KEASfvjrFchyeffUqWhXx4/RLXtnnz5x/y4ED3ABFHZLMJcyBFxbIsrk7OaGzVUTUZs9Ti4WdFMiCJE47enCJ0nULBQGgKaRbwlz//md29Ld69fMXbt8d4jRYZUCgWuLw4wbQKHBwerhfaGnE4RdgGqqQw6ozY2mryL3/vstPc4cOrCdNVQqlS/2jHk6b3u5k1O3XDcM3u/rL+LpNgnW0ur2HznJEv7hTVd5PT3eNHOxzp/u/5b5O70nfXSa0LV4ZYezTnd+8oiUnJ0FQVPwgQ6HnYznrEkmUJSc7n4jCIMB2LKIxIAM0wELLGcrWgWC1R37aYjvtcdoYYlk4qabx5e0a4mLC7XUdOY4Jlymg0Qs5kBhe3rBYTTMsiC0KEnCLSAMfWMC0bf7miutXi6O0bFCFx+eEdW7ttLs4vUEVK5/yScsGmXm+CrBKufLrXV2iagatrNAsu48mMIBEc7O0S+X4uwpuN6F1dsHOwh7rp8NZoXj5ccVeENkYV2RppRJYROjx8tI8sycRJyHgy4rtvf6DXGxL4IWmSUCoWePLJE148f5Ubj6kKqm5y0x/huAUqtSqu5+BPxnz1y59xe3HJdDgkSSLmkyGjoce3330PaUCcxvTGI5LjhGC5oNVqsJrP0eSMQsFCkeD09JRnzTq9m1u2dnf44x/+SJImFCyDab/H6x9f8eSTT3jz5j2P9hpcnZ1CljIejSmWSkRxTlyMw4B3z1+hqzKWbXJ5ckFrZ4fO1RW6rvDD/DlPPjnk4uKWm6suuw92Of5wwusXb9jabqFrKtPbDiJJ2Xv4iG6nz8mbt2RpwnCah0J+8cUzZM1g7+Euw1uVLI0J/AVClXN3R0VnOZ3i2BoDUmTdJJVkdNPm4LPP6N1cIyk6uqHy7/7Db1HljMuzm9zMLc3odTtMBgOKusd00EVTdS4vLllFr3n94wu2d7Y4/OyQUXdGt9tlMR9jmzKW4aGqKppeoFRvMx/2Gc9W/OpvfweZyFneqoQscguMOFGpb9W5PD2m2W4ThBmGVWQ8GPHh5UsU26Ve8igVHUxd5eq8w8X5Ocsg5PHjByx8n2LJZnx9imPrrCYTRqMFW7s7KGoeM3707i315oRatUnRdTk+uaBWM7k+O2IRRLgVj+Hg+r7wyJK01vis2bZr+HwDj4s7HDyXU6TpBsrewErZ3YJaCHJUSuSsY8TGMnWzmM4vnHSDQ91B8Kxf9H68yr+Iu4IYJzFxkmBqKvEiWRcy+W59HSY5z0iRM+IoIU4yVCVHa9JMolStYNkOYRQRrGYEyxUiVbm8vIU4QZFjKpUSsmaAHDIajnC9MlvVOt52i8X7OZZjkyQp/UlAtb5NWzGJY4HruQRBiGMaVGoVVMsinC3QDBUlE4z6PSxSZMNCt20mNzcUCkVst8Ck06G+s8u7H1+QJQnXx8cMb3vIholqqOzsbyOr0kf7r4/0cHw8kqZ3hE+x3n8hSZDlcogkSfjw7gNv37wmjAIQWX5uRMjzly8YDUeUGg2WCx8tTshk+OZPf8YwHGxDZn93l+75FVdX10RhSLyao2oao06XLAlZLuZMxiNcx2A6GvP1r39BEMe8ef2B694/cPhkn8VshGObyFLGsHdLkqQMhzOSLCPOMr775lviFD68P6K53UaRt/AqFbxKCUmWODn+QBwLas0KaRrR7fawtNyE//2HcxyvxLPPn/L8L8/Ze7DL65dvUFQNfzmld33Fq3dHVJt1IGVrp4Uqa5TCmIuzU178+BY/DKhWivz44yvKFY9KyWE2mREGIbPJiP2HOxhKRvfmBlWWiOMYx3U5/9DBq1YQkqA/mFKtCCaTOZmkcXp0iaab2LZFGvnMpitOji/Z3pMQpJQqNqal8eovL4jQefTpI96+eMd4NsMcdRhcW1xcDlA0hTBc0GrtUKvXmIyGaGaBs9MuQRiw/8khqppx8u4inyQki1VvTP/qiv0nD3AMBc0wUGVBMJ+juBaj/ghJ1WltN3AcC0kIKs0GB4/2qNaLvHrxkocHbcq1KsP+gOPXb4lDn1UQERslgiymZGscfzhme3+Lm6trTk5vqe/UKdU9Op0OURrw6WdfUWr0UHX/vvAkUkIirXPNs83ItPE5FrkkfTMCbejMKWTS+gMvgSTuyTUfXxQbdOtuef3RxJYfn667pjWyJtbjRAYivR/5IM39kaMIxbEQpKRhjKJrCCkf/WRVJox8skwjzVJWUUiSpaiZiiIJVBLmQcBkOCQMVyQoFB0DjwLTwQBZVQjihNObERXPJZGmqJJEIuDy6JjBcEy9WqE/GnFy2ePV2yO++vILWq0yqi5xdX5G57bPzsMnGI5JKEssfZ+byx6lkkdvNKbStPHHA67Pz2jv7hMFEZppsYwTvvv2exQhI8kyuwe7GKaG8V4hkcVd3d7U8LwY35/pzU7tJ4WIXFO18ToKgph//uc/MZ/PidMIyK0cVmHEYDgkyzIU0yBJMjTDYrFYctO7JhUKsqQSBxHtrSo7jSpu0eavPn+IYWicX97y6PAJvcGIh0+fcPzhhNVqxWK+IBOwDGP+7d//dR61HMf8/K8OGI2mFByLOAjodvsISeLJ08cUyyVUVUNSdXTb5mYwolJyOL+6JYwTev0xtUqRw2cHvPr+Of/id3+DIst0z89wvAJRGCIrKlvtLRazBZ9+8RmDbg/XMjANlYeP9glnEzRDxym4TPojlkHIuxfv+du/+x2qIjGfLRlPlmw1XILlnLdvujnq2Krx3R//TJapmLqG6diQJYyHS8YTny+/fsqoP2B7p83V5TWn79/zq9/+nA+vPvDpz75C01QuLrt3AY1JFDPodElCn2Wgs0xlvvr6S4a9DoP+hN//m9+TZT7VaoVSvclkuqJ7rVKq1jEsF8N2ef/6hMlkiW5KTHpDfH+HUq2CrslMxxPm8yVBJiNUifM37zj6cEESL/HnIdV6i+Fkxt5um3evXvP1r3/JfLHgwYP9PNY8qbG3/xhJK7DujcpYAAANTUlEQVSzv41V6FHb2iZOQgq2iWZ6JOGK18+fs/IjLq8GPHy8y3wesdfeo9e5xC7usLd3gK1rFE2Vfv/8p+r0MIruupos24gI1yPP+hOfL4bF2pyc9e/WAPnHmiux6Y7uC01+3Ab7ktbd0gZ6l+/2EhsEbaP1unu9dXukyCq2lbNN0wR0XUOWIE4TMtYESJE7HOqaTkrelmuKoFiwcyGomvsrL2ZLoiDEK3vMlz7FchVFV7m+7pCSMZtOGI/HnJxeUvEKWLZGt9tnsQro9HqUKnUePnvC0Zt3DHsDJtMZqqTj2Cb+dEzg57E0+V1GQrcM0jhCN1REJuEVC6iahKaqoGgkccyTz58hSxmmqXBxesxs6ROlm/yx9SJf5ByrO+0cmx0bH+3buD/3Iv9/l6sV3//5e8I4b/OTvL7j+yFxnBBFEcvVitXKZ7FcEscxcRQhyYJOp4tecFilMa9evGURZ9x2xwyGC0bjEZapcvhkH9O2GE9WSIpCo1GjXKmQpBnR0qdY8qg1qixmCxRFodGu8+71Ef/rf/8DSRrxr3//N+zt7FCpVdfhfhq6YWKYBs32NtPJHFWW2dpqYsgC1/Wob7eZTRe4JRdJlmjt7SPI0FQFkUTUGnUQGqWyh1UoMhqOWS1WmAWXWmub1XKBrpv8/Nd/heM6vH/5DjVN0FWZUrnMwdNDCm4eM1Qql/j8l19TrTcolgrUm7VcuCupNNtNPM/GDyKEkOj1Buzub5FGIUgamqZhFwqMxgv2HhygGwbnpyfUGnWqlQqyrNHa2cNxCwR+wM7+Ds1mHVnWSFOF8XiMYZps7e7S6wx4//otve4AoWg0202arRr+KiDyE7q3A9ySg2FqKLKEWfDQdYNOd4lqWjRaDYIwY+/JU9p72xi2QxjnTgud2y6NZh1/Mebm8hKvWqPZaiJLMm9fv6O13aa9tYXjuMTBimKxxPbuDtu721iuR7tRJYwySqU6tmUhZwmuU4Qs5ermBqdgf6xO/xNRvC48m/lnDW+LjxCujalVXjsk7tg5691DuiEEintHwTs5g7gvJHfePHcIGT897q70iLsLZ0NqloSEYRg5I3TlY1t5HExuDSHlvkJ3NACBrCiossLudhtVhv7NNfvbTabTCSm5l+x8viAIQkzHYblaMZtNsQ0L0y0gKxpb221KlQr7T5/h1mrMxiOKBZdGe5v2wwMG3S7VSoXdw4dYtkUcRwy6QyRFBgGKqmIXiji2ThhHCCTqu3v0rm6o10tomkS/1yOKEg4eP8AwFNxSCX8+J5VlpvNVHqXyMeonNgX5o52PYE0/uO81Nw6BWZYRhiEvnr9YJ13ki2lZUe+AgjRNSbOUOE3w/SV+GBKGIXEcYTs2i/kcIQkmkxGpJHF0dUuQyZxe3iKESqvmkUk6KTJIUh5BFERomkKcxASLJcP+CN2y8AOfJAh4/vIt//cf/8DO7hb/6T//Rxy3iKQoLOdzIMOyHQb9MbqmMZ/NURQJ0zQp2DaybjObTHFLRUzLZDFfsXdwQLRaoGkShmmiaToFr0yhXMNwHCrVGlKaUmvU6PeHKJJElmYYpkmSgVMwqVYLtHd3MZwiXrWGW3ColEukWcb23g4ZEqZpE/sBshDopoFm6iBkZEUhjmKaWy0s28Eplqg3Gyi6QZaBaTq4xSKGaROsEizbodPtYeg6hqGTxhGeV0BRBOPxFE1R7m7UXqVMmmbMFwuyLEaWMra2KqiKTMH12Hu4R7FaZmt3G9N2UXULP0wwndwKo1it4pVKkEnUGy2qzQZplqEbJqoisEyLomfjL8ZouoRlCrRkgSwgTgW92w6dTpet9hYiS/jw4T1WwUPTZOIkoVquIysGjpFfA2kaIxGTCQVN0zENjeW8f2/2/t2Lf8aPw/uGRRL3Pcr6ohdrZOsuTTTLR6g89HgdKJpl6wiY9UXApt1fB8TdsZ1z7GyzDL0rdCJHsjbvLsjul9HS5vkKhm5QcEzCIKDsFRBkOLax9gXKn6IqKrIkocgSaRLTv7zk8u17Pv3Zz7i66RMsfT7/9Blbu9scHx9TdIskScKrv7yktdVEVlUa7T1UTUO3LG5vBkwXPhenl+wfPuPwy88xbRNN13Bsm+l4QqXZYDEa4bgutfYu09kE23PZPTxENWySMKC+1SaO891KuPLp3XTpdAdUW1Uq9TLz/pDudZfrs3NK1SaZqtLt9omT9CeI38bC5K4wcw8MfHy+JJGnhm76y5cvnuOHPoj1Xk6AYZooiowkpQh5E12Uv0+aJKxWq3VoYoKuacRJRMFz0bQ8QXK2WjCerugMF4RBzO5untzphwFFr0jRsfCjmGqtTLXRIlwt2Hm8z3Kx4k9/+pFXb9/zN3/9Cwq6RrNZw58vqDYbeGWXD0cnyIrEeDjI6RSmxla7xdn5NdeXl7ieS+T7nJ9ecPj5U86OjpnP5niey8vnr3OhbJAgS4Lvv/kBt2DkEUAS6IaGaaqsFgsKjomqqYxGAwqlMoPBjO5ghKIq6KadB0oaJpouEyyXqLqJH0YMhnOCxZTGVhvTdkiSENs2WfkhumEhSzKrVYRpmQiRc8qW8zlBGOOvQgpFk9OjY6rNBq5XxLYyJv1LRrc9Gts7CFlGUQVxFBDFGd1On93dBnsH+zh2HrQpaTpO0SNYLFFkiSSBlR9iWRZ2wUHTNFbzBePRgJP355SqNVrtOv5ySZokREGErGgIkRDHIc+/f06pvsWw06Hfn1Fq7KLqFuVamVXgUypXUeSM6WyKaRfRVQ2RxvR7XcIUzo7eM17MKRTUtaNCAkh0+gNs2/i48PyBIA7vxaGwIRhv2pKPupL1LkisLUxFbqjAR6iW4J7bc6+/+ogVnUn3L70Z1kQO6W9wmkyINb9ojdZsXkeAqmhYZl5oio5NGMVrVX1uqC7WuVhJkmLqGo4qcGUFfzFHkBEEPg+ePMC2TBbLBbVmO/coIaFU9iiXa3jVCqquk8YZk+GI1vYeYRCgmzrIOv3emPlkxmIyZjmfM1ssCedLur0BSQqaKtG5vEIkgsV4yHQ0J0qhVG+TCkHn5ibvjpKY5sE+VqGAYWhYbglVNyhXq4y7PTJJoTcYkqRpTuoW/3/R2YhzSdN7D+W1oE1a3wBy3o7E6ck5s/ksJxmaZi4IXXesWZbRbDTRVI04SlA1HbI0jxoil2GAQMjkUHCaMhlNQBas/Hy8Go5nuR+zSKhWXKLQRwiBrhtEYYBIYjRDZTQacnnd47//j/+Jpqv81//2X2htt7m9us4RzDjm6MMliu2wv9fGMEy8UpGlH7KcLShWPHRNIZUkHMchSVIcxyIKInRN5fbqiq32Do7rYhbyrsIytTycLwi5urjGc01e/PCCStljsVwQrBZ4Xgmn4GIVC5iaRLhc4VXKxEk+xuu6jRCCUadLkqZs72+TCYHjepCBquq5nMbUMXSDyXCMaRk5INHp0bm6xil5CFlCVSREFDKdLqi3t9F0kw/vTpDIuLiZo5k6pm2hqTpxlGAYGqVKmfFohm6YhGGSm6pXqwz7I775w7cM+gNUzaBcKREFAavZjCSOEWSkiYRZ9KjVKyynIzRVIMVLwtWcgufSuemg6RbFUhnLtih6JQpeAVWVuTq9oN/p8/jJIzRVRSAhyTrhfMxyNsYrlZFVk6JbxPNKyCLm/dsjppHK9tY2qipTsG0urteoliwrPD34hGXor0Pq5HxvIOUBfJkgt0v4iNS3ycbaNPVZdj9WifXolHHnurz2WM7udkFpthFQ3Belu8ePPDM2K6L7IzIkIWPrJq7nkCYxrmXhBNHaNzdH6NL1nT7NMnRVwVJl1CQhSlKae3uU/IBas044nyMbDoVqg/Fozk6thL9YIoSGUbDxKh7D2z6OaeF6JaQswysXc/PsZUCWyGRZnkxQ1Ao0amUaBw8I/RA5ibDcMpphkaQJrYMHBIs5imagCIWDJ4eILKPSaCIbJoZbIJxPUXSbOFnbTqIiWTarTCKKko+8fX66U5Nz/vt6HPup59GmY82yjDSDxd+vGAz7JEmCqupkCMIgRNFUojCgUimTxAmz2QLDtpnNJpDk6KQsKxiGiaapOG6RVRBimRayKpPGCeVyBUPTMVWNequCWymgyQqGoiDJKv5qScG20G2DTrePbkX86q9/Q6lo8/SzLxGkRFFuI+IUHGYrweMvnua2pQVBEIZYUQZJysPDQ/rXt1S3mqRBhKTo+MuAJFMhS3HLTSq1Oov5HEXRMO0iWeCjKCZeyciz2I0CXrWF41URssRq5WM7bu71behoVJGlBYqqEUcpcZgRBSlupYEkNFRdQTNM4mJ+HYm1X3WYBRi6jhAyTsFF01UWq4DVKo8Gdhw3vw50k+V0SrnewvNKhGFMmmqsIsGzr76iVvdYm3ui1wziKELVDUI/Qtfz3ddmJFBUhUqzga5rOY9NUUiiMKd/pCmKrhEEsNsqkyUxGDlAY9gF0nSBLCl45SqqolEsFEnTGCGBYViEwRJ/FbBaBXcx5bIkU/ZKDCM/v0kpOq5j5qsF0yYKipRKbSpb2yiSgiwyUgSGofP/AKFYg/y9erW3AAAAAElFTkSuQmCC;" vertex="1" parent="1">
          <mxGeometry x="83" y="289" width="193.52" height="110.29" as="geometry" />
        </mxCell>
        <mxCell id="0BUKk4QY-ltkbJIT3qkM-5" value="" style="rounded=0;whiteSpace=wrap;html=1;fillColor=#dae8fc;strokeColor=#6c8ebf;" vertex="1" parent="1">
          <mxGeometry x="368" y="173" width="210" height="170" as="geometry" />
        </mxCell>
        <mxCell id="0BUKk4QY-ltkbJIT3qkM-6" value="FRUIT DETECTION" style="rounded=1;whiteSpace=wrap;html=1;fontSize=12;fillColor=#f5f5f5;fontColor=#333333;strokeColor=#666666;" vertex="1" parent="1">
          <mxGeometry x="386" y="203" width="170" height="60" as="geometry" />
        </mxCell>
        <mxCell id="0BUKk4QY-ltkbJIT3qkM-7" value="FRUIT RIPNESS DETECTION" style="rounded=1;whiteSpace=wrap;html=1;fillColor=#f5f5f5;fontColor=#333333;strokeColor=#666666;" vertex="1" parent="1">
          <mxGeometry x="387" y="269" width="167" height="60" as="geometry" />
        </mxCell>
        <mxCell id="0BUKk4QY-ltkbJIT3qkM-8" value="FRUIT MASK DETECTION MODULE" style="text;strokeColor=none;align=center;fillColor=none;html=1;verticalAlign=middle;whiteSpace=wrap;rounded=0;fontSize=12;" vertex="1" parent="1">
          <mxGeometry x="312" y="176" width="328" height="30" as="geometry" />
        </mxCell>
        <mxCell id="0BUKk4QY-ltkbJIT3qkM-9" value="RGB-D IMAGES" style="text;strokeColor=none;align=center;fillColor=none;html=1;verticalAlign=middle;whiteSpace=wrap;rounded=0;fontSize=14;" vertex="1" parent="1">
          <mxGeometry x="102.81" y="418" width="160" height="30" as="geometry" />
        </mxCell>
        <mxCell id="0BUKk4QY-ltkbJIT3qkM-10" value="" style="rounded=0;whiteSpace=wrap;html=1;fillColor=#f8cecc;strokeColor=#b85450;" vertex="1" parent="1">
          <mxGeometry x="684" y="107" width="255" height="301" as="geometry" />
        </mxCell>
        <mxCell id="0BUKk4QY-ltkbJIT3qkM-11" value="SEGMENTATION MASKS" style="rounded=1;whiteSpace=wrap;html=1;fillColor=#f5f5f5;fontColor=#333333;strokeColor=#666666;" vertex="1" parent="1">
          <mxGeometry x="699" y="135" width="220" height="60" as="geometry" />
        </mxCell>
        <mxCell id="0BUKk4QY-ltkbJIT3qkM-12" value="PREDICTION CONFIDENCE SCORE" style="rounded=1;whiteSpace=wrap;html=1;fillColor=#f5f5f5;fontColor=#333333;strokeColor=#666666;" vertex="1" parent="1">
          <mxGeometry x="699" y="201" width="220" height="60" as="geometry" />
        </mxCell>
        <mxCell id="0BUKk4QY-ltkbJIT3qkM-14" value="2D/3D POSE ESTIMATES" style="rounded=1;whiteSpace=wrap;html=1;fillColor=#f5f5f5;fontColor=#333333;strokeColor=#666666;" vertex="1" parent="1">
          <mxGeometry x="699" y="268" width="220" height="60" as="geometry" />
        </mxCell>
        <mxCell id="0BUKk4QY-ltkbJIT3qkM-15" value="POSE ESTIMATION MODULE" style="rounded=0;whiteSpace=wrap;html=1;fillColor=#dae8fc;strokeColor=#6c8ebf;" vertex="1" parent="1">
          <mxGeometry x="368" y="352" width="210" height="87" as="geometry" />
        </mxCell>
        <mxCell id="0BUKk4QY-ltkbJIT3qkM-19" value="DATA FORMATTING MODULE" style="rounded=0;whiteSpace=wrap;html=1;fillColor=#dae8fc;strokeColor=#6c8ebf;" vertex="1" parent="1">
          <mxGeometry x="368" y="446.28999999999996" width="210" height="85" as="geometry" />
        </mxCell>
        <mxCell id="0BUKk4QY-ltkbJIT3qkM-23" value="ANNOTATED IMAGES" style="rounded=1;whiteSpace=wrap;html=1;fillColor=#f5f5f5;fontColor=#333333;strokeColor=#666666;" vertex="1" parent="1">
          <mxGeometry x="699" y="461" width="220" height="60" as="geometry" />
        </mxCell>
        <mxCell id="0BUKk4QY-ltkbJIT3qkM-24" value="PREDICTIONS&#39; ANNOTATION FILES/MESSAGES" style="rounded=1;whiteSpace=wrap;html=1;fillColor=#f5f5f5;fontColor=#333333;strokeColor=#666666;" vertex="1" parent="1">
          <mxGeometry x="699" y="536" width="220" height="60" as="geometry" />
        </mxCell>
        <mxCell id="0BUKk4QY-ltkbJIT3qkM-25" value="CENTROID ESTIMATES" style="rounded=1;whiteSpace=wrap;html=1;fillColor=#f5f5f5;fontColor=#333333;strokeColor=#666666;" vertex="1" parent="1">
          <mxGeometry x="699" y="335" width="220" height="60" as="geometry" />
        </mxCell>
        <mxCell id="0BUKk4QY-ltkbJIT3qkM-27" value="DATA FORMAT" style="text;strokeColor=none;align=center;fillColor=none;html=1;verticalAlign=middle;whiteSpace=wrap;rounded=0;" vertex="1" parent="1">
          <mxGeometry x="732" y="413" width="160" height="30" as="geometry" />
        </mxCell>
        <mxCell id="0BUKk4QY-ltkbJIT3qkM-28" value="" style="endArrow=none;dashed=1;html=1;rounded=0;" edge="1" parent="1">
          <mxGeometry width="50" height="50" relative="1" as="geometry">
            <mxPoint x="310" y="610" as="sourcePoint" />
            <mxPoint x="310" y="85" as="targetPoint" />
          </mxGeometry>
        </mxCell>
        <mxCell id="0BUKk4QY-ltkbJIT3qkM-29" value="" style="endArrow=none;dashed=1;html=1;rounded=0;" edge="1" parent="1">
          <mxGeometry width="50" height="50" relative="1" as="geometry">
            <mxPoint x="640" y="622" as="sourcePoint" />
            <mxPoint x="640" y="92" as="targetPoint" />
          </mxGeometry>
        </mxCell>
        <mxCell id="0BUKk4QY-ltkbJIT3qkM-30" value="INPUT" style="text;strokeColor=none;align=center;fillColor=none;html=1;verticalAlign=middle;whiteSpace=wrap;rounded=0;fontSize=14;fontStyle=0" vertex="1" parent="1">
          <mxGeometry x="88" y="60" width="160" height="30" as="geometry" />
        </mxCell>
        <mxCell id="0BUKk4QY-ltkbJIT3qkM-31" value="OUTPUT" style="text;strokeColor=none;align=center;fillColor=none;html=1;verticalAlign=middle;whiteSpace=wrap;rounded=0;fontSize=14;fontStyle=0" vertex="1" parent="1">
          <mxGeometry x="722" y="61" width="160" height="30" as="geometry" />
        </mxCell>
        <mxCell id="0BUKk4QY-ltkbJIT3qkM-32" value="FRUIT DETECTOR MODULE" style="text;strokeColor=none;align=center;fillColor=none;html=1;verticalAlign=middle;whiteSpace=wrap;rounded=0;fontSize=14;fontStyle=0" vertex="1" parent="1">
          <mxGeometry x="394.5" y="60" width="205.5" height="30" as="geometry" />
        </mxCell>
        <mxCell id="0BUKk4QY-ltkbJIT3qkM-36" value="PREDICTED FRUIT INFO" style="text;strokeColor=none;align=center;fillColor=none;html=1;verticalAlign=middle;whiteSpace=wrap;rounded=0;fontSize=12;" vertex="1" parent="1">
          <mxGeometry x="646" y="107" width="328" height="30" as="geometry" />
        </mxCell>
        <mxCell id="0BUKk4QY-ltkbJIT3qkM-37" value="" style="shape=flexArrow;endArrow=classic;html=1;rounded=0;fillColor=#647687;strokeColor=#314354;" edge="1" parent="1">
          <mxGeometry width="50" height="50" relative="1" as="geometry">
            <mxPoint x="290" y="344" as="sourcePoint" />
            <mxPoint x="351" y="344" as="targetPoint" />
          </mxGeometry>
        </mxCell>
        <mxCell id="0BUKk4QY-ltkbJIT3qkM-38" value="" style="shape=flexArrow;endArrow=classic;html=1;rounded=0;fillColor=#647687;strokeColor=#314354;" edge="1" parent="1">
          <mxGeometry width="50" height="50" relative="1" as="geometry">
            <mxPoint x="612" y="343" as="sourcePoint" />
            <mxPoint x="673" y="343" as="targetPoint" />
          </mxGeometry>
        </mxCell>
      </root>
    </mxGraphModel>
  </diagram>
</mxfile>
